G04 Layer: BottomLayer*
G04 EasyEDA v6.5.42, 2024-05-27 16:03:50*
G04 5a823164b2b14e8aa45e0a56d25f44cb,4b06660695a64fe3bf0f4e1e846abbee,10*
G04 Gerber Generator version 0.2*
G04 Scale: 100 percent, Rotated: No, Reflected: No *
G04 Dimensions in millimeters *
G04 leading zeros omitted , absolute positions ,4 integer and 5 decimal *
%FSLAX45Y45*%
%MOMM*%

%AMMACRO1*21,1,$1,$2,0,0,$3*%
%ADD10C,0.3000*%
%ADD11C,0.8000*%
%ADD12MACRO1,1X3.8X-90.0000*%
%ADD13MACRO1,1.5X3.4X-90.0000*%
%ADD14C,2.0000*%
%ADD15O,1.599946X1.5999968*%
%ADD16O,1.9999959999999999X2.999994*%
%ADD17MACRO1,2X2X-90.0000*%
%ADD18R,2.0000X2.0000*%
%ADD19C,1.2000*%
%ADD20C,0.0124*%

%LPD*%
G36*
X2574604.0Y4579016.00000D02*
G01*
X2570337.0Y4578102.00000D01*
X2566883.0Y4575460.00000D01*
X2564800.0Y4571599.00000D01*
X2564546.0Y4567231.00000D01*
X2566172.0Y4563167.00000D01*
X2569321.0Y4560119.00000D01*
X2576027.0Y4556105.00000D01*
X2587965.0Y4546758.00000D01*
X2598734.0Y4535989.00000D01*
X2608082.0Y4524000.00000D01*
X2615956.0Y4511046.00000D01*
X2622204.0Y4497127.00000D01*
X2626725.0Y4482649.00000D01*
X2629468.0Y4467713.00000D01*
X2630383.0Y4452524.00000D01*
X2629468.0Y4437335.00000D01*
X2626725.0Y4422349.00000D01*
X2622204.0Y4407871.00000D01*
X2615956.0Y4394003.00000D01*
X2608082.0Y4380998.00000D01*
X2598734.0Y4369060.00000D01*
X2587965.0Y4358290.00000D01*
X2576027.0Y4348943.00000D01*
X2563022.0Y4341069.00000D01*
X2549154.0Y4334821.00000D01*
X2534625.0Y4330299.00000D01*
X2519690.0Y4327556.00000D01*
X2504500.0Y4326591.00000D01*
X2489311.0Y4327556.00000D01*
X2474376.0Y4330299.00000D01*
X2459847.0Y4334821.00000D01*
X2445979.0Y4341069.00000D01*
X2432974.0Y4348943.00000D01*
X2421036.0Y4358290.00000D01*
X2410266.0Y4369060.00000D01*
X2400919.0Y4380998.00000D01*
X2396855.0Y4387653.00000D01*
X2393858.0Y4390853.00000D01*
X2389794.0Y4392479.00000D01*
X2385425.0Y4392225.00000D01*
X2381564.0Y4390091.00000D01*
X2378923.0Y4386637.00000D01*
X2378008.0Y4382369.00000D01*
X2378008.0Y2677979.00000D01*
X2378872.0Y2673865.00000D01*
X2381361.0Y2670461.00000D01*
X2385019.0Y2668277.00000D01*
X2389235.0Y2667819.00000D01*
X2398735.0Y2671121.00000D01*
X2405085.0Y2671782.00000D01*
X2448163.0Y2671782.00000D01*
X2448163.0Y2602287.00000D01*
X2388168.0Y2602287.00000D01*
X2384257.0Y2601525.00000D01*
X2381006.0Y2599290.00000D01*
X2378770.0Y2595988.00000D01*
X2378008.0Y2592077.00000D01*
X2378008.0Y2499722.00000D01*
X2378770.0Y2495811.00000D01*
X2381006.0Y2492509.00000D01*
X2384257.0Y2490324.00000D01*
X2388168.0Y2489511.00000D01*
X2448163.0Y2489511.00000D01*
X2448163.0Y2431396.00000D01*
X2448925.0Y2427485.00000D01*
X2451160.0Y2424233.00000D01*
X2454462.0Y2422049.00000D01*
X2458323.0Y2421287.00000D01*
X2550728.0Y2421490.00000D01*
X2554589.0Y2422303.00000D01*
X2557891.0Y2424487.00000D01*
X2560076.0Y2427789.00000D01*
X2560838.0Y2431650.00000D01*
X2560838.0Y2489511.00000D01*
X2630434.0Y2489511.00000D01*
X2630434.0Y2446484.00000D01*
X2629672.0Y2440134.00000D01*
X2627944.0Y2435257.00000D01*
X2627386.0Y2431345.00000D01*
X2628300.0Y2427688.00000D01*
X2630535.0Y2424538.00000D01*
X2633786.0Y2422455.00000D01*
X2637596.0Y2421693.00000D01*
X3901043.0Y2424741.00000D01*
X3904904.0Y2425503.00000D01*
X3908206.0Y2427688.00000D01*
X3910390.0Y2430939.00000D01*
X3911203.0Y2434800.00000D01*
X3913692.0Y2737619.00000D01*
X3914505.0Y2744070.00000D01*
X3916690.0Y2749607.00000D01*
X3920246.0Y2754738.00000D01*
X3923141.0Y2757583.00000D01*
X3926850.0Y2760326.00000D01*
X3932387.0Y2762765.00000D01*
X3939753.0Y2763933.00000D01*
X4205691.0Y2763933.00000D01*
X4212193.0Y2763069.00000D01*
X4217730.0Y2761037.00000D01*
X4222861.0Y2757481.00000D01*
X4225909.0Y2754484.00000D01*
X4228551.0Y2750827.00000D01*
X4231040.0Y2745340.00000D01*
X4232208.0Y2737873.00000D01*
X4232208.0Y2440337.00000D01*
X4232970.0Y2436425.00000D01*
X4235206.0Y2433174.00000D01*
X4238457.0Y2430888.00000D01*
X4242368.0Y2430177.00000D01*
X5343508.0Y2430177.00000D01*
X5347369.0Y2430888.00000D01*
X5350620.0Y2433123.00000D01*
X5352856.0Y2436324.00000D01*
X5353668.0Y2440134.00000D01*
X5368807.0Y3615391.00000D01*
X5368045.0Y3619303.00000D01*
X5365860.0Y3622706.00000D01*
X5362558.0Y3624941.00000D01*
X5358647.0Y3625703.00000D01*
X3111052.0Y3625703.00000D01*
X3107395.0Y3625094.00000D01*
X3104245.0Y3623163.00000D01*
X3102010.0Y3620268.00000D01*
X3100943.0Y3616712.00000D01*
X3100283.0Y3610971.00000D01*
X3098403.0Y3605536.00000D01*
X3095304.0Y3600608.00000D01*
X3091190.0Y3596544.00000D01*
X3086313.0Y3593395.00000D01*
X3080877.0Y3591464.00000D01*
X3074527.0Y3590804.00000D01*
X3063707.0Y3590804.00000D01*
X3060100.0Y3590093.00000D01*
X3056950.0Y3588264.00000D01*
X3054715.0Y3585419.00000D01*
X3053598.0Y3581914.00000D01*
X3053801.0Y3578256.00000D01*
X3055376.0Y3571805.00000D01*
X3056188.0Y3561137.00000D01*
X3056188.0Y3193650.00000D01*
X3057103.0Y3189434.00000D01*
X3059694.0Y3186030.00000D01*
X3065180.0Y3181153.00000D01*
X3074324.0Y3170790.00000D01*
X3081842.0Y3159513.00000D01*
X3084636.0Y3156668.00000D01*
X3088294.0Y3155144.00000D01*
X3092307.0Y3155144.00000D01*
X3095965.0Y3156668.00000D01*
X3098759.0Y3159513.00000D01*
X3106277.0Y3170790.00000D01*
X3115421.0Y3181153.00000D01*
X3125835.0Y3190348.00000D01*
X3137367.0Y3198019.00000D01*
X3149762.0Y3204115.00000D01*
X3162919.0Y3208535.00000D01*
X3176483.0Y3211329.00000D01*
X3190300.0Y3212192.00000D01*
X3204118.0Y3211329.00000D01*
X3217682.0Y3208535.00000D01*
X3230839.0Y3204115.00000D01*
X3243234.0Y3198019.00000D01*
X3254766.0Y3190348.00000D01*
X3265180.0Y3181153.00000D01*
X3274324.0Y3170790.00000D01*
X3281842.0Y3159513.00000D01*
X3284636.0Y3156668.00000D01*
X3288294.0Y3155144.00000D01*
X3292307.0Y3155144.00000D01*
X3295964.0Y3156668.00000D01*
X3298758.0Y3159513.00000D01*
X3306277.0Y3170790.00000D01*
X3315421.0Y3181153.00000D01*
X3325835.0Y3190348.00000D01*
X3337366.0Y3198019.00000D01*
X3349762.0Y3204115.00000D01*
X3362919.0Y3208535.00000D01*
X3376482.0Y3211329.00000D01*
X3390300.0Y3212192.00000D01*
X3404118.0Y3211329.00000D01*
X3417681.0Y3208535.00000D01*
X3430838.0Y3204115.00000D01*
X3443234.0Y3198019.00000D01*
X3454765.0Y3190348.00000D01*
X3465687.0Y3180696.00000D01*
X3469345.0Y3178715.00000D01*
X3471885.0Y3178461.00000D01*
X3472342.0Y3174143.00000D01*
X3474323.0Y3170790.00000D01*
X3481994.0Y3159208.00000D01*
X3488141.0Y3146863.00000D01*
X3492561.0Y3133757.00000D01*
X3495253.0Y3120092.00000D01*
X3496167.0Y3106325.00000D01*
X3495253.0Y3092507.00000D01*
X3492561.0Y3078893.00000D01*
X3488141.0Y3065787.00000D01*
X3481994.0Y3053391.00000D01*
X3474272.0Y3041809.00000D01*
X3472342.0Y3038507.00000D01*
X3471885.0Y3034138.00000D01*
X3469345.0Y3033935.00000D01*
X3465687.0Y3031903.00000D01*
X3454765.0Y3022302.00000D01*
X3443234.0Y3014580.00000D01*
X3430838.0Y3008484.00000D01*
X3417681.0Y3004065.00000D01*
X3404118.0Y3001321.00000D01*
X3390300.0Y3000407.00000D01*
X3376482.0Y3001321.00000D01*
X3362919.0Y3004065.00000D01*
X3349762.0Y3008484.00000D01*
X3337366.0Y3014580.00000D01*
X3325835.0Y3022302.00000D01*
X3315421.0Y3031446.00000D01*
X3306277.0Y3041860.00000D01*
X3298758.0Y3053137.00000D01*
X3295964.0Y3055982.00000D01*
X3292307.0Y3057506.00000D01*
X3288294.0Y3057506.00000D01*
X3284636.0Y3055982.00000D01*
X3281842.0Y3053137.00000D01*
X3274324.0Y3041860.00000D01*
X3265180.0Y3031446.00000D01*
X3254766.0Y3022302.00000D01*
X3243234.0Y3014580.00000D01*
X3230839.0Y3008484.00000D01*
X3217682.0Y3004065.00000D01*
X3204118.0Y3001321.00000D01*
X3190300.0Y3000407.00000D01*
X3176483.0Y3001321.00000D01*
X3162919.0Y3004065.00000D01*
X3149762.0Y3008484.00000D01*
X3137367.0Y3014580.00000D01*
X3125835.0Y3022302.00000D01*
X3115421.0Y3031446.00000D01*
X3106277.0Y3041860.00000D01*
X3098759.0Y3053137.00000D01*
X3095965.0Y3055982.00000D01*
X3092307.0Y3057506.00000D01*
X3088294.0Y3057506.00000D01*
X3084636.0Y3055982.00000D01*
X3081842.0Y3053137.00000D01*
X3074324.0Y3041860.00000D01*
X3065180.0Y3031446.00000D01*
X3054766.0Y3022302.00000D01*
X3043234.0Y3014580.00000D01*
X3030839.0Y3008484.00000D01*
X3017682.0Y3004065.00000D01*
X3004118.0Y3001321.00000D01*
X2990301.0Y3000407.00000D01*
X2976483.0Y3001321.00000D01*
X2962920.0Y3004065.00000D01*
X2949762.0Y3008484.00000D01*
X2937367.0Y3014580.00000D01*
X2925836.0Y3022302.00000D01*
X2914914.0Y3031903.00000D01*
X2911256.0Y3033935.00000D01*
X2908716.0Y3034138.00000D01*
X2908259.0Y3038507.00000D01*
X2906278.0Y3041860.00000D01*
X2898607.0Y3053391.00000D01*
X2892460.0Y3065787.00000D01*
X2888040.0Y3078893.00000D01*
X2885348.0Y3092507.00000D01*
X2884434.0Y3106325.00000D01*
X2885348.0Y3120092.00000D01*
X2888040.0Y3133757.00000D01*
X2892460.0Y3146863.00000D01*
X2898607.0Y3159208.00000D01*
X2906328.0Y3170841.00000D01*
X2908259.0Y3174143.00000D01*
X2908716.0Y3178461.00000D01*
X2911256.0Y3178715.00000D01*
X2914914.0Y3180696.00000D01*
X2920908.0Y3186030.00000D01*
X2923499.0Y3189434.00000D01*
X2924413.0Y3193650.00000D01*
X2924413.0Y3529945.00000D01*
X2923600.0Y3533857.00000D01*
X2921416.0Y3537210.00000D01*
X2870768.0Y3587857.00000D01*
X2867466.0Y3589991.00000D01*
X2863606.0Y3590804.00000D01*
X2695661.0Y3590804.00000D01*
X2689362.0Y3591464.00000D01*
X2683875.0Y3593395.00000D01*
X2678998.0Y3596544.00000D01*
X2674884.0Y3600608.00000D01*
X2671836.0Y3605536.00000D01*
X2669905.0Y3610971.00000D01*
X2669194.0Y3617271.00000D01*
X2669194.0Y3716178.00000D01*
X2669905.0Y3722427.00000D01*
X2671836.0Y3727913.00000D01*
X2674884.0Y3732841.00000D01*
X2678998.0Y3736905.00000D01*
X2683875.0Y3739953.00000D01*
X2689362.0Y3741883.00000D01*
X2695661.0Y3742645.00000D01*
X3074527.0Y3742645.00000D01*
X3080877.0Y3741883.00000D01*
X3086313.0Y3739953.00000D01*
X3091190.0Y3736905.00000D01*
X3095304.0Y3732841.00000D01*
X3098403.0Y3727913.00000D01*
X3100283.0Y3722427.00000D01*
X3100943.0Y3716534.00000D01*
X3102010.0Y3713029.00000D01*
X3104296.0Y3710133.00000D01*
X3107446.0Y3708203.00000D01*
X3111052.0Y3707542.00000D01*
X5359967.0Y3707542.00000D01*
X5363828.0Y3708253.00000D01*
X5367080.0Y3710489.00000D01*
X5369315.0Y3713740.00000D01*
X5370128.0Y3717550.00000D01*
X5381050.0Y4568704.00000D01*
X5380338.0Y4572666.00000D01*
X5378154.0Y4576019.00000D01*
X5374852.0Y4578203.00000D01*
X5370890.0Y4579016.00000D01*
X4267768.0Y4579016.00000D01*
X4263857.0Y4578203.00000D01*
X4260606.0Y4576019.00000D01*
X4258370.0Y4572768.00000D01*
X4257608.0Y4568856.00000D01*
X4257608.0Y4275283.00000D01*
X4256796.0Y4268831.00000D01*
X4254713.0Y4263294.00000D01*
X4251157.0Y4258163.00000D01*
X4248160.0Y4255115.00000D01*
X4244553.0Y4252423.00000D01*
X4239016.0Y4249934.00000D01*
X4231548.0Y4248816.00000D01*
X3965610.0Y4248816.00000D01*
X3959108.0Y4249629.00000D01*
X3953570.0Y4251712.00000D01*
X3948440.0Y4255268.00000D01*
X3945392.0Y4258214.00000D01*
X3942750.0Y4261872.00000D01*
X3940261.0Y4267409.00000D01*
X3939092.0Y4274826.00000D01*
X3939092.0Y4568856.00000D01*
X3938330.0Y4572768.00000D01*
X3936095.0Y4576019.00000D01*
X3932844.0Y4578203.00000D01*
X3928932.0Y4579016.00000D01*
G37*

%LPC*%
G36*
X5182473.0Y4477873.00000D02*
G01*
X5192532.0Y4472387.00000D01*
X5202336.0Y4465021.00000D01*
X5211023.0Y4456385.00000D01*
X5218338.0Y4446581.00000D01*
X5223875.0Y4436471.00000D01*
X5182473.0Y4436471.00000D01*
G37*
G36*
X5109728.0Y4477873.00000D02*
G01*
X5109728.0Y4436471.00000D01*
X5068326.0Y4436471.00000D01*
X5073863.0Y4446581.00000D01*
X5081178.0Y4456385.00000D01*
X5089865.0Y4465021.00000D01*
X5099669.0Y4472387.00000D01*
G37*
G36*
X5068326.0Y4363726.00000D02*
G01*
X5109728.0Y4363726.00000D01*
X5109728.0Y4322375.00000D01*
X5099669.0Y4327861.00000D01*
X5089865.0Y4335227.00000D01*
X5081178.0Y4343863.00000D01*
X5073863.0Y4353718.00000D01*
G37*
G36*
X5182473.0Y4363726.00000D02*
G01*
X5223875.0Y4363726.00000D01*
X5218338.0Y4353718.00000D01*
X5211023.0Y4343863.00000D01*
X5202336.0Y4335227.00000D01*
X5192532.0Y4327861.00000D01*
X5182473.0Y4322375.00000D01*
G37*
G36*
X3561445.0Y4202588.00000D02*
G01*
X3639525.0Y4202588.00000D01*
X3645875.0Y4201928.00000D01*
X3651311.0Y4199997.00000D01*
X3656187.0Y4196949.00000D01*
X3660302.0Y4192784.00000D01*
X3663401.0Y4187907.00000D01*
X3665280.0Y4182471.00000D01*
X3665992.0Y4176121.00000D01*
X3665992.0Y4145591.00000D01*
X3561445.0Y4145591.00000D01*
G37*
G36*
X3300689.0Y4202588.00000D02*
G01*
X3378768.0Y4202588.00000D01*
X3378768.0Y4145591.00000D01*
X3274171.0Y4145591.00000D01*
X3274171.0Y4176121.00000D01*
X3274882.0Y4182471.00000D01*
X3276813.0Y4187907.00000D01*
X3279912.0Y4192784.00000D01*
X3283976.0Y4196949.00000D01*
X3288903.0Y4199997.00000D01*
X3294339.0Y4201928.00000D01*
G37*
G36*
X3274171.0Y4057859.00000D02*
G01*
X3378768.0Y4057859.00000D01*
X3378768.0Y4000760.00000D01*
X3300689.0Y4000760.00000D01*
X3294339.0Y4001522.00000D01*
X3288903.0Y4003452.00000D01*
X3283976.0Y4006500.00000D01*
X3279912.0Y4010564.00000D01*
X3276813.0Y4015441.00000D01*
X3274882.0Y4020978.00000D01*
X3274171.0Y4027227.00000D01*
G37*
G36*
X3561445.0Y4057859.00000D02*
G01*
X3665992.0Y4057859.00000D01*
X3665992.0Y4027227.00000D01*
X3665280.0Y4020978.00000D01*
X3663401.0Y4015441.00000D01*
X3660302.0Y4010564.00000D01*
X3656187.0Y4006500.00000D01*
X3651311.0Y4003452.00000D01*
X3645875.0Y4001522.00000D01*
X3639525.0Y4000760.00000D01*
X3561445.0Y4000760.00000D01*
G37*
G36*
X2986440.0Y3942645.00000D02*
G01*
X3074527.0Y3942645.00000D01*
X3080877.0Y3941933.00000D01*
X3086313.0Y3940003.00000D01*
X3091190.0Y3936853.00000D01*
X3095304.0Y3932840.00000D01*
X3098403.0Y3927913.00000D01*
X3100283.0Y3922477.00000D01*
X3100994.0Y3916178.00000D01*
X3100994.0Y3898093.00000D01*
X2986440.0Y3898093.00000D01*
G37*
G36*
X2695661.0Y3942645.00000D02*
G01*
X2783748.0Y3942645.00000D01*
X2783748.0Y3898093.00000D01*
X2669194.0Y3898093.00000D01*
X2669194.0Y3916178.00000D01*
X2669905.0Y3922477.00000D01*
X2671836.0Y3927913.00000D01*
X2674884.0Y3932840.00000D01*
X2678998.0Y3936853.00000D01*
X2683875.0Y3940003.00000D01*
X2689362.0Y3941933.00000D01*
G37*
G36*
X2669194.0Y3835355.00000D02*
G01*
X2783748.0Y3835355.00000D01*
X2783748.0Y3790753.00000D01*
X2695661.0Y3790753.00000D01*
X2689362.0Y3791515.00000D01*
X2683875.0Y3793445.00000D01*
X2678998.0Y3796544.00000D01*
X2674884.0Y3800557.00000D01*
X2671836.0Y3805485.00000D01*
X2669905.0Y3810971.00000D01*
X2669194.0Y3817219.00000D01*
G37*
G36*
X2986440.0Y3835355.00000D02*
G01*
X3100994.0Y3835355.00000D01*
X3100994.0Y3817219.00000D01*
X3100283.0Y3810971.00000D01*
X3098403.0Y3805485.00000D01*
X3095304.0Y3800557.00000D01*
X3091190.0Y3796544.00000D01*
X3086313.0Y3793445.00000D01*
X3080877.0Y3791515.00000D01*
X3074527.0Y3790753.00000D01*
X2986440.0Y3790753.00000D01*
G37*
G36*
X3561445.0Y3532638.00000D02*
G01*
X3639525.0Y3532638.00000D01*
X3645875.0Y3531876.00000D01*
X3651311.0Y3529945.00000D01*
X3656187.0Y3526948.00000D01*
X3660302.0Y3522833.00000D01*
X3663401.0Y3517957.00000D01*
X3665280.0Y3512419.00000D01*
X3665992.0Y3506171.00000D01*
X3665992.0Y3475589.00000D01*
X3561445.0Y3475589.00000D01*
G37*
G36*
X3300689.0Y3532638.00000D02*
G01*
X3378768.0Y3532638.00000D01*
X3378768.0Y3475589.00000D01*
X3274171.0Y3475589.00000D01*
X3274171.0Y3506171.00000D01*
X3274882.0Y3512419.00000D01*
X3276813.0Y3517957.00000D01*
X3279912.0Y3522833.00000D01*
X3283976.0Y3526948.00000D01*
X3288903.0Y3529945.00000D01*
X3294339.0Y3531876.00000D01*
G37*
G36*
X3561445.0Y3387807.00000D02*
G01*
X3665992.0Y3387807.00000D01*
X3665992.0Y3357276.00000D01*
X3665280.0Y3350977.00000D01*
X3663401.0Y3345491.00000D01*
X3660302.0Y3340614.00000D01*
X3656187.0Y3336448.00000D01*
X3651311.0Y3333451.00000D01*
X3645875.0Y3331521.00000D01*
X3639525.0Y3330809.00000D01*
X3561445.0Y3330809.00000D01*
G37*
G36*
X3274171.0Y3387807.00000D02*
G01*
X3378768.0Y3387807.00000D01*
X3378768.0Y3330809.00000D01*
X3300689.0Y3330809.00000D01*
X3294339.0Y3331521.00000D01*
X3288903.0Y3333451.00000D01*
X3283976.0Y3336448.00000D01*
X3279912.0Y3340614.00000D01*
X3276813.0Y3345491.00000D01*
X3274882.0Y3350977.00000D01*
X3274171.0Y3357276.00000D01*
G37*
G36*
X3548948.0Y3268783.00000D02*
G01*
X3548948.0Y3187656.00000D01*
X3483467.0Y3187656.00000D01*
X3487582.0Y3200966.00000D01*
X3493830.0Y3214834.00000D01*
X3501704.0Y3227839.00000D01*
X3511102.0Y3239776.00000D01*
X3521821.0Y3250495.00000D01*
X3533810.0Y3259893.00000D01*
X3546815.0Y3267817.00000D01*
G37*
G36*
X3661674.0Y3268783.00000D02*
G01*
X3663807.0Y3267817.00000D01*
X3676812.0Y3259893.00000D01*
X3688801.0Y3250495.00000D01*
X3699520.0Y3239776.00000D01*
X3708918.0Y3227839.00000D01*
X3716792.0Y3214834.00000D01*
X3723040.0Y3200966.00000D01*
X3727155.0Y3187656.00000D01*
X3661674.0Y3187656.00000D01*
G37*
G36*
X2831652.0Y3268783.00000D02*
G01*
X2833786.0Y3267817.00000D01*
X2846791.0Y3259893.00000D01*
X2858780.0Y3250495.00000D01*
X2869498.0Y3239776.00000D01*
X2878896.0Y3227839.00000D01*
X2886770.0Y3214834.00000D01*
X2893019.0Y3200966.00000D01*
X2897134.0Y3187656.00000D01*
X2831652.0Y3187656.00000D01*
G37*
G36*
X2718927.0Y3268783.00000D02*
G01*
X2718927.0Y3187656.00000D01*
X2653446.0Y3187656.00000D01*
X2657561.0Y3200966.00000D01*
X2663809.0Y3214834.00000D01*
X2671683.0Y3227839.00000D01*
X2681081.0Y3239776.00000D01*
X2691800.0Y3250495.00000D01*
X2703789.0Y3259893.00000D01*
X2716794.0Y3267817.00000D01*
G37*
G36*
X3483467.0Y3024943.00000D02*
G01*
X3548948.0Y3024943.00000D01*
X3548948.0Y2943816.00000D01*
X3546815.0Y2944781.00000D01*
X3533810.0Y2952706.00000D01*
X3521821.0Y2962104.00000D01*
X3511102.0Y2972823.00000D01*
X3501704.0Y2984761.00000D01*
X3493830.0Y2997816.00000D01*
X3487582.0Y3011634.00000D01*
G37*
G36*
X2831652.0Y3024943.00000D02*
G01*
X2897134.0Y3024943.00000D01*
X2893019.0Y3011634.00000D01*
X2886770.0Y2997816.00000D01*
X2878896.0Y2984761.00000D01*
X2869498.0Y2972823.00000D01*
X2858780.0Y2962104.00000D01*
X2846791.0Y2952706.00000D01*
X2833786.0Y2944781.00000D01*
X2831652.0Y2943816.00000D01*
G37*
G36*
X2653446.0Y3024943.00000D02*
G01*
X2718927.0Y3024943.00000D01*
X2718927.0Y2943816.00000D01*
X2716794.0Y2944781.00000D01*
X2703789.0Y2952706.00000D01*
X2691800.0Y2962104.00000D01*
X2681081.0Y2972823.00000D01*
X2671683.0Y2984761.00000D01*
X2663809.0Y2997816.00000D01*
X2657561.0Y3011634.00000D01*
G37*
G36*
X3661674.0Y3024943.00000D02*
G01*
X3727155.0Y3024943.00000D01*
X3723040.0Y3011634.00000D01*
X3716792.0Y2997816.00000D01*
X3708918.0Y2984761.00000D01*
X3699520.0Y2972823.00000D01*
X3688801.0Y2962104.00000D01*
X3676812.0Y2952706.00000D01*
X3663807.0Y2944781.00000D01*
X3661674.0Y2943816.00000D01*
G37*
G36*
X3609400.0Y2796902.00000D02*
G01*
X3621643.0Y2796039.00000D01*
X3633581.0Y2793397.00000D01*
X3645062.0Y2789130.00000D01*
X3655832.0Y2783288.00000D01*
X3665636.0Y2775922.00000D01*
X3674323.0Y2767286.00000D01*
X3681638.0Y2757481.00000D01*
X3687531.0Y2746712.00000D01*
X3691798.0Y2735180.00000D01*
X3694389.0Y2723242.00000D01*
X3695303.0Y2711050.00000D01*
X3694389.0Y2698807.00000D01*
X3691798.0Y2686819.00000D01*
X3687531.0Y2675338.00000D01*
X3681638.0Y2664619.00000D01*
X3674323.0Y2654764.00000D01*
X3665636.0Y2646128.00000D01*
X3655832.0Y2638762.00000D01*
X3645062.0Y2632920.00000D01*
X3633581.0Y2628602.00000D01*
X3621643.0Y2626011.00000D01*
X3609400.0Y2625147.00000D01*
X3597158.0Y2626011.00000D01*
X3585220.0Y2628602.00000D01*
X3573739.0Y2632920.00000D01*
X3562969.0Y2638762.00000D01*
X3553165.0Y2646128.00000D01*
X3544478.0Y2654764.00000D01*
X3537163.0Y2664619.00000D01*
X3531270.0Y2675338.00000D01*
X3527003.0Y2686819.00000D01*
X3524412.0Y2698807.00000D01*
X3523498.0Y2711050.00000D01*
X3524412.0Y2723242.00000D01*
X3527003.0Y2735180.00000D01*
X3531270.0Y2746712.00000D01*
X3537163.0Y2757481.00000D01*
X3544478.0Y2767286.00000D01*
X3553165.0Y2775922.00000D01*
X3562969.0Y2783288.00000D01*
X3573739.0Y2789130.00000D01*
X3585220.0Y2793397.00000D01*
X3597158.0Y2796039.00000D01*
G37*
G36*
X2560838.0Y2671782.00000D02*
G01*
X2603916.0Y2671782.00000D01*
X2610266.0Y2671121.00000D01*
X2615702.0Y2669191.00000D01*
X2620629.0Y2666143.00000D01*
X2624693.0Y2661977.00000D01*
X2627792.0Y2657101.00000D01*
X2629672.0Y2651665.00000D01*
X2630434.0Y2645315.00000D01*
X2630434.0Y2602287.00000D01*
X2560838.0Y2602287.00000D01*
G37*
G36*
X4560173.0Y2636374.00000D02*
G01*
X4570232.0Y2630888.00000D01*
X4580036.0Y2623522.00000D01*
X4588723.0Y2614886.00000D01*
X4596038.0Y2605081.00000D01*
X4601575.0Y2594972.00000D01*
X4560173.0Y2594972.00000D01*
G37*
G36*
X4487428.0Y2636374.00000D02*
G01*
X4487428.0Y2594972.00000D01*
X4446026.0Y2594972.00000D01*
X4451563.0Y2605081.00000D01*
X4458878.0Y2614886.00000D01*
X4467565.0Y2623522.00000D01*
X4477369.0Y2630888.00000D01*
G37*
G36*
X4446026.0Y2522227.00000D02*
G01*
X4487428.0Y2522227.00000D01*
X4487428.0Y2480875.00000D01*
X4477369.0Y2486362.00000D01*
X4467565.0Y2493728.00000D01*
X4458878.0Y2502364.00000D01*
X4451563.0Y2512219.00000D01*
G37*
G36*
X4560173.0Y2522227.00000D02*
G01*
X4601575.0Y2522227.00000D01*
X4596038.0Y2512219.00000D01*
X4588723.0Y2502364.00000D01*
X4580036.0Y2493728.00000D01*
X4570232.0Y2486362.00000D01*
X4560173.0Y2480875.00000D01*
G37*

%LPD*%
G36*
X2388168.0Y4579016.00000D02*
G01*
X2384257.0Y4578203.00000D01*
X2381006.0Y4576019.00000D01*
X2378770.0Y4572768.00000D01*
X2378008.0Y4568856.00000D01*
X2378008.0Y4522628.00000D01*
X2378923.0Y4518361.00000D01*
X2381564.0Y4514907.00000D01*
X2385425.0Y4512773.00000D01*
X2389794.0Y4512570.00000D01*
X2393858.0Y4514145.00000D01*
X2396855.0Y4517345.00000D01*
X2400919.0Y4524000.00000D01*
X2410266.0Y4535989.00000D01*
X2421036.0Y4546758.00000D01*
X2432974.0Y4556105.00000D01*
X2439680.0Y4560119.00000D01*
X2442829.0Y4563167.00000D01*
X2444455.0Y4567231.00000D01*
X2444201.0Y4571599.00000D01*
X2442118.0Y4575460.00000D01*
X2438664.0Y4578102.00000D01*
X2434396.0Y4579016.00000D01*
G37*

%LPD*%
G36*
X5417118.0Y4579016.00000D02*
G01*
X5413308.0Y4578203.00000D01*
X5410006.0Y4576070.00000D01*
X5407770.0Y4572768.00000D01*
X5406958.0Y4568958.00000D01*
X5396036.0Y3717855.00000D01*
X5396747.0Y3713943.00000D01*
X5398931.0Y3710590.00000D01*
X5402284.0Y3708355.00000D01*
X5406196.0Y3707542.00000D01*
X5421689.0Y3707542.00000D01*
X5430173.0Y3706729.00000D01*
X5437844.0Y3704342.00000D01*
X5444905.0Y3700633.00000D01*
X5451458.0Y3695249.00000D01*
X6010970.0Y3135992.00000D01*
X6014272.0Y3133757.00000D01*
X6018132.0Y3132995.00000D01*
X6563470.0Y3132995.00000D01*
X6566976.0Y3133655.00000D01*
X6570125.0Y3135484.00000D01*
X6579777.0Y3148286.00000D01*
X6588464.0Y3156922.00000D01*
X6598522.0Y3164389.00000D01*
X6601316.0Y3166675.00000D01*
X6603145.0Y3169774.00000D01*
X6603806.0Y3173330.00000D01*
X6603806.0Y4036015.00000D01*
X6603044.0Y4039927.00000D01*
X6600808.0Y4043279.00000D01*
X6571497.0Y4072540.00000D01*
X6568754.0Y4074521.00000D01*
X6565553.0Y4075486.00000D01*
X6562150.0Y4075283.00000D01*
X6555342.0Y4073810.00000D01*
X6543100.0Y4072947.00000D01*
X6530857.0Y4073810.00000D01*
X6518919.0Y4076401.00000D01*
X6507438.0Y4080719.00000D01*
X6496668.0Y4086561.00000D01*
X6486864.0Y4093927.00000D01*
X6478177.0Y4102563.00000D01*
X6470862.0Y4112418.00000D01*
X6464969.0Y4123137.00000D01*
X6460702.0Y4134618.00000D01*
X6458111.0Y4146607.00000D01*
X6457197.0Y4158849.00000D01*
X6458111.0Y4171041.00000D01*
X6460702.0Y4182979.00000D01*
X6464969.0Y4194511.00000D01*
X6470862.0Y4205281.00000D01*
X6478177.0Y4215085.00000D01*
X6486864.0Y4223721.00000D01*
X6496668.0Y4231087.00000D01*
X6507438.0Y4236929.00000D01*
X6518919.0Y4241196.00000D01*
X6530857.0Y4243838.00000D01*
X6543100.0Y4244701.00000D01*
X6555342.0Y4243838.00000D01*
X6567280.0Y4241196.00000D01*
X6578761.0Y4236929.00000D01*
X6589531.0Y4231087.00000D01*
X6599335.0Y4223721.00000D01*
X6608022.0Y4215085.00000D01*
X6615337.0Y4205281.00000D01*
X6621230.0Y4194511.00000D01*
X6625497.0Y4182979.00000D01*
X6628088.0Y4171041.00000D01*
X6629002.0Y4158849.00000D01*
X6628088.0Y4146607.00000D01*
X6626615.0Y4139749.00000D01*
X6626462.0Y4136396.00000D01*
X6627428.0Y4133145.00000D01*
X6629358.0Y4130401.00000D01*
X6673249.0Y4086510.00000D01*
X6678685.0Y4079906.00000D01*
X6682444.0Y4072845.00000D01*
X6684781.0Y4065174.00000D01*
X6685594.0Y4056741.00000D01*
X6685594.0Y3173330.00000D01*
X6686254.0Y3169774.00000D01*
X6688083.0Y3166675.00000D01*
X6700935.0Y3156922.00000D01*
X6709622.0Y3148286.00000D01*
X6716937.0Y3138481.00000D01*
X6722830.0Y3127712.00000D01*
X6727097.0Y3116180.00000D01*
X6729688.0Y3104242.00000D01*
X6730602.0Y3092050.00000D01*
X6729688.0Y3079807.00000D01*
X6727097.0Y3067819.00000D01*
X6722830.0Y3056338.00000D01*
X6716937.0Y3045619.00000D01*
X6709622.0Y3035764.00000D01*
X6700935.0Y3027128.00000D01*
X6691131.0Y3019762.00000D01*
X6680361.0Y3013920.00000D01*
X6668880.0Y3009602.00000D01*
X6656942.0Y3007011.00000D01*
X6644700.0Y3006147.00000D01*
X6632457.0Y3007011.00000D01*
X6620519.0Y3009602.00000D01*
X6609038.0Y3013920.00000D01*
X6598268.0Y3019762.00000D01*
X6588464.0Y3027128.00000D01*
X6579777.0Y3035764.00000D01*
X6570024.0Y3048718.00000D01*
X6566925.0Y3050547.00000D01*
X6563369.0Y3051207.00000D01*
X5997508.0Y3051207.00000D01*
X5989024.0Y3052020.00000D01*
X5981353.0Y3054357.00000D01*
X5974292.0Y3058065.00000D01*
X5967739.0Y3063450.00000D01*
X5411987.0Y3618998.00000D01*
X5408735.0Y3621182.00000D01*
X5404875.0Y3621995.00000D01*
X5401014.0Y3621233.00000D01*
X5397712.0Y3619049.00000D01*
X5395477.0Y3615797.00000D01*
X5394664.0Y3611937.00000D01*
X5379576.0Y2440489.00000D01*
X5380288.0Y2436527.00000D01*
X5382523.0Y2433174.00000D01*
X5385825.0Y2430888.00000D01*
X5389736.0Y2430177.00000D01*
X5973632.0Y2430177.00000D01*
X5977543.0Y2430888.00000D01*
X5980794.0Y2433174.00000D01*
X5983030.0Y2436425.00000D01*
X5983792.0Y2440337.00000D01*
X5983792.0Y2635815.00000D01*
X5984604.0Y2642318.00000D01*
X5986687.0Y2647804.00000D01*
X5990243.0Y2652986.00000D01*
X5993240.0Y2656034.00000D01*
X5996847.0Y2658675.00000D01*
X6002384.0Y2661165.00000D01*
X6009852.0Y2662333.00000D01*
X6313890.0Y2662333.00000D01*
X6320392.0Y2661469.00000D01*
X6325930.0Y2659437.00000D01*
X6331060.0Y2655881.00000D01*
X6334108.0Y2652884.00000D01*
X6336750.0Y2649227.00000D01*
X6339239.0Y2643740.00000D01*
X6340408.0Y2636273.00000D01*
X6340408.0Y2443893.00000D01*
X6341169.0Y2439981.00000D01*
X6343405.0Y2436730.00000D01*
X6346656.0Y2434495.00000D01*
X6350568.0Y2433733.00000D01*
X7362757.0Y2433733.00000D01*
X7366568.0Y2434393.00000D01*
X7369819.0Y2436527.00000D01*
X7372054.0Y2439677.00000D01*
X7372918.0Y2443436.00000D01*
X7372359.0Y2447246.00000D01*
X7370428.0Y2452834.00000D01*
X7369717.0Y2459184.00000D01*
X7369717.0Y2502211.00000D01*
X7439262.0Y2502211.00000D01*
X7439262.0Y2443893.00000D01*
X7440024.0Y2439981.00000D01*
X7442209.0Y2436730.00000D01*
X7445511.0Y2434495.00000D01*
X7449422.0Y2433733.00000D01*
X7541777.0Y2433733.00000D01*
X7545688.0Y2434495.00000D01*
X7548990.0Y2436730.00000D01*
X7551175.0Y2439981.00000D01*
X7551937.0Y2443893.00000D01*
X7551937.0Y2502211.00000D01*
X7611932.0Y2502211.00000D01*
X7615843.0Y2503024.00000D01*
X7619094.0Y2505209.00000D01*
X7621330.0Y2508511.00000D01*
X7622092.0Y2512422.00000D01*
X7622092.0Y2604777.00000D01*
X7621330.0Y2608688.00000D01*
X7619094.0Y2611990.00000D01*
X7615843.0Y2614225.00000D01*
X7611932.0Y2614987.00000D01*
X7551937.0Y2614987.00000D01*
X7551937.0Y2684482.00000D01*
X7595015.0Y2684482.00000D01*
X7601365.0Y2683821.00000D01*
X7610865.0Y2680519.00000D01*
X7615081.0Y2680977.00000D01*
X7618739.0Y2683161.00000D01*
X7621228.0Y2686565.00000D01*
X7622092.0Y2690679.00000D01*
X7622092.0Y4380795.00000D01*
X7621177.0Y4385113.00000D01*
X7618536.0Y4388567.00000D01*
X7614675.0Y4390548.00000D01*
X7610306.0Y4390853.00000D01*
X7606242.0Y4389177.00000D01*
X7603245.0Y4386078.00000D01*
X7599181.0Y4379372.00000D01*
X7589834.0Y4367434.00000D01*
X7579064.0Y4356715.00000D01*
X7567126.0Y4347317.00000D01*
X7554121.0Y4339393.00000D01*
X7540253.0Y4333195.00000D01*
X7525724.0Y4328623.00000D01*
X7510789.0Y4325931.00000D01*
X7495600.0Y4325016.00000D01*
X7480410.0Y4325931.00000D01*
X7465475.0Y4328623.00000D01*
X7450946.0Y4333195.00000D01*
X7437078.0Y4339393.00000D01*
X7424073.0Y4347317.00000D01*
X7412135.0Y4356715.00000D01*
X7401366.0Y4367434.00000D01*
X7392018.0Y4379372.00000D01*
X7384144.0Y4392428.00000D01*
X7377896.0Y4406245.00000D01*
X7373375.0Y4420774.00000D01*
X7370632.0Y4435760.00000D01*
X7369717.0Y4450949.00000D01*
X7370632.0Y4466088.00000D01*
X7373375.0Y4481023.00000D01*
X7377896.0Y4495552.00000D01*
X7384144.0Y4509369.00000D01*
X7392018.0Y4522425.00000D01*
X7401366.0Y4534414.00000D01*
X7412135.0Y4545133.00000D01*
X7424073.0Y4554531.00000D01*
X7433420.0Y4560119.00000D01*
X7436570.0Y4563167.00000D01*
X7438196.0Y4567231.00000D01*
X7437942.0Y4571599.00000D01*
X7435910.0Y4575460.00000D01*
X7432404.0Y4578102.00000D01*
X7428137.0Y4579016.00000D01*
X6350568.0Y4579016.00000D01*
X6346656.0Y4578203.00000D01*
X6343405.0Y4576019.00000D01*
X6341169.0Y4572768.00000D01*
X6340408.0Y4568856.00000D01*
X6340408.0Y4402283.00000D01*
X6339595.0Y4395831.00000D01*
X6337512.0Y4390294.00000D01*
X6333956.0Y4385163.00000D01*
X6330959.0Y4382115.00000D01*
X6327352.0Y4379423.00000D01*
X6321815.0Y4376934.00000D01*
X6314347.0Y4375816.00000D01*
X5997609.0Y4375816.00000D01*
X5991107.0Y4376629.00000D01*
X5985570.0Y4378712.00000D01*
X5980439.0Y4382268.00000D01*
X5977391.0Y4385214.00000D01*
X5974749.0Y4388872.00000D01*
X5972260.0Y4394409.00000D01*
X5971092.0Y4401826.00000D01*
X5971092.0Y4568856.00000D01*
X5970330.0Y4572768.00000D01*
X5968094.0Y4576019.00000D01*
X5964843.0Y4578203.00000D01*
X5960932.0Y4579016.00000D01*
G37*

%LPC*%
G36*
X5793800.0Y3050902.00000D02*
G01*
X5806042.0Y3050039.00000D01*
X5817980.0Y3047397.00000D01*
X5829461.0Y3043130.00000D01*
X5840231.0Y3037288.00000D01*
X5850035.0Y3029922.00000D01*
X5858722.0Y3021286.00000D01*
X5866037.0Y3011482.00000D01*
X5871930.0Y3000712.00000D01*
X5876197.0Y2989180.00000D01*
X5878788.0Y2977242.00000D01*
X5879702.0Y2965050.00000D01*
X5878839.0Y2953315.00000D01*
X5879398.0Y2949150.00000D01*
X5881531.0Y2945645.00000D01*
X5884935.0Y2943257.00000D01*
X5888999.0Y2942393.00000D01*
X6334819.0Y2942393.00000D01*
X6338376.0Y2943054.00000D01*
X6341474.0Y2944933.00000D01*
X6351177.0Y2957786.00000D01*
X6359864.0Y2966422.00000D01*
X6369668.0Y2973788.00000D01*
X6380438.0Y2979630.00000D01*
X6391919.0Y2983897.00000D01*
X6403857.0Y2986539.00000D01*
X6416100.0Y2987402.00000D01*
X6428342.0Y2986539.00000D01*
X6440280.0Y2983897.00000D01*
X6451761.0Y2979630.00000D01*
X6462531.0Y2973788.00000D01*
X6472335.0Y2966422.00000D01*
X6481022.0Y2957786.00000D01*
X6488337.0Y2947981.00000D01*
X6494230.0Y2937212.00000D01*
X6498497.0Y2925680.00000D01*
X6501088.0Y2913742.00000D01*
X6502002.0Y2901550.00000D01*
X6501088.0Y2889307.00000D01*
X6498497.0Y2877319.00000D01*
X6494230.0Y2865838.00000D01*
X6488337.0Y2855119.00000D01*
X6481022.0Y2845264.00000D01*
X6472335.0Y2836628.00000D01*
X6462531.0Y2829262.00000D01*
X6451761.0Y2823420.00000D01*
X6440280.0Y2819102.00000D01*
X6428342.0Y2816511.00000D01*
X6416100.0Y2815648.00000D01*
X6403857.0Y2816511.00000D01*
X6391919.0Y2819102.00000D01*
X6380438.0Y2823420.00000D01*
X6369668.0Y2829262.00000D01*
X6359864.0Y2836628.00000D01*
X6351177.0Y2845264.00000D01*
X6341474.0Y2858116.00000D01*
X6338376.0Y2859996.00000D01*
X6334819.0Y2860605.00000D01*
X6091284.0Y2860605.00000D01*
X6087220.0Y2859742.00000D01*
X6083817.0Y2857303.00000D01*
X6081683.0Y2853747.00000D01*
X6081175.0Y2849531.00000D01*
X6082344.0Y2845569.00000D01*
X6087474.0Y2836272.00000D01*
X6046072.0Y2836272.00000D01*
X6046072.0Y2850445.00000D01*
X6045260.0Y2854357.00000D01*
X6043075.0Y2857659.00000D01*
X6039773.0Y2859793.00000D01*
X6035912.0Y2860605.00000D01*
X5983487.0Y2860605.00000D01*
X5979626.0Y2859793.00000D01*
X5976324.0Y2857659.00000D01*
X5974140.0Y2854357.00000D01*
X5973327.0Y2850445.00000D01*
X5973327.0Y2836272.00000D01*
X5931925.0Y2836272.00000D01*
X5937056.0Y2845569.00000D01*
X5938224.0Y2849531.00000D01*
X5937716.0Y2853747.00000D01*
X5935582.0Y2857303.00000D01*
X5932179.0Y2859742.00000D01*
X5928115.0Y2860605.00000D01*
X5857808.0Y2860605.00000D01*
X5849324.0Y2861469.00000D01*
X5841653.0Y2863704.00000D01*
X5834592.0Y2867565.00000D01*
X5828039.0Y2872899.00000D01*
X5822197.0Y2878741.00000D01*
X5819454.0Y2880722.00000D01*
X5816253.0Y2881687.00000D01*
X5812850.0Y2881484.00000D01*
X5806042.0Y2880011.00000D01*
X5793800.0Y2879147.00000D01*
X5781557.0Y2880011.00000D01*
X5769619.0Y2882602.00000D01*
X5758138.0Y2886920.00000D01*
X5747368.0Y2892762.00000D01*
X5737564.0Y2900128.00000D01*
X5728877.0Y2908764.00000D01*
X5721562.0Y2918619.00000D01*
X5715669.0Y2929338.00000D01*
X5711402.0Y2940819.00000D01*
X5708811.0Y2952807.00000D01*
X5707897.0Y2965050.00000D01*
X5708811.0Y2977242.00000D01*
X5711402.0Y2989180.00000D01*
X5715669.0Y3000712.00000D01*
X5721562.0Y3011482.00000D01*
X5728877.0Y3021286.00000D01*
X5737564.0Y3029922.00000D01*
X5747368.0Y3037288.00000D01*
X5758138.0Y3043130.00000D01*
X5769619.0Y3047397.00000D01*
X5781557.0Y3050039.00000D01*
G37*
G36*
X5931925.0Y2763527.00000D02*
G01*
X5973327.0Y2763527.00000D01*
X5973327.0Y2722175.00000D01*
X5963268.0Y2727662.00000D01*
X5953464.0Y2735028.00000D01*
X5944777.0Y2743664.00000D01*
X5937462.0Y2753519.00000D01*
G37*
G36*
X6046072.0Y2763527.00000D02*
G01*
X6087474.0Y2763527.00000D01*
X6081937.0Y2753519.00000D01*
X6074622.0Y2743664.00000D01*
X6065935.0Y2735028.00000D01*
X6056131.0Y2727662.00000D01*
X6046072.0Y2722175.00000D01*
G37*
G36*
X7396184.0Y2684482.00000D02*
G01*
X7439262.0Y2684482.00000D01*
X7439262.0Y2614987.00000D01*
X7369717.0Y2614987.00000D01*
X7369717.0Y2658015.00000D01*
X7370428.0Y2664365.00000D01*
X7372308.0Y2669801.00000D01*
X7375407.0Y2674677.00000D01*
X7379471.0Y2678843.00000D01*
X7384398.0Y2681891.00000D01*
X7389834.0Y2683821.00000D01*
G37*

%LPD*%
D10*
X2884993.0Y3666623.00000D02*
G01*
X5422197.0Y3666623.00000D01*
X5997000.0Y3092076.00000D01*
X6644700.0Y3092076.00000D01*
X6543100.0Y4158799.00000D02*
G01*
X6644700.0Y4057199.00000D01*
X6644700.0Y3091999.00000D01*
X5793800.0Y2964999.00000D02*
G01*
X5857300.0Y2901499.00000D01*
X6416100.0Y2901499.00000D01*
D11*
X2885094.0Y3666699.00000D02*
G01*
X2990301.0Y3561492.00000D01*
X2990301.0Y3106300.00000D01*
D12*
G01*
X2885102.0Y3666699.00000D03*
G01*
X2885102.0Y3866699.00000D03*
D13*
G01*
X3470098.0Y4101702.00000D03*
G01*
X3470098.0Y3431696.00000D03*
D14*
G01*
X7495600.0Y4450899.00000D03*
D15*
G01*
X2990301.0Y3106300.00000D03*
G01*
X3390300.0Y3106300.00000D03*
G01*
X3190300.0Y3106300.00000D03*
D16*
G01*
X3605311.0Y3106300.00000D03*
G01*
X2775290.0Y3106300.00000D03*
D17*
G01*
X7495600.0Y2558599.00000D03*
D14*
G01*
X2504500.0Y4452499.00000D03*
D18*
G01*
X2504500.0Y2545899.00000D03*
D19*
G01*
X6009700.0Y2799899.00000D03*
G01*
X3609400.0Y2710999.00000D03*
G01*
X5146100.0Y4400099.00000D03*
G01*
X5793800.0Y2964999.00000D03*
G01*
X6416100.0Y2901499.00000D03*
G01*
X6644700.0Y3091999.00000D03*
G01*
X6543100.0Y4158799.00000D03*
G01*
X4523800.0Y2558599.00000D03*
M02*
