G04 Layer: BottomSilkscreenLayer*
G04 EasyEDA v6.5.42, 2024-05-27 16:03:50*
G04 5a823164b2b14e8aa45e0a56d25f44cb,4b06660695a64fe3bf0f4e1e846abbee,10*
G04 Gerber Generator version 0.2*
G04 Scale: 100 percent, Rotated: No, Reflected: No *
G04 Dimensions in millimeters *
G04 leading zeros omitted , absolute positions ,4 integer and 5 decimal *
%FSLAX45Y45*%
%MOMM*%

%ADD10C,0.2032*%
%ADD11C,0.2030*%
%ADD12C,0.2540*%

%LPD*%
D10*
X2439962.0Y2736399.00000D02*
G01*
X2549065.0Y2736399.00000D01*
X2439962.0Y2736399.00000D02*
G01*
X2439962.0Y2783158.00000D01*
X2445156.0Y2798744.00000D01*
X2450353.0Y2803941.00000D01*
X2460744.0Y2809135.00000D01*
X2471135.0Y2809135.00000D01*
X2481526.0Y2803941.00000D01*
X2486721.0Y2798744.00000D01*
X2491917.0Y2783158.00000D01*
X2491917.0Y2736399.00000D02*
G01*
X2491917.0Y2783158.00000D01*
X2497112.0Y2798744.00000D01*
X2502306.0Y2803941.00000D01*
X2512697.0Y2809135.00000D01*
X2528285.0Y2809135.00000D01*
X2538676.0Y2803941.00000D01*
X2543871.0Y2798744.00000D01*
X2549065.0Y2783158.00000D01*
X2549065.0Y2736399.00000D01*
X2439962.0Y2884989.00000D02*
G01*
X2549065.0Y2843425.00000D01*
X2439962.0Y2884989.00000D02*
G01*
X2549065.0Y2926552.00000D01*
X2512697.0Y2859013.00000D02*
G01*
X2512697.0Y2910966.00000D01*
X2439962.0Y2997212.00000D02*
G01*
X2549065.0Y2997212.00000D01*
X2439962.0Y2960842.00000D02*
G01*
X2439962.0Y3033580.00000D01*
X2502306.0Y3067870.00000D02*
G01*
X2502306.0Y3161387.00000D01*
X2460813.0Y3853999.00000D02*
G01*
X2455479.0Y3864413.00000D01*
X2439985.0Y3879906.00000D01*
X2548950.0Y3879906.00000D01*
X2523043.0Y3919530.00000D02*
G01*
X2528377.0Y3914196.00000D01*
X2533456.0Y3919530.00000D01*
X2528377.0Y3924611.00000D01*
X2523043.0Y3919530.00000D01*
X2439985.0Y3984809.00000D02*
G01*
X2445064.0Y3969314.00000D01*
X2455479.0Y3964235.00000D01*
X2465893.0Y3964235.00000D01*
X2476306.0Y3969314.00000D01*
X2481640.0Y3979729.00000D01*
X2486721.0Y4000556.00000D01*
X2491800.0Y4016051.00000D01*
X2502214.0Y4026464.00000D01*
X2512629.0Y4031799.00000D01*
X2528377.0Y4031799.00000D01*
X2538790.0Y4026464.00000D01*
X2543871.0Y4021385.00000D01*
X2548950.0Y4005637.00000D01*
X2548950.0Y3984809.00000D01*
X2543871.0Y3969314.00000D01*
X2538790.0Y3964235.00000D01*
X2528377.0Y3958901.00000D01*
X2512629.0Y3958901.00000D01*
X2502214.0Y3964235.00000D01*
X2491800.0Y3974649.00000D01*
X2486721.0Y3990143.00000D01*
X2481640.0Y4010971.00000D01*
X2476306.0Y4021385.00000D01*
X2465893.0Y4026464.00000D01*
X2455479.0Y4026464.00000D01*
X2445064.0Y4021385.00000D01*
X2439985.0Y4005637.00000D01*
X2439985.0Y3984809.00000D01*
X2439985.0Y4066088.00000D02*
G01*
X2548950.0Y4107491.00000D01*
X2439985.0Y4149146.00000D02*
G01*
X2548950.0Y4107491.00000D01*
X2455479.0Y4230172.00000D02*
G01*
X2548950.0Y4230172.00000D01*
X2502214.0Y4183437.00000D02*
G01*
X2502214.0Y4276909.00000D01*
X7227122.0Y2545392.00000D02*
G01*
X7232456.0Y2534978.00000D01*
X7242870.0Y2524564.00000D01*
X7253029.0Y2519484.00000D01*
X7273858.0Y2519484.00000D01*
X7284272.0Y2524564.00000D01*
X7294686.0Y2534978.00000D01*
X7300020.0Y2545392.00000D01*
X7305100.0Y2561139.00000D01*
X7305100.0Y2587047.00000D01*
X7300020.0Y2602542.00000D01*
X7294686.0Y2612956.00000D01*
X7284272.0Y2623370.00000D01*
X7273858.0Y2628449.00000D01*
X7253029.0Y2628449.00000D01*
X7242870.0Y2623370.00000D01*
X7232456.0Y2612956.00000D01*
X7227122.0Y2602542.00000D01*
X7227122.0Y2587047.00000D01*
X7253029.0Y2587047.00000D02*
G01*
X7227122.0Y2587047.00000D01*
X7192831.0Y2519484.00000D02*
G01*
X7192831.0Y2628449.00000D01*
X7192831.0Y2519484.00000D02*
G01*
X7120188.0Y2628449.00000D01*
X7120188.0Y2519484.00000D02*
G01*
X7120188.0Y2628449.00000D01*
X7085897.0Y2519484.00000D02*
G01*
X7085897.0Y2628449.00000D01*
X7085897.0Y2519484.00000D02*
G01*
X7049575.0Y2519484.00000D01*
X7033827.0Y2524564.00000D01*
X7023413.0Y2534978.00000D01*
X7018334.0Y2545392.00000D01*
X7013000.0Y2561139.00000D01*
X7013000.0Y2587047.00000D01*
X7018334.0Y2602542.00000D01*
X7023413.0Y2612956.00000D01*
X7033827.0Y2623370.00000D01*
X7049575.0Y2628449.00000D01*
X7085897.0Y2628449.00000D01*
X7343200.0Y4386383.00000D02*
G01*
X7301543.0Y4495349.00000D01*
X7260141.0Y4386383.00000D02*
G01*
X7301543.0Y4495349.00000D01*
X7147874.0Y4412291.00000D02*
G01*
X7152954.0Y4401877.00000D01*
X7163368.0Y4391463.00000D01*
X7173781.0Y4386383.00000D01*
X7194609.0Y4386383.00000D01*
X7205024.0Y4391463.00000D01*
X7215438.0Y4401877.00000D01*
X7220518.0Y4412291.00000D01*
X7225852.0Y4428038.00000D01*
X7225852.0Y4453946.00000D01*
X7220518.0Y4469441.00000D01*
X7215438.0Y4479855.00000D01*
X7205024.0Y4490269.00000D01*
X7194609.0Y4495349.00000D01*
X7173781.0Y4495349.00000D01*
X7163368.0Y4490269.00000D01*
X7152954.0Y4479855.00000D01*
X7147874.0Y4469441.00000D01*
X7035606.0Y4412291.00000D02*
G01*
X7040940.0Y4401877.00000D01*
X7051100.0Y4391463.00000D01*
X7061513.0Y4386383.00000D01*
X7082341.0Y4386383.00000D01*
X7092756.0Y4391463.00000D01*
X7103170.0Y4401877.00000D01*
X7108250.0Y4412291.00000D01*
X7113584.0Y4428038.00000D01*
X7113584.0Y4453946.00000D01*
X7108250.0Y4469441.00000D01*
X7103170.0Y4479855.00000D01*
X7092756.0Y4490269.00000D01*
X7082341.0Y4495349.00000D01*
X7061513.0Y4495349.00000D01*
X7051100.0Y4490269.00000D01*
X7040940.0Y4479855.00000D01*
X7035606.0Y4469441.00000D01*
X3596700.0Y4245852.00000D02*
G01*
X3596700.0Y4439814.00000D01*
X3596700.0Y4245852.00000D02*
G01*
X3513574.0Y4245852.00000D01*
X3485865.0Y4255087.00000D01*
X3476627.0Y4264323.00000D01*
X3467392.0Y4282796.00000D01*
X3467392.0Y4301270.00000D01*
X3476627.0Y4319743.00000D01*
X3485865.0Y4328979.00000D01*
X3513574.0Y4338214.00000D01*
X3596700.0Y4338214.00000D02*
G01*
X3513574.0Y4338214.00000D01*
X3485865.0Y4347452.00000D01*
X3476627.0Y4356687.00000D01*
X3467392.0Y4375161.00000D01*
X3467392.0Y4402870.00000D01*
X3476627.0Y4421343.00000D01*
X3485865.0Y4430579.00000D01*
X3513574.0Y4439814.00000D01*
X3596700.0Y4439814.00000D01*
X3332540.0Y4245852.00000D02*
G01*
X3406432.0Y4439814.00000D01*
X3332540.0Y4245852.00000D02*
G01*
X3258649.0Y4439814.00000D01*
X3378723.0Y4375161.00000D02*
G01*
X3286358.0Y4375161.00000D01*
X3133036.0Y4245852.00000D02*
G01*
X3133036.0Y4439814.00000D01*
X3197689.0Y4245852.00000D02*
G01*
X3068380.0Y4245852.00000D01*
X3007421.0Y4356687.00000D02*
G01*
X2841165.0Y4356687.00000D01*
X3584000.0Y4245852.00000D02*
G01*
X3584000.0Y4439814.00000D01*
X3584000.0Y4245852.00000D02*
G01*
X3500874.0Y4245852.00000D01*
X3473165.0Y4255087.00000D01*
X3463927.0Y4264323.00000D01*
X3454692.0Y4282796.00000D01*
X3454692.0Y4301270.00000D01*
X3463927.0Y4319743.00000D01*
X3473165.0Y4328979.00000D01*
X3500874.0Y4338214.00000D01*
X3584000.0Y4338214.00000D02*
G01*
X3500874.0Y4338214.00000D01*
X3473165.0Y4347452.00000D01*
X3463927.0Y4356687.00000D01*
X3454692.0Y4375161.00000D01*
X3454692.0Y4402870.00000D01*
X3463927.0Y4421343.00000D01*
X3473165.0Y4430579.00000D01*
X3500874.0Y4439814.00000D01*
X3584000.0Y4439814.00000D01*
X3319840.0Y4245852.00000D02*
G01*
X3393732.0Y4439814.00000D01*
X3319840.0Y4245852.00000D02*
G01*
X3245949.0Y4439814.00000D01*
X3366023.0Y4375161.00000D02*
G01*
X3273658.0Y4375161.00000D01*
X3120336.0Y4245852.00000D02*
G01*
X3120336.0Y4439814.00000D01*
X3184989.0Y4245852.00000D02*
G01*
X3055680.0Y4245852.00000D01*
X2994721.0Y4356687.00000D02*
G01*
X2828465.0Y4356687.00000D01*
G36*
X3585118.0Y3616712.00000D02*
G01*
X3445113.0Y3666699.00000D01*
X3585118.0Y3716686.00000D01*
G37*
X7368600.0Y4577899.00000D02*
G01*
X7622600.0Y4577899.00000D01*
X7622600.0Y4323899.00000D01*
X7368600.0Y4323899.00000D01*
X7368600.0Y4514399.00000D01*
D11*
X7368600.0Y4577899.00000D02*
G01*
X7368600.0Y4514399.00000D01*
D10*
X7368600.0Y2685599.00000D02*
G01*
X7622600.0Y2685599.00000D01*
X7622600.0Y2431599.00000D01*
X7368600.0Y2431599.00000D01*
X7368600.0Y2622099.00000D01*
D11*
X7368600.0Y2685599.00000D02*
G01*
X7368600.0Y2622099.00000D01*
D10*
X2377500.0Y4579499.00000D02*
G01*
X2631500.0Y4579499.00000D01*
X2631500.0Y4325499.00000D01*
X2377500.0Y4325499.00000D01*
X2377500.0Y4515999.00000D01*
D11*
X2377500.0Y4579499.00000D02*
G01*
X2377500.0Y4515999.00000D01*
D10*
X2377500.0Y2672899.00000D02*
G01*
X2631500.0Y2672899.00000D01*
X2631500.0Y2418899.00000D01*
X2377500.0Y2418899.00000D01*
X2377500.0Y2609399.00000D01*
D11*
X2377500.0Y2672899.00000D02*
G01*
X2377500.0Y2609399.00000D01*
D12*
X3012704.0Y3593471.00000D02*
G01*
X3012704.0Y3466725.00000D01*
X2855224.0Y3466725.00000D01*
X2855224.0Y3371729.00000D01*
X3012600.0Y3793585.00000D02*
G01*
X3012600.0Y3739813.00000D01*
X2855102.0Y4161699.00000D02*
G01*
X2855102.0Y4066698.00000D01*
X3012600.0Y4066698.00000D01*
X3012600.0Y3939812.00000D01*
X2855102.0Y4161699.00000D02*
G01*
X3276983.0Y4161699.00000D01*
X3615100.0Y4006698.00000D02*
G01*
X3615100.0Y3526699.00000D01*
X2855102.0Y3371698.00000D02*
G01*
X3276983.0Y3371698.00000D01*
M02*
