G04 Layer: TopLayer*
G04 EasyEDA v6.5.42, 2024-04-24 20:40:50*
G04 c870b989466f4a25863cf57569ad13ef,4b06660695a64fe3bf0f4e1e846abbee,10*
G04 Gerber Generator version 0.2*
G04 Scale: 100 percent, Rotated: No, Reflected: No *
G04 Dimensions in millimeters *
G04 leading zeros omitted , absolute positions ,4 integer and 5 decimal *
%FSLAX45Y45*%
%MOMM*%

%AMMACRO1*21,1,$1,$2,0,0,$3*%
%ADD10C,0.8000*%
%ADD11C,0.5000*%
%ADD12C,0.3000*%
%ADD13R,1.2500X1.0000*%
%ADD14MACRO1,1.377X1.1325X0.0000*%
%ADD15R,1.3770X1.1325*%
%ADD16R,1.0000X1.2500*%
%ADD17MACRO1,1.35X1.41X0.0000*%
%ADD18R,1.3500X1.4100*%
%ADD19MACRO1,1.35X1.41X-90.0000*%
%ADD20MACRO1,1X1.3995X0.0000*%
%ADD21R,1.0000X1.3995*%
%ADD22R,1.7000X1.8000*%
%ADD23MACRO1,2.16X1.635X0.0000*%
%ADD24R,2.1600X1.6350*%
%ADD25R,1.1000X0.6000*%
%ADD26MACRO1,1.377X1.1325X-90.0000*%
%ADD27MACRO1,1.377X1.1325X90.0000*%
%ADD28R,1.0720X0.5320*%
%ADD29O,1.6619982000000002X0.36400740000000004*%
%ADD30R,1.5000X1.8000*%
%ADD31MACRO1,2X2X-90.0000*%
%ADD32C,2.0000*%
%ADD33O,1.599946X1.5999968*%
%ADD34O,1.9999959999999999X2.999994*%
%ADD35R,2.0000X2.0000*%
%ADD36C,1.2000*%
%ADD37C,0.0187*%

%LPD*%
G36*
X2311806Y731520D02*
G01*
X2307742Y733145D01*
X2304745Y736346D01*
X2300681Y743000D01*
X2291334Y754938D01*
X2280564Y765708D01*
X2268626Y775055D01*
X2261920Y779119D01*
X2258771Y782167D01*
X2257145Y786180D01*
X2257399Y790600D01*
X2259482Y794461D01*
X2262936Y797052D01*
X2267204Y797966D01*
X2313432Y797966D01*
X2317343Y797204D01*
X2320594Y794969D01*
X2322830Y791718D01*
X2323592Y787806D01*
X2323592Y741629D01*
X2322677Y737311D01*
X2320036Y733907D01*
X2316175Y731774D01*
G37*

%LPD*%
G36*
X281178Y100126D02*
G01*
X277164Y100888D01*
X273812Y103124D01*
X248767Y128168D01*
X246583Y131419D01*
X245821Y135331D01*
X245821Y236677D01*
X245110Y242976D01*
X243179Y248361D01*
X241554Y251002D01*
X240080Y255117D01*
X240436Y259334D01*
X242468Y263093D01*
X245922Y265633D01*
X250139Y266547D01*
X273253Y266547D01*
X277012Y265887D01*
X280263Y263753D01*
X282498Y260654D01*
X283413Y256946D01*
X291134Y110845D01*
X290525Y106832D01*
X288442Y103378D01*
X285140Y101041D01*
G37*

%LPD*%
G36*
X1643380Y-365506D02*
G01*
X1639824Y-364896D01*
X1636725Y-363016D01*
X1627022Y-350164D01*
X1618335Y-341528D01*
X1608531Y-334162D01*
X1597761Y-328320D01*
X1586280Y-324002D01*
X1574342Y-321411D01*
X1562100Y-320548D01*
X1549857Y-321411D01*
X1537919Y-324002D01*
X1526438Y-328320D01*
X1515668Y-334162D01*
X1505000Y-342188D01*
X1500936Y-344068D01*
X1496466Y-344017D01*
X1492453Y-342036D01*
X1489710Y-338480D01*
X1488694Y-334162D01*
X1488694Y10261D01*
X1489506Y14173D01*
X1491691Y17424D01*
X1494993Y19710D01*
X1498854Y20421D01*
X1532229Y20421D01*
X1538528Y21183D01*
X1544015Y23114D01*
X1548892Y26111D01*
X1553006Y30226D01*
X1556105Y35102D01*
X1557985Y40589D01*
X1558696Y46888D01*
X1558696Y85242D01*
X1559458Y89154D01*
X1561693Y92506D01*
X1564995Y94640D01*
X1568856Y95453D01*
X1662887Y95453D01*
X1666798Y94640D01*
X1670050Y92506D01*
X1906625Y-144119D01*
X1908810Y-147370D01*
X1909622Y-151231D01*
X1909622Y-227075D01*
X1910334Y-233324D01*
X1912213Y-238861D01*
X1915312Y-243738D01*
X1919376Y-247853D01*
X1924304Y-250850D01*
X1929739Y-252780D01*
X1936089Y-253542D01*
X2034946Y-253542D01*
X2045055Y-252272D01*
X2048764Y-253288D01*
X2051812Y-255524D01*
X2053894Y-258673D01*
X2054606Y-262483D01*
X2054606Y-301498D01*
X2053843Y-305409D01*
X2051608Y-308711D01*
X2048306Y-310896D01*
X2044446Y-311658D01*
X1939442Y-311658D01*
X1933092Y-312369D01*
X1927656Y-314299D01*
X1922780Y-317296D01*
X1918665Y-321462D01*
X1915566Y-326339D01*
X1913686Y-331825D01*
X1912975Y-338124D01*
X1912975Y-355346D01*
X1912162Y-359257D01*
X1909978Y-362559D01*
X1906676Y-364693D01*
X1902815Y-365506D01*
G37*

%LPC*%
G36*
X1687372Y-230174D02*
G01*
X1697431Y-224688D01*
X1707235Y-217322D01*
X1715922Y-208686D01*
X1723237Y-198882D01*
X1728774Y-188772D01*
X1687372Y-188772D01*
G37*
G36*
X1614627Y-230174D02*
G01*
X1614627Y-188772D01*
X1573225Y-188772D01*
X1578762Y-198882D01*
X1586077Y-208686D01*
X1594764Y-217322D01*
X1604568Y-224688D01*
G37*
G36*
X1573225Y-116027D02*
G01*
X1614627Y-116027D01*
X1614627Y-74676D01*
X1604568Y-80162D01*
X1594764Y-87528D01*
X1586077Y-96164D01*
X1578762Y-106019D01*
G37*
G36*
X1687372Y-116027D02*
G01*
X1728774Y-116027D01*
X1723237Y-106019D01*
X1715922Y-96164D01*
X1707235Y-87528D01*
X1697431Y-80162D01*
X1687372Y-74676D01*
G37*

%LPD*%
G36*
X1650746Y-710996D02*
G01*
X1646834Y-710234D01*
X1643532Y-707999D01*
X1641551Y-706069D01*
X1639366Y-702716D01*
X1638554Y-698804D01*
X1639366Y-694944D01*
X1641551Y-691692D01*
X1644853Y-689457D01*
X1648714Y-688695D01*
X1650746Y-688695D01*
X1654606Y-689457D01*
X1657908Y-691692D01*
X1660143Y-694944D01*
X1660906Y-698804D01*
X1660906Y-700887D01*
X1660143Y-704697D01*
X1657908Y-707999D01*
X1654606Y-710234D01*
G37*

%LPD*%
G36*
X1031341Y-714959D02*
G01*
X1027430Y-714248D01*
X1024128Y-712012D01*
X1022807Y-710742D01*
X1017625Y-707491D01*
X1014526Y-704443D01*
X1013002Y-700379D01*
X1013307Y-696061D01*
X1015339Y-692251D01*
X1018794Y-689559D01*
X1023061Y-688695D01*
X1221435Y-688695D01*
X1225346Y-689457D01*
X1228648Y-691692D01*
X1230833Y-694944D01*
X1231595Y-698804D01*
X1230833Y-702716D01*
X1228648Y-706069D01*
X1222349Y-712825D01*
X1219352Y-714400D01*
X1215999Y-714959D01*
G37*

%LPD*%
G36*
X-1557731Y-762000D02*
G01*
X-1561642Y-761187D01*
X-1564894Y-759002D01*
X-1567129Y-755700D01*
X-1567891Y-751840D01*
X-1567891Y-746810D01*
X-1568602Y-740511D01*
X-1570532Y-734974D01*
X-1573580Y-730097D01*
X-1577695Y-726033D01*
X-1582572Y-722934D01*
X-1588668Y-720801D01*
X-1592224Y-718667D01*
X-1594612Y-715314D01*
X-1595475Y-711250D01*
X-1594612Y-707136D01*
X-1592224Y-703732D01*
X-1588668Y-701649D01*
X-1582572Y-699516D01*
X-1577695Y-696366D01*
X-1573580Y-692353D01*
X-1570532Y-687425D01*
X-1568602Y-681990D01*
X-1567891Y-675690D01*
X-1567891Y-513232D01*
X-1568602Y-506984D01*
X-1570532Y-501497D01*
X-1573580Y-496570D01*
X-1577695Y-492556D01*
X-1582572Y-489458D01*
X-1588058Y-487527D01*
X-1594358Y-486765D01*
X-1625752Y-486765D01*
X-1629613Y-486054D01*
X-1632915Y-483819D01*
X-1635099Y-480568D01*
X-1635912Y-476656D01*
X-1635912Y-310896D01*
X-1635099Y-306984D01*
X-1632915Y-303682D01*
X-1031392Y297789D01*
X-1028090Y299974D01*
X-1024178Y300786D01*
X-1013358Y300786D01*
X-1010005Y300177D01*
X-1007008Y298602D01*
X-1004773Y296011D01*
X-1003452Y293928D01*
X-999388Y289915D01*
X-994460Y286766D01*
X-989025Y284835D01*
X-982675Y284124D01*
X-846124Y284124D01*
X-839774Y284835D01*
X-834339Y286766D01*
X-829411Y289915D01*
X-825347Y293928D01*
X-824026Y296011D01*
X-821791Y298602D01*
X-818794Y300177D01*
X-815441Y300786D01*
X-674420Y300786D01*
X-670814Y300126D01*
X-667664Y298196D01*
X-665429Y295300D01*
X-664210Y290423D01*
X-662279Y285038D01*
X-659180Y280111D01*
X-655116Y275996D01*
X-651052Y272440D01*
X-649478Y268732D01*
X-649478Y264617D01*
X-651052Y260908D01*
X-655116Y257352D01*
X-659180Y253288D01*
X-662279Y248361D01*
X-664210Y242976D01*
X-664921Y236677D01*
X-664921Y217728D01*
X-665683Y213867D01*
X-667867Y210566D01*
X-671169Y208330D01*
X-675081Y207568D01*
X-809498Y207568D01*
X-813358Y208330D01*
X-816660Y210566D01*
X-818845Y213867D01*
X-819658Y217728D01*
X-819658Y222707D01*
X-820369Y229057D01*
X-822248Y234492D01*
X-825347Y239420D01*
X-829411Y243484D01*
X-834339Y246583D01*
X-839774Y248513D01*
X-846124Y249275D01*
X-982675Y249275D01*
X-989025Y248513D01*
X-994460Y246583D01*
X-999388Y243484D01*
X-1003452Y239420D01*
X-1006551Y234492D01*
X-1008430Y229057D01*
X-1009142Y222707D01*
X-1009142Y110642D01*
X-1008430Y104292D01*
X-1006551Y98856D01*
X-1003452Y93980D01*
X-999388Y89814D01*
X-994460Y86766D01*
X-989025Y84836D01*
X-982675Y84175D01*
X-846124Y84175D01*
X-839774Y84836D01*
X-834339Y86766D01*
X-829411Y89814D01*
X-825347Y93980D01*
X-822248Y98856D01*
X-820369Y104292D01*
X-819658Y110642D01*
X-819658Y115620D01*
X-818845Y119481D01*
X-816660Y122834D01*
X-813358Y124968D01*
X-809498Y125780D01*
X-782980Y125780D01*
X-779018Y124968D01*
X-775665Y122682D01*
X-773480Y119329D01*
X-772820Y115265D01*
X-773734Y111353D01*
X-776173Y108153D01*
X-1009192Y-103327D01*
X-1016558Y-111099D01*
X-1022350Y-119684D01*
X-1028750Y-133350D01*
X-1031443Y-135788D01*
X-1034338Y-137566D01*
X-1038402Y-141732D01*
X-1041501Y-146608D01*
X-1043381Y-152095D01*
X-1043889Y-156311D01*
X-1045159Y-160223D01*
X-1047902Y-163322D01*
X-1051661Y-165049D01*
X-1055776Y-165150D01*
X-1059637Y-163626D01*
X-1062532Y-160680D01*
X-1065072Y-155600D01*
X-1067663Y-144830D01*
X-1071626Y-135280D01*
X-1077010Y-126492D01*
X-1083716Y-118618D01*
X-1091590Y-111912D01*
X-1100378Y-106527D01*
X-1109929Y-102565D01*
X-1119987Y-100126D01*
X-1130706Y-99314D01*
X-1296009Y-99314D01*
X-1306728Y-100126D01*
X-1316786Y-102565D01*
X-1326337Y-106527D01*
X-1335125Y-111912D01*
X-1343304Y-118872D01*
X-1481429Y-256997D01*
X-1484172Y-258927D01*
X-1487373Y-259892D01*
X-1490726Y-259689D01*
X-1499057Y-257911D01*
X-1511300Y-257048D01*
X-1523542Y-257911D01*
X-1535480Y-260502D01*
X-1546961Y-264820D01*
X-1557731Y-270662D01*
X-1567535Y-278028D01*
X-1576222Y-286664D01*
X-1583537Y-296519D01*
X-1589430Y-307238D01*
X-1593697Y-318719D01*
X-1596288Y-330708D01*
X-1597202Y-342950D01*
X-1596288Y-355142D01*
X-1593697Y-367080D01*
X-1589430Y-378612D01*
X-1583537Y-389382D01*
X-1576222Y-399186D01*
X-1567535Y-407822D01*
X-1557731Y-415188D01*
X-1546961Y-421030D01*
X-1535480Y-425297D01*
X-1523542Y-427939D01*
X-1511300Y-428802D01*
X-1499057Y-427939D01*
X-1487119Y-425297D01*
X-1475638Y-421030D01*
X-1464868Y-415188D01*
X-1455064Y-407822D01*
X-1453642Y-406400D01*
X-1450340Y-404164D01*
X-1444294Y-401675D01*
X-1435506Y-396290D01*
X-1427327Y-389331D01*
X-1291234Y-253238D01*
X-1288034Y-251104D01*
X-1284274Y-250291D01*
X-1280464Y-250850D01*
X-1277213Y-252882D01*
X-1274927Y-256032D01*
X-1273911Y-259791D01*
X-1227531Y-259791D01*
X-1227531Y-247091D01*
X-1226769Y-243179D01*
X-1224584Y-239928D01*
X-1221282Y-237642D01*
X-1217371Y-236931D01*
X-1171397Y-236931D01*
X-1167536Y-237642D01*
X-1164234Y-239928D01*
X-1161999Y-243179D01*
X-1161237Y-247091D01*
X-1161237Y-259791D01*
X-1140561Y-259791D01*
X-1136700Y-260553D01*
X-1133398Y-262737D01*
X-1131163Y-265988D01*
X-1130401Y-269900D01*
X-1130401Y-288899D01*
X-1131163Y-292811D01*
X-1133398Y-296113D01*
X-1136700Y-298246D01*
X-1140561Y-299059D01*
X-1161237Y-299059D01*
X-1161237Y-302006D01*
X-1161897Y-305562D01*
X-1163777Y-308711D01*
X-1166672Y-310946D01*
X-1170127Y-312064D01*
X-1173784Y-311861D01*
X-1183995Y-309422D01*
X-1194308Y-308559D01*
X-1204620Y-309422D01*
X-1215034Y-311861D01*
X-1218641Y-312115D01*
X-1222146Y-310997D01*
X-1224991Y-308762D01*
X-1226870Y-305612D01*
X-1227531Y-302056D01*
X-1227531Y-299059D01*
X-1273911Y-299059D01*
X-1273911Y-305460D01*
X-1273200Y-311759D01*
X-1271270Y-317246D01*
X-1268577Y-321513D01*
X-1267206Y-325018D01*
X-1267206Y-328828D01*
X-1268577Y-332333D01*
X-1271270Y-336600D01*
X-1273200Y-342087D01*
X-1273911Y-348386D01*
X-1273911Y-400456D01*
X-1273200Y-406704D01*
X-1271270Y-412242D01*
X-1268222Y-417118D01*
X-1263192Y-422097D01*
X-1261008Y-425399D01*
X-1260195Y-429310D01*
X-1260195Y-553212D01*
X-1261008Y-557123D01*
X-1263192Y-560476D01*
X-1461922Y-759002D01*
X-1465224Y-761187D01*
X-1469136Y-762000D01*
G37*

%LPC*%
G36*
X-1446072Y-623874D02*
G01*
X-1446072Y-582472D01*
X-1487474Y-582472D01*
X-1481937Y-592582D01*
X-1474622Y-602386D01*
X-1465935Y-611022D01*
X-1456131Y-618388D01*
G37*
G36*
X-1373327Y-623874D02*
G01*
X-1363268Y-618388D01*
X-1353464Y-611022D01*
X-1344777Y-602386D01*
X-1337462Y-592582D01*
X-1331925Y-582472D01*
X-1373327Y-582472D01*
G37*
G36*
X-1373327Y-509727D02*
G01*
X-1331925Y-509727D01*
X-1337462Y-499719D01*
X-1344777Y-489864D01*
X-1353464Y-481228D01*
X-1363268Y-473862D01*
X-1373327Y-468376D01*
G37*
G36*
X-1487474Y-509727D02*
G01*
X-1446072Y-509727D01*
X-1446072Y-468376D01*
X-1456131Y-473862D01*
X-1465935Y-481228D01*
X-1474622Y-489864D01*
X-1481937Y-499719D01*
G37*

%LPD*%
G36*
X414020Y-811580D02*
G01*
X410260Y-810920D01*
X407060Y-808888D01*
X404825Y-805738D01*
X403910Y-802081D01*
X396646Y-686714D01*
X397205Y-682599D01*
X399389Y-679145D01*
X402742Y-676757D01*
X406755Y-675894D01*
X741222Y-675894D01*
X744677Y-676503D01*
X747674Y-678230D01*
X751992Y-681736D01*
X759714Y-685901D01*
X763066Y-688797D01*
X764895Y-692861D01*
X764794Y-697280D01*
X762762Y-701243D01*
X759256Y-704037D01*
X754938Y-705002D01*
X670255Y-705002D01*
X663956Y-705662D01*
X658469Y-707593D01*
X653592Y-710742D01*
X649478Y-714806D01*
X646430Y-719734D01*
X644499Y-725119D01*
X643788Y-731469D01*
X643788Y-783539D01*
X644499Y-789889D01*
X648309Y-800100D01*
X648004Y-804316D01*
X645922Y-808126D01*
X642467Y-810666D01*
X638251Y-811580D01*
G37*

%LPD*%
G36*
X812952Y-877569D02*
G01*
X809091Y-876808D01*
X805789Y-874572D01*
X803605Y-871270D01*
X802792Y-867460D01*
X802792Y-826516D01*
X802081Y-820166D01*
X800201Y-814730D01*
X797509Y-810412D01*
X796137Y-806907D01*
X796137Y-803148D01*
X797509Y-799642D01*
X800201Y-795324D01*
X802081Y-789889D01*
X802792Y-783539D01*
X802792Y-731469D01*
X802081Y-725119D01*
X800201Y-719734D01*
X797102Y-714806D01*
X793038Y-710742D01*
X787857Y-707491D01*
X784758Y-704443D01*
X783183Y-700379D01*
X783488Y-696061D01*
X785571Y-692251D01*
X789025Y-689559D01*
X793242Y-688695D01*
X883158Y-688695D01*
X887374Y-689559D01*
X890828Y-692251D01*
X892911Y-696061D01*
X893216Y-700379D01*
X891641Y-704443D01*
X888542Y-707491D01*
X883361Y-710742D01*
X879297Y-714806D01*
X876198Y-719734D01*
X874318Y-725119D01*
X873607Y-731469D01*
X873607Y-783539D01*
X874318Y-789889D01*
X876198Y-795324D01*
X878890Y-799642D01*
X880262Y-803148D01*
X880262Y-806907D01*
X878890Y-810412D01*
X876198Y-814730D01*
X874776Y-818794D01*
X873506Y-821232D01*
X820166Y-874572D01*
X816864Y-876808D01*
G37*

%LPD*%
G36*
X1039164Y-904951D02*
G01*
X1035354Y-904290D01*
X1032103Y-902208D01*
X1029868Y-899007D01*
X1029004Y-895299D01*
X1029563Y-891489D01*
X1031900Y-884834D01*
X1032611Y-878484D01*
X1032611Y-826516D01*
X1031900Y-820166D01*
X1029969Y-814730D01*
X1028547Y-812393D01*
X1027074Y-808380D01*
X1027430Y-804062D01*
X1029462Y-800303D01*
X1032916Y-797763D01*
X1037132Y-796848D01*
X1211986Y-796848D01*
X1215745Y-797509D01*
X1218996Y-799642D01*
X1221232Y-802792D01*
X1222146Y-806551D01*
X1221587Y-810361D01*
X1219911Y-815187D01*
X1219200Y-821436D01*
X1219200Y-880364D01*
X1219911Y-886663D01*
X1221587Y-891489D01*
X1222146Y-895299D01*
X1221232Y-899007D01*
X1218996Y-902208D01*
X1215796Y-904290D01*
X1211986Y-904951D01*
G37*

%LPD*%
G36*
X425907Y-1001115D02*
G01*
X422198Y-1000404D01*
X418947Y-998372D01*
X416712Y-995222D01*
X415798Y-991616D01*
X410311Y-904240D01*
X410870Y-900176D01*
X413054Y-896569D01*
X416407Y-894232D01*
X420420Y-893419D01*
X638251Y-893419D01*
X642467Y-894334D01*
X645922Y-896924D01*
X648004Y-900684D01*
X648309Y-904900D01*
X644499Y-915111D01*
X643788Y-921461D01*
X643788Y-973531D01*
X644499Y-979881D01*
X648004Y-989584D01*
X647700Y-993851D01*
X645617Y-997661D01*
X642162Y-1000150D01*
X637946Y-1001115D01*
G37*

%LPD*%
G36*
X1052068Y-1347317D02*
G01*
X1048156Y-1346504D01*
X1044905Y-1344320D01*
X1042669Y-1341069D01*
X1041908Y-1337157D01*
X1041908Y-1170584D01*
X1041095Y-1164132D01*
X1039418Y-1159611D01*
X1038758Y-1155750D01*
X1039571Y-1151940D01*
X1041806Y-1148689D01*
X1045057Y-1146606D01*
X1048918Y-1145794D01*
X1210767Y-1145794D01*
X1214628Y-1146606D01*
X1217930Y-1148791D01*
X1300378Y-1231188D01*
X1302562Y-1234541D01*
X1303375Y-1238453D01*
X1303375Y-1274826D01*
X1304086Y-1281074D01*
X1305966Y-1286611D01*
X1309065Y-1291488D01*
X1313180Y-1295603D01*
X1318056Y-1298600D01*
X1323492Y-1300530D01*
X1329842Y-1301292D01*
X1441958Y-1301292D01*
X1448257Y-1300530D01*
X1453743Y-1298600D01*
X1458620Y-1295603D01*
X1462735Y-1291488D01*
X1465783Y-1286611D01*
X1467713Y-1281074D01*
X1468424Y-1274826D01*
X1468424Y-1138224D01*
X1467713Y-1131925D01*
X1465783Y-1126439D01*
X1462735Y-1121562D01*
X1458620Y-1117396D01*
X1453743Y-1114399D01*
X1448257Y-1112469D01*
X1441958Y-1111758D01*
X1329842Y-1111758D01*
X1323492Y-1112469D01*
X1318056Y-1114399D01*
X1313332Y-1117346D01*
X1310182Y-1118666D01*
X1306779Y-1118819D01*
X1303528Y-1117854D01*
X1300734Y-1115872D01*
X1261160Y-1076299D01*
X1254607Y-1070965D01*
X1247546Y-1067104D01*
X1239875Y-1064869D01*
X1231392Y-1064006D01*
X973632Y-1064006D01*
X969771Y-1063193D01*
X966469Y-1061059D01*
X922782Y-1017320D01*
X920597Y-1014069D01*
X919835Y-1010208D01*
X920597Y-1006297D01*
X922782Y-1002995D01*
X926084Y-1000810D01*
X929995Y-1000048D01*
X1006144Y-1000048D01*
X1012444Y-999337D01*
X1017930Y-997407D01*
X1022807Y-994257D01*
X1027328Y-989787D01*
X1030630Y-987602D01*
X1034542Y-986840D01*
X1215999Y-986840D01*
X1219352Y-987399D01*
X1222349Y-988974D01*
X1224889Y-992022D01*
X1228953Y-996137D01*
X1233881Y-999134D01*
X1239316Y-1001115D01*
X1245666Y-1001826D01*
X1354531Y-1001826D01*
X1360830Y-1001115D01*
X1366316Y-999134D01*
X1371193Y-996137D01*
X1375308Y-992022D01*
X1378356Y-987145D01*
X1380286Y-981608D01*
X1380998Y-975309D01*
X1380998Y-916482D01*
X1380286Y-910132D01*
X1378356Y-904697D01*
X1376426Y-900277D01*
X1376426Y-896518D01*
X1378356Y-892149D01*
X1380286Y-886663D01*
X1380998Y-880364D01*
X1380998Y-821436D01*
X1380286Y-815187D01*
X1378356Y-809650D01*
X1376426Y-805281D01*
X1376426Y-801522D01*
X1378356Y-797153D01*
X1380286Y-791616D01*
X1380998Y-785368D01*
X1380998Y-726490D01*
X1380286Y-720191D01*
X1378356Y-714705D01*
X1375308Y-709828D01*
X1371549Y-706069D01*
X1369314Y-702716D01*
X1368552Y-698804D01*
X1369314Y-694944D01*
X1371549Y-691692D01*
X1374851Y-689457D01*
X1378712Y-688695D01*
X1491488Y-688695D01*
X1495348Y-689457D01*
X1498650Y-691692D01*
X1500886Y-694944D01*
X1501648Y-698804D01*
X1500886Y-702716D01*
X1498650Y-706069D01*
X1494891Y-709828D01*
X1491843Y-714705D01*
X1489913Y-720191D01*
X1489202Y-726490D01*
X1489202Y-734568D01*
X1536242Y-734568D01*
X1536242Y-698804D01*
X1537055Y-694944D01*
X1539240Y-691692D01*
X1542542Y-689457D01*
X1546402Y-688695D01*
X1593799Y-688695D01*
X1597710Y-689457D01*
X1600962Y-691692D01*
X1603197Y-694944D01*
X1603959Y-698804D01*
X1603959Y-734568D01*
X1650746Y-734568D01*
X1654606Y-735330D01*
X1657908Y-737565D01*
X1660143Y-740816D01*
X1660906Y-744677D01*
X1660906Y-767130D01*
X1660143Y-770991D01*
X1657908Y-774293D01*
X1654606Y-776478D01*
X1650746Y-777290D01*
X1603959Y-777290D01*
X1603959Y-784809D01*
X1603197Y-788670D01*
X1600962Y-792022D01*
X1597710Y-794258D01*
X1593799Y-794969D01*
X1546402Y-794969D01*
X1542542Y-794258D01*
X1539240Y-792022D01*
X1537055Y-788670D01*
X1536242Y-784809D01*
X1536242Y-777290D01*
X1489202Y-777290D01*
X1489202Y-785368D01*
X1489913Y-791616D01*
X1491843Y-797153D01*
X1493774Y-801522D01*
X1493774Y-805281D01*
X1491843Y-809650D01*
X1489913Y-815187D01*
X1489202Y-821436D01*
X1489202Y-880364D01*
X1489913Y-886663D01*
X1491843Y-892149D01*
X1493774Y-896518D01*
X1493774Y-900277D01*
X1491843Y-904697D01*
X1489913Y-910132D01*
X1489202Y-916482D01*
X1489202Y-975309D01*
X1489913Y-981608D01*
X1491843Y-987145D01*
X1494891Y-992022D01*
X1499006Y-996137D01*
X1503883Y-999134D01*
X1509369Y-1001115D01*
X1515668Y-1001826D01*
X1624533Y-1001826D01*
X1630883Y-1001115D01*
X1636318Y-999134D01*
X1641246Y-996137D01*
X1645310Y-992022D01*
X1648612Y-987958D01*
X1651812Y-986383D01*
X1660550Y-983742D01*
X1667611Y-979982D01*
X1674164Y-974547D01*
X1730349Y-918362D01*
X1735785Y-911758D01*
X1739544Y-904748D01*
X1741881Y-897077D01*
X1742693Y-888593D01*
X1742693Y-648309D01*
X1741881Y-639826D01*
X1739544Y-632155D01*
X1735785Y-625043D01*
X1730705Y-618896D01*
X1724507Y-613765D01*
X1717446Y-610057D01*
X1709775Y-607720D01*
X1701292Y-606907D01*
X795477Y-606907D01*
X792022Y-606298D01*
X789025Y-604520D01*
X784707Y-601065D01*
X777646Y-597204D01*
X769975Y-594969D01*
X761492Y-594106D01*
X400354Y-594106D01*
X396646Y-593344D01*
X393395Y-591312D01*
X391160Y-588264D01*
X390245Y-584606D01*
X385318Y-506374D01*
X385876Y-502361D01*
X387959Y-498906D01*
X391261Y-496519D01*
X395224Y-495604D01*
X399237Y-496366D01*
X402640Y-498551D01*
X453339Y-549249D01*
X459892Y-554634D01*
X466953Y-558495D01*
X474624Y-560781D01*
X483108Y-561594D01*
X1434592Y-561594D01*
X1443075Y-560781D01*
X1450746Y-558495D01*
X1457807Y-554634D01*
X1464360Y-549249D01*
X1476349Y-537311D01*
X1481785Y-530707D01*
X1485544Y-523646D01*
X1487881Y-515975D01*
X1488694Y-507542D01*
X1488694Y-478688D01*
X1489710Y-474370D01*
X1492453Y-470814D01*
X1496466Y-468782D01*
X1500936Y-468731D01*
X1505000Y-470611D01*
X1515668Y-478688D01*
X1526438Y-484530D01*
X1537919Y-488797D01*
X1549857Y-491439D01*
X1562100Y-492302D01*
X1574342Y-491439D01*
X1586280Y-488797D01*
X1597761Y-484530D01*
X1608531Y-478688D01*
X1618335Y-471322D01*
X1627022Y-462686D01*
X1634489Y-452577D01*
X1636725Y-449834D01*
X1639824Y-447954D01*
X1643380Y-447293D01*
X1902815Y-447293D01*
X1906676Y-448106D01*
X1909978Y-450291D01*
X1912162Y-453542D01*
X1912975Y-457454D01*
X1912975Y-474726D01*
X1913686Y-480974D01*
X1915566Y-486511D01*
X1918665Y-491388D01*
X1922780Y-495503D01*
X1927656Y-498500D01*
X1933092Y-500430D01*
X1939442Y-501192D01*
X2044446Y-501192D01*
X2048306Y-501904D01*
X2051608Y-504139D01*
X2053843Y-507441D01*
X2054606Y-511352D01*
X2054606Y-559612D01*
X2053843Y-563473D01*
X2051608Y-566826D01*
X2031492Y-586892D01*
X2028189Y-589178D01*
X2024278Y-589889D01*
X1941017Y-589889D01*
X1934718Y-590651D01*
X1929282Y-592582D01*
X1924354Y-595630D01*
X1920290Y-599694D01*
X1917192Y-604570D01*
X1915261Y-610108D01*
X1914550Y-616407D01*
X1914550Y-755243D01*
X1915261Y-761542D01*
X1917192Y-767029D01*
X1920290Y-771906D01*
X1924354Y-775970D01*
X1929282Y-779068D01*
X1934718Y-780999D01*
X1941017Y-781710D01*
X2039924Y-781710D01*
X2046224Y-780999D01*
X2051659Y-779068D01*
X2056587Y-775970D01*
X2060651Y-771906D01*
X2063750Y-767029D01*
X2065680Y-761542D01*
X2066391Y-755243D01*
X2066391Y-671931D01*
X2067153Y-668020D01*
X2069338Y-664819D01*
X2107285Y-626872D01*
X2110587Y-624687D01*
X2114448Y-623874D01*
X2118360Y-624687D01*
X2121662Y-626872D01*
X2123846Y-630174D01*
X2124608Y-634034D01*
X2124608Y-755243D01*
X2125319Y-761542D01*
X2127250Y-767029D01*
X2130348Y-771906D01*
X2134412Y-775970D01*
X2139340Y-779068D01*
X2144776Y-780999D01*
X2150618Y-781659D01*
X2154123Y-782726D01*
X2157018Y-784961D01*
X2158949Y-788111D01*
X2159609Y-791768D01*
X2159609Y-822198D01*
X2158847Y-826109D01*
X2156663Y-829411D01*
X2153361Y-831596D01*
X2149449Y-832358D01*
X2139442Y-832358D01*
X2133142Y-833069D01*
X2127656Y-834999D01*
X2122779Y-837996D01*
X2118664Y-842162D01*
X2115616Y-847039D01*
X2113686Y-852525D01*
X2112975Y-858824D01*
X2112975Y-995426D01*
X2113686Y-1001674D01*
X2115616Y-1007211D01*
X2118664Y-1012088D01*
X2122779Y-1016203D01*
X2127656Y-1019200D01*
X2133142Y-1021130D01*
X2139442Y-1021892D01*
X2251557Y-1021892D01*
X2257907Y-1021130D01*
X2263343Y-1019200D01*
X2268220Y-1016203D01*
X2272334Y-1012088D01*
X2275433Y-1007211D01*
X2277313Y-1001674D01*
X2278024Y-995426D01*
X2278024Y-858824D01*
X2277313Y-852525D01*
X2275433Y-847039D01*
X2272334Y-842162D01*
X2268220Y-837996D01*
X2263343Y-834999D01*
X2257907Y-833069D01*
X2250541Y-832307D01*
X2246985Y-831189D01*
X2244039Y-829005D01*
X2242108Y-825804D01*
X2241448Y-822198D01*
X2241448Y-791768D01*
X2242108Y-788111D01*
X2244039Y-784961D01*
X2246934Y-782726D01*
X2250440Y-781659D01*
X2256282Y-780999D01*
X2261717Y-779068D01*
X2266645Y-775970D01*
X2270709Y-771906D01*
X2273808Y-767029D01*
X2275738Y-761542D01*
X2276449Y-755243D01*
X2276449Y-616407D01*
X2275738Y-610108D01*
X2273808Y-604570D01*
X2270709Y-599694D01*
X2266645Y-595630D01*
X2261717Y-592582D01*
X2256282Y-590651D01*
X2249982Y-589889D01*
X2151075Y-589889D01*
X2147722Y-590296D01*
X2143506Y-589838D01*
X2139797Y-587806D01*
X2137308Y-584352D01*
X2136394Y-580237D01*
X2136394Y-511352D01*
X2137206Y-507441D01*
X2139391Y-504139D01*
X2142693Y-501904D01*
X2146554Y-501192D01*
X2251557Y-501192D01*
X2257907Y-500430D01*
X2263343Y-498500D01*
X2268220Y-495503D01*
X2272334Y-491388D01*
X2275433Y-486511D01*
X2277313Y-480974D01*
X2278024Y-474726D01*
X2278024Y-338124D01*
X2277313Y-331825D01*
X2275433Y-326339D01*
X2272334Y-321462D01*
X2268220Y-317296D01*
X2263343Y-314299D01*
X2257907Y-312369D01*
X2251557Y-311658D01*
X2246579Y-311658D01*
X2242667Y-310896D01*
X2239365Y-308711D01*
X2237181Y-305409D01*
X2236419Y-301498D01*
X2236419Y-263702D01*
X2237181Y-259791D01*
X2239365Y-256489D01*
X2242667Y-254254D01*
X2246579Y-253542D01*
X2254910Y-253542D01*
X2261260Y-252780D01*
X2266696Y-250850D01*
X2271623Y-247853D01*
X2275687Y-243738D01*
X2278786Y-238861D01*
X2280716Y-233324D01*
X2281428Y-227075D01*
X2281428Y-103174D01*
X2280716Y-96875D01*
X2278786Y-91389D01*
X2275687Y-86512D01*
X2271623Y-82346D01*
X2266696Y-79349D01*
X2261260Y-77419D01*
X2254910Y-76708D01*
X2156053Y-76708D01*
X2149754Y-77419D01*
X2144268Y-79349D01*
X2139391Y-82346D01*
X2135276Y-86512D01*
X2132228Y-91389D01*
X2130298Y-96875D01*
X2129586Y-103174D01*
X2129586Y-154940D01*
X2128824Y-158851D01*
X2126640Y-162102D01*
X2123338Y-164338D01*
X2119426Y-165100D01*
X2115566Y-164338D01*
X2112264Y-162102D01*
X2086711Y-136499D01*
X2080107Y-131165D01*
X2073046Y-127406D01*
X2068626Y-126034D01*
X2064867Y-123901D01*
X2062327Y-120446D01*
X2061413Y-116332D01*
X2061413Y-103174D01*
X2060702Y-96875D01*
X2058771Y-91389D01*
X2055723Y-86512D01*
X2051608Y-82346D01*
X2046732Y-79349D01*
X2041245Y-77419D01*
X2034946Y-76708D01*
X1959152Y-76708D01*
X1955241Y-75946D01*
X1951939Y-73761D01*
X1713331Y164896D01*
X1706727Y170281D01*
X1699666Y174142D01*
X1691995Y176377D01*
X1683562Y177241D01*
X1571091Y177241D01*
X1567180Y178054D01*
X1563928Y180187D01*
X1561693Y183489D01*
X1560931Y187401D01*
X1561693Y191262D01*
X1563928Y194614D01*
X1681022Y311708D01*
X1684324Y313893D01*
X1688185Y314706D01*
X1912162Y314706D01*
X1916023Y313893D01*
X1919325Y311708D01*
X1921510Y308457D01*
X1922322Y304546D01*
X1922322Y293624D01*
X1923034Y287375D01*
X1924913Y281838D01*
X1928012Y276961D01*
X1932076Y272846D01*
X1937004Y269849D01*
X1942439Y267919D01*
X1948789Y267157D01*
X2047646Y267157D01*
X2053945Y267919D01*
X2059432Y269849D01*
X2064308Y272846D01*
X2068423Y276961D01*
X2071471Y281838D01*
X2073402Y287375D01*
X2074113Y293624D01*
X2074113Y417525D01*
X2073402Y423824D01*
X2071471Y429310D01*
X2068423Y434187D01*
X2064308Y438353D01*
X2059432Y441350D01*
X2053945Y443280D01*
X2047646Y443992D01*
X1948789Y443992D01*
X1942439Y443280D01*
X1937004Y441350D01*
X1932076Y438353D01*
X1928012Y434187D01*
X1924913Y429310D01*
X1923034Y423824D01*
X1922322Y417525D01*
X1922322Y406654D01*
X1921510Y402742D01*
X1919325Y399440D01*
X1916023Y397306D01*
X1912162Y396494D01*
X1667560Y396494D01*
X1659077Y395630D01*
X1651406Y393395D01*
X1644345Y389534D01*
X1637792Y384200D01*
X1508861Y255219D01*
X1505559Y253034D01*
X1501648Y252272D01*
X1498854Y252272D01*
X1494993Y253034D01*
X1491691Y255219D01*
X1489506Y258571D01*
X1488694Y262382D01*
X1488694Y291592D01*
X1487881Y300075D01*
X1485544Y307695D01*
X1481785Y314807D01*
X1476705Y320954D01*
X1470507Y326034D01*
X1463446Y329895D01*
X1455775Y332130D01*
X1447292Y332994D01*
X1157681Y332994D01*
X1153769Y333806D01*
X1150467Y335940D01*
X1148283Y339242D01*
X1147521Y343154D01*
X1147521Y373126D01*
X1146810Y379425D01*
X1144879Y384911D01*
X1141780Y389788D01*
X1137716Y393954D01*
X1132789Y396951D01*
X1127353Y398881D01*
X1121054Y399592D01*
X987145Y399592D01*
X980846Y398881D01*
X975410Y396951D01*
X970483Y393954D01*
X966419Y389788D01*
X963320Y384911D01*
X961390Y379425D01*
X960678Y373126D01*
X960678Y271830D01*
X959916Y267919D01*
X957732Y264617D01*
X855573Y162509D01*
X852271Y160274D01*
X848360Y159512D01*
X844499Y160274D01*
X841197Y162509D01*
X839012Y165811D01*
X838200Y169722D01*
X838200Y216611D01*
X837387Y225044D01*
X835050Y232765D01*
X831291Y239775D01*
X825855Y246379D01*
X796290Y275945D01*
X794105Y279247D01*
X793292Y283108D01*
X793292Y384403D01*
X792581Y390702D01*
X790702Y396189D01*
X787603Y401066D01*
X783539Y405180D01*
X778611Y408279D01*
X773176Y410159D01*
X766826Y410870D01*
X626973Y410870D01*
X620674Y410159D01*
X615188Y408279D01*
X610311Y405180D01*
X606196Y401066D01*
X602691Y397052D01*
X598932Y395427D01*
X594868Y395427D01*
X591108Y397052D01*
X587603Y401066D01*
X583488Y405180D01*
X578612Y408279D01*
X573125Y410159D01*
X566826Y410870D01*
X538480Y410870D01*
X538480Y357581D01*
X590346Y357581D01*
X594207Y356819D01*
X597509Y354584D01*
X599744Y351282D01*
X600506Y347472D01*
X600506Y287528D01*
X599744Y283667D01*
X597509Y280365D01*
X594207Y278180D01*
X590346Y277368D01*
X538480Y277368D01*
X538480Y224078D01*
X566826Y224078D01*
X573125Y224840D01*
X578612Y226669D01*
X583488Y229819D01*
X587603Y233883D01*
X591108Y237896D01*
X594868Y239572D01*
X598932Y239572D01*
X602691Y237896D01*
X606196Y233883D01*
X610311Y229819D01*
X615188Y226669D01*
X620674Y224840D01*
X626973Y224078D01*
X728268Y224078D01*
X732129Y223367D01*
X735431Y221081D01*
X753414Y203098D01*
X755650Y199796D01*
X756412Y195935D01*
X756412Y-64160D01*
X755650Y-68021D01*
X753414Y-71323D01*
X750112Y-73507D01*
X746252Y-74320D01*
X732891Y-74320D01*
X724306Y-75082D01*
X716483Y-77317D01*
X709218Y-80924D01*
X702716Y-85801D01*
X697230Y-91846D01*
X692962Y-98806D01*
X691743Y-101904D01*
X689610Y-105257D01*
X686409Y-107543D01*
X682548Y-108458D01*
X678688Y-107746D01*
X670407Y-102616D01*
X664972Y-100736D01*
X658622Y-99974D01*
X628040Y-99974D01*
X628040Y-164592D01*
X695248Y-164592D01*
X699414Y-165404D01*
X702868Y-167995D01*
X750570Y-167995D01*
X752805Y-165100D01*
X755954Y-163169D01*
X759561Y-162458D01*
X835050Y-162458D01*
X838657Y-163169D01*
X841756Y-165100D01*
X844042Y-167995D01*
X903274Y-167995D01*
X901649Y-163779D01*
X896975Y-156260D01*
X895654Y-152806D01*
X895654Y-149047D01*
X896975Y-145592D01*
X901649Y-138023D01*
X904595Y-130505D01*
X906068Y-122428D01*
X906068Y-114350D01*
X904595Y-106324D01*
X901649Y-98806D01*
X897382Y-91846D01*
X891895Y-85801D01*
X885393Y-80924D01*
X878128Y-77317D01*
X870305Y-75082D01*
X861720Y-74320D01*
X848360Y-74320D01*
X844499Y-73507D01*
X841197Y-71323D01*
X839012Y-68021D01*
X838200Y-64160D01*
X838200Y25247D01*
X839012Y29108D01*
X841197Y32461D01*
X950569Y141833D01*
X953871Y144018D01*
X957783Y144830D01*
X1014018Y144830D01*
X1014018Y196596D01*
X1014780Y200507D01*
X1016965Y203860D01*
X1020267Y205994D01*
X1024178Y206806D01*
X1084021Y206806D01*
X1087932Y205994D01*
X1091234Y203860D01*
X1093419Y200507D01*
X1094181Y196596D01*
X1094181Y144830D01*
X1147521Y144830D01*
X1147521Y173177D01*
X1146810Y179476D01*
X1144879Y184861D01*
X1141780Y189788D01*
X1137716Y193852D01*
X1133652Y197408D01*
X1132078Y201117D01*
X1132078Y205232D01*
X1133652Y208940D01*
X1137716Y212496D01*
X1141780Y216611D01*
X1144879Y221538D01*
X1146810Y226923D01*
X1147521Y233222D01*
X1147521Y241046D01*
X1148283Y244957D01*
X1150467Y248208D01*
X1153769Y250393D01*
X1157681Y251206D01*
X1329944Y251206D01*
X1333754Y250444D01*
X1337005Y248361D01*
X1339189Y245211D01*
X1340104Y241503D01*
X1339545Y237642D01*
X1337614Y232156D01*
X1336903Y225806D01*
X1336903Y46888D01*
X1337614Y40589D01*
X1339494Y35102D01*
X1342593Y30226D01*
X1346708Y26111D01*
X1351584Y23114D01*
X1357071Y21183D01*
X1363370Y20421D01*
X1396746Y20421D01*
X1400606Y19710D01*
X1403908Y17424D01*
X1406144Y14173D01*
X1406906Y10261D01*
X1406906Y-469646D01*
X1406144Y-473557D01*
X1403908Y-476859D01*
X1400606Y-478993D01*
X1396746Y-479806D01*
X503732Y-479806D01*
X499872Y-478993D01*
X496570Y-476859D01*
X414985Y-395224D01*
X412750Y-391972D01*
X411988Y-388061D01*
X411988Y-367639D01*
X412750Y-363829D01*
X414985Y-360527D01*
X418287Y-358292D01*
X422148Y-357530D01*
X435508Y-357530D01*
X444093Y-356717D01*
X451916Y-354482D01*
X459181Y-350875D01*
X465683Y-345998D01*
X471170Y-340004D01*
X475437Y-332994D01*
X476656Y-329895D01*
X478790Y-326542D01*
X481990Y-324307D01*
X485851Y-323392D01*
X489712Y-324053D01*
X497992Y-329234D01*
X503428Y-331114D01*
X509778Y-331825D01*
X540359Y-331825D01*
X540359Y-267258D01*
X489356Y-267258D01*
X485038Y-266293D01*
X481533Y-263550D01*
X479501Y-259638D01*
X479348Y-255219D01*
X479856Y-252475D01*
X479856Y-244348D01*
X478383Y-236372D01*
X475437Y-228803D01*
X470814Y-221284D01*
X469442Y-217779D01*
X469442Y-214071D01*
X470814Y-210566D01*
X475437Y-202996D01*
X478383Y-195478D01*
X479856Y-187502D01*
X479856Y-179374D01*
X479348Y-176580D01*
X479501Y-172161D01*
X481533Y-168249D01*
X485038Y-165557D01*
X489356Y-164592D01*
X540359Y-164592D01*
X540359Y-99974D01*
X509778Y-99974D01*
X503428Y-100736D01*
X497992Y-102616D01*
X489712Y-107746D01*
X485851Y-108458D01*
X481990Y-107543D01*
X478790Y-105257D01*
X476656Y-101904D01*
X475437Y-98806D01*
X471170Y-91846D01*
X465683Y-85801D01*
X459181Y-80924D01*
X451916Y-77317D01*
X444093Y-75082D01*
X435508Y-74320D01*
X422148Y-74320D01*
X418287Y-73507D01*
X414985Y-71323D01*
X412800Y-68021D01*
X411988Y-64160D01*
X411988Y-52527D01*
X411175Y-44043D01*
X408838Y-36372D01*
X405079Y-29311D01*
X399643Y-22707D01*
X354634Y22250D01*
X352602Y25247D01*
X351688Y28803D01*
X303834Y790702D01*
X304444Y794867D01*
X306578Y798372D01*
X309981Y800760D01*
X313994Y801522D01*
X675132Y801522D01*
X679043Y800811D01*
X682294Y798525D01*
X684530Y795274D01*
X685292Y791362D01*
X685292Y595884D01*
X686104Y589381D01*
X688187Y583895D01*
X691743Y578713D01*
X694740Y575665D01*
X698347Y573024D01*
X703884Y570534D01*
X711352Y569366D01*
X1015390Y569366D01*
X1021892Y570230D01*
X1027430Y572262D01*
X1032560Y575818D01*
X1035608Y578815D01*
X1038250Y582472D01*
X1040739Y587959D01*
X1041908Y595426D01*
X1041908Y787806D01*
X1042669Y791718D01*
X1044905Y794969D01*
X1048156Y797204D01*
X1052068Y797966D01*
X2126996Y797966D01*
X2131263Y797052D01*
X2134717Y794461D01*
X2136800Y790600D01*
X2137054Y786180D01*
X2135428Y782167D01*
X2132279Y779119D01*
X2125573Y775055D01*
X2113635Y765708D01*
X2102866Y754938D01*
X2093518Y743000D01*
X2085644Y729996D01*
X2080412Y718362D01*
X2078177Y715264D01*
X2074925Y713130D01*
X2071166Y712419D01*
X1544929Y712419D01*
X1536496Y711555D01*
X1528826Y709218D01*
X1521764Y705510D01*
X1515160Y700024D01*
X1508810Y693775D01*
X1505508Y691489D01*
X1501648Y690727D01*
X1363370Y690727D01*
X1357071Y690016D01*
X1351584Y688086D01*
X1346708Y685088D01*
X1342593Y680923D01*
X1339494Y676046D01*
X1337614Y670560D01*
X1336903Y664260D01*
X1336903Y485393D01*
X1337614Y479043D01*
X1339494Y473608D01*
X1342593Y468680D01*
X1346708Y464667D01*
X1351584Y461518D01*
X1357071Y459638D01*
X1363370Y458927D01*
X1532229Y458927D01*
X1538528Y459638D01*
X1544015Y461518D01*
X1548892Y464667D01*
X1553006Y468680D01*
X1556105Y473608D01*
X1557985Y479043D01*
X1558696Y485393D01*
X1558696Y620420D01*
X1559458Y624281D01*
X1561693Y627583D01*
X1564995Y629818D01*
X1568856Y630580D01*
X2071166Y630580D01*
X2074925Y629869D01*
X2078177Y627735D01*
X2080412Y624586D01*
X2085644Y612952D01*
X2093518Y599998D01*
X2102866Y588010D01*
X2113635Y577240D01*
X2125573Y567893D01*
X2138578Y560019D01*
X2152446Y553770D01*
X2166975Y549300D01*
X2181910Y546506D01*
X2197100Y545592D01*
X2212289Y546506D01*
X2227224Y549300D01*
X2241753Y553770D01*
X2255621Y560019D01*
X2268626Y567893D01*
X2280564Y577240D01*
X2291334Y588010D01*
X2300681Y599998D01*
X2304745Y606653D01*
X2307742Y609854D01*
X2311806Y611428D01*
X2316175Y611225D01*
X2320036Y609092D01*
X2322677Y605637D01*
X2323592Y601370D01*
X2323592Y-1099820D01*
X2322728Y-1103985D01*
X2320239Y-1107389D01*
X2316581Y-1109522D01*
X2312365Y-1109980D01*
X2302865Y-1106678D01*
X2296515Y-1106017D01*
X2253437Y-1106017D01*
X2253437Y-1175512D01*
X2313432Y-1175512D01*
X2317343Y-1176324D01*
X2320594Y-1178509D01*
X2322830Y-1181811D01*
X2323592Y-1185722D01*
X2323592Y-1278077D01*
X2322830Y-1281938D01*
X2320594Y-1285290D01*
X2317343Y-1287526D01*
X2313432Y-1288288D01*
X2253437Y-1288288D01*
X2253437Y-1337157D01*
X2252675Y-1341069D01*
X2250490Y-1344320D01*
X2247188Y-1346504D01*
X2243277Y-1347317D01*
X2150922Y-1347317D01*
X2147011Y-1346504D01*
X2143709Y-1344320D01*
X2141524Y-1341069D01*
X2140762Y-1337157D01*
X2140762Y-1288288D01*
X2071217Y-1288288D01*
X2071217Y-1331315D01*
X2071725Y-1336040D01*
X2071319Y-1340256D01*
X2069185Y-1343914D01*
X2065782Y-1346454D01*
X2061616Y-1347317D01*
G37*

%LPC*%
G36*
X1529842Y-1301292D02*
G01*
X1551228Y-1301292D01*
X1551228Y-1247292D01*
X1503375Y-1247292D01*
X1503375Y-1274826D01*
X1504086Y-1281074D01*
X1506016Y-1286611D01*
X1509064Y-1291488D01*
X1513179Y-1295603D01*
X1518056Y-1298600D01*
X1523542Y-1300530D01*
G37*
G36*
X1620570Y-1301292D02*
G01*
X1641957Y-1301292D01*
X1648307Y-1300530D01*
X1653743Y-1298600D01*
X1658620Y-1295603D01*
X1662734Y-1291488D01*
X1665833Y-1286611D01*
X1667713Y-1281074D01*
X1668424Y-1274826D01*
X1668424Y-1247292D01*
X1620570Y-1247292D01*
G37*
G36*
X2071217Y-1175512D02*
G01*
X2140762Y-1175512D01*
X2140762Y-1106017D01*
X2097684Y-1106017D01*
X2091334Y-1106678D01*
X2085898Y-1108608D01*
X2080971Y-1111707D01*
X2076907Y-1115822D01*
X2073808Y-1120698D01*
X2071928Y-1126134D01*
X2071217Y-1132484D01*
G37*
G36*
X1620570Y-1165707D02*
G01*
X1668424Y-1165707D01*
X1668424Y-1138224D01*
X1667713Y-1131925D01*
X1665833Y-1126439D01*
X1662734Y-1121562D01*
X1658620Y-1117396D01*
X1653743Y-1114399D01*
X1648307Y-1112469D01*
X1641957Y-1111758D01*
X1620570Y-1111758D01*
G37*
G36*
X1503375Y-1165707D02*
G01*
X1551228Y-1165707D01*
X1551228Y-1111758D01*
X1529842Y-1111758D01*
X1523542Y-1112469D01*
X1518056Y-1114399D01*
X1513179Y-1117396D01*
X1509064Y-1121562D01*
X1506016Y-1126439D01*
X1504086Y-1131925D01*
X1503375Y-1138224D01*
G37*
G36*
X1816100Y-1114602D02*
G01*
X1828342Y-1113739D01*
X1840280Y-1111097D01*
X1851761Y-1106830D01*
X1862531Y-1100988D01*
X1872335Y-1093622D01*
X1881022Y-1084986D01*
X1888337Y-1075182D01*
X1894230Y-1064412D01*
X1898497Y-1052880D01*
X1901088Y-1040942D01*
X1902002Y-1028750D01*
X1901342Y-1020013D01*
X1901901Y-1015949D01*
X1903984Y-1012393D01*
X1907286Y-1010056D01*
X1911248Y-1009142D01*
X1915261Y-1009853D01*
X1918665Y-1012088D01*
X1922780Y-1016203D01*
X1927656Y-1019200D01*
X1933092Y-1021130D01*
X1939442Y-1021892D01*
X2051557Y-1021892D01*
X2057857Y-1021130D01*
X2063343Y-1019200D01*
X2068220Y-1016203D01*
X2072335Y-1012088D01*
X2075383Y-1007211D01*
X2077313Y-1001674D01*
X2078024Y-995426D01*
X2078024Y-858824D01*
X2077313Y-852525D01*
X2075383Y-847039D01*
X2072335Y-842162D01*
X2068220Y-837996D01*
X2063343Y-834999D01*
X2057857Y-833069D01*
X2051557Y-832358D01*
X1939442Y-832358D01*
X1933092Y-833069D01*
X1927656Y-834999D01*
X1922780Y-837996D01*
X1918665Y-842162D01*
X1915566Y-847039D01*
X1913686Y-852525D01*
X1912975Y-858824D01*
X1912975Y-878484D01*
X1912061Y-882751D01*
X1909521Y-886155D01*
X1905762Y-888237D01*
X1902053Y-889304D01*
X1894992Y-893165D01*
X1888439Y-898499D01*
X1844497Y-942441D01*
X1841754Y-944422D01*
X1838553Y-945387D01*
X1835150Y-945184D01*
X1828342Y-943711D01*
X1816100Y-942848D01*
X1803857Y-943711D01*
X1791919Y-946302D01*
X1780438Y-950620D01*
X1769668Y-956462D01*
X1759864Y-963828D01*
X1751177Y-972464D01*
X1743862Y-982319D01*
X1737969Y-993038D01*
X1733702Y-1004519D01*
X1731111Y-1016508D01*
X1730197Y-1028750D01*
X1731111Y-1040942D01*
X1733702Y-1052880D01*
X1737969Y-1064412D01*
X1743862Y-1075182D01*
X1751177Y-1084986D01*
X1759864Y-1093622D01*
X1769668Y-1100988D01*
X1780438Y-1106830D01*
X1791919Y-1111097D01*
X1803857Y-1113739D01*
G37*
G36*
X1201724Y-411124D02*
G01*
X1338275Y-411124D01*
X1344625Y-410464D01*
X1350060Y-408533D01*
X1354988Y-405485D01*
X1359052Y-401320D01*
X1362151Y-396443D01*
X1364030Y-391007D01*
X1364742Y-384657D01*
X1364742Y-272592D01*
X1364030Y-266242D01*
X1362151Y-260807D01*
X1359052Y-255879D01*
X1354988Y-251815D01*
X1350060Y-248716D01*
X1344625Y-246786D01*
X1338275Y-246024D01*
X1249527Y-246024D01*
X1245666Y-245313D01*
X1242364Y-243078D01*
X1227734Y-228447D01*
X1225346Y-224739D01*
X1224788Y-220319D01*
X1226159Y-216103D01*
X1229207Y-212902D01*
X1229207Y-163271D01*
X1175258Y-163271D01*
X1175258Y-184658D01*
X1175969Y-191008D01*
X1176985Y-194005D01*
X1177544Y-197815D01*
X1176680Y-201472D01*
X1174445Y-204673D01*
X1171194Y-206756D01*
X1167434Y-207517D01*
X914552Y-207517D01*
X911047Y-206857D01*
X907948Y-204978D01*
X905662Y-202285D01*
X904544Y-198882D01*
X844042Y-198882D01*
X841756Y-201777D01*
X838657Y-203657D01*
X835050Y-204317D01*
X759561Y-204317D01*
X755954Y-203657D01*
X752805Y-201777D01*
X750570Y-198882D01*
X705408Y-198882D01*
X705408Y-208889D01*
X704748Y-212598D01*
X702818Y-215696D01*
X697128Y-221996D01*
X692962Y-228803D01*
X690016Y-236372D01*
X688543Y-244348D01*
X688543Y-252475D01*
X689051Y-255219D01*
X688898Y-259638D01*
X686866Y-263550D01*
X683361Y-266293D01*
X679043Y-267258D01*
X628040Y-267258D01*
X628040Y-331825D01*
X658622Y-331825D01*
X664972Y-331114D01*
X670407Y-329234D01*
X673404Y-327355D01*
X671220Y-325882D01*
X669036Y-322580D01*
X668274Y-318719D01*
X668274Y-308152D01*
X669036Y-304241D01*
X671220Y-300939D01*
X674522Y-298704D01*
X678434Y-297992D01*
X750570Y-297992D01*
X752805Y-295097D01*
X755954Y-293217D01*
X759561Y-292557D01*
X835050Y-292557D01*
X838657Y-293217D01*
X841756Y-295097D01*
X844042Y-297992D01*
X904494Y-297992D01*
X905662Y-294589D01*
X907948Y-291795D01*
X911047Y-289915D01*
X914552Y-289306D01*
X1165098Y-289306D01*
X1168958Y-290118D01*
X1172260Y-292303D01*
X1174445Y-295605D01*
X1175258Y-299466D01*
X1175258Y-384657D01*
X1175969Y-391007D01*
X1177848Y-396443D01*
X1180947Y-401320D01*
X1185011Y-405485D01*
X1189939Y-408533D01*
X1195374Y-410464D01*
G37*
G36*
X845210Y-357530D02*
G01*
X861720Y-357530D01*
X870305Y-356717D01*
X878128Y-354482D01*
X885393Y-350875D01*
X891895Y-345998D01*
X897382Y-340004D01*
X901649Y-332994D01*
X903274Y-328879D01*
X845210Y-328879D01*
G37*
G36*
X732891Y-357530D02*
G01*
X749401Y-357530D01*
X749401Y-328879D01*
X691083Y-328879D01*
X692962Y-332994D01*
X697230Y-340004D01*
X702716Y-345998D01*
X709218Y-350875D01*
X716483Y-354482D01*
X724306Y-356717D01*
G37*
G36*
X1310792Y-211175D02*
G01*
X1338275Y-211175D01*
X1344625Y-210464D01*
X1350060Y-208534D01*
X1354988Y-205384D01*
X1359052Y-201371D01*
X1362151Y-196443D01*
X1364030Y-191008D01*
X1364742Y-184658D01*
X1364742Y-163271D01*
X1310792Y-163271D01*
G37*
G36*
X1175258Y-93980D02*
G01*
X1229207Y-93980D01*
X1229207Y-46075D01*
X1201724Y-46075D01*
X1195374Y-46736D01*
X1189939Y-48666D01*
X1185011Y-51765D01*
X1180947Y-55880D01*
X1177848Y-60756D01*
X1175969Y-66192D01*
X1175258Y-72542D01*
G37*
G36*
X1310792Y-93980D02*
G01*
X1364742Y-93980D01*
X1364742Y-72542D01*
X1364030Y-66192D01*
X1362151Y-60756D01*
X1359052Y-55880D01*
X1354988Y-51765D01*
X1350060Y-48666D01*
X1344625Y-46736D01*
X1338275Y-46075D01*
X1310792Y-46075D01*
G37*
G36*
X2030171Y-5892D02*
G01*
X2051557Y-5892D01*
X2057857Y-5130D01*
X2063343Y-3200D01*
X2068220Y-203D01*
X2072335Y3911D01*
X2075383Y8788D01*
X2077313Y14325D01*
X2078024Y20574D01*
X2078024Y48107D01*
X2030171Y48107D01*
G37*
G36*
X1939442Y-5892D02*
G01*
X1960829Y-5892D01*
X1960829Y48107D01*
X1912975Y48107D01*
X1912975Y20574D01*
X1913686Y14325D01*
X1915566Y8788D01*
X1918665Y3911D01*
X1922780Y-203D01*
X1927656Y-3200D01*
X1933092Y-5130D01*
G37*
G36*
X2139442Y-5892D02*
G01*
X2251557Y-5892D01*
X2257907Y-5130D01*
X2263343Y-3200D01*
X2268220Y-203D01*
X2272334Y3911D01*
X2275433Y8788D01*
X2277313Y14325D01*
X2278024Y20574D01*
X2278024Y157175D01*
X2277313Y163474D01*
X2275433Y168960D01*
X2272334Y173837D01*
X2268220Y178003D01*
X2263851Y180695D01*
X2261311Y182930D01*
X2259685Y185928D01*
X2259126Y189280D01*
X2259126Y257200D01*
X2259787Y260756D01*
X2261717Y263956D01*
X2264613Y266141D01*
X2268118Y267208D01*
X2273960Y267919D01*
X2279396Y269849D01*
X2284323Y272846D01*
X2288387Y276961D01*
X2291486Y281838D01*
X2293416Y287375D01*
X2294128Y293624D01*
X2294128Y417525D01*
X2293416Y423824D01*
X2291486Y429310D01*
X2288387Y434187D01*
X2284323Y438353D01*
X2279396Y441350D01*
X2273960Y443280D01*
X2267610Y443992D01*
X2168753Y443992D01*
X2162454Y443280D01*
X2156968Y441350D01*
X2152091Y438353D01*
X2147976Y434187D01*
X2144928Y429310D01*
X2142998Y423824D01*
X2142286Y417525D01*
X2142286Y293624D01*
X2142998Y287375D01*
X2144928Y281838D01*
X2147976Y276961D01*
X2152091Y272846D01*
X2156968Y269849D01*
X2162454Y267919D01*
X2168296Y267208D01*
X2171801Y266141D01*
X2174697Y263956D01*
X2176627Y260756D01*
X2177288Y257200D01*
X2177288Y193802D01*
X2176526Y189890D01*
X2174341Y186588D01*
X2171039Y184404D01*
X2167128Y183642D01*
X2139442Y183642D01*
X2133142Y182930D01*
X2127656Y181000D01*
X2122779Y178003D01*
X2118664Y173837D01*
X2115616Y168960D01*
X2113686Y163474D01*
X2112975Y157175D01*
X2112975Y20574D01*
X2113686Y14325D01*
X2115616Y8788D01*
X2118664Y3911D01*
X2122779Y-203D01*
X2127656Y-3200D01*
X2133142Y-5130D01*
G37*
G36*
X987145Y6756D02*
G01*
X1014018Y6756D01*
X1014018Y61569D01*
X960678Y61569D01*
X960678Y33223D01*
X961390Y26924D01*
X963320Y21437D01*
X966419Y16560D01*
X970483Y12446D01*
X975410Y9448D01*
X980846Y7518D01*
G37*
G36*
X1094181Y6756D02*
G01*
X1121054Y6756D01*
X1127353Y7518D01*
X1132789Y9448D01*
X1137716Y12446D01*
X1141780Y16560D01*
X1144879Y21437D01*
X1146810Y26924D01*
X1147521Y33223D01*
X1147521Y61569D01*
X1094181Y61569D01*
G37*
G36*
X1912975Y129692D02*
G01*
X1960829Y129692D01*
X1960829Y183642D01*
X1939442Y183642D01*
X1933092Y182930D01*
X1927656Y181000D01*
X1922780Y178003D01*
X1918665Y173837D01*
X1915566Y168960D01*
X1913686Y163474D01*
X1912975Y157175D01*
G37*
G36*
X2030171Y129692D02*
G01*
X2078024Y129692D01*
X2078024Y157175D01*
X2077313Y163474D01*
X2075383Y168960D01*
X2072335Y173837D01*
X2068220Y178003D01*
X2063343Y181000D01*
X2057857Y182930D01*
X2051557Y183642D01*
X2030171Y183642D01*
G37*
G36*
X426974Y224078D02*
G01*
X455320Y224078D01*
X455320Y277368D01*
X400507Y277368D01*
X400507Y250545D01*
X401218Y244246D01*
X403098Y238760D01*
X406196Y233883D01*
X410260Y229819D01*
X415188Y226669D01*
X420624Y224840D01*
G37*
G36*
X400507Y357581D02*
G01*
X455320Y357581D01*
X455320Y410870D01*
X426974Y410870D01*
X420624Y410159D01*
X415188Y408279D01*
X410260Y405180D01*
X406196Y401066D01*
X403098Y396189D01*
X401218Y390702D01*
X400507Y384403D01*
G37*

%LPD*%
G36*
X447649Y-1347317D02*
G01*
X443941Y-1346606D01*
X440690Y-1344523D01*
X438454Y-1341475D01*
X437540Y-1337818D01*
X422198Y-1093724D01*
X422757Y-1089609D01*
X424942Y-1086104D01*
X428294Y-1083716D01*
X432358Y-1082954D01*
X722782Y-1082954D01*
X731266Y-1082090D01*
X738936Y-1079754D01*
X745998Y-1075944D01*
X752195Y-1070914D01*
X757275Y-1064666D01*
X761034Y-1057656D01*
X763371Y-1049934D01*
X764184Y-1041552D01*
X764184Y-1010208D01*
X764997Y-1006297D01*
X767181Y-1002995D01*
X770483Y-1000810D01*
X774344Y-1000048D01*
X776274Y-1000048D01*
X784098Y-999032D01*
X787501Y-999134D01*
X790651Y-1000455D01*
X793242Y-1002639D01*
X796950Y-1007211D01*
X916482Y-1126744D01*
X918718Y-1130046D01*
X919480Y-1133957D01*
X918718Y-1137869D01*
X916482Y-1141120D01*
X913180Y-1143304D01*
X909319Y-1144117D01*
X699109Y-1144117D01*
X692607Y-1144930D01*
X687070Y-1147013D01*
X681939Y-1150569D01*
X678891Y-1153515D01*
X676249Y-1157173D01*
X673760Y-1162710D01*
X672592Y-1170127D01*
X672592Y-1337157D01*
X671830Y-1341069D01*
X669594Y-1344320D01*
X666343Y-1346504D01*
X662432Y-1347317D01*
G37*

%LPD*%
G36*
X-2723896Y-1347317D02*
G01*
X-2728163Y-1346403D01*
X-2731617Y-1343761D01*
X-2733700Y-1339900D01*
X-2733954Y-1335532D01*
X-2732328Y-1331468D01*
X-2729179Y-1328420D01*
X-2722473Y-1324406D01*
X-2710535Y-1315059D01*
X-2699766Y-1304290D01*
X-2690418Y-1292301D01*
X-2682544Y-1279347D01*
X-2677210Y-1267561D01*
X-2675026Y-1264361D01*
X-2671775Y-1262278D01*
X-2667965Y-1261516D01*
X-1796288Y-1260348D01*
X-1792376Y-1261059D01*
X-1789074Y-1263294D01*
X-1786889Y-1266596D01*
X-1786077Y-1270508D01*
X-1786077Y-1281176D01*
X-1785366Y-1287424D01*
X-1783486Y-1292961D01*
X-1780387Y-1297838D01*
X-1776323Y-1301953D01*
X-1771396Y-1304950D01*
X-1765960Y-1306880D01*
X-1759610Y-1307642D01*
X-1660753Y-1307642D01*
X-1654454Y-1306880D01*
X-1648968Y-1304950D01*
X-1644091Y-1301953D01*
X-1639976Y-1297838D01*
X-1636928Y-1292961D01*
X-1634998Y-1287424D01*
X-1634286Y-1281176D01*
X-1634286Y-1157274D01*
X-1634998Y-1150975D01*
X-1636928Y-1145489D01*
X-1639976Y-1140612D01*
X-1644091Y-1136446D01*
X-1648968Y-1133449D01*
X-1654454Y-1131519D01*
X-1660753Y-1130808D01*
X-1759610Y-1130808D01*
X-1765960Y-1131519D01*
X-1771396Y-1133449D01*
X-1776323Y-1136446D01*
X-1780387Y-1140612D01*
X-1783486Y-1145489D01*
X-1785366Y-1150975D01*
X-1786077Y-1157274D01*
X-1786077Y-1168349D01*
X-1786889Y-1172260D01*
X-1789074Y-1175461D01*
X-1792376Y-1177747D01*
X-1796237Y-1178458D01*
X-2635097Y-1179677D01*
X-2639009Y-1178915D01*
X-2642311Y-1176731D01*
X-2644495Y-1173429D01*
X-2645308Y-1169517D01*
X-2644495Y-1165656D01*
X-2642311Y-1162304D01*
X-2161844Y-681888D01*
X-2158847Y-679754D01*
X-2155342Y-678891D01*
X-2151735Y-679246D01*
X-2148484Y-680974D01*
X-2145080Y-685088D01*
X-2141016Y-689203D01*
X-2136952Y-692759D01*
X-2135378Y-696468D01*
X-2135378Y-700582D01*
X-2136952Y-704291D01*
X-2141016Y-707847D01*
X-2145080Y-711911D01*
X-2148179Y-716838D01*
X-2150110Y-722223D01*
X-2150821Y-728522D01*
X-2150821Y-756869D01*
X-2097481Y-756869D01*
X-2097481Y-705104D01*
X-2096719Y-701192D01*
X-2094534Y-697839D01*
X-2091232Y-695706D01*
X-2087321Y-694893D01*
X-2027478Y-694893D01*
X-2023567Y-695706D01*
X-2020265Y-697839D01*
X-2018080Y-701192D01*
X-2017318Y-705104D01*
X-2017318Y-756869D01*
X-1963978Y-756869D01*
X-1963978Y-728522D01*
X-1964689Y-722223D01*
X-1966620Y-716838D01*
X-1969719Y-711911D01*
X-1973783Y-707847D01*
X-1977847Y-704291D01*
X-1979422Y-700582D01*
X-1979422Y-696468D01*
X-1977847Y-692759D01*
X-1973783Y-689203D01*
X-1969719Y-685088D01*
X-1966620Y-680161D01*
X-1964689Y-674776D01*
X-1964080Y-669391D01*
X-1963013Y-665886D01*
X-1960778Y-662990D01*
X-1957628Y-661060D01*
X-1954022Y-660400D01*
X-1845868Y-660400D01*
X-1841957Y-661111D01*
X-1838706Y-663346D01*
X-1836470Y-666597D01*
X-1835708Y-670509D01*
X-1835708Y-675690D01*
X-1834997Y-681990D01*
X-1833067Y-687425D01*
X-1830019Y-692353D01*
X-1825904Y-696366D01*
X-1821027Y-699516D01*
X-1814931Y-701649D01*
X-1811375Y-703732D01*
X-1808988Y-707136D01*
X-1808124Y-711250D01*
X-1808988Y-715314D01*
X-1811375Y-718667D01*
X-1814931Y-720801D01*
X-1821027Y-722934D01*
X-1825904Y-726033D01*
X-1830019Y-730097D01*
X-1833067Y-734974D01*
X-1834997Y-740511D01*
X-1835708Y-746810D01*
X-1835708Y-909167D01*
X-1834997Y-915466D01*
X-1833067Y-920953D01*
X-1830019Y-925830D01*
X-1825904Y-929894D01*
X-1821027Y-933043D01*
X-1815541Y-934923D01*
X-1809242Y-935634D01*
X-1594358Y-935634D01*
X-1588058Y-934923D01*
X-1582572Y-933043D01*
X-1577695Y-929894D01*
X-1573580Y-925830D01*
X-1570532Y-920953D01*
X-1568602Y-915466D01*
X-1567891Y-909167D01*
X-1567891Y-903884D01*
X-1567129Y-900023D01*
X-1564894Y-896772D01*
X-1561642Y-894587D01*
X-1557731Y-893724D01*
X-1438046Y-893724D01*
X-1427378Y-892962D01*
X-1417320Y-890574D01*
X-1407769Y-886612D01*
X-1398930Y-881227D01*
X-1390802Y-874166D01*
X-1148029Y-631698D01*
X-1141018Y-623519D01*
X-1135634Y-614730D01*
X-1131671Y-605180D01*
X-1129233Y-595172D01*
X-1128420Y-584454D01*
X-1128420Y-429107D01*
X-1127607Y-425196D01*
X-1125423Y-421995D01*
X-1120597Y-417118D01*
X-1117498Y-412242D01*
X-1115618Y-406704D01*
X-1114907Y-400456D01*
X-1114907Y-366014D01*
X-1114094Y-362153D01*
X-1111910Y-358800D01*
X-1108608Y-356666D01*
X-1104747Y-355854D01*
X-1100836Y-356666D01*
X-1097534Y-358800D01*
X-1046530Y-409854D01*
X-1044346Y-413207D01*
X-1043584Y-417118D01*
X-1043584Y-423824D01*
X-1042060Y-434035D01*
X-1038910Y-443941D01*
X-1034287Y-453135D01*
X-1028242Y-461568D01*
X-1021029Y-468934D01*
X-1012698Y-475030D01*
X-1003503Y-479806D01*
X-993698Y-483057D01*
X-988821Y-483819D01*
X-985469Y-485089D01*
X-982726Y-487273D01*
X-980948Y-490423D01*
X-980287Y-493928D01*
X-980287Y-520395D01*
X-979474Y-531114D01*
X-977036Y-541172D01*
X-973074Y-550722D01*
X-967689Y-559511D01*
X-960729Y-567690D01*
X-823061Y-705104D01*
X-814933Y-711962D01*
X-806145Y-717346D01*
X-796594Y-721309D01*
X-786536Y-723747D01*
X-775817Y-724611D01*
X-746709Y-724611D01*
X-743356Y-725170D01*
X-740410Y-726846D01*
X-738124Y-729386D01*
X-736752Y-731520D01*
X-732688Y-735685D01*
X-727760Y-738733D01*
X-722325Y-740664D01*
X-715975Y-741324D01*
X-579424Y-741324D01*
X-573176Y-740664D01*
X-566166Y-738073D01*
X-562610Y-737362D01*
X-483920Y-737362D01*
X-480314Y-738124D01*
X-477164Y-740003D01*
X-474929Y-742950D01*
X-473709Y-747776D01*
X-471779Y-753262D01*
X-468680Y-758139D01*
X-464616Y-762254D01*
X-459689Y-765251D01*
X-454253Y-767181D01*
X-447954Y-767943D01*
X-314045Y-767943D01*
X-307746Y-767181D01*
X-302310Y-765251D01*
X-297383Y-762254D01*
X-293319Y-758139D01*
X-290220Y-753262D01*
X-288290Y-747776D01*
X-287578Y-741476D01*
X-287578Y-601522D01*
X-288290Y-595223D01*
X-290220Y-589838D01*
X-293319Y-584911D01*
X-297383Y-580847D01*
X-301447Y-577291D01*
X-303022Y-573582D01*
X-303022Y-569468D01*
X-301447Y-565759D01*
X-297383Y-562203D01*
X-293319Y-558088D01*
X-290220Y-553161D01*
X-288290Y-547776D01*
X-287578Y-541477D01*
X-287578Y-513130D01*
X-340918Y-513130D01*
X-340918Y-564896D01*
X-341680Y-568807D01*
X-343865Y-572160D01*
X-347167Y-574294D01*
X-351078Y-575106D01*
X-410921Y-575106D01*
X-414832Y-574294D01*
X-418134Y-572160D01*
X-420319Y-568807D01*
X-421081Y-564896D01*
X-421081Y-513130D01*
X-474421Y-513130D01*
X-474421Y-541477D01*
X-473709Y-547776D01*
X-471779Y-553161D01*
X-468680Y-558088D01*
X-464616Y-562203D01*
X-460552Y-565759D01*
X-458978Y-569468D01*
X-458978Y-573582D01*
X-460552Y-577291D01*
X-464616Y-580847D01*
X-468680Y-584911D01*
X-471779Y-589838D01*
X-473709Y-595223D01*
X-474929Y-600049D01*
X-477164Y-602996D01*
X-480314Y-604926D01*
X-483920Y-605637D01*
X-543560Y-605637D01*
X-547166Y-604926D01*
X-550316Y-602996D01*
X-552551Y-600049D01*
X-555548Y-591007D01*
X-558647Y-586079D01*
X-562711Y-582015D01*
X-567639Y-578916D01*
X-573074Y-576986D01*
X-579424Y-576224D01*
X-715975Y-576224D01*
X-722325Y-576986D01*
X-727760Y-578916D01*
X-732688Y-582015D01*
X-739749Y-589584D01*
X-742950Y-591261D01*
X-746556Y-591667D01*
X-750062Y-590804D01*
X-753059Y-588721D01*
X-845515Y-496468D01*
X-847699Y-493115D01*
X-848512Y-489204D01*
X-848512Y-424738D01*
X-848664Y-419811D01*
X-849325Y-414172D01*
X-850239Y-409549D01*
X-851712Y-404164D01*
X-853338Y-399745D01*
X-855675Y-394512D01*
X-857961Y-390499D01*
X-861110Y-385724D01*
X-864006Y-382066D01*
X-867816Y-377850D01*
X-871270Y-374700D01*
X-875639Y-371246D01*
X-880465Y-368046D01*
X-882954Y-365810D01*
X-884529Y-362864D01*
X-885088Y-359562D01*
X-885088Y-355447D01*
X-884326Y-351637D01*
X-882091Y-348335D01*
X-878789Y-346049D01*
X-874928Y-345338D01*
X-831646Y-345389D01*
X-827735Y-346100D01*
X-824433Y-348335D01*
X-745439Y-427380D01*
X-743254Y-430631D01*
X-742442Y-434492D01*
X-742442Y-514858D01*
X-741730Y-521208D01*
X-739851Y-526643D01*
X-736752Y-531571D01*
X-732688Y-535584D01*
X-727760Y-538734D01*
X-722325Y-540664D01*
X-715975Y-541375D01*
X-579424Y-541375D01*
X-573074Y-540664D01*
X-567639Y-538734D01*
X-562711Y-535584D01*
X-558647Y-531571D01*
X-555548Y-526643D01*
X-553669Y-521208D01*
X-552958Y-514858D01*
X-552958Y-402742D01*
X-553669Y-396392D01*
X-555548Y-390956D01*
X-558647Y-386080D01*
X-562711Y-381965D01*
X-567639Y-378866D01*
X-573074Y-376936D01*
X-579424Y-376275D01*
X-605891Y-376275D01*
X-609803Y-375462D01*
X-613105Y-373329D01*
X-753211Y-233171D01*
X-761339Y-226263D01*
X-770128Y-220827D01*
X-779678Y-216865D01*
X-789736Y-214426D01*
X-800455Y-213614D01*
X-874928Y-213512D01*
X-878840Y-212699D01*
X-882142Y-210566D01*
X-884326Y-207264D01*
X-885088Y-203352D01*
X-885088Y-173177D01*
X-884224Y-169113D01*
X-881735Y-165709D01*
X-624586Y67665D01*
X-621385Y69596D01*
X-617728Y70256D01*
X-504545Y70256D01*
X-498246Y71018D01*
X-492810Y72948D01*
X-487883Y75946D01*
X-483819Y80060D01*
X-480720Y84937D01*
X-478790Y90424D01*
X-478078Y96723D01*
X-478078Y128320D01*
X-477316Y132181D01*
X-475132Y135534D01*
X-471830Y137668D01*
X-467918Y138480D01*
X-346202Y138480D01*
X-342341Y137668D01*
X-339039Y135534D01*
X-336854Y132181D01*
X-336042Y128320D01*
X-336042Y123342D01*
X-335330Y116992D01*
X-333451Y111556D01*
X-330352Y106680D01*
X-326288Y102514D01*
X-321360Y99466D01*
X-315925Y97536D01*
X-309575Y96875D01*
X-173024Y96875D01*
X-166674Y97536D01*
X-161239Y99466D01*
X-156311Y102514D01*
X-152247Y106680D01*
X-149148Y111556D01*
X-147269Y116992D01*
X-146558Y123342D01*
X-146558Y235407D01*
X-147269Y241757D01*
X-149148Y247192D01*
X-152247Y252120D01*
X-156311Y256184D01*
X-161239Y259283D01*
X-166674Y261213D01*
X-173024Y261975D01*
X-309575Y261975D01*
X-315925Y261213D01*
X-321360Y259283D01*
X-326288Y256184D01*
X-330352Y252120D01*
X-333451Y247192D01*
X-335330Y241757D01*
X-336042Y235407D01*
X-336042Y230428D01*
X-336854Y226567D01*
X-339039Y223266D01*
X-342341Y221030D01*
X-346202Y220268D01*
X-467918Y220268D01*
X-471830Y221030D01*
X-475132Y223266D01*
X-477316Y226567D01*
X-478078Y230428D01*
X-478078Y236677D01*
X-478790Y242976D01*
X-480720Y248361D01*
X-483819Y253288D01*
X-487883Y257352D01*
X-491947Y260908D01*
X-493522Y264617D01*
X-493522Y268732D01*
X-491947Y272440D01*
X-487883Y275996D01*
X-483819Y280111D01*
X-480720Y285038D01*
X-478790Y290423D01*
X-478078Y296722D01*
X-478078Y436626D01*
X-478790Y442925D01*
X-480720Y448411D01*
X-483819Y453288D01*
X-487883Y457454D01*
X-492810Y460451D01*
X-498246Y462381D01*
X-504545Y463092D01*
X-638454Y463092D01*
X-644753Y462381D01*
X-650189Y460451D01*
X-655116Y457454D01*
X-659180Y453288D01*
X-662279Y448411D01*
X-664210Y442925D01*
X-665429Y438099D01*
X-667664Y435152D01*
X-670814Y433273D01*
X-674420Y432562D01*
X-815441Y432562D01*
X-818794Y433171D01*
X-821791Y434797D01*
X-824026Y437388D01*
X-825347Y439420D01*
X-829411Y443534D01*
X-834339Y446633D01*
X-839774Y448564D01*
X-846124Y449224D01*
X-982675Y449224D01*
X-989025Y448564D01*
X-994460Y446633D01*
X-999388Y443534D01*
X-1003452Y439420D01*
X-1004773Y437388D01*
X-1007008Y434797D01*
X-1010005Y433171D01*
X-1013358Y432562D01*
X-1055319Y432562D01*
X-1065987Y431749D01*
X-1076045Y429310D01*
X-1085596Y425348D01*
X-1094435Y419963D01*
X-1102563Y413004D01*
X-1748129Y-232562D01*
X-1755089Y-240639D01*
X-1760474Y-249529D01*
X-1764436Y-259079D01*
X-1766874Y-269138D01*
X-1767687Y-279806D01*
X-1767687Y-476656D01*
X-1768500Y-480568D01*
X-1770684Y-483819D01*
X-1773986Y-486054D01*
X-1777847Y-486765D01*
X-1809242Y-486765D01*
X-1815541Y-487527D01*
X-1821027Y-489458D01*
X-1825904Y-492556D01*
X-1830019Y-496570D01*
X-1833067Y-501497D01*
X-1834997Y-506984D01*
X-1835708Y-513232D01*
X-1835708Y-518414D01*
X-1836470Y-522274D01*
X-1838706Y-525576D01*
X-1841957Y-527761D01*
X-1845868Y-528574D01*
X-1955292Y-528574D01*
X-1959356Y-527710D01*
X-1962759Y-525322D01*
X-1964893Y-521766D01*
X-1966620Y-516788D01*
X-1969719Y-511911D01*
X-1973783Y-507746D01*
X-1978710Y-504748D01*
X-1984146Y-502818D01*
X-1990445Y-502107D01*
X-2124354Y-502107D01*
X-2130653Y-502818D01*
X-2136089Y-504748D01*
X-2141016Y-507746D01*
X-2145080Y-511911D01*
X-2148179Y-516788D01*
X-2150110Y-522274D01*
X-2151329Y-527100D01*
X-2153564Y-530047D01*
X-2156714Y-531926D01*
X-2160320Y-532638D01*
X-2171293Y-532638D01*
X-2182012Y-533450D01*
X-2192070Y-535889D01*
X-2201621Y-539851D01*
X-2210409Y-545236D01*
X-2218588Y-552196D01*
X-2761030Y-1094638D01*
X-2763672Y-1096568D01*
X-2766771Y-1097534D01*
X-2770073Y-1097432D01*
X-2778810Y-1095857D01*
X-2794000Y-1094892D01*
X-2809189Y-1095857D01*
X-2824124Y-1098600D01*
X-2838653Y-1103122D01*
X-2852521Y-1109370D01*
X-2865526Y-1117244D01*
X-2877464Y-1126591D01*
X-2888234Y-1137361D01*
X-2897581Y-1149299D01*
X-2901645Y-1155954D01*
X-2904642Y-1159154D01*
X-2908706Y-1160780D01*
X-2913075Y-1160526D01*
X-2916936Y-1158392D01*
X-2919577Y-1154938D01*
X-2920492Y-1150670D01*
X-2920492Y553720D01*
X-2919628Y557834D01*
X-2917139Y561238D01*
X-2913481Y563422D01*
X-2909265Y563880D01*
X-2899765Y560578D01*
X-2893415Y559917D01*
X-2850337Y559917D01*
X-2850337Y629412D01*
X-2910332Y629412D01*
X-2914243Y630174D01*
X-2917494Y632409D01*
X-2919730Y635711D01*
X-2920492Y639622D01*
X-2920492Y731977D01*
X-2919730Y735888D01*
X-2917494Y739190D01*
X-2914243Y741375D01*
X-2910332Y742188D01*
X-2850337Y742188D01*
X-2850337Y800303D01*
X-2849575Y804214D01*
X-2847340Y807466D01*
X-2844038Y809650D01*
X-2840177Y810412D01*
X-2747772Y810209D01*
X-2743911Y809396D01*
X-2740609Y807212D01*
X-2738424Y803910D01*
X-2737662Y800049D01*
X-2737662Y742188D01*
X-2668066Y742188D01*
X-2668066Y785215D01*
X-2668828Y791565D01*
X-2670556Y796442D01*
X-2671114Y800354D01*
X-2670200Y804011D01*
X-2667965Y807161D01*
X-2664714Y809244D01*
X-2660904Y810006D01*
X-1397457Y806958D01*
X-1393596Y806196D01*
X-1390294Y804011D01*
X-1388110Y800760D01*
X-1387297Y796899D01*
X-1384808Y494080D01*
X-1383995Y487629D01*
X-1381810Y482092D01*
X-1378254Y476961D01*
X-1375359Y474116D01*
X-1371650Y471373D01*
X-1366113Y468934D01*
X-1358747Y467766D01*
X-1092809Y467766D01*
X-1086307Y468630D01*
X-1080770Y470662D01*
X-1075639Y474218D01*
X-1072591Y477215D01*
X-1069949Y480872D01*
X-1067460Y486359D01*
X-1066292Y493826D01*
X-1066292Y791362D01*
X-1065530Y795274D01*
X-1063294Y798525D01*
X-1060043Y800811D01*
X-1056132Y801522D01*
X244957Y801522D01*
X248716Y800811D01*
X251967Y798779D01*
X254203Y795629D01*
X255117Y791972D01*
X276961Y379069D01*
X276352Y375005D01*
X274167Y371551D01*
X270814Y369214D01*
X266801Y368452D01*
X255981Y368452D01*
X252069Y369163D01*
X248767Y371398D01*
X246583Y374650D01*
X245821Y378561D01*
X245821Y436626D01*
X245110Y442925D01*
X243179Y448411D01*
X240080Y453288D01*
X236016Y457454D01*
X231089Y460451D01*
X225653Y462381D01*
X219354Y463092D01*
X85445Y463092D01*
X79146Y462381D01*
X73710Y460451D01*
X68783Y457454D01*
X64719Y453288D01*
X61620Y448411D01*
X59690Y442925D01*
X58978Y436626D01*
X58978Y296722D01*
X59690Y290423D01*
X61620Y285038D01*
X64719Y280111D01*
X68783Y275996D01*
X72847Y272440D01*
X74422Y268732D01*
X74422Y264617D01*
X72847Y260908D01*
X68783Y257352D01*
X64719Y253288D01*
X61620Y248361D01*
X59690Y242976D01*
X58978Y236677D01*
X58978Y214833D01*
X58064Y210718D01*
X55524Y207264D01*
X51765Y205130D01*
X49479Y204419D01*
X42418Y200660D01*
X35814Y195224D01*
X-130149Y29260D01*
X-135585Y22707D01*
X-139344Y15595D01*
X-141681Y7975D01*
X-142494Y-508D01*
X-142494Y-159969D01*
X-143154Y-163576D01*
X-144983Y-166674D01*
X-157835Y-176428D01*
X-166522Y-185064D01*
X-173837Y-194919D01*
X-179730Y-205638D01*
X-183997Y-217119D01*
X-186588Y-229108D01*
X-187502Y-241350D01*
X-186588Y-253542D01*
X-183997Y-265480D01*
X-179730Y-277012D01*
X-173837Y-287782D01*
X-166522Y-297586D01*
X-154381Y-309422D01*
X-153009Y-312216D01*
X-152501Y-315315D01*
X-152501Y-404215D01*
X-153263Y-408127D01*
X-155498Y-411429D01*
X-158800Y-413562D01*
X-162661Y-414375D01*
X-182575Y-414375D01*
X-188925Y-415035D01*
X-194360Y-416966D01*
X-199288Y-420065D01*
X-203352Y-424180D01*
X-206451Y-429056D01*
X-208330Y-434492D01*
X-209042Y-440842D01*
X-209042Y-552958D01*
X-208330Y-559308D01*
X-206451Y-564743D01*
X-203352Y-569671D01*
X-199288Y-573684D01*
X-194360Y-576834D01*
X-188925Y-578764D01*
X-182575Y-579475D01*
X-46024Y-579475D01*
X-39674Y-578764D01*
X-34239Y-576834D01*
X-29311Y-573684D01*
X-25247Y-569671D01*
X-22148Y-564743D01*
X-20269Y-559308D01*
X-19558Y-552958D01*
X-19558Y-440842D01*
X-20269Y-434492D01*
X-22148Y-429056D01*
X-25247Y-424180D01*
X-29311Y-420065D01*
X-34239Y-416966D01*
X-39674Y-415035D01*
X-41656Y-414883D01*
X-45212Y-413816D01*
X-48107Y-411530D01*
X-50038Y-408381D01*
X-50698Y-404723D01*
X-50698Y-315315D01*
X-50190Y-312216D01*
X-48818Y-309422D01*
X-36677Y-297586D01*
X-29362Y-287782D01*
X-23469Y-277012D01*
X-19202Y-265480D01*
X-16611Y-253542D01*
X-15697Y-241350D01*
X-16611Y-229108D01*
X-19202Y-217119D01*
X-23469Y-205638D01*
X-29362Y-194919D01*
X-36677Y-185064D01*
X-45364Y-176428D01*
X-55422Y-168960D01*
X-58216Y-166674D01*
X-60045Y-163576D01*
X-60706Y-159969D01*
X-60706Y-21183D01*
X-59943Y-17272D01*
X-57708Y-13919D01*
X44907Y88646D01*
X48260Y90830D01*
X52222Y91592D01*
X56184Y90728D01*
X59486Y88392D01*
X64719Y80060D01*
X68783Y75946D01*
X73710Y72948D01*
X79146Y71018D01*
X85445Y70256D01*
X186740Y70256D01*
X190652Y69545D01*
X193954Y67310D01*
X296265Y-34950D01*
X298348Y-38100D01*
X299212Y-41656D01*
X300532Y-66192D01*
X300126Y-69596D01*
X298653Y-72593D01*
X296214Y-74980D01*
X293166Y-76454D01*
X290271Y-77317D01*
X283006Y-80924D01*
X276504Y-85801D01*
X271018Y-91846D01*
X266750Y-98806D01*
X263804Y-106324D01*
X262331Y-114350D01*
X262331Y-122428D01*
X264058Y-131521D01*
X263906Y-135991D01*
X261874Y-139903D01*
X258368Y-142646D01*
X254050Y-143611D01*
X192836Y-143611D01*
X188976Y-142849D01*
X185674Y-140614D01*
X149758Y-104698D01*
X147777Y-101904D01*
X146862Y-98704D01*
X147015Y-95351D01*
X148488Y-88442D01*
X149402Y-76250D01*
X148488Y-64008D01*
X145897Y-52019D01*
X141630Y-40538D01*
X135737Y-29819D01*
X128422Y-19964D01*
X119735Y-11328D01*
X109931Y-3962D01*
X99161Y1879D01*
X87680Y6197D01*
X75742Y8788D01*
X63500Y9652D01*
X51257Y8788D01*
X39319Y6197D01*
X27838Y1879D01*
X17068Y-3962D01*
X7264Y-11328D01*
X-1422Y-19964D01*
X-8737Y-29819D01*
X-14630Y-40538D01*
X-18897Y-52019D01*
X-21488Y-64008D01*
X-22402Y-76250D01*
X-21488Y-88442D01*
X-18897Y-100380D01*
X-14630Y-111912D01*
X-8737Y-122682D01*
X-1422Y-132486D01*
X7264Y-141122D01*
X17068Y-148488D01*
X27838Y-154330D01*
X39319Y-158597D01*
X51257Y-161239D01*
X63500Y-162102D01*
X75742Y-161239D01*
X82499Y-159766D01*
X85852Y-159562D01*
X89103Y-160477D01*
X91846Y-162458D01*
X142443Y-213055D01*
X143916Y-214223D01*
X146558Y-217576D01*
X147624Y-221589D01*
X146913Y-225806D01*
X144627Y-229311D01*
X117297Y-256641D01*
X114554Y-258622D01*
X111353Y-259588D01*
X107950Y-259384D01*
X101142Y-257911D01*
X88900Y-257048D01*
X76657Y-257911D01*
X64719Y-260502D01*
X53238Y-264820D01*
X42468Y-270662D01*
X32664Y-278028D01*
X23977Y-286664D01*
X16662Y-296519D01*
X10769Y-307238D01*
X6502Y-318719D01*
X3911Y-330708D01*
X2997Y-342950D01*
X3911Y-355142D01*
X6502Y-367080D01*
X10769Y-378612D01*
X16662Y-389382D01*
X23977Y-399186D01*
X32664Y-407822D01*
X42468Y-415188D01*
X53238Y-421030D01*
X64719Y-425297D01*
X76657Y-427939D01*
X88900Y-428802D01*
X101142Y-427939D01*
X113080Y-425297D01*
X124561Y-421030D01*
X135331Y-415188D01*
X145135Y-407822D01*
X153822Y-399186D01*
X161137Y-389382D01*
X167030Y-378612D01*
X171297Y-367080D01*
X173888Y-355142D01*
X174802Y-342950D01*
X173888Y-330708D01*
X172415Y-323850D01*
X172262Y-320497D01*
X173228Y-317246D01*
X175158Y-314502D01*
X197358Y-292303D01*
X200660Y-290118D01*
X204571Y-289306D01*
X253847Y-289306D01*
X258165Y-290271D01*
X261670Y-293014D01*
X263652Y-296926D01*
X263804Y-301345D01*
X262331Y-309372D01*
X262331Y-317500D01*
X263804Y-325475D01*
X266750Y-332994D01*
X271018Y-340004D01*
X276504Y-345998D01*
X283006Y-350875D01*
X290271Y-354482D01*
X298094Y-356717D01*
X307238Y-357581D01*
X310692Y-358546D01*
X313588Y-360629D01*
X315620Y-363626D01*
X316433Y-367131D01*
X335788Y-732739D01*
X335178Y-736752D01*
X332994Y-740257D01*
X329641Y-742594D01*
X325628Y-743407D01*
X237845Y-743407D01*
X231546Y-744118D01*
X226110Y-746048D01*
X221183Y-749046D01*
X217119Y-753211D01*
X214020Y-758088D01*
X212090Y-763574D01*
X211378Y-769874D01*
X211378Y-788720D01*
X210616Y-792581D01*
X208432Y-795934D01*
X205130Y-798169D01*
X201218Y-798880D01*
X184658Y-798880D01*
X180746Y-798169D01*
X177444Y-795934D01*
X49885Y-668375D01*
X43281Y-662940D01*
X36220Y-659180D01*
X28549Y-656793D01*
X20116Y-656031D01*
X-9398Y-656031D01*
X-13258Y-655269D01*
X-16560Y-653034D01*
X-18745Y-649732D01*
X-19558Y-645871D01*
X-19558Y-640892D01*
X-20269Y-634542D01*
X-22148Y-629107D01*
X-25247Y-624179D01*
X-29311Y-620115D01*
X-34239Y-617016D01*
X-39674Y-615086D01*
X-46024Y-614324D01*
X-182575Y-614324D01*
X-188925Y-615086D01*
X-194360Y-617016D01*
X-199288Y-620115D01*
X-203352Y-624179D01*
X-206451Y-629107D01*
X-208330Y-634542D01*
X-209042Y-640892D01*
X-209042Y-752957D01*
X-208330Y-759307D01*
X-206451Y-764743D01*
X-203352Y-769620D01*
X-199288Y-773785D01*
X-194360Y-776833D01*
X-188925Y-778764D01*
X-182575Y-779424D01*
X-46024Y-779424D01*
X-39674Y-778764D01*
X-34239Y-776833D01*
X-29311Y-773785D01*
X-25247Y-769620D01*
X-22148Y-764743D01*
X-20269Y-759307D01*
X-19558Y-752957D01*
X-19558Y-747979D01*
X-18745Y-744118D01*
X-16560Y-740765D01*
X-13258Y-738632D01*
X-9398Y-737819D01*
X-558Y-737819D01*
X3352Y-738632D01*
X6654Y-740765D01*
X134213Y-868324D01*
X140817Y-873810D01*
X147878Y-877519D01*
X155549Y-879906D01*
X163982Y-880719D01*
X201218Y-880719D01*
X205130Y-881481D01*
X208432Y-883716D01*
X210616Y-887018D01*
X211378Y-890879D01*
X211378Y-909777D01*
X212090Y-916076D01*
X214020Y-921461D01*
X217119Y-926388D01*
X221183Y-930503D01*
X225247Y-934059D01*
X226821Y-937768D01*
X226821Y-941882D01*
X225247Y-945591D01*
X221183Y-949147D01*
X217119Y-953211D01*
X214020Y-958087D01*
X212090Y-963523D01*
X211378Y-969822D01*
X211378Y-998169D01*
X264718Y-998169D01*
X264718Y-946403D01*
X265480Y-942492D01*
X267665Y-939139D01*
X270967Y-937006D01*
X274878Y-936193D01*
X334721Y-936193D01*
X338632Y-937006D01*
X341934Y-939139D01*
X344119Y-942492D01*
X344881Y-946403D01*
X344881Y-999388D01*
X347675Y-1001521D01*
X349554Y-1004468D01*
X350316Y-1007871D01*
X353669Y-1070711D01*
X353161Y-1074420D01*
X351332Y-1077722D01*
X348437Y-1080160D01*
X344881Y-1081278D01*
X344881Y-1136243D01*
X347472Y-1136243D01*
X351231Y-1136904D01*
X354482Y-1139037D01*
X356717Y-1142136D01*
X357632Y-1145794D01*
X367741Y-1336598D01*
X367131Y-1340612D01*
X364947Y-1344168D01*
X361594Y-1346454D01*
X357581Y-1347317D01*
X-1030732Y-1347317D01*
X-1034643Y-1346504D01*
X-1037894Y-1344320D01*
X-1040130Y-1341069D01*
X-1040892Y-1337157D01*
X-1040892Y-1043584D01*
X-1041704Y-1037132D01*
X-1043787Y-1031595D01*
X-1047343Y-1026464D01*
X-1050340Y-1023416D01*
X-1053947Y-1020724D01*
X-1059484Y-1018235D01*
X-1066952Y-1017117D01*
X-1332890Y-1017117D01*
X-1339392Y-1017930D01*
X-1344930Y-1020013D01*
X-1350060Y-1023569D01*
X-1353108Y-1026515D01*
X-1355750Y-1030173D01*
X-1358239Y-1035710D01*
X-1359408Y-1043127D01*
X-1359408Y-1337157D01*
X-1360170Y-1341069D01*
X-1362405Y-1344320D01*
X-1365656Y-1346504D01*
X-1369568Y-1347317D01*
G37*

%LPC*%
G36*
X-1539646Y-1307642D02*
G01*
X-1521561Y-1307642D01*
X-1521561Y-1256842D01*
X-1566113Y-1256842D01*
X-1566113Y-1281176D01*
X-1565402Y-1287424D01*
X-1563471Y-1292961D01*
X-1560423Y-1297838D01*
X-1556308Y-1301953D01*
X-1551432Y-1304950D01*
X-1545945Y-1306880D01*
G37*
G36*
X-1458823Y-1307642D02*
G01*
X-1440789Y-1307642D01*
X-1434439Y-1306880D01*
X-1429004Y-1304950D01*
X-1424076Y-1301953D01*
X-1420012Y-1297838D01*
X-1416913Y-1292961D01*
X-1414983Y-1287424D01*
X-1414272Y-1281176D01*
X-1414272Y-1256842D01*
X-1458823Y-1256842D01*
G37*
G36*
X-1458823Y-1181608D02*
G01*
X-1414272Y-1181608D01*
X-1414272Y-1157274D01*
X-1414983Y-1150975D01*
X-1416913Y-1145489D01*
X-1420012Y-1140612D01*
X-1424076Y-1136446D01*
X-1429004Y-1133449D01*
X-1434439Y-1131519D01*
X-1440789Y-1130808D01*
X-1458823Y-1130808D01*
G37*
G36*
X-1566113Y-1181608D02*
G01*
X-1521561Y-1181608D01*
X-1521561Y-1130808D01*
X-1539646Y-1130808D01*
X-1545945Y-1131519D01*
X-1551432Y-1133449D01*
X-1556308Y-1136446D01*
X-1560423Y-1140612D01*
X-1563471Y-1145489D01*
X-1565402Y-1150975D01*
X-1566113Y-1157274D01*
G37*
G36*
X237845Y-1136243D02*
G01*
X264718Y-1136243D01*
X264718Y-1081430D01*
X211378Y-1081430D01*
X211378Y-1109776D01*
X212090Y-1116076D01*
X214020Y-1121562D01*
X217119Y-1126439D01*
X221183Y-1130554D01*
X226110Y-1133551D01*
X231546Y-1135481D01*
G37*
G36*
X-2017318Y-894943D02*
G01*
X-1990445Y-894943D01*
X-1984146Y-894181D01*
X-1978710Y-892251D01*
X-1973783Y-889253D01*
X-1969719Y-885139D01*
X-1966620Y-880262D01*
X-1964689Y-874776D01*
X-1963978Y-868476D01*
X-1963978Y-840130D01*
X-2017318Y-840130D01*
G37*
G36*
X-2124354Y-894943D02*
G01*
X-2097481Y-894943D01*
X-2097481Y-840130D01*
X-2150821Y-840130D01*
X-2150821Y-868476D01*
X-2150110Y-874776D01*
X-2148179Y-880262D01*
X-2145080Y-885139D01*
X-2141016Y-889253D01*
X-2136089Y-892251D01*
X-2130653Y-894181D01*
G37*
G36*
X252272Y-712774D02*
G01*
X262331Y-707288D01*
X272135Y-699922D01*
X280822Y-691286D01*
X288137Y-681482D01*
X293674Y-671372D01*
X252272Y-671372D01*
G37*
G36*
X179527Y-712774D02*
G01*
X179527Y-671372D01*
X138125Y-671372D01*
X143662Y-681482D01*
X150977Y-691286D01*
X159664Y-699922D01*
X169468Y-707288D01*
G37*
G36*
X138125Y-598627D02*
G01*
X179527Y-598627D01*
X179527Y-557276D01*
X169468Y-562762D01*
X159664Y-570128D01*
X150977Y-578764D01*
X143662Y-588619D01*
G37*
G36*
X252272Y-598627D02*
G01*
X293674Y-598627D01*
X288137Y-588619D01*
X280822Y-578764D01*
X272135Y-570128D01*
X262331Y-562762D01*
X252272Y-557276D01*
G37*
G36*
X-474421Y-429920D02*
G01*
X-421081Y-429920D01*
X-421081Y-375107D01*
X-447954Y-375107D01*
X-454253Y-375818D01*
X-459689Y-377748D01*
X-464616Y-380746D01*
X-468680Y-384911D01*
X-471779Y-389788D01*
X-473709Y-395274D01*
X-474421Y-401574D01*
G37*
G36*
X-340918Y-429920D02*
G01*
X-287578Y-429920D01*
X-287578Y-401574D01*
X-288290Y-395274D01*
X-290220Y-389788D01*
X-293319Y-384911D01*
X-297383Y-380746D01*
X-302310Y-377748D01*
X-307746Y-375818D01*
X-314045Y-375107D01*
X-340918Y-375107D01*
G37*
G36*
X-1636826Y-37084D02*
G01*
X-1634693Y-36118D01*
X-1621688Y-28194D01*
X-1609699Y-18796D01*
X-1598980Y-8077D01*
X-1589582Y3860D01*
X-1581708Y16865D01*
X-1575460Y30733D01*
X-1571345Y44043D01*
X-1636826Y44043D01*
G37*
G36*
X-2579573Y-37084D02*
G01*
X-2579573Y44043D01*
X-2645054Y44043D01*
X-2640939Y30733D01*
X-2634691Y16865D01*
X-2626817Y3860D01*
X-2617419Y-8077D01*
X-2606700Y-18796D01*
X-2594711Y-28194D01*
X-2581706Y-36118D01*
G37*
G36*
X-2466848Y-37084D02*
G01*
X-2464714Y-36118D01*
X-2451709Y-28194D01*
X-2439720Y-18796D01*
X-2429002Y-8077D01*
X-2419604Y3860D01*
X-2411730Y16865D01*
X-2405481Y30733D01*
X-2401366Y44043D01*
X-2466848Y44043D01*
G37*
G36*
X-1749552Y-37084D02*
G01*
X-1749552Y44043D01*
X-1815033Y44043D01*
X-1810918Y30733D01*
X-1804670Y16865D01*
X-1796796Y3860D01*
X-1787398Y-8077D01*
X-1776679Y-18796D01*
X-1764690Y-28194D01*
X-1751685Y-36118D01*
G37*
G36*
X-2308199Y19507D02*
G01*
X-2294382Y20370D01*
X-2280818Y23164D01*
X-2267661Y27584D01*
X-2255266Y33680D01*
X-2243734Y41351D01*
X-2233320Y50546D01*
X-2224176Y60909D01*
X-2216658Y72186D01*
X-2213864Y75031D01*
X-2210206Y76555D01*
X-2206193Y76555D01*
X-2202535Y75031D01*
X-2199741Y72186D01*
X-2192223Y60909D01*
X-2183079Y50546D01*
X-2172665Y41351D01*
X-2161133Y33680D01*
X-2148738Y27584D01*
X-2135581Y23164D01*
X-2122017Y20370D01*
X-2108200Y19507D01*
X-2094382Y20370D01*
X-2080818Y23164D01*
X-2067661Y27584D01*
X-2055266Y33680D01*
X-2043734Y41351D01*
X-2033320Y50546D01*
X-2024176Y60909D01*
X-2016658Y72186D01*
X-2013864Y75031D01*
X-2010206Y76555D01*
X-2006193Y76555D01*
X-2002536Y75031D01*
X-1999742Y72186D01*
X-1992223Y60909D01*
X-1983079Y50546D01*
X-1972665Y41351D01*
X-1961134Y33680D01*
X-1948738Y27584D01*
X-1935581Y23164D01*
X-1922018Y20370D01*
X-1908200Y19507D01*
X-1894382Y20370D01*
X-1880819Y23164D01*
X-1867662Y27584D01*
X-1855266Y33680D01*
X-1843735Y41351D01*
X-1832813Y51003D01*
X-1829155Y52984D01*
X-1826615Y53238D01*
X-1826158Y57556D01*
X-1824177Y60909D01*
X-1816506Y72491D01*
X-1810359Y84836D01*
X-1805939Y97942D01*
X-1803247Y111607D01*
X-1802333Y125374D01*
X-1803247Y139192D01*
X-1805939Y152806D01*
X-1810359Y165912D01*
X-1816506Y178308D01*
X-1824228Y189890D01*
X-1826158Y193192D01*
X-1826615Y197561D01*
X-1829155Y197764D01*
X-1832813Y199796D01*
X-1843735Y209397D01*
X-1855266Y217119D01*
X-1867662Y223215D01*
X-1880819Y227634D01*
X-1894382Y230378D01*
X-1908200Y231292D01*
X-1922018Y230378D01*
X-1935581Y227634D01*
X-1948738Y223215D01*
X-1961134Y217119D01*
X-1972665Y209397D01*
X-1983079Y200253D01*
X-1992223Y189839D01*
X-1999742Y178562D01*
X-2002536Y175717D01*
X-2006193Y174193D01*
X-2010206Y174193D01*
X-2013864Y175717D01*
X-2016658Y178562D01*
X-2024176Y189839D01*
X-2033320Y200253D01*
X-2043734Y209397D01*
X-2055266Y217119D01*
X-2067661Y223215D01*
X-2080818Y227634D01*
X-2094382Y230378D01*
X-2108200Y231292D01*
X-2122017Y230378D01*
X-2131364Y228498D01*
X-2135784Y228600D01*
X-2139797Y230632D01*
X-2142540Y234188D01*
X-2143506Y238506D01*
X-2143506Y391515D01*
X-2142693Y395427D01*
X-2140508Y398729D01*
X-2137206Y400862D01*
X-2133346Y401675D01*
X-2116124Y401675D01*
X-2109774Y402336D01*
X-2104339Y404266D01*
X-2099411Y407314D01*
X-2095347Y411480D01*
X-2092248Y416356D01*
X-2090369Y421792D01*
X-2089657Y428142D01*
X-2089657Y435864D01*
X-2088845Y439674D01*
X-2086660Y442976D01*
X-2083358Y445211D01*
X-2079498Y445973D01*
X-2028850Y445973D01*
X-2025243Y445312D01*
X-2022093Y443382D01*
X-2019807Y440486D01*
X-2018741Y436930D01*
X-2018080Y431139D01*
X-2016201Y425704D01*
X-2013102Y420827D01*
X-2009038Y416661D01*
X-2004110Y413613D01*
X-1998675Y411683D01*
X-1992325Y411022D01*
X-1868474Y411022D01*
X-1862124Y411683D01*
X-1856689Y413613D01*
X-1851761Y416661D01*
X-1847697Y420827D01*
X-1844598Y425704D01*
X-1842719Y431139D01*
X-1842007Y437438D01*
X-1842007Y536295D01*
X-1842719Y542645D01*
X-1844598Y548081D01*
X-1847697Y553008D01*
X-1851761Y557072D01*
X-1856689Y560171D01*
X-1862124Y562051D01*
X-1868474Y562762D01*
X-1992325Y562762D01*
X-1998675Y562051D01*
X-2004110Y560171D01*
X-2009038Y557072D01*
X-2013102Y553008D01*
X-2016201Y548081D01*
X-2018080Y542645D01*
X-2018741Y536803D01*
X-2019807Y533247D01*
X-2022093Y530352D01*
X-2025243Y528421D01*
X-2028850Y527761D01*
X-2079498Y527761D01*
X-2083358Y528523D01*
X-2086660Y530758D01*
X-2088845Y534111D01*
X-2089657Y537972D01*
X-2089657Y540207D01*
X-2090369Y546557D01*
X-2092248Y551992D01*
X-2095347Y556920D01*
X-2099411Y560984D01*
X-2104339Y564083D01*
X-2109774Y566013D01*
X-2116124Y566775D01*
X-2252675Y566775D01*
X-2259025Y566013D01*
X-2264460Y564083D01*
X-2269388Y560984D01*
X-2273452Y556920D01*
X-2276551Y551992D01*
X-2278430Y546557D01*
X-2279142Y540207D01*
X-2279142Y428142D01*
X-2278430Y421792D01*
X-2276551Y416356D01*
X-2273452Y411480D01*
X-2269388Y407314D01*
X-2264460Y404266D01*
X-2259025Y402336D01*
X-2252675Y401675D01*
X-2235454Y401675D01*
X-2231593Y400862D01*
X-2228291Y398729D01*
X-2226056Y395427D01*
X-2225294Y391515D01*
X-2225294Y215646D01*
X-2226056Y211836D01*
X-2228138Y208635D01*
X-2231288Y206400D01*
X-2235047Y205486D01*
X-2238857Y206044D01*
X-2242159Y207975D01*
X-2243734Y209397D01*
X-2255266Y217119D01*
X-2267661Y223215D01*
X-2280818Y227634D01*
X-2294382Y230378D01*
X-2308199Y231292D01*
X-2322017Y230378D01*
X-2335580Y227634D01*
X-2348738Y223215D01*
X-2361133Y217119D01*
X-2372664Y209397D01*
X-2383586Y199796D01*
X-2387244Y197764D01*
X-2389784Y197561D01*
X-2390241Y193192D01*
X-2392222Y189839D01*
X-2399893Y178308D01*
X-2406040Y165912D01*
X-2410460Y152806D01*
X-2413152Y139192D01*
X-2414066Y125374D01*
X-2413152Y111607D01*
X-2410460Y97942D01*
X-2406040Y84836D01*
X-2399893Y72491D01*
X-2392172Y60858D01*
X-2390241Y57556D01*
X-2389784Y53238D01*
X-2387244Y52984D01*
X-2383586Y51003D01*
X-2372664Y41351D01*
X-2361133Y33680D01*
X-2348738Y27584D01*
X-2335580Y23164D01*
X-2322017Y20370D01*
G37*
G36*
X-1815033Y206756D02*
G01*
X-1749552Y206756D01*
X-1749552Y287883D01*
X-1751685Y286918D01*
X-1764690Y278993D01*
X-1776679Y269595D01*
X-1787398Y258876D01*
X-1796796Y246938D01*
X-1804670Y233883D01*
X-1810918Y220065D01*
G37*
G36*
X-1636826Y206756D02*
G01*
X-1571345Y206756D01*
X-1575460Y220065D01*
X-1581708Y233883D01*
X-1589582Y246938D01*
X-1598980Y258876D01*
X-1609699Y269595D01*
X-1621688Y278993D01*
X-1634693Y286918D01*
X-1636826Y287883D01*
G37*
G36*
X-2645054Y206756D02*
G01*
X-2579573Y206756D01*
X-2579573Y287883D01*
X-2581706Y286918D01*
X-2594711Y278993D01*
X-2606700Y269595D01*
X-2617419Y258876D01*
X-2626817Y246938D01*
X-2634691Y233883D01*
X-2640939Y220065D01*
G37*
G36*
X-2466848Y206756D02*
G01*
X-2401366Y206756D01*
X-2405481Y220065D01*
X-2411730Y233883D01*
X-2419604Y246938D01*
X-2429002Y258876D01*
X-2439720Y269595D01*
X-2451709Y278993D01*
X-2464714Y286918D01*
X-2466848Y287883D01*
G37*
G36*
X-200507Y296824D02*
G01*
X-173024Y296824D01*
X-166674Y297535D01*
X-161239Y299466D01*
X-156311Y302615D01*
X-152247Y306628D01*
X-149148Y311556D01*
X-147269Y316992D01*
X-146558Y323342D01*
X-146558Y344728D01*
X-200507Y344728D01*
G37*
G36*
X-309575Y296824D02*
G01*
X-282092Y296824D01*
X-282092Y344728D01*
X-336042Y344728D01*
X-336042Y323342D01*
X-335330Y316992D01*
X-333451Y311556D01*
X-330352Y306628D01*
X-326288Y302615D01*
X-321360Y299466D01*
X-315925Y297535D01*
G37*
G36*
X-1731975Y401675D02*
G01*
X-1704492Y401675D01*
X-1704492Y449580D01*
X-1758442Y449580D01*
X-1758442Y428142D01*
X-1757730Y421792D01*
X-1755851Y416356D01*
X-1752752Y411480D01*
X-1748688Y407314D01*
X-1743760Y404266D01*
X-1738325Y402336D01*
G37*
G36*
X-1622907Y401675D02*
G01*
X-1595424Y401675D01*
X-1589074Y402336D01*
X-1583639Y404266D01*
X-1578711Y407314D01*
X-1574647Y411480D01*
X-1571548Y416356D01*
X-1569669Y421792D01*
X-1568958Y428142D01*
X-1568958Y449580D01*
X-1622907Y449580D01*
G37*
G36*
X-200507Y414020D02*
G01*
X-146558Y414020D01*
X-146558Y435457D01*
X-147269Y441807D01*
X-149148Y447243D01*
X-152247Y452120D01*
X-156311Y456234D01*
X-161239Y459333D01*
X-166674Y461264D01*
X-173024Y461924D01*
X-200507Y461924D01*
G37*
G36*
X-336042Y414020D02*
G01*
X-282092Y414020D01*
X-282092Y461924D01*
X-309575Y461924D01*
X-315925Y461264D01*
X-321360Y459333D01*
X-326288Y456234D01*
X-330352Y452120D01*
X-333451Y447243D01*
X-335330Y441807D01*
X-336042Y435457D01*
G37*
G36*
X-1622907Y518820D02*
G01*
X-1568958Y518820D01*
X-1568958Y540207D01*
X-1569669Y546557D01*
X-1571548Y551992D01*
X-1574647Y556920D01*
X-1578711Y560984D01*
X-1583639Y564083D01*
X-1589074Y566013D01*
X-1595424Y566775D01*
X-1622907Y566775D01*
G37*
G36*
X-1758442Y518820D02*
G01*
X-1704492Y518820D01*
X-1704492Y566775D01*
X-1731975Y566775D01*
X-1738325Y566013D01*
X-1743760Y564083D01*
X-1748688Y560984D01*
X-1752752Y556920D01*
X-1755851Y551992D01*
X-1757730Y546557D01*
X-1758442Y540207D01*
G37*
G36*
X-2737662Y559917D02*
G01*
X-2694584Y559917D01*
X-2688234Y560578D01*
X-2682798Y562508D01*
X-2677871Y565556D01*
X-2673807Y569722D01*
X-2670708Y574598D01*
X-2668828Y580034D01*
X-2668066Y586384D01*
X-2668066Y629412D01*
X-2737662Y629412D01*
G37*
G36*
X-2252675Y601624D02*
G01*
X-2225192Y601624D01*
X-2225192Y649528D01*
X-2279142Y649528D01*
X-2279142Y628142D01*
X-2278430Y621792D01*
X-2276551Y616356D01*
X-2273452Y611428D01*
X-2269388Y607415D01*
X-2264460Y604266D01*
X-2259025Y602335D01*
G37*
G36*
X-2143607Y601624D02*
G01*
X-2116124Y601624D01*
X-2109774Y602335D01*
X-2104339Y604266D01*
X-2099411Y607415D01*
X-2095347Y611428D01*
X-2092248Y616356D01*
X-2090369Y621792D01*
X-2089657Y628142D01*
X-2089657Y649528D01*
X-2143607Y649528D01*
G37*
G36*
X-1731975Y601624D02*
G01*
X-1595424Y601624D01*
X-1589074Y602335D01*
X-1583639Y604266D01*
X-1578711Y607415D01*
X-1574647Y611428D01*
X-1571548Y616356D01*
X-1569669Y621792D01*
X-1568958Y628142D01*
X-1568958Y740257D01*
X-1569669Y746607D01*
X-1571548Y752043D01*
X-1574647Y756920D01*
X-1578711Y761034D01*
X-1583639Y764133D01*
X-1589074Y766064D01*
X-1595424Y766724D01*
X-1731975Y766724D01*
X-1738325Y766064D01*
X-1743760Y764133D01*
X-1748688Y761034D01*
X-1752752Y756920D01*
X-1755851Y752043D01*
X-1757730Y746607D01*
X-1758442Y740257D01*
X-1758442Y735279D01*
X-1759254Y731418D01*
X-1761439Y728065D01*
X-1764741Y725830D01*
X-1768602Y725119D01*
X-1831848Y725119D01*
X-1835708Y725830D01*
X-1839010Y728065D01*
X-1841195Y731418D01*
X-1842007Y735279D01*
X-1842007Y756361D01*
X-1842719Y762660D01*
X-1844598Y768096D01*
X-1847697Y772972D01*
X-1851761Y777087D01*
X-1856689Y780237D01*
X-1862124Y782066D01*
X-1868474Y782777D01*
X-1992325Y782777D01*
X-1998675Y782066D01*
X-2004110Y780237D01*
X-2009038Y777087D01*
X-2013102Y772972D01*
X-2016201Y768096D01*
X-2018080Y762660D01*
X-2018792Y756361D01*
X-2018792Y657453D01*
X-2018080Y651103D01*
X-2016201Y645668D01*
X-2013102Y640791D01*
X-2009038Y636727D01*
X-2004110Y633577D01*
X-1998675Y631748D01*
X-1992325Y630986D01*
X-1868474Y630986D01*
X-1862124Y631748D01*
X-1856689Y633577D01*
X-1851761Y636727D01*
X-1848154Y640283D01*
X-1844852Y642518D01*
X-1840992Y643280D01*
X-1768602Y643280D01*
X-1764741Y642518D01*
X-1761439Y640283D01*
X-1759254Y636981D01*
X-1758442Y633120D01*
X-1758442Y628142D01*
X-1757730Y621792D01*
X-1755851Y616356D01*
X-1752752Y611428D01*
X-1748688Y607415D01*
X-1743760Y604266D01*
X-1738325Y602335D01*
G37*
G36*
X-2143607Y718820D02*
G01*
X-2089657Y718820D01*
X-2089657Y740257D01*
X-2090369Y746607D01*
X-2092248Y752043D01*
X-2095347Y756920D01*
X-2099411Y761034D01*
X-2104339Y764133D01*
X-2109774Y766064D01*
X-2116124Y766724D01*
X-2143607Y766724D01*
G37*
G36*
X-2279142Y718820D02*
G01*
X-2225192Y718820D01*
X-2225192Y766724D01*
X-2252675Y766724D01*
X-2259025Y766064D01*
X-2264460Y764133D01*
X-2269388Y761034D01*
X-2273452Y756920D01*
X-2276551Y752043D01*
X-2278430Y746607D01*
X-2279142Y740257D01*
G37*

%LPD*%
G36*
X-2910332Y-1347317D02*
G01*
X-2914243Y-1346504D01*
X-2917494Y-1344320D01*
X-2919730Y-1341069D01*
X-2920492Y-1337157D01*
X-2920492Y-1290929D01*
X-2919577Y-1286662D01*
X-2916936Y-1283208D01*
X-2913075Y-1281074D01*
X-2908706Y-1280871D01*
X-2904642Y-1282446D01*
X-2901645Y-1285646D01*
X-2897581Y-1292301D01*
X-2888234Y-1304290D01*
X-2877464Y-1315059D01*
X-2865526Y-1324406D01*
X-2858820Y-1328420D01*
X-2855671Y-1331468D01*
X-2854045Y-1335532D01*
X-2854299Y-1339900D01*
X-2856382Y-1343761D01*
X-2859836Y-1346403D01*
X-2864104Y-1347317D01*
G37*

%LPD*%
D10*
X-965200Y-152400D02*
G01*
X-613486Y166700D01*
X-571500Y166700D01*
X-889000Y-279400D02*
G01*
X-800100Y-279476D01*
X-647700Y-431876D01*
X-647700Y-458800D01*
X-977900Y-419100D02*
G01*
X-914400Y-424510D01*
X-914400Y-520776D01*
X-776224Y-658698D01*
X-647700Y-658698D01*
X-1511300Y-342976D02*
G01*
X-1474215Y-342976D01*
X-1296415Y-165176D01*
X-1130300Y-165176D01*
D11*
X-1009904Y-374472D02*
G01*
X-1079500Y-304876D01*
X-1079500Y-215976D01*
X-1110995Y-184480D01*
X-1194307Y-184480D01*
X152400Y366699D02*
G01*
X201599Y317500D01*
X496900Y317500D01*
D10*
X-381000Y-671499D02*
G01*
X-635000Y-671499D01*
X-647700Y-658799D01*
X-914400Y366699D02*
G01*
X-571500Y366699D01*
X-1701800Y-594451D02*
G01*
X-1701800Y-279400D01*
X-1055700Y366699D01*
X-914400Y366699D01*
X-2794000Y-1220800D02*
G01*
X-2171700Y-598500D01*
X-2057400Y-598500D01*
X-2057400Y-598500D02*
G01*
X-2053348Y-594448D01*
X-1701800Y-594448D01*
X-1194307Y-374472D02*
G01*
X-1194307Y-584784D01*
X-1437639Y-827862D01*
X-1701800Y-827862D01*
D11*
X-114300Y-496900D02*
G01*
X-101600Y-484200D01*
X-101600Y-241300D01*
D12*
X-114300Y-696899D02*
G01*
X20599Y-696899D01*
X163499Y-839800D01*
X304800Y-839800D01*
X-914400Y166700D02*
G01*
X-571500Y166700D01*
X-571500Y166700D01*
X-2108200Y125399D02*
G01*
X-2184400Y201599D01*
X-2184400Y484200D01*
X-2794000Y-1220800D02*
G01*
X-1710181Y-1219276D01*
X-1930400Y706907D02*
G01*
X-1907692Y684199D01*
X-1663700Y684199D01*
X-2184400Y484200D02*
G01*
X-2181707Y486892D01*
X-1930400Y486892D01*
X-571500Y166700D02*
G01*
X-558800Y179400D01*
X-241300Y179400D01*
X1816100Y-1028700D02*
G01*
X1917700Y-927100D01*
X1995500Y-927100D01*
X1985497Y-165110D02*
G01*
X1684040Y136347D01*
X1447800Y136347D01*
X1990470Y-685800D02*
G01*
X2095500Y-580771D01*
X2095500Y-203200D01*
X2057410Y-165110D01*
X1985497Y-165110D01*
X1562100Y-406400D02*
G01*
X1995500Y-406400D01*
X1569974Y-945972D02*
G01*
X1644904Y-945972D01*
X1701800Y-889076D01*
X1701800Y-647776D01*
X774700Y-647776D01*
X2195499Y-927100D02*
G01*
X2200529Y-922070D01*
X2200529Y-685800D01*
X2205512Y-165110D02*
G01*
X2195499Y-175122D01*
X2195499Y-406400D01*
X774700Y-647700D02*
G01*
X762000Y-635000D01*
X215900Y-635000D01*
X-101600Y-241300D02*
G01*
X-101600Y0D01*
X65100Y166700D01*
X152400Y166700D01*
X696899Y317500D02*
G01*
X797306Y217093D01*
X797306Y-118389D01*
X152400Y166700D02*
G01*
X371093Y-51993D01*
X371093Y-118389D01*
X797306Y-248386D02*
G01*
X1189786Y-248386D01*
X1270000Y-328599D01*
X371091Y-313408D02*
G01*
X371091Y-409191D01*
X482600Y-520700D01*
X1435100Y-520700D01*
X1447800Y-508000D01*
X1447800Y-203200D01*
X1447800Y136347D01*
X371091Y-248389D02*
G01*
X183410Y-248389D01*
X88900Y-342900D01*
X371093Y-184480D02*
G01*
X171704Y-184480D01*
X63500Y-76276D01*
X1054100Y303199D02*
G01*
X1065199Y292100D01*
X1447800Y292100D01*
X1447800Y136344D01*
X1447800Y574852D02*
G01*
X1544447Y671499D01*
X2197100Y671499D01*
X723292Y-852500D02*
G01*
X317500Y-852500D01*
X304800Y-839800D01*
X304800Y-1039799D02*
G01*
X307007Y-1042007D01*
X723292Y-1042007D01*
X723292Y-947496D01*
X953109Y-852500D02*
G01*
X900099Y-852500D01*
X825500Y-927100D01*
X825500Y-977900D01*
X952500Y-1104900D01*
X1231900Y-1104900D01*
X1333500Y-1206500D01*
X1385900Y-1206500D01*
X953107Y-947496D02*
G01*
X954707Y-945896D01*
X1300099Y-945896D01*
X953107Y-757504D02*
G01*
X954707Y-755904D01*
X1300099Y-755904D01*
X2195499Y88900D02*
G01*
X2218209Y111610D01*
X2218209Y355600D01*
X1447800Y136347D02*
G01*
X1667052Y355600D01*
X1998190Y355600D01*
X797308Y-118386D02*
G01*
X797308Y46408D01*
X1054100Y303199D01*
D13*
G01*
X-1930389Y486897D03*
G01*
X-1930389Y706912D03*
D14*
G01*
X-1663700Y684204D03*
D15*
G01*
X-1663700Y484200D03*
D16*
G01*
X-1710202Y-1219210D03*
G01*
X-1490187Y-1219210D03*
D17*
G01*
X304800Y-1039802D03*
D18*
G01*
X304800Y-839800D03*
D17*
G01*
X152400Y166697D03*
D18*
G01*
X152400Y366699D03*
D17*
G01*
X1054100Y103197D03*
D18*
G01*
X1054100Y303199D03*
D19*
G01*
X496897Y317499D03*
G01*
X696902Y317499D03*
D17*
G01*
X-2057400Y-598497D03*
D18*
G01*
X-2057400Y-798499D03*
D17*
G01*
X-571500Y366702D03*
D18*
G01*
X-571500Y166700D03*
D17*
G01*
X-381000Y-671502D03*
D18*
G01*
X-381000Y-471500D03*
D20*
G01*
X2200529Y-685800D03*
D21*
G01*
X1990470Y-685800D03*
D22*
G01*
X1447800Y574852D03*
G01*
X1447800Y136347D03*
D23*
G01*
X-1701800Y-594461D03*
D24*
G01*
X-1701800Y-827951D03*
D16*
G01*
X1998197Y355589D03*
G01*
X2218212Y355589D03*
D25*
G01*
X1570100Y-755904D03*
G01*
X1570100Y-850900D03*
G01*
X1570100Y-945896D03*
G01*
X1300099Y-945896D03*
G01*
X1300099Y-850900D03*
G01*
X1300099Y-755904D03*
D26*
G01*
X1385895Y-1206500D03*
G01*
X1585904Y-1206500D03*
D14*
G01*
X-114300Y-696904D03*
D15*
G01*
X-114300Y-496900D03*
D27*
G01*
X2195504Y88900D03*
G01*
X1995495Y88900D03*
G01*
X2195504Y-406400D03*
G01*
X1995495Y-406400D03*
G01*
X2195504Y-927100D03*
G01*
X1995495Y-927100D03*
D14*
G01*
X1270000Y-328604D03*
D15*
G01*
X1270000Y-128600D03*
D14*
G01*
X-241300Y179395D03*
D15*
G01*
X-241300Y379399D03*
D14*
G01*
X-914400Y366704D03*
D15*
G01*
X-914400Y166700D03*
D14*
G01*
X-647700Y-658804D03*
D15*
G01*
X-647700Y-458800D03*
D16*
G01*
X1985497Y-165110D03*
G01*
X2205512Y-165110D03*
D28*
G01*
X953109Y-947496D03*
G01*
X953109Y-852500D03*
G01*
X953109Y-757504D03*
G01*
X723290Y-757504D03*
G01*
X723290Y-852500D03*
G01*
X723290Y-947496D03*
D29*
G01*
X797306Y-313410D03*
G01*
X797306Y-248386D03*
G01*
X797306Y-183388D03*
G01*
X797306Y-118389D03*
G01*
X371093Y-313410D03*
G01*
X371093Y-248386D03*
G01*
X371093Y-183388D03*
G01*
X371093Y-118389D03*
D30*
G01*
X584200Y-215900D03*
D28*
G01*
X-1194409Y-184404D03*
G01*
X-1194409Y-279400D03*
G01*
X-1194409Y-374396D03*
G01*
X-964590Y-374396D03*
G01*
X-964590Y-279400D03*
G01*
X-964590Y-184404D03*
D14*
G01*
X-2184400Y684204D03*
D15*
G01*
X-2184400Y484200D03*
D31*
G01*
X2197100Y-1231900D03*
D32*
G01*
X2197100Y671499D03*
G01*
X-2794000Y-1220800D03*
D33*
G01*
X-2308199Y125399D03*
G01*
X-1908200Y125399D03*
G01*
X-2108200Y125399D03*
D34*
G01*
X-1693189Y125399D03*
G01*
X-2523210Y125399D03*
D35*
G01*
X-2794000Y685800D03*
D36*
G01*
X1651000Y-152400D03*
G01*
X215900Y-635000D03*
G01*
X-101600Y-241300D03*
G01*
X63500Y-76200D03*
G01*
X88900Y-342900D03*
G01*
X1562100Y-406400D03*
G01*
X1816100Y-1028700D03*
G01*
X-1511300Y-342900D03*
G01*
X-1409700Y-546100D03*
M02*
