G04 Layer: BottomLayer*
G04 EasyEDA v6.5.42, 2024-05-27 16:03:50*
G04 5a823164b2b14e8aa45e0a56d25f44cb,4b06660695a64fe3bf0f4e1e846abbee,10*
G04 Gerber Generator version 0.2*
G04 Scale: 100 percent, Rotated: No, Reflected: No *
G04 Dimensions in millimeters *
G04 leading zeros omitted , absolute positions ,4 integer and 5 decimal *
%FSLAX45Y45*%
%MOMM*%

%AMMACRO1*21,1,$1,$2,0,0,$3*%
%ADD10C,0.3000*%
%ADD11C,0.8000*%
%ADD12MACRO1,1X3.8X-90.0000*%
%ADD13MACRO1,1.5X3.4X-90.0000*%
%ADD14C,2.0000*%
%ADD15O,1.599946X1.5999968*%
%ADD16O,1.9999959999999999X2.999994*%
%ADD17MACRO1,2X2X-90.0000*%
%ADD18R,2.0000X2.0000*%
%ADD19C,1.2000*%
%ADD20C,0.0124*%

%LPD*%
G36*
X-2723896Y-1347317D02*
G01*
X-2728163Y-1346403D01*
X-2731617Y-1343761D01*
X-2733700Y-1339900D01*
X-2733954Y-1335532D01*
X-2732328Y-1331468D01*
X-2729179Y-1328420D01*
X-2722473Y-1324406D01*
X-2710535Y-1315059D01*
X-2699766Y-1304290D01*
X-2690418Y-1292301D01*
X-2682544Y-1279347D01*
X-2676296Y-1265428D01*
X-2671775Y-1250950D01*
X-2669032Y-1236014D01*
X-2668117Y-1220825D01*
X-2669032Y-1205636D01*
X-2671775Y-1190650D01*
X-2676296Y-1176172D01*
X-2682544Y-1162304D01*
X-2690418Y-1149299D01*
X-2699766Y-1137361D01*
X-2710535Y-1126591D01*
X-2722473Y-1117244D01*
X-2735478Y-1109370D01*
X-2749346Y-1103122D01*
X-2763875Y-1098600D01*
X-2778810Y-1095857D01*
X-2794000Y-1094892D01*
X-2809189Y-1095857D01*
X-2824124Y-1098600D01*
X-2838653Y-1103122D01*
X-2852521Y-1109370D01*
X-2865526Y-1117244D01*
X-2877464Y-1126591D01*
X-2888234Y-1137361D01*
X-2897581Y-1149299D01*
X-2901645Y-1155954D01*
X-2904642Y-1159154D01*
X-2908706Y-1160780D01*
X-2913075Y-1160526D01*
X-2916936Y-1158392D01*
X-2919577Y-1154938D01*
X-2920492Y-1150670D01*
X-2920492Y553720D01*
X-2919628Y557834D01*
X-2917139Y561238D01*
X-2913481Y563422D01*
X-2909265Y563880D01*
X-2899765Y560578D01*
X-2893415Y559917D01*
X-2850337Y559917D01*
X-2850337Y629412D01*
X-2910332Y629412D01*
X-2914243Y630174D01*
X-2917494Y632409D01*
X-2919730Y635711D01*
X-2920492Y639622D01*
X-2920492Y731977D01*
X-2919730Y735888D01*
X-2917494Y739190D01*
X-2914243Y741375D01*
X-2910332Y742188D01*
X-2850337Y742188D01*
X-2850337Y800303D01*
X-2849575Y804214D01*
X-2847340Y807466D01*
X-2844038Y809650D01*
X-2840177Y810412D01*
X-2747772Y810209D01*
X-2743911Y809396D01*
X-2740609Y807212D01*
X-2738424Y803910D01*
X-2737662Y800049D01*
X-2737662Y742188D01*
X-2668066Y742188D01*
X-2668066Y785215D01*
X-2668828Y791565D01*
X-2670556Y796442D01*
X-2671114Y800354D01*
X-2670200Y804011D01*
X-2667965Y807161D01*
X-2664714Y809244D01*
X-2660904Y810006D01*
X-1397457Y806958D01*
X-1393596Y806196D01*
X-1390294Y804011D01*
X-1388110Y800760D01*
X-1387297Y796899D01*
X-1384808Y494080D01*
X-1383995Y487629D01*
X-1381810Y482092D01*
X-1378254Y476961D01*
X-1375359Y474116D01*
X-1371650Y471373D01*
X-1366113Y468934D01*
X-1358747Y467766D01*
X-1092809Y467766D01*
X-1086307Y468630D01*
X-1080770Y470662D01*
X-1075639Y474218D01*
X-1072591Y477215D01*
X-1069949Y480872D01*
X-1067460Y486359D01*
X-1066292Y493826D01*
X-1066292Y791362D01*
X-1065530Y795274D01*
X-1063294Y798525D01*
X-1060043Y800811D01*
X-1056132Y801522D01*
X45008Y801522D01*
X48869Y800811D01*
X52120Y798576D01*
X54356Y795375D01*
X55168Y791565D01*
X70307Y-383692D01*
X69545Y-387604D01*
X67360Y-391007D01*
X64058Y-393242D01*
X60147Y-394004D01*
X-2187448Y-394004D01*
X-2191105Y-393395D01*
X-2194255Y-391464D01*
X-2196490Y-388569D01*
X-2197557Y-385013D01*
X-2198217Y-379272D01*
X-2200097Y-373837D01*
X-2203196Y-368909D01*
X-2207310Y-364845D01*
X-2212187Y-361696D01*
X-2217623Y-359765D01*
X-2223973Y-359105D01*
X-2234793Y-359105D01*
X-2238400Y-358394D01*
X-2241550Y-356565D01*
X-2243785Y-353720D01*
X-2244902Y-350215D01*
X-2244699Y-346557D01*
X-2243124Y-340106D01*
X-2242312Y-329438D01*
X-2242312Y38049D01*
X-2241397Y42265D01*
X-2238806Y45669D01*
X-2233320Y50546D01*
X-2224176Y60909D01*
X-2216658Y72186D01*
X-2213864Y75031D01*
X-2210206Y76555D01*
X-2206193Y76555D01*
X-2202535Y75031D01*
X-2199741Y72186D01*
X-2192223Y60909D01*
X-2183079Y50546D01*
X-2172665Y41351D01*
X-2161133Y33680D01*
X-2148738Y27584D01*
X-2135581Y23164D01*
X-2122017Y20370D01*
X-2108200Y19507D01*
X-2094382Y20370D01*
X-2080818Y23164D01*
X-2067661Y27584D01*
X-2055266Y33680D01*
X-2043734Y41351D01*
X-2033320Y50546D01*
X-2024176Y60909D01*
X-2016658Y72186D01*
X-2013864Y75031D01*
X-2010206Y76555D01*
X-2006193Y76555D01*
X-2002536Y75031D01*
X-1999742Y72186D01*
X-1992223Y60909D01*
X-1983079Y50546D01*
X-1972665Y41351D01*
X-1961134Y33680D01*
X-1948738Y27584D01*
X-1935581Y23164D01*
X-1922018Y20370D01*
X-1908200Y19507D01*
X-1894382Y20370D01*
X-1880819Y23164D01*
X-1867662Y27584D01*
X-1855266Y33680D01*
X-1843735Y41351D01*
X-1832813Y51003D01*
X-1829155Y52984D01*
X-1826615Y53238D01*
X-1826158Y57556D01*
X-1824177Y60909D01*
X-1816506Y72491D01*
X-1810359Y84836D01*
X-1805939Y97942D01*
X-1803247Y111607D01*
X-1802333Y125374D01*
X-1803247Y139192D01*
X-1805939Y152806D01*
X-1810359Y165912D01*
X-1816506Y178308D01*
X-1824228Y189890D01*
X-1826158Y193192D01*
X-1826615Y197561D01*
X-1829155Y197764D01*
X-1832813Y199796D01*
X-1843735Y209397D01*
X-1855266Y217119D01*
X-1867662Y223215D01*
X-1880819Y227634D01*
X-1894382Y230378D01*
X-1908200Y231292D01*
X-1922018Y230378D01*
X-1935581Y227634D01*
X-1948738Y223215D01*
X-1961134Y217119D01*
X-1972665Y209397D01*
X-1983079Y200253D01*
X-1992223Y189839D01*
X-1999742Y178562D01*
X-2002536Y175717D01*
X-2006193Y174193D01*
X-2010206Y174193D01*
X-2013864Y175717D01*
X-2016658Y178562D01*
X-2024176Y189839D01*
X-2033320Y200253D01*
X-2043734Y209397D01*
X-2055266Y217119D01*
X-2067661Y223215D01*
X-2080818Y227634D01*
X-2094382Y230378D01*
X-2108200Y231292D01*
X-2122017Y230378D01*
X-2135581Y227634D01*
X-2148738Y223215D01*
X-2161133Y217119D01*
X-2172665Y209397D01*
X-2183079Y200253D01*
X-2192223Y189839D01*
X-2199741Y178562D01*
X-2202535Y175717D01*
X-2206193Y174193D01*
X-2210206Y174193D01*
X-2213864Y175717D01*
X-2216658Y178562D01*
X-2224176Y189839D01*
X-2233320Y200253D01*
X-2243734Y209397D01*
X-2255266Y217119D01*
X-2267661Y223215D01*
X-2280818Y227634D01*
X-2294382Y230378D01*
X-2308199Y231292D01*
X-2322017Y230378D01*
X-2335580Y227634D01*
X-2348738Y223215D01*
X-2361133Y217119D01*
X-2372664Y209397D01*
X-2383586Y199796D01*
X-2387244Y197764D01*
X-2389784Y197561D01*
X-2390241Y193192D01*
X-2392222Y189839D01*
X-2399893Y178308D01*
X-2406040Y165912D01*
X-2410460Y152806D01*
X-2413152Y139192D01*
X-2414066Y125374D01*
X-2413152Y111607D01*
X-2410460Y97942D01*
X-2406040Y84836D01*
X-2399893Y72491D01*
X-2392172Y60858D01*
X-2390241Y57556D01*
X-2389784Y53238D01*
X-2387244Y52984D01*
X-2383586Y51003D01*
X-2377592Y45669D01*
X-2375001Y42265D01*
X-2374087Y38049D01*
X-2374087Y-298246D01*
X-2374900Y-302158D01*
X-2377084Y-305511D01*
X-2427732Y-356158D01*
X-2431034Y-358292D01*
X-2434894Y-359105D01*
X-2602839Y-359105D01*
X-2609138Y-359765D01*
X-2614625Y-361696D01*
X-2619502Y-364845D01*
X-2623616Y-368909D01*
X-2626664Y-373837D01*
X-2628595Y-379272D01*
X-2629306Y-385572D01*
X-2629306Y-484479D01*
X-2628595Y-490728D01*
X-2626664Y-496214D01*
X-2623616Y-501142D01*
X-2619502Y-505206D01*
X-2614625Y-508254D01*
X-2609138Y-510184D01*
X-2602839Y-510946D01*
X-2223973Y-510946D01*
X-2217623Y-510184D01*
X-2212187Y-508254D01*
X-2207310Y-505206D01*
X-2203196Y-501142D01*
X-2200097Y-496214D01*
X-2198217Y-490728D01*
X-2197557Y-484835D01*
X-2196490Y-481330D01*
X-2194204Y-478434D01*
X-2191054Y-476504D01*
X-2187448Y-475843D01*
X61467Y-475843D01*
X65328Y-476554D01*
X68580Y-478790D01*
X70815Y-482041D01*
X71628Y-485851D01*
X82550Y-1337005D01*
X81838Y-1340967D01*
X79654Y-1344320D01*
X76352Y-1346504D01*
X72390Y-1347317D01*
X-1030732Y-1347317D01*
X-1034643Y-1346504D01*
X-1037894Y-1344320D01*
X-1040130Y-1341069D01*
X-1040892Y-1337157D01*
X-1040892Y-1043584D01*
X-1041704Y-1037132D01*
X-1043787Y-1031595D01*
X-1047343Y-1026464D01*
X-1050340Y-1023416D01*
X-1053947Y-1020724D01*
X-1059484Y-1018235D01*
X-1066952Y-1017117D01*
X-1332890Y-1017117D01*
X-1339392Y-1017930D01*
X-1344930Y-1020013D01*
X-1350060Y-1023569D01*
X-1353108Y-1026515D01*
X-1355750Y-1030173D01*
X-1358239Y-1035710D01*
X-1359408Y-1043127D01*
X-1359408Y-1337157D01*
X-1360170Y-1341069D01*
X-1362405Y-1344320D01*
X-1365656Y-1346504D01*
X-1369568Y-1347317D01*
G37*

%LPC*%
G36*
X-116027Y-1246174D02*
G01*
X-105968Y-1240688D01*
X-96164Y-1233322D01*
X-87477Y-1224686D01*
X-80162Y-1214882D01*
X-74625Y-1204772D01*
X-116027Y-1204772D01*
G37*
G36*
X-188772Y-1246174D02*
G01*
X-188772Y-1204772D01*
X-230174Y-1204772D01*
X-224637Y-1214882D01*
X-217322Y-1224686D01*
X-208635Y-1233322D01*
X-198831Y-1240688D01*
G37*
G36*
X-230174Y-1132027D02*
G01*
X-188772Y-1132027D01*
X-188772Y-1090676D01*
X-198831Y-1096162D01*
X-208635Y-1103528D01*
X-217322Y-1112164D01*
X-224637Y-1122019D01*
G37*
G36*
X-116027Y-1132027D02*
G01*
X-74625Y-1132027D01*
X-80162Y-1122019D01*
X-87477Y-1112164D01*
X-96164Y-1103528D01*
X-105968Y-1096162D01*
X-116027Y-1090676D01*
G37*
G36*
X-1737055Y-970889D02*
G01*
X-1658975Y-970889D01*
X-1652625Y-970229D01*
X-1647189Y-968298D01*
X-1642313Y-965250D01*
X-1638198Y-961085D01*
X-1635099Y-956208D01*
X-1633220Y-950772D01*
X-1632508Y-944422D01*
X-1632508Y-913892D01*
X-1737055Y-913892D01*
G37*
G36*
X-1997811Y-970889D02*
G01*
X-1919732Y-970889D01*
X-1919732Y-913892D01*
X-2024329Y-913892D01*
X-2024329Y-944422D01*
X-2023618Y-950772D01*
X-2021687Y-956208D01*
X-2018588Y-961085D01*
X-2014524Y-965250D01*
X-2009597Y-968298D01*
X-2004161Y-970229D01*
G37*
G36*
X-2024329Y-826160D02*
G01*
X-1919732Y-826160D01*
X-1919732Y-769061D01*
X-1997811Y-769061D01*
X-2004161Y-769823D01*
X-2009597Y-771753D01*
X-2014524Y-774801D01*
X-2018588Y-778865D01*
X-2021687Y-783742D01*
X-2023618Y-789279D01*
X-2024329Y-795528D01*
G37*
G36*
X-1737055Y-826160D02*
G01*
X-1632508Y-826160D01*
X-1632508Y-795528D01*
X-1633220Y-789279D01*
X-1635099Y-783742D01*
X-1638198Y-778865D01*
X-1642313Y-774801D01*
X-1647189Y-771753D01*
X-1652625Y-769823D01*
X-1658975Y-769061D01*
X-1737055Y-769061D01*
G37*
G36*
X-2312060Y-710946D02*
G01*
X-2223973Y-710946D01*
X-2217623Y-710234D01*
X-2212187Y-708304D01*
X-2207310Y-705154D01*
X-2203196Y-701141D01*
X-2200097Y-696214D01*
X-2198217Y-690778D01*
X-2197506Y-684479D01*
X-2197506Y-666394D01*
X-2312060Y-666394D01*
G37*
G36*
X-2602839Y-710946D02*
G01*
X-2514752Y-710946D01*
X-2514752Y-666394D01*
X-2629306Y-666394D01*
X-2629306Y-684479D01*
X-2628595Y-690778D01*
X-2626664Y-696214D01*
X-2623616Y-701141D01*
X-2619502Y-705154D01*
X-2614625Y-708304D01*
X-2609138Y-710234D01*
G37*
G36*
X-2629306Y-603656D02*
G01*
X-2514752Y-603656D01*
X-2514752Y-559054D01*
X-2602839Y-559054D01*
X-2609138Y-559816D01*
X-2614625Y-561746D01*
X-2619502Y-564845D01*
X-2623616Y-568858D01*
X-2626664Y-573786D01*
X-2628595Y-579272D01*
X-2629306Y-585520D01*
G37*
G36*
X-2312060Y-603656D02*
G01*
X-2197506Y-603656D01*
X-2197506Y-585520D01*
X-2198217Y-579272D01*
X-2200097Y-573786D01*
X-2203196Y-568858D01*
X-2207310Y-564845D01*
X-2212187Y-561746D01*
X-2217623Y-559816D01*
X-2223973Y-559054D01*
X-2312060Y-559054D01*
G37*
G36*
X-1737055Y-300939D02*
G01*
X-1658975Y-300939D01*
X-1652625Y-300177D01*
X-1647189Y-298246D01*
X-1642313Y-295249D01*
X-1638198Y-291134D01*
X-1635099Y-286258D01*
X-1633220Y-280720D01*
X-1632508Y-274472D01*
X-1632508Y-243890D01*
X-1737055Y-243890D01*
G37*
G36*
X-1997811Y-300939D02*
G01*
X-1919732Y-300939D01*
X-1919732Y-243890D01*
X-2024329Y-243890D01*
X-2024329Y-274472D01*
X-2023618Y-280720D01*
X-2021687Y-286258D01*
X-2018588Y-291134D01*
X-2014524Y-295249D01*
X-2009597Y-298246D01*
X-2004161Y-300177D01*
G37*
G36*
X-1737055Y-156108D02*
G01*
X-1632508Y-156108D01*
X-1632508Y-125577D01*
X-1633220Y-119278D01*
X-1635099Y-113792D01*
X-1638198Y-108915D01*
X-1642313Y-104749D01*
X-1647189Y-101752D01*
X-1652625Y-99822D01*
X-1658975Y-99110D01*
X-1737055Y-99110D01*
G37*
G36*
X-2024329Y-156108D02*
G01*
X-1919732Y-156108D01*
X-1919732Y-99110D01*
X-1997811Y-99110D01*
X-2004161Y-99822D01*
X-2009597Y-101752D01*
X-2014524Y-104749D01*
X-2018588Y-108915D01*
X-2021687Y-113792D01*
X-2023618Y-119278D01*
X-2024329Y-125577D01*
G37*
G36*
X-1749552Y-37084D02*
G01*
X-1749552Y44043D01*
X-1815033Y44043D01*
X-1810918Y30733D01*
X-1804670Y16865D01*
X-1796796Y3860D01*
X-1787398Y-8077D01*
X-1776679Y-18796D01*
X-1764690Y-28194D01*
X-1751685Y-36118D01*
G37*
G36*
X-1636826Y-37084D02*
G01*
X-1634693Y-36118D01*
X-1621688Y-28194D01*
X-1609699Y-18796D01*
X-1598980Y-8077D01*
X-1589582Y3860D01*
X-1581708Y16865D01*
X-1575460Y30733D01*
X-1571345Y44043D01*
X-1636826Y44043D01*
G37*
G36*
X-2466848Y-37084D02*
G01*
X-2464714Y-36118D01*
X-2451709Y-28194D01*
X-2439720Y-18796D01*
X-2429002Y-8077D01*
X-2419604Y3860D01*
X-2411730Y16865D01*
X-2405481Y30733D01*
X-2401366Y44043D01*
X-2466848Y44043D01*
G37*
G36*
X-2579573Y-37084D02*
G01*
X-2579573Y44043D01*
X-2645054Y44043D01*
X-2640939Y30733D01*
X-2634691Y16865D01*
X-2626817Y3860D01*
X-2617419Y-8077D01*
X-2606700Y-18796D01*
X-2594711Y-28194D01*
X-2581706Y-36118D01*
G37*
G36*
X-1815033Y206756D02*
G01*
X-1749552Y206756D01*
X-1749552Y287883D01*
X-1751685Y286918D01*
X-1764690Y278993D01*
X-1776679Y269595D01*
X-1787398Y258876D01*
X-1796796Y246938D01*
X-1804670Y233883D01*
X-1810918Y220065D01*
G37*
G36*
X-2466848Y206756D02*
G01*
X-2401366Y206756D01*
X-2405481Y220065D01*
X-2411730Y233883D01*
X-2419604Y246938D01*
X-2429002Y258876D01*
X-2439720Y269595D01*
X-2451709Y278993D01*
X-2464714Y286918D01*
X-2466848Y287883D01*
G37*
G36*
X-2645054Y206756D02*
G01*
X-2579573Y206756D01*
X-2579573Y287883D01*
X-2581706Y286918D01*
X-2594711Y278993D01*
X-2606700Y269595D01*
X-2617419Y258876D01*
X-2626817Y246938D01*
X-2634691Y233883D01*
X-2640939Y220065D01*
G37*
G36*
X-1636826Y206756D02*
G01*
X-1571345Y206756D01*
X-1575460Y220065D01*
X-1581708Y233883D01*
X-1589582Y246938D01*
X-1598980Y258876D01*
X-1609699Y269595D01*
X-1621688Y278993D01*
X-1634693Y286918D01*
X-1636826Y287883D01*
G37*
G36*
X-1689100Y434797D02*
G01*
X-1676857Y435660D01*
X-1664919Y438302D01*
X-1653438Y442569D01*
X-1642668Y448411D01*
X-1632864Y455777D01*
X-1624177Y464413D01*
X-1616862Y474218D01*
X-1610969Y484987D01*
X-1606702Y496519D01*
X-1604111Y508457D01*
X-1603197Y520649D01*
X-1604111Y532892D01*
X-1606702Y544880D01*
X-1610969Y556361D01*
X-1616862Y567080D01*
X-1624177Y576935D01*
X-1632864Y585571D01*
X-1642668Y592937D01*
X-1653438Y598779D01*
X-1664919Y603097D01*
X-1676857Y605688D01*
X-1689100Y606552D01*
X-1701342Y605688D01*
X-1713280Y603097D01*
X-1724761Y598779D01*
X-1735531Y592937D01*
X-1745335Y585571D01*
X-1754022Y576935D01*
X-1761337Y567080D01*
X-1767230Y556361D01*
X-1771497Y544880D01*
X-1774088Y532892D01*
X-1775002Y520649D01*
X-1774088Y508457D01*
X-1771497Y496519D01*
X-1767230Y484987D01*
X-1761337Y474218D01*
X-1754022Y464413D01*
X-1745335Y455777D01*
X-1735531Y448411D01*
X-1724761Y442569D01*
X-1713280Y438302D01*
X-1701342Y435660D01*
G37*
G36*
X-2737662Y559917D02*
G01*
X-2694584Y559917D01*
X-2688234Y560578D01*
X-2682798Y562508D01*
X-2677871Y565556D01*
X-2673807Y569722D01*
X-2670708Y574598D01*
X-2668828Y580034D01*
X-2668066Y586384D01*
X-2668066Y629412D01*
X-2737662Y629412D01*
G37*
G36*
X-738327Y595325D02*
G01*
X-728268Y600811D01*
X-718464Y608177D01*
X-709777Y616813D01*
X-702462Y626618D01*
X-696925Y636727D01*
X-738327Y636727D01*
G37*
G36*
X-811072Y595325D02*
G01*
X-811072Y636727D01*
X-852474Y636727D01*
X-846937Y626618D01*
X-839622Y616813D01*
X-830935Y608177D01*
X-821131Y600811D01*
G37*
G36*
X-852474Y709472D02*
G01*
X-811072Y709472D01*
X-811072Y750824D01*
X-821131Y745337D01*
X-830935Y737971D01*
X-839622Y729335D01*
X-846937Y719480D01*
G37*
G36*
X-738327Y709472D02*
G01*
X-696925Y709472D01*
X-702462Y719480D01*
X-709777Y729335D01*
X-718464Y737971D01*
X-728268Y745337D01*
X-738327Y750824D01*
G37*

%LPD*%
G36*
X-2910332Y-1347317D02*
G01*
X-2914243Y-1346504D01*
X-2917494Y-1344320D01*
X-2919730Y-1341069D01*
X-2920492Y-1337157D01*
X-2920492Y-1290929D01*
X-2919577Y-1286662D01*
X-2916936Y-1283208D01*
X-2913075Y-1281074D01*
X-2908706Y-1280871D01*
X-2904642Y-1282446D01*
X-2901645Y-1285646D01*
X-2897581Y-1292301D01*
X-2888234Y-1304290D01*
X-2877464Y-1315059D01*
X-2865526Y-1324406D01*
X-2858820Y-1328420D01*
X-2855671Y-1331468D01*
X-2854045Y-1335532D01*
X-2854299Y-1339900D01*
X-2856382Y-1343761D01*
X-2859836Y-1346403D01*
X-2864104Y-1347317D01*
G37*

%LPD*%
G36*
X118618Y-1347317D02*
G01*
X114808Y-1346504D01*
X111506Y-1344371D01*
X109270Y-1341069D01*
X108458Y-1337259D01*
X97536Y-486156D01*
X98247Y-482244D01*
X100431Y-478891D01*
X103784Y-476656D01*
X107696Y-475843D01*
X123189Y-475843D01*
X131673Y-475030D01*
X139344Y-472643D01*
X146405Y-468934D01*
X152958Y-463550D01*
X712470Y95707D01*
X715772Y97942D01*
X719632Y98704D01*
X1264970Y98704D01*
X1268476Y98044D01*
X1271625Y96215D01*
X1281277Y83413D01*
X1289964Y74777D01*
X1300022Y67310D01*
X1302816Y65024D01*
X1304645Y61925D01*
X1305306Y58369D01*
X1305306Y-804316D01*
X1304544Y-808228D01*
X1302308Y-811580D01*
X1272997Y-840841D01*
X1270254Y-842822D01*
X1267053Y-843787D01*
X1263650Y-843584D01*
X1256842Y-842111D01*
X1244600Y-841248D01*
X1232357Y-842111D01*
X1220419Y-844702D01*
X1208938Y-849020D01*
X1198168Y-854862D01*
X1188364Y-862228D01*
X1179677Y-870864D01*
X1172362Y-880719D01*
X1166469Y-891438D01*
X1162202Y-902919D01*
X1159611Y-914908D01*
X1158697Y-927150D01*
X1159611Y-939342D01*
X1162202Y-951280D01*
X1166469Y-962812D01*
X1172362Y-973582D01*
X1179677Y-983386D01*
X1188364Y-992022D01*
X1198168Y-999388D01*
X1208938Y-1005230D01*
X1220419Y-1009497D01*
X1232357Y-1012139D01*
X1244600Y-1013002D01*
X1256842Y-1012139D01*
X1268780Y-1009497D01*
X1280261Y-1005230D01*
X1291031Y-999388D01*
X1300835Y-992022D01*
X1309522Y-983386D01*
X1316837Y-973582D01*
X1322730Y-962812D01*
X1326997Y-951280D01*
X1329588Y-939342D01*
X1330502Y-927150D01*
X1329588Y-914908D01*
X1328115Y-908050D01*
X1327962Y-904697D01*
X1328928Y-901446D01*
X1330858Y-898702D01*
X1374749Y-854811D01*
X1380185Y-848207D01*
X1383944Y-841146D01*
X1386281Y-833475D01*
X1387094Y-825042D01*
X1387094Y58369D01*
X1387754Y61925D01*
X1389583Y65024D01*
X1402435Y74777D01*
X1411122Y83413D01*
X1418437Y93218D01*
X1424330Y103987D01*
X1428597Y115519D01*
X1431188Y127457D01*
X1432102Y139649D01*
X1431188Y151892D01*
X1428597Y163880D01*
X1424330Y175361D01*
X1418437Y186080D01*
X1411122Y195935D01*
X1402435Y204571D01*
X1392631Y211937D01*
X1381861Y217779D01*
X1370380Y222097D01*
X1358442Y224688D01*
X1346200Y225552D01*
X1333957Y224688D01*
X1322019Y222097D01*
X1310538Y217779D01*
X1299768Y211937D01*
X1289964Y204571D01*
X1281277Y195935D01*
X1271524Y182981D01*
X1268425Y181152D01*
X1264869Y180492D01*
X699008Y180492D01*
X690524Y179679D01*
X682853Y177342D01*
X675792Y173634D01*
X669239Y168249D01*
X113487Y-387299D01*
X110235Y-389483D01*
X106375Y-390296D01*
X102514Y-389534D01*
X99212Y-387350D01*
X96977Y-384098D01*
X96164Y-380238D01*
X81076Y791210D01*
X81788Y795172D01*
X84023Y798525D01*
X87325Y800811D01*
X91236Y801522D01*
X675132Y801522D01*
X679043Y800811D01*
X682294Y798525D01*
X684530Y795274D01*
X685292Y791362D01*
X685292Y595884D01*
X686104Y589381D01*
X688187Y583895D01*
X691743Y578713D01*
X694740Y575665D01*
X698347Y573024D01*
X703884Y570534D01*
X711352Y569366D01*
X1015390Y569366D01*
X1021892Y570230D01*
X1027430Y572262D01*
X1032560Y575818D01*
X1035608Y578815D01*
X1038250Y582472D01*
X1040739Y587959D01*
X1041908Y595426D01*
X1041908Y787806D01*
X1042669Y791718D01*
X1044905Y794969D01*
X1048156Y797204D01*
X1052068Y797966D01*
X2064257Y797966D01*
X2068068Y797306D01*
X2071319Y795172D01*
X2073554Y792022D01*
X2074418Y788263D01*
X2073859Y784453D01*
X2071928Y778865D01*
X2071217Y772515D01*
X2071217Y729488D01*
X2140762Y729488D01*
X2140762Y787806D01*
X2141524Y791718D01*
X2143709Y794969D01*
X2147011Y797204D01*
X2150922Y797966D01*
X2243277Y797966D01*
X2247188Y797204D01*
X2250490Y794969D01*
X2252675Y791718D01*
X2253437Y787806D01*
X2253437Y729488D01*
X2313432Y729488D01*
X2317343Y728675D01*
X2320594Y726490D01*
X2322830Y723188D01*
X2323592Y719277D01*
X2323592Y626922D01*
X2322830Y623011D01*
X2320594Y619709D01*
X2317343Y617474D01*
X2313432Y616712D01*
X2253437Y616712D01*
X2253437Y547217D01*
X2296515Y547217D01*
X2302865Y547878D01*
X2312365Y551180D01*
X2316581Y550722D01*
X2320239Y548538D01*
X2322728Y545134D01*
X2323592Y541020D01*
X2323592Y-1149096D01*
X2322677Y-1153414D01*
X2320036Y-1156868D01*
X2316175Y-1158849D01*
X2311806Y-1159154D01*
X2307742Y-1157478D01*
X2304745Y-1154379D01*
X2300681Y-1147673D01*
X2291334Y-1135735D01*
X2280564Y-1125016D01*
X2268626Y-1115618D01*
X2255621Y-1107694D01*
X2241753Y-1101496D01*
X2227224Y-1096924D01*
X2212289Y-1094232D01*
X2197100Y-1093317D01*
X2181910Y-1094232D01*
X2166975Y-1096924D01*
X2152446Y-1101496D01*
X2138578Y-1107694D01*
X2125573Y-1115618D01*
X2113635Y-1125016D01*
X2102866Y-1135735D01*
X2093518Y-1147673D01*
X2085644Y-1160729D01*
X2079396Y-1174546D01*
X2074875Y-1189075D01*
X2072132Y-1204061D01*
X2071217Y-1219250D01*
X2072132Y-1234389D01*
X2074875Y-1249324D01*
X2079396Y-1263853D01*
X2085644Y-1277670D01*
X2093518Y-1290726D01*
X2102866Y-1302715D01*
X2113635Y-1313434D01*
X2125573Y-1322832D01*
X2134920Y-1328420D01*
X2138070Y-1331468D01*
X2139696Y-1335532D01*
X2139442Y-1339900D01*
X2137410Y-1343761D01*
X2133904Y-1346403D01*
X2129637Y-1347317D01*
X1052068Y-1347317D01*
X1048156Y-1346504D01*
X1044905Y-1344320D01*
X1042669Y-1341069D01*
X1041908Y-1337157D01*
X1041908Y-1170584D01*
X1041095Y-1164132D01*
X1039012Y-1158595D01*
X1035456Y-1153464D01*
X1032459Y-1150416D01*
X1028852Y-1147724D01*
X1023315Y-1145235D01*
X1015847Y-1144117D01*
X699109Y-1144117D01*
X692607Y-1144930D01*
X687070Y-1147013D01*
X681939Y-1150569D01*
X678891Y-1153515D01*
X676249Y-1157173D01*
X673760Y-1162710D01*
X672592Y-1170127D01*
X672592Y-1337157D01*
X671830Y-1341069D01*
X669594Y-1344320D01*
X666343Y-1346504D01*
X662432Y-1347317D01*
G37*

%LPC*%
G36*
X495300Y180797D02*
G01*
X507542Y181660D01*
X519480Y184302D01*
X530961Y188569D01*
X541731Y194411D01*
X551535Y201777D01*
X560222Y210413D01*
X567537Y220217D01*
X573430Y230987D01*
X577697Y242519D01*
X580288Y254457D01*
X581202Y266649D01*
X580339Y278384D01*
X580898Y282549D01*
X583031Y286054D01*
X586435Y288442D01*
X590499Y289306D01*
X1036319Y289306D01*
X1039876Y288645D01*
X1042974Y286766D01*
X1052677Y273913D01*
X1061364Y265277D01*
X1071168Y257911D01*
X1081938Y252069D01*
X1093419Y247802D01*
X1105357Y245160D01*
X1117600Y244297D01*
X1129842Y245160D01*
X1141780Y247802D01*
X1153261Y252069D01*
X1164031Y257911D01*
X1173835Y265277D01*
X1182522Y273913D01*
X1189837Y283718D01*
X1195730Y294487D01*
X1199997Y306019D01*
X1202588Y317957D01*
X1203502Y330149D01*
X1202588Y342392D01*
X1199997Y354380D01*
X1195730Y365861D01*
X1189837Y376580D01*
X1182522Y386435D01*
X1173835Y395071D01*
X1164031Y402437D01*
X1153261Y408279D01*
X1141780Y412597D01*
X1129842Y415188D01*
X1117600Y416051D01*
X1105357Y415188D01*
X1093419Y412597D01*
X1081938Y408279D01*
X1071168Y402437D01*
X1061364Y395071D01*
X1052677Y386435D01*
X1042974Y373583D01*
X1039876Y371703D01*
X1036319Y371094D01*
X792784Y371094D01*
X788720Y371957D01*
X785317Y374396D01*
X783183Y377952D01*
X782675Y382168D01*
X783844Y386130D01*
X788974Y395427D01*
X747572Y395427D01*
X747572Y381254D01*
X746760Y377342D01*
X744575Y374040D01*
X741273Y371906D01*
X737412Y371094D01*
X684987Y371094D01*
X681126Y371906D01*
X677824Y374040D01*
X675640Y377342D01*
X674827Y381254D01*
X674827Y395427D01*
X633425Y395427D01*
X638556Y386130D01*
X639724Y382168D01*
X639216Y377952D01*
X637082Y374396D01*
X633679Y371957D01*
X629615Y371094D01*
X559308Y371094D01*
X550824Y370230D01*
X543153Y367995D01*
X536092Y364134D01*
X529539Y358800D01*
X523697Y352958D01*
X520954Y350977D01*
X517753Y350012D01*
X514350Y350215D01*
X507542Y351688D01*
X495300Y352552D01*
X483057Y351688D01*
X471119Y349097D01*
X459638Y344779D01*
X448868Y338937D01*
X439064Y331571D01*
X430377Y322935D01*
X423062Y313080D01*
X417169Y302361D01*
X412902Y290880D01*
X410311Y278892D01*
X409397Y266649D01*
X410311Y254457D01*
X412902Y242519D01*
X417169Y230987D01*
X423062Y220217D01*
X430377Y210413D01*
X439064Y201777D01*
X448868Y194411D01*
X459638Y188569D01*
X471119Y184302D01*
X483057Y181660D01*
G37*
G36*
X633425Y468172D02*
G01*
X674827Y468172D01*
X674827Y509524D01*
X664768Y504037D01*
X654964Y496671D01*
X646277Y488035D01*
X638962Y478180D01*
G37*
G36*
X747572Y468172D02*
G01*
X788974Y468172D01*
X783437Y478180D01*
X776122Y488035D01*
X767435Y496671D01*
X757631Y504037D01*
X747572Y509524D01*
G37*
G36*
X2097684Y547217D02*
G01*
X2140762Y547217D01*
X2140762Y616712D01*
X2071217Y616712D01*
X2071217Y573684D01*
X2071928Y567334D01*
X2073808Y561898D01*
X2076907Y557022D01*
X2080971Y552856D01*
X2085898Y549808D01*
X2091334Y547878D01*
G37*

%LPD*%
D10*
X-2413507Y-434924D02*
G01*
X123697Y-434924D01*
X698500Y139623D01*
X1346200Y139623D01*
X1244600Y-927100D02*
G01*
X1346200Y-825500D01*
X1346200Y139700D01*
X495300Y266700D02*
G01*
X558800Y330200D01*
X1117600Y330200D01*
D11*
X-2413406Y-435000D02*
G01*
X-2308199Y-329793D01*
X-2308199Y125399D01*
D12*
G01*
X-2413398Y-435000D03*
G01*
X-2413398Y-635000D03*
D13*
G01*
X-1828402Y-870003D03*
G01*
X-1828402Y-199997D03*
D14*
G01*
X2197100Y-1219200D03*
D15*
G01*
X-2308199Y125399D03*
G01*
X-1908200Y125399D03*
G01*
X-2108200Y125399D03*
D16*
G01*
X-1693189Y125399D03*
G01*
X-2523210Y125399D03*
D17*
G01*
X2197100Y673100D03*
D14*
G01*
X-2794000Y-1220800D03*
D18*
G01*
X-2794000Y685800D03*
D19*
G01*
X711200Y431800D03*
G01*
X-1689100Y520700D03*
G01*
X-152400Y-1168400D03*
G01*
X495300Y266700D03*
G01*
X1117600Y330200D03*
G01*
X1346200Y139700D03*
G01*
X1244600Y-927100D03*
G01*
X-774700Y673100D03*
M02*
