G04 Layer: BottomSilkscreenLayer*
G04 EasyEDA v6.5.42, 2024-04-24 20:40:50*
G04 c870b989466f4a25863cf57569ad13ef,4b06660695a64fe3bf0f4e1e846abbee,10*
G04 Gerber Generator version 0.2*
G04 Scale: 100 percent, Rotated: No, Reflected: No *
G04 Dimensions in millimeters *
G04 leading zeros omitted , absolute positions ,4 integer and 5 decimal *
%FSLAX45Y45*%
%MOMM*%

%ADD10C,0.2032*%
%ADD11C,0.2030*%
%ADD12C,0.2540*%

%LPD*%
D10*
X-2858538Y495300D02*
G01*
X-2749435Y495300D01*
X-2858538Y495300D02*
G01*
X-2858538Y448541D01*
X-2853344Y432955D01*
X-2848147Y427758D01*
X-2837756Y422564D01*
X-2827365Y422564D01*
X-2816974Y427758D01*
X-2811779Y432955D01*
X-2806583Y448541D01*
X-2806583Y495300D02*
G01*
X-2806583Y448541D01*
X-2801388Y432955D01*
X-2796194Y427758D01*
X-2785803Y422564D01*
X-2770215Y422564D01*
X-2759824Y427758D01*
X-2754629Y432955D01*
X-2749435Y448541D01*
X-2749435Y495300D01*
X-2858538Y346710D02*
G01*
X-2749435Y388274D01*
X-2858538Y346710D02*
G01*
X-2749435Y305147D01*
X-2785803Y372686D02*
G01*
X-2785803Y320733D01*
X-2858538Y234487D02*
G01*
X-2749435Y234487D01*
X-2858538Y270857D02*
G01*
X-2858538Y198119D01*
X-2796194Y163829D02*
G01*
X-2796194Y70312D01*
X-2837687Y-622300D02*
G01*
X-2843021Y-632714D01*
X-2858515Y-648207D01*
X-2749550Y-648207D01*
X-2775457Y-687831D02*
G01*
X-2770123Y-682497D01*
X-2765044Y-687831D01*
X-2770123Y-692912D01*
X-2775457Y-687831D01*
X-2858515Y-753110D02*
G01*
X-2853436Y-737615D01*
X-2843021Y-732536D01*
X-2832607Y-732536D01*
X-2822194Y-737615D01*
X-2816860Y-748030D01*
X-2811779Y-768857D01*
X-2806700Y-784352D01*
X-2796286Y-794765D01*
X-2785871Y-800100D01*
X-2770123Y-800100D01*
X-2759710Y-794765D01*
X-2754629Y-789686D01*
X-2749550Y-773938D01*
X-2749550Y-753110D01*
X-2754629Y-737615D01*
X-2759710Y-732536D01*
X-2770123Y-727202D01*
X-2785871Y-727202D01*
X-2796286Y-732536D01*
X-2806700Y-742950D01*
X-2811779Y-758444D01*
X-2816860Y-779272D01*
X-2822194Y-789686D01*
X-2832607Y-794765D01*
X-2843021Y-794765D01*
X-2853436Y-789686D01*
X-2858515Y-773938D01*
X-2858515Y-753110D01*
X-2858515Y-834389D02*
G01*
X-2749550Y-875792D01*
X-2858515Y-917447D02*
G01*
X-2749550Y-875792D01*
X-2843021Y-998473D02*
G01*
X-2749550Y-998473D01*
X-2796286Y-951738D02*
G01*
X-2796286Y-1045210D01*
X1966722Y-1180592D02*
G01*
X1972056Y-1170178D01*
X1982470Y-1159764D01*
X1992629Y-1154684D01*
X2013458Y-1154684D01*
X2023872Y-1159764D01*
X2034286Y-1170178D01*
X2039620Y-1180592D01*
X2044700Y-1196339D01*
X2044700Y-1222247D01*
X2039620Y-1237742D01*
X2034286Y-1248156D01*
X2023872Y-1258570D01*
X2013458Y-1263650D01*
X1992629Y-1263650D01*
X1982470Y-1258570D01*
X1972056Y-1248156D01*
X1966722Y-1237742D01*
X1966722Y-1222247D01*
X1992629Y-1222247D02*
G01*
X1966722Y-1222247D01*
X1932431Y-1154684D02*
G01*
X1932431Y-1263650D01*
X1932431Y-1154684D02*
G01*
X1859788Y-1263650D01*
X1859788Y-1154684D02*
G01*
X1859788Y-1263650D01*
X1825497Y-1154684D02*
G01*
X1825497Y-1263650D01*
X1825497Y-1154684D02*
G01*
X1789175Y-1154684D01*
X1773427Y-1159764D01*
X1763013Y-1170178D01*
X1757934Y-1180592D01*
X1752600Y-1196339D01*
X1752600Y-1222247D01*
X1757934Y-1237742D01*
X1763013Y-1248156D01*
X1773427Y-1258570D01*
X1789175Y-1263650D01*
X1825497Y-1263650D01*
X2032000Y699515D02*
G01*
X1990343Y590550D01*
X1948941Y699515D02*
G01*
X1990343Y590550D01*
X1836674Y673607D02*
G01*
X1841754Y684021D01*
X1852168Y694435D01*
X1862581Y699515D01*
X1883409Y699515D01*
X1893824Y694435D01*
X1904238Y684021D01*
X1909318Y673607D01*
X1914652Y657860D01*
X1914652Y631952D01*
X1909318Y616457D01*
X1904238Y606043D01*
X1893824Y595629D01*
X1883409Y590550D01*
X1862581Y590550D01*
X1852168Y595629D01*
X1841754Y606043D01*
X1836674Y616457D01*
X1724406Y673607D02*
G01*
X1729740Y684021D01*
X1739900Y694435D01*
X1750313Y699515D01*
X1771141Y699515D01*
X1781556Y694435D01*
X1791970Y684021D01*
X1797050Y673607D01*
X1802384Y657860D01*
X1802384Y631952D01*
X1797050Y616457D01*
X1791970Y606043D01*
X1781556Y595629D01*
X1771141Y590550D01*
X1750313Y590550D01*
X1739900Y595629D01*
X1729740Y606043D01*
X1724406Y616457D01*
G36*
X-1713382Y-385013D02*
G01*
X-1853387Y-435000D01*
X-1713382Y-484987D01*
G37*
X2070100Y-1358900D02*
G01*
X2324100Y-1358900D01*
X2324100Y-1104900D01*
X2070100Y-1104900D01*
X2070100Y-1295400D01*
D11*
X2070100Y-1358900D02*
G01*
X2070100Y-1295400D01*
D10*
X2070100Y544499D02*
G01*
X2324100Y544499D01*
X2324100Y798499D01*
X2070100Y798499D01*
X2070100Y607999D01*
D11*
X2070100Y544499D02*
G01*
X2070100Y607999D01*
D10*
X-2921000Y-1347800D02*
G01*
X-2667000Y-1347800D01*
X-2667000Y-1093800D01*
X-2921000Y-1093800D01*
X-2921000Y-1284300D01*
D11*
X-2921000Y-1347800D02*
G01*
X-2921000Y-1284300D01*
D10*
X-2921000Y558800D02*
G01*
X-2667000Y558800D01*
X-2667000Y812800D01*
X-2921000Y812800D01*
X-2921000Y622300D01*
D11*
X-2921000Y558800D02*
G01*
X-2921000Y622300D01*
D12*
X-2285796Y-361772D02*
G01*
X-2285796Y-235026D01*
X-2443276Y-235026D01*
X-2443276Y-140030D01*
X-2285900Y-561886D02*
G01*
X-2285900Y-508114D01*
X-2443398Y-930000D02*
G01*
X-2443398Y-834999D01*
X-2285900Y-834999D01*
X-2285900Y-708113D01*
X-2443398Y-930000D02*
G01*
X-2021517Y-930000D01*
X-1683400Y-774999D02*
G01*
X-1683400Y-295000D01*
X-2443398Y-139999D02*
G01*
X-2021517Y-139999D01*
M02*
