G04 Layer: TopSolderMaskLayer*
G04 EasyEDA v6.5.42, 2024-04-24 20:40:50*
G04 c870b989466f4a25863cf57569ad13ef,4b06660695a64fe3bf0f4e1e846abbee,10*
G04 Gerber Generator version 0.2*
G04 Scale: 100 percent, Rotated: No, Reflected: No *
G04 Dimensions in millimeters *
G04 leading zeros omitted , absolute positions ,4 integer and 5 decimal *
%FSLAX45Y45*%
%MOMM*%

%AMMACRO1*1,1,$1,$2,$3*1,1,$1,$4,$5*1,1,$1,0-$2,0-$3*1,1,$1,0-$4,0-$5*20,1,$1,$2,$3,$4,$5,0*20,1,$1,$4,$5,0-$2,0-$3,0*20,1,$1,0-$2,0-$3,0-$4,0-$5,0*20,1,$1,0-$4,0-$5,$2,$3,0*4,1,4,$2,$3,$4,$5,0-$2,0-$3,0-$4,0-$5,$2,$3,0*%
%ADD10R,1.3516X1.1016*%
%ADD11R,1.4786X1.2341*%
%ADD12MACRO1,0.1016X-0.5X0.625X0.5X0.625*%
%ADD13R,2.1016X2.1016*%
%ADD14C,2.1016*%
%ADD15MACRO1,0.1016X-0.675X0.705X0.675X0.705*%
%ADD16MACRO1,0.1016X-0.675X-0.705X0.675X-0.705*%
%ADD17MACRO1,0.1016X0.705X0.675X0.705X-0.675*%
%ADD18MACRO1,0.1016X-0.705X0.675X-0.705X-0.675*%
%ADD19R,1.4516X1.5116*%
%ADD20MACRO1,0.1016X0.5X0.6998X-0.5X0.6998*%
%ADD21MACRO1,0.1016X-0.5X0.6998X0.5X0.6998*%
%ADD22R,1.8016X1.9016*%
%ADD23MACRO1,0.1016X1.08X-0.8175X-1.08X-0.8175*%
%ADD24MACRO1,0.1016X1.08X0.8175X-1.08X0.8175*%
%ADD25MACRO1,0.102X-0.55X0.3X0.55X0.3*%
%ADD26MACRO1,0.1016X0.5663X0.6885X0.5663X-0.6885*%
%ADD27MACRO1,0.1016X-0.5663X0.6885X-0.5663X-0.6885*%
%ADD28MACRO1,0.1016X-0.6885X0.5663X0.6885X0.5663*%
%ADD29MACRO1,0.1016X-0.6885X-0.5663X0.6885X-0.5663*%
%ADD30MACRO1,0.1016X-0.5663X-0.6885X-0.5663X0.6885*%
%ADD31MACRO1,0.1016X0.5663X-0.6885X0.5663X0.6885*%
%ADD32R,1.1736X0.6336*%
%ADD33O,1.7635982000000001X0.4656074*%
%ADD34R,1.6016X1.9016*%
%ADD35MACRO1,0.1016X0.536X0.266X0.536X-0.266*%
%ADD36O,1.7015460000000002X1.7015968000000001*%
%ADD37O,2.101596X3.1015939999999995*%
%ADD38C,1.3016*%

%LPD*%
D10*
G01*
X-1930389Y486897D03*
G01*
X-1930389Y706912D03*
D11*
G01*
X-1663700Y684199D03*
G01*
X-1663700Y484200D03*
D12*
G01*
X-1710202Y-1219210D03*
G01*
X-1490187Y-1219210D03*
D13*
G01*
X2197100Y-1231900D03*
D14*
G01*
X2197100Y671499D03*
D15*
G01*
X304800Y-1039802D03*
D16*
G01*
X304800Y-839797D03*
D15*
G01*
X152400Y166697D03*
D16*
G01*
X152400Y366702D03*
D15*
G01*
X1054100Y103197D03*
D16*
G01*
X1054100Y303202D03*
D17*
G01*
X496897Y317499D03*
D18*
G01*
X696902Y317499D03*
D19*
G01*
X-2057400Y-598500D03*
G01*
X-2057400Y-798499D03*
G01*
X-571500Y366699D03*
G01*
X-571500Y166700D03*
D15*
G01*
X-381000Y-671502D03*
D16*
G01*
X-381000Y-471497D03*
D20*
G01*
X2200529Y-685800D03*
D21*
G01*
X1990470Y-685800D03*
D22*
G01*
X1447800Y574852D03*
G01*
X1447800Y136347D03*
D23*
G01*
X-1701800Y-594461D03*
D24*
G01*
X-1701800Y-827963D03*
D12*
G01*
X1998197Y355589D03*
G01*
X2218212Y355589D03*
D25*
G01*
X1570107Y-755903D03*
G01*
X1570107Y-850900D03*
G01*
X1570107Y-945896D03*
G01*
X1300096Y-945896D03*
G01*
X1300096Y-850900D03*
G01*
X1300096Y-755903D03*
D26*
G01*
X1385895Y-1206500D03*
D27*
G01*
X1585904Y-1206500D03*
D28*
G01*
X-114300Y-696904D03*
D29*
G01*
X-114300Y-496895D03*
D30*
G01*
X2195504Y88900D03*
D31*
G01*
X1995495Y88900D03*
D30*
G01*
X2195504Y-406400D03*
D31*
G01*
X1995495Y-406400D03*
D30*
G01*
X2195504Y-927100D03*
D31*
G01*
X1995495Y-927100D03*
D28*
G01*
X1270000Y-328604D03*
D29*
G01*
X1270000Y-128595D03*
D28*
G01*
X-241300Y179395D03*
D29*
G01*
X-241300Y379404D03*
D11*
G01*
X-914400Y366699D03*
G01*
X-914400Y166700D03*
D28*
G01*
X-647700Y-658804D03*
D29*
G01*
X-647700Y-458795D03*
D12*
G01*
X1985497Y-165110D03*
G01*
X2205512Y-165110D03*
D32*
G01*
X953109Y-947496D03*
G01*
X953109Y-852500D03*
G01*
X953109Y-757504D03*
G01*
X723290Y-757504D03*
G01*
X723290Y-852500D03*
G01*
X723290Y-947496D03*
D33*
G01*
X797306Y-313410D03*
G01*
X797306Y-248386D03*
G01*
X797306Y-183388D03*
G01*
X797306Y-118389D03*
G01*
X371093Y-313410D03*
G01*
X371093Y-248386D03*
G01*
X371093Y-183388D03*
G01*
X371093Y-118389D03*
D34*
G01*
X584200Y-215900D03*
D35*
G01*
X-1194409Y-184404D03*
G01*
X-1194409Y-279400D03*
G01*
X-1194409Y-374396D03*
G01*
X-964590Y-374396D03*
G01*
X-964590Y-279400D03*
G01*
X-964590Y-184404D03*
D14*
G01*
X-2794000Y-1220800D03*
D36*
G01*
X-2308199Y125399D03*
G01*
X-1908200Y125399D03*
G01*
X-2108200Y125399D03*
D37*
G01*
X-1693189Y125399D03*
G01*
X-2523210Y125399D03*
D11*
G01*
X-2184400Y684199D03*
G01*
X-2184400Y484200D03*
D13*
G01*
X-2794000Y685800D03*
D38*
G01*
X1651000Y-152400D03*
G01*
X215900Y-635000D03*
G01*
X-101600Y-241300D03*
G01*
X63500Y-76200D03*
G01*
X88900Y-342900D03*
G01*
X1562100Y-406400D03*
G01*
X1816100Y-1028700D03*
G01*
X-1511300Y-342900D03*
G01*
X-1409700Y-546100D03*
M02*
