G04 Layer: TopSilkscreenLayer*
G04 EasyEDA v6.5.42, 2024-04-24 20:40:50*
G04 c870b989466f4a25863cf57569ad13ef,4b06660695a64fe3bf0f4e1e846abbee,10*
G04 Gerber Generator version 0.2*
G04 Scale: 100 percent, Rotated: No, Reflected: No *
G04 Dimensions in millimeters *
G04 leading zeros omitted , absolute positions ,4 integer and 5 decimal *
%FSLAX45Y45*%
%MOMM*%

%ADD10C,0.2032*%
%ADD11C,0.1524*%
%ADD12C,0.2540*%
%ADD13C,0.3000*%

%LPD*%
D10*
X-2754884Y520700D02*
G01*
X-2863850Y520700D01*
X-2754884Y520700D02*
G01*
X-2754884Y473963D01*
X-2759963Y458469D01*
X-2765297Y453135D01*
X-2775712Y448055D01*
X-2786126Y448055D01*
X-2796539Y453135D01*
X-2801620Y458469D01*
X-2806700Y473963D01*
X-2806700Y520700D02*
G01*
X-2806700Y473963D01*
X-2812034Y458469D01*
X-2817113Y453135D01*
X-2827528Y448055D01*
X-2843276Y448055D01*
X-2853689Y453135D01*
X-2858770Y458469D01*
X-2863850Y473963D01*
X-2863850Y520700D01*
X-2754884Y372110D02*
G01*
X-2863850Y413765D01*
X-2754884Y372110D02*
G01*
X-2863850Y330453D01*
X-2827528Y398018D02*
G01*
X-2827528Y346202D01*
X-2754884Y259842D02*
G01*
X-2863850Y259842D01*
X-2754884Y296163D02*
G01*
X-2754884Y223519D01*
X-2817113Y189229D02*
G01*
X-2817113Y95757D01*
X-2837687Y-1041400D02*
G01*
X-2843021Y-1030986D01*
X-2858515Y-1015492D01*
X-2749550Y-1015492D01*
X-2775457Y-975868D02*
G01*
X-2770123Y-981202D01*
X-2765044Y-975868D01*
X-2770123Y-970788D01*
X-2775457Y-975868D01*
X-2858515Y-910589D02*
G01*
X-2853436Y-926084D01*
X-2843021Y-931164D01*
X-2832607Y-931164D01*
X-2822194Y-926084D01*
X-2816860Y-915670D01*
X-2811779Y-894842D01*
X-2806700Y-879347D01*
X-2796286Y-868934D01*
X-2785871Y-863600D01*
X-2770123Y-863600D01*
X-2759710Y-868934D01*
X-2754629Y-874014D01*
X-2749550Y-889762D01*
X-2749550Y-910589D01*
X-2754629Y-926084D01*
X-2759710Y-931164D01*
X-2770123Y-936497D01*
X-2785871Y-936497D01*
X-2796286Y-931164D01*
X-2806700Y-920750D01*
X-2811779Y-905256D01*
X-2816860Y-884428D01*
X-2822194Y-874014D01*
X-2832607Y-868934D01*
X-2843021Y-868934D01*
X-2853436Y-874014D01*
X-2858515Y-889762D01*
X-2858515Y-910589D01*
X-2858515Y-829310D02*
G01*
X-2749550Y-787907D01*
X-2858515Y-746252D02*
G01*
X-2749550Y-787907D01*
X-2843021Y-665226D02*
G01*
X-2749550Y-665226D01*
X-2796286Y-711962D02*
G01*
X-2796286Y-618489D01*
X1714500Y712215D02*
G01*
X1756156Y603250D01*
X1797558Y712215D02*
G01*
X1756156Y603250D01*
X1909825Y686307D02*
G01*
X1904745Y696721D01*
X1894331Y707135D01*
X1883918Y712215D01*
X1863090Y712215D01*
X1852675Y707135D01*
X1842261Y696721D01*
X1837181Y686307D01*
X1831847Y670560D01*
X1831847Y644652D01*
X1837181Y629157D01*
X1842261Y618743D01*
X1852675Y608329D01*
X1863090Y603250D01*
X1883918Y603250D01*
X1894331Y608329D01*
X1904745Y618743D01*
X1909825Y629157D01*
X2022093Y686307D02*
G01*
X2016759Y696721D01*
X2006600Y707135D01*
X1996186Y712215D01*
X1975358Y712215D01*
X1964943Y707135D01*
X1954529Y696721D01*
X1949450Y686307D01*
X1944115Y670560D01*
X1944115Y644652D01*
X1949450Y629157D01*
X1954529Y618743D01*
X1964943Y608329D01*
X1975358Y603250D01*
X1996186Y603250D01*
X2006600Y608329D01*
X2016759Y618743D01*
X2022093Y629157D01*
X1817877Y-1167892D02*
G01*
X1812543Y-1157478D01*
X1802129Y-1147064D01*
X1791970Y-1141984D01*
X1771141Y-1141984D01*
X1760727Y-1147064D01*
X1750313Y-1157478D01*
X1744979Y-1167892D01*
X1739900Y-1183639D01*
X1739900Y-1209547D01*
X1744979Y-1225042D01*
X1750313Y-1235456D01*
X1760727Y-1245870D01*
X1771141Y-1250950D01*
X1791970Y-1250950D01*
X1802129Y-1245870D01*
X1812543Y-1235456D01*
X1817877Y-1225042D01*
X1817877Y-1209547D01*
X1791970Y-1209547D02*
G01*
X1817877Y-1209547D01*
X1852168Y-1141984D02*
G01*
X1852168Y-1250950D01*
X1852168Y-1141984D02*
G01*
X1924811Y-1250950D01*
X1924811Y-1141984D02*
G01*
X1924811Y-1250950D01*
X1959102Y-1141984D02*
G01*
X1959102Y-1250950D01*
X1959102Y-1141984D02*
G01*
X1995424Y-1141984D01*
X2011172Y-1147064D01*
X2021586Y-1157478D01*
X2026665Y-1167892D01*
X2032000Y-1183639D01*
X2032000Y-1209547D01*
X2026665Y-1225042D01*
X2021586Y-1235456D01*
X2011172Y-1245870D01*
X1995424Y-1250950D01*
X1959102Y-1250950D01*
D11*
X-1536700Y737615D02*
G01*
X-1536700Y628650D01*
X-1536700Y737615D02*
G01*
X-1489963Y737615D01*
X-1474470Y732535D01*
X-1469136Y727202D01*
X-1464055Y716787D01*
X-1464055Y706373D01*
X-1469136Y695960D01*
X-1474470Y690879D01*
X-1489963Y685800D01*
X-1536700Y685800D01*
X-1500378Y685800D02*
G01*
X-1464055Y628650D01*
X-1429765Y716787D02*
G01*
X-1419352Y722121D01*
X-1403604Y737615D01*
X-1403604Y628650D01*
X77977Y-1015492D02*
G01*
X72643Y-1005078D01*
X62229Y-994664D01*
X52070Y-989584D01*
X31241Y-989584D01*
X20827Y-994664D01*
X10413Y-1005078D01*
X5079Y-1015492D01*
X0Y-1031239D01*
X0Y-1057147D01*
X5079Y-1072642D01*
X10413Y-1083056D01*
X20827Y-1093470D01*
X31241Y-1098550D01*
X52070Y-1098550D01*
X62229Y-1093470D01*
X72643Y-1083056D01*
X77977Y-1072642D01*
X138175Y-989584D02*
G01*
X122681Y-994664D01*
X117347Y-1005078D01*
X117347Y-1015492D01*
X122681Y-1025906D01*
X133095Y-1031239D01*
X153670Y-1036320D01*
X169418Y-1041400D01*
X179831Y-1051814D01*
X184911Y-1062228D01*
X184911Y-1077976D01*
X179831Y-1088389D01*
X174497Y-1093470D01*
X159004Y-1098550D01*
X138175Y-1098550D01*
X122681Y-1093470D01*
X117347Y-1088389D01*
X112268Y-1077976D01*
X112268Y-1062228D01*
X117347Y-1051814D01*
X127761Y-1041400D01*
X143509Y-1036320D01*
X164084Y-1031239D01*
X174497Y-1025906D01*
X179831Y-1015492D01*
X179831Y-1005078D01*
X174497Y-994664D01*
X159004Y-989584D01*
X138175Y-989584D01*
X128777Y597407D02*
G01*
X123443Y607821D01*
X113029Y618235D01*
X102870Y623315D01*
X82041Y623315D01*
X71627Y618235D01*
X61213Y607821D01*
X55879Y597407D01*
X50800Y581660D01*
X50800Y555752D01*
X55879Y540257D01*
X61213Y529843D01*
X71627Y519429D01*
X82041Y514350D01*
X102870Y514350D01*
X113029Y519429D01*
X123443Y529843D01*
X128777Y540257D01*
X230631Y586993D02*
G01*
X225297Y571500D01*
X214884Y561085D01*
X199390Y555752D01*
X194309Y555752D01*
X178561Y561085D01*
X168147Y571500D01*
X163068Y586993D01*
X163068Y592073D01*
X168147Y607821D01*
X178561Y618235D01*
X194309Y623315D01*
X199390Y623315D01*
X214884Y618235D01*
X225297Y607821D01*
X230631Y586993D01*
X230631Y561085D01*
X225297Y534923D01*
X214884Y519429D01*
X199390Y514350D01*
X188975Y514350D01*
X173481Y519429D01*
X168147Y529843D01*
X992377Y508507D02*
G01*
X987043Y518921D01*
X976629Y529335D01*
X966470Y534415D01*
X945641Y534415D01*
X935227Y529335D01*
X924813Y518921D01*
X919479Y508507D01*
X914400Y492760D01*
X914400Y466852D01*
X919479Y451357D01*
X924813Y440943D01*
X935227Y430529D01*
X945641Y425450D01*
X966470Y425450D01*
X976629Y430529D01*
X987043Y440943D01*
X992377Y451357D01*
X1026668Y513587D02*
G01*
X1037081Y518921D01*
X1052575Y534415D01*
X1052575Y425450D01*
X1118108Y534415D02*
G01*
X1102359Y529335D01*
X1092200Y513587D01*
X1086865Y487679D01*
X1086865Y472185D01*
X1092200Y446023D01*
X1102359Y430529D01*
X1118108Y425450D01*
X1128522Y425450D01*
X1144015Y430529D01*
X1154429Y446023D01*
X1159509Y472185D01*
X1159509Y487679D01*
X1154429Y513587D01*
X1144015Y529335D01*
X1128522Y534415D01*
X1118108Y534415D01*
X471677Y521207D02*
G01*
X466343Y531621D01*
X455929Y542035D01*
X445770Y547115D01*
X424941Y547115D01*
X414527Y542035D01*
X404113Y531621D01*
X398779Y521207D01*
X393700Y505460D01*
X393700Y479552D01*
X398779Y464057D01*
X404113Y453643D01*
X414527Y443229D01*
X424941Y438150D01*
X445770Y438150D01*
X455929Y443229D01*
X466343Y453643D01*
X471677Y464057D01*
X505968Y526287D02*
G01*
X516381Y531621D01*
X531875Y547115D01*
X531875Y438150D01*
X566165Y526287D02*
G01*
X576579Y531621D01*
X592074Y547115D01*
X592074Y438150D01*
X-2347721Y-558292D02*
G01*
X-2353055Y-547878D01*
X-2363470Y-537464D01*
X-2373629Y-532384D01*
X-2394457Y-532384D01*
X-2404871Y-537464D01*
X-2415286Y-547878D01*
X-2420620Y-558292D01*
X-2425700Y-574039D01*
X-2425700Y-599947D01*
X-2420620Y-615442D01*
X-2415286Y-625856D01*
X-2404871Y-636270D01*
X-2394457Y-641350D01*
X-2373629Y-641350D01*
X-2363470Y-636270D01*
X-2353055Y-625856D01*
X-2347721Y-615442D01*
X-2313431Y-553212D02*
G01*
X-2303018Y-547878D01*
X-2287523Y-532384D01*
X-2287523Y-641350D01*
X-2247900Y-558292D02*
G01*
X-2247900Y-553212D01*
X-2242820Y-542797D01*
X-2237739Y-537464D01*
X-2227326Y-532384D01*
X-2206497Y-532384D01*
X-2196084Y-537464D01*
X-2190750Y-542797D01*
X-2185670Y-553212D01*
X-2185670Y-563626D01*
X-2190750Y-574039D01*
X-2201163Y-589534D01*
X-2253234Y-641350D01*
X-2180589Y-641350D01*
X-633222Y584707D02*
G01*
X-638556Y595121D01*
X-648970Y605535D01*
X-659129Y610615D01*
X-679958Y610615D01*
X-690372Y605535D01*
X-700786Y595121D01*
X-706120Y584707D01*
X-711200Y568960D01*
X-711200Y543052D01*
X-706120Y527557D01*
X-700786Y517143D01*
X-690372Y506729D01*
X-679958Y501650D01*
X-659129Y501650D01*
X-648970Y506729D01*
X-638556Y517143D01*
X-633222Y527557D01*
X-598931Y589787D02*
G01*
X-588518Y595121D01*
X-573024Y610615D01*
X-573024Y501650D01*
X-528320Y610615D02*
G01*
X-471170Y610615D01*
X-502411Y568960D01*
X-486663Y568960D01*
X-476250Y563879D01*
X-471170Y558800D01*
X-466090Y543052D01*
X-466090Y532637D01*
X-471170Y517143D01*
X-481584Y506729D01*
X-497077Y501650D01*
X-512825Y501650D01*
X-528320Y506729D01*
X-533400Y511810D01*
X-538734Y522223D01*
X-430022Y-837692D02*
G01*
X-435356Y-827278D01*
X-445770Y-816864D01*
X-455929Y-811784D01*
X-476758Y-811784D01*
X-487172Y-816864D01*
X-497586Y-827278D01*
X-502920Y-837692D01*
X-508000Y-853439D01*
X-508000Y-879347D01*
X-502920Y-894842D01*
X-497586Y-905256D01*
X-487172Y-915670D01*
X-476758Y-920750D01*
X-455929Y-920750D01*
X-445770Y-915670D01*
X-435356Y-905256D01*
X-430022Y-894842D01*
X-395731Y-832612D02*
G01*
X-385318Y-827278D01*
X-369824Y-811784D01*
X-369824Y-920750D01*
X-283463Y-811784D02*
G01*
X-335534Y-884428D01*
X-257556Y-884428D01*
X-283463Y-811784D02*
G01*
X-283463Y-920750D01*
X1117600Y763015D02*
G01*
X1117600Y654050D01*
X1117600Y763015D02*
G01*
X1153922Y763015D01*
X1169670Y757935D01*
X1179829Y747521D01*
X1185163Y737107D01*
X1190243Y721360D01*
X1190243Y695452D01*
X1185163Y679957D01*
X1179829Y669543D01*
X1169670Y659129D01*
X1153922Y654050D01*
X1117600Y654050D01*
X1229868Y737107D02*
G01*
X1229868Y742187D01*
X1234947Y752602D01*
X1240281Y757935D01*
X1250695Y763015D01*
X1271270Y763015D01*
X1281684Y757935D01*
X1287018Y752602D01*
X1292097Y742187D01*
X1292097Y731773D01*
X1287018Y721360D01*
X1276604Y705865D01*
X1224534Y654050D01*
X1297431Y654050D01*
X-1549400Y-773684D02*
G01*
X-1549400Y-882650D01*
X-1549400Y-882650D02*
G01*
X-1487170Y-882650D01*
X-1452879Y-794512D02*
G01*
X-1442465Y-789178D01*
X-1426718Y-773684D01*
X-1426718Y-882650D01*
X1444726Y-548868D02*
G01*
X1434312Y-553948D01*
X1423898Y-564362D01*
X1418564Y-574776D01*
X1413484Y-590524D01*
X1413484Y-616432D01*
X1418564Y-631926D01*
X1423898Y-642340D01*
X1434312Y-652754D01*
X1444726Y-657834D01*
X1465554Y-657834D01*
X1475714Y-652754D01*
X1486128Y-642340D01*
X1491462Y-631926D01*
X1496542Y-616432D01*
X1496542Y-590524D01*
X1491462Y-574776D01*
X1486128Y-564362D01*
X1475714Y-553948D01*
X1465554Y-548868D01*
X1444726Y-548868D01*
X1460220Y-637260D02*
G01*
X1491462Y-668248D01*
X1536166Y-574776D02*
G01*
X1536166Y-569696D01*
X1541246Y-559282D01*
X1546580Y-553948D01*
X1556994Y-548868D01*
X1577568Y-548868D01*
X1587982Y-553948D01*
X1593316Y-559282D01*
X1598396Y-569696D01*
X1598396Y-580110D01*
X1593316Y-590524D01*
X1582902Y-606018D01*
X1530832Y-657834D01*
X1603730Y-657834D01*
X1092200Y-1141984D02*
G01*
X1092200Y-1250950D01*
X1092200Y-1141984D02*
G01*
X1138936Y-1141984D01*
X1154429Y-1147064D01*
X1159763Y-1152397D01*
X1164843Y-1162812D01*
X1164843Y-1173226D01*
X1159763Y-1183639D01*
X1154429Y-1188720D01*
X1138936Y-1193800D01*
X1092200Y-1193800D01*
X1128522Y-1193800D02*
G01*
X1164843Y-1250950D01*
X1204468Y-1167892D02*
G01*
X1204468Y-1162812D01*
X1209547Y-1152397D01*
X1214881Y-1147064D01*
X1225295Y-1141984D01*
X1245870Y-1141984D01*
X1256284Y-1147064D01*
X1261618Y-1152397D01*
X1266697Y-1162812D01*
X1266697Y-1173226D01*
X1261618Y-1183639D01*
X1251204Y-1199134D01*
X1199134Y-1250950D01*
X1272031Y-1250950D01*
X-190500Y-811784D02*
G01*
X-190500Y-920750D01*
X-190500Y-811784D02*
G01*
X-143763Y-811784D01*
X-128270Y-816864D01*
X-122936Y-822197D01*
X-117856Y-832612D01*
X-117856Y-843026D01*
X-122936Y-853439D01*
X-128270Y-858520D01*
X-143763Y-863600D01*
X-190500Y-863600D01*
X-154177Y-863600D02*
G01*
X-117856Y-920750D01*
X-21081Y-827278D02*
G01*
X-26415Y-816864D01*
X-41909Y-811784D01*
X-52324Y-811784D01*
X-67818Y-816864D01*
X-78231Y-832612D01*
X-83565Y-858520D01*
X-83565Y-884428D01*
X-78231Y-905256D01*
X-67818Y-915670D01*
X-52324Y-920750D01*
X-46990Y-920750D01*
X-31495Y-915670D01*
X-21081Y-905256D01*
X-16002Y-889762D01*
X-16002Y-884428D01*
X-21081Y-868934D01*
X-31495Y-858520D01*
X-46990Y-853439D01*
X-52324Y-853439D01*
X-67818Y-858520D01*
X-78231Y-868934D01*
X-83565Y-884428D01*
X1651000Y140715D02*
G01*
X1651000Y31750D01*
X1651000Y140715D02*
G01*
X1697736Y140715D01*
X1713229Y135635D01*
X1718563Y130302D01*
X1723643Y119887D01*
X1723643Y109473D01*
X1718563Y99060D01*
X1713229Y93979D01*
X1697736Y88900D01*
X1651000Y88900D01*
X1687322Y88900D02*
G01*
X1723643Y31750D01*
X1757934Y119887D02*
G01*
X1768347Y125221D01*
X1784095Y140715D01*
X1784095Y31750D01*
X1823465Y114807D02*
G01*
X1823465Y119887D01*
X1828800Y130302D01*
X1833879Y135635D01*
X1844293Y140715D01*
X1865122Y140715D01*
X1875536Y135635D01*
X1880615Y130302D01*
X1885950Y119887D01*
X1885950Y109473D01*
X1880615Y99060D01*
X1870202Y83565D01*
X1818386Y31750D01*
X1891029Y31750D01*
X1638300Y-354584D02*
G01*
X1638300Y-463550D01*
X1638300Y-354584D02*
G01*
X1685036Y-354584D01*
X1700529Y-359664D01*
X1705863Y-364997D01*
X1710943Y-375412D01*
X1710943Y-385826D01*
X1705863Y-396239D01*
X1700529Y-401320D01*
X1685036Y-406400D01*
X1638300Y-406400D01*
X1674622Y-406400D02*
G01*
X1710943Y-463550D01*
X1745234Y-375412D02*
G01*
X1755647Y-370078D01*
X1771395Y-354584D01*
X1771395Y-463550D01*
X1816100Y-354584D02*
G01*
X1873250Y-354584D01*
X1842008Y-396239D01*
X1857502Y-396239D01*
X1867915Y-401320D01*
X1873250Y-406400D01*
X1878329Y-422147D01*
X1878329Y-432562D01*
X1873250Y-448056D01*
X1862836Y-458470D01*
X1847088Y-463550D01*
X1831593Y-463550D01*
X1816100Y-458470D01*
X1810765Y-453389D01*
X1805686Y-442976D01*
X1651000Y-849884D02*
G01*
X1651000Y-958850D01*
X1651000Y-849884D02*
G01*
X1697736Y-849884D01*
X1713229Y-854964D01*
X1718563Y-860297D01*
X1723643Y-870712D01*
X1723643Y-881126D01*
X1718563Y-891539D01*
X1713229Y-896620D01*
X1697736Y-901700D01*
X1651000Y-901700D01*
X1687322Y-901700D02*
G01*
X1723643Y-958850D01*
X1757934Y-870712D02*
G01*
X1768347Y-865378D01*
X1784095Y-849884D01*
X1784095Y-958850D01*
X1870202Y-849884D02*
G01*
X1818386Y-922528D01*
X1896109Y-922528D01*
X1870202Y-849884D02*
G01*
X1870202Y-958850D01*
X1040384Y-355600D02*
G01*
X1149350Y-355600D01*
X1040384Y-355600D02*
G01*
X1040384Y-308864D01*
X1045463Y-293370D01*
X1050797Y-288036D01*
X1061211Y-282956D01*
X1071625Y-282956D01*
X1082040Y-288036D01*
X1087120Y-293370D01*
X1092200Y-308864D01*
X1092200Y-355600D01*
X1092200Y-319278D02*
G01*
X1149350Y-282956D01*
X1061211Y-248665D02*
G01*
X1055877Y-238252D01*
X1040384Y-222504D01*
X1149350Y-222504D01*
X1040384Y-125984D02*
G01*
X1040384Y-177800D01*
X1087120Y-183134D01*
X1082040Y-177800D01*
X1076706Y-162306D01*
X1076706Y-146812D01*
X1082040Y-131064D01*
X1092200Y-120650D01*
X1107947Y-115570D01*
X1118361Y-115570D01*
X1133856Y-120650D01*
X1144270Y-131064D01*
X1149350Y-146812D01*
X1149350Y-162306D01*
X1144270Y-177800D01*
X1139190Y-183134D01*
X1128775Y-188214D01*
X-368300Y597915D02*
G01*
X-368300Y488950D01*
X-368300Y597915D02*
G01*
X-321563Y597915D01*
X-306070Y592835D01*
X-300736Y587502D01*
X-295656Y577087D01*
X-295656Y566673D01*
X-300736Y556260D01*
X-306070Y551179D01*
X-321563Y546100D01*
X-368300Y546100D01*
X-331977Y546100D02*
G01*
X-295656Y488950D01*
X-261365Y577087D02*
G01*
X-250952Y582421D01*
X-235204Y597915D01*
X-235204Y488950D01*
X-138684Y582421D02*
G01*
X-143763Y592835D01*
X-159511Y597915D01*
X-169925Y597915D01*
X-185420Y592835D01*
X-195834Y577087D01*
X-200913Y551179D01*
X-200913Y525271D01*
X-195834Y504443D01*
X-185420Y494029D01*
X-169925Y488950D01*
X-164591Y488950D01*
X-149097Y494029D01*
X-138684Y504443D01*
X-133350Y519937D01*
X-133350Y525271D01*
X-138684Y540765D01*
X-149097Y551179D01*
X-164591Y556260D01*
X-169925Y556260D01*
X-185420Y551179D01*
X-195834Y540765D01*
X-200913Y525271D01*
X-1028700Y585215D02*
G01*
X-1028700Y476250D01*
X-1028700Y585215D02*
G01*
X-981963Y585215D01*
X-966470Y580135D01*
X-961136Y574802D01*
X-956056Y564387D01*
X-956056Y553973D01*
X-961136Y543560D01*
X-966470Y538479D01*
X-981963Y533400D01*
X-1028700Y533400D01*
X-992377Y533400D02*
G01*
X-956056Y476250D01*
X-921765Y564387D02*
G01*
X-911352Y569721D01*
X-895604Y585215D01*
X-895604Y476250D01*
X-788670Y585215D02*
G01*
X-840740Y476250D01*
X-861313Y585215D02*
G01*
X-788670Y585215D01*
X-850900Y-773684D02*
G01*
X-850900Y-882650D01*
X-850900Y-773684D02*
G01*
X-804163Y-773684D01*
X-788670Y-778764D01*
X-783336Y-784097D01*
X-778256Y-794512D01*
X-778256Y-804926D01*
X-783336Y-815339D01*
X-788670Y-820420D01*
X-804163Y-825500D01*
X-850900Y-825500D01*
X-814577Y-825500D02*
G01*
X-778256Y-882650D01*
X-743965Y-794512D02*
G01*
X-733552Y-789178D01*
X-717804Y-773684D01*
X-717804Y-882650D01*
X-657606Y-773684D02*
G01*
X-673100Y-778764D01*
X-678434Y-789178D01*
X-678434Y-799592D01*
X-673100Y-810006D01*
X-662940Y-815339D01*
X-642111Y-820420D01*
X-626363Y-825500D01*
X-615950Y-835914D01*
X-610870Y-846328D01*
X-610870Y-862076D01*
X-615950Y-872489D01*
X-621284Y-877570D01*
X-636777Y-882650D01*
X-657606Y-882650D01*
X-673100Y-877570D01*
X-678434Y-872489D01*
X-683513Y-862076D01*
X-683513Y-846328D01*
X-678434Y-835914D01*
X-668020Y-825500D01*
X-652525Y-820420D01*
X-631697Y-815339D01*
X-621284Y-810006D01*
X-615950Y-799592D01*
X-615950Y-789178D01*
X-621284Y-778764D01*
X-636777Y-773684D01*
X-657606Y-773684D01*
X519684Y-877900D02*
G01*
X597661Y-877900D01*
X613156Y-872820D01*
X623570Y-862406D01*
X628650Y-846658D01*
X628650Y-836244D01*
X623570Y-820750D01*
X613156Y-810336D01*
X597661Y-805256D01*
X519684Y-805256D01*
X540511Y-770966D02*
G01*
X535177Y-760552D01*
X519684Y-744804D01*
X628650Y-744804D01*
X495300Y66116D02*
G01*
X495300Y-11861D01*
X500379Y-27355D01*
X510793Y-37769D01*
X526541Y-42849D01*
X536956Y-42849D01*
X552450Y-37769D01*
X562863Y-27355D01*
X567943Y-11861D01*
X567943Y66116D01*
X664718Y66116D02*
G01*
X612647Y66116D01*
X607568Y19380D01*
X612647Y24460D01*
X628395Y29794D01*
X643890Y29794D01*
X659384Y24460D01*
X669797Y14300D01*
X675131Y-1447D01*
X675131Y-11861D01*
X669797Y-27355D01*
X659384Y-37769D01*
X643890Y-42849D01*
X628395Y-42849D01*
X612647Y-37769D01*
X607568Y-32689D01*
X602234Y-22275D01*
X-1168400Y26415D02*
G01*
X-1168400Y-51562D01*
X-1163320Y-67056D01*
X-1152905Y-77470D01*
X-1137157Y-82550D01*
X-1126744Y-82550D01*
X-1111250Y-77470D01*
X-1100836Y-67056D01*
X-1095755Y-51562D01*
X-1095755Y26415D01*
X-998981Y10921D02*
G01*
X-1004315Y21335D01*
X-1019809Y26415D01*
X-1030224Y26415D01*
X-1045718Y21335D01*
X-1056131Y5587D01*
X-1061465Y-20320D01*
X-1061465Y-46228D01*
X-1056131Y-67056D01*
X-1045718Y-77470D01*
X-1030224Y-82550D01*
X-1024890Y-82550D01*
X-1009395Y-77470D01*
X-998981Y-67056D01*
X-993902Y-51562D01*
X-993902Y-46228D01*
X-998981Y-30734D01*
X-1009395Y-20320D01*
X-1024890Y-15239D01*
X-1030224Y-15239D01*
X-1045718Y-20320D01*
X-1056131Y-30734D01*
X-1061465Y-46228D01*
X-2501900Y521715D02*
G01*
X-2501900Y412750D01*
X-2501900Y521715D02*
G01*
X-2455163Y521715D01*
X-2439670Y516635D01*
X-2434336Y511302D01*
X-2429255Y500887D01*
X-2429255Y490473D01*
X-2434336Y480060D01*
X-2439670Y474979D01*
X-2455163Y469900D01*
X-2501900Y469900D01*
X-2465578Y469900D02*
G01*
X-2429255Y412750D01*
X-2327402Y485393D02*
G01*
X-2332481Y469900D01*
X-2342895Y459485D01*
X-2358389Y454152D01*
X-2363723Y454152D01*
X-2379218Y459485D01*
X-2389631Y469900D01*
X-2394965Y485393D01*
X-2394965Y490473D01*
X-2389631Y506221D01*
X-2379218Y516635D01*
X-2363723Y521715D01*
X-2358389Y521715D01*
X-2342895Y516635D01*
X-2332481Y506221D01*
X-2327402Y485393D01*
X-2327402Y459485D01*
X-2332481Y433323D01*
X-2342895Y417829D01*
X-2358389Y412750D01*
X-2368804Y412750D01*
X-2384552Y417829D01*
X-2389631Y428243D01*
G36*
X1300073Y90576D02*
G01*
X1300073Y44856D01*
X1352905Y44856D01*
X1352905Y90576D01*
G37*
G36*
X1542694Y90576D02*
G01*
X1542694Y44856D01*
X1595526Y44856D01*
X1595526Y90576D01*
G37*
D12*
X-1835398Y546907D02*
G01*
X-1834400Y398899D01*
X-2024400Y532899D02*
G01*
X-2024400Y398899D01*
X-1834400Y398899D02*
G01*
X-2024402Y398899D01*
X-2025401Y771911D02*
G01*
X-2025395Y771911D01*
X-1990402Y806904D01*
X-1835398Y771911D02*
G01*
X-1835404Y771911D01*
X-1870397Y806904D01*
X-1835398Y646907D02*
G01*
X-1835398Y771911D01*
X-2025401Y646907D02*
G01*
X-2025401Y771911D01*
X-1870397Y806904D02*
G01*
X-1990402Y806904D01*
X-1880400Y566900D02*
G01*
X-1980399Y566900D01*
X-1930905Y566900D02*
G01*
X-1930905Y616899D01*
D11*
X-1571990Y631819D02*
G01*
X-1571990Y760313D01*
X-1755409Y760313D01*
X-1755409Y631819D01*
X-1571990Y536580D02*
G01*
X-1571990Y408086D01*
X-1755409Y408086D01*
X-1755409Y536580D01*
D12*
X-1650192Y-1314201D02*
G01*
X-1798200Y-1315199D01*
X-1664200Y-1125199D02*
G01*
X-1798200Y-1125199D01*
X-1798200Y-1315199D02*
G01*
X-1798200Y-1125197D01*
X-1425188Y-1124198D02*
G01*
X-1425188Y-1124204D01*
X-1390195Y-1159197D01*
X-1425188Y-1314201D02*
G01*
X-1425188Y-1314196D01*
X-1390195Y-1279202D01*
X-1550192Y-1314201D02*
G01*
X-1425188Y-1314201D01*
X-1550192Y-1124198D02*
G01*
X-1425188Y-1124198D01*
X-1390195Y-1279202D02*
G01*
X-1390195Y-1159197D01*
X-1630199Y-1269199D02*
G01*
X-1630199Y-1169200D01*
X-1630199Y-1218694D02*
G01*
X-1580200Y-1218694D01*
D11*
X395160Y-1120919D02*
G01*
X395160Y-979919D01*
X214439Y-979919D02*
G01*
X214439Y-1120919D01*
X229679Y-1136159D02*
G01*
X379920Y-1136159D01*
X395160Y-758680D02*
G01*
X395160Y-899680D01*
X214439Y-899680D02*
G01*
X214439Y-758680D01*
X229679Y-743440D02*
G01*
X379920Y-743440D01*
X242760Y85580D02*
G01*
X242760Y226580D01*
X62039Y226580D02*
G01*
X62039Y85580D01*
X77279Y70340D02*
G01*
X227520Y70340D01*
X242760Y447819D02*
G01*
X242760Y306819D01*
X62039Y306819D02*
G01*
X62039Y447819D01*
X77279Y463059D02*
G01*
X227520Y463059D01*
X1144460Y22080D02*
G01*
X1144460Y163080D01*
X963739Y163080D02*
G01*
X963739Y22080D01*
X978979Y6840D02*
G01*
X1129220Y6840D01*
X1144460Y384319D02*
G01*
X1144460Y243319D01*
X963739Y243319D02*
G01*
X963739Y384319D01*
X978979Y399559D02*
G01*
X1129220Y399559D01*
X415780Y227139D02*
G01*
X556780Y227139D01*
X556780Y407860D02*
G01*
X415780Y407860D01*
X400540Y392620D02*
G01*
X400540Y242379D01*
X778019Y227139D02*
G01*
X637019Y227139D01*
X637019Y407860D02*
G01*
X778019Y407860D01*
X793259Y392620D02*
G01*
X793259Y242379D01*
X-2147760Y-517380D02*
G01*
X-2147760Y-658380D01*
X-1967039Y-658380D02*
G01*
X-1967039Y-517380D01*
X-1982279Y-502140D02*
G01*
X-2132520Y-502140D01*
X-2147760Y-879619D02*
G01*
X-2147760Y-738619D01*
X-1967039Y-738619D02*
G01*
X-1967039Y-879619D01*
X-1982279Y-894859D02*
G01*
X-2132520Y-894859D01*
X-661860Y447819D02*
G01*
X-661860Y306819D01*
X-481139Y306819D02*
G01*
X-481139Y447819D01*
X-496379Y463059D02*
G01*
X-646620Y463059D01*
X-661860Y85580D02*
G01*
X-661860Y226580D01*
X-481139Y226580D02*
G01*
X-481139Y85580D01*
X-496379Y70340D02*
G01*
X-646620Y70340D01*
X-290639Y-752619D02*
G01*
X-290639Y-611619D01*
X-471360Y-611619D02*
G01*
X-471360Y-752619D01*
X-456120Y-767859D02*
G01*
X-305879Y-767859D01*
X-290639Y-390380D02*
G01*
X-290639Y-531380D01*
X-471360Y-531380D02*
G01*
X-471360Y-390380D01*
X-456120Y-375140D02*
G01*
X-305879Y-375140D01*
D12*
X2075500Y-735799D02*
G01*
X2115499Y-695799D01*
X2125499Y-685800D01*
X2115499Y-675774D01*
X2075500Y-635774D01*
X2075500Y-735799D02*
G01*
X2075500Y-635774D01*
X2051177Y-584072D02*
G01*
X1896236Y-584072D01*
X1896236Y-787272D01*
X2051177Y-787272D01*
X2129916Y-581532D02*
G01*
X2277236Y-581532D01*
X2317877Y-622172D01*
X2317877Y-749172D01*
X2279777Y-787272D01*
X2127377Y-787272D01*
D11*
X1307678Y235917D02*
G01*
X1587921Y235917D01*
X1307678Y82976D02*
G01*
X1307678Y628223D01*
X1587921Y82976D02*
G01*
X1587921Y628223D01*
X1307678Y628223D02*
G01*
X1347830Y628223D01*
X1587921Y628223D02*
G01*
X1547769Y628223D01*
X-1831339Y-647700D02*
G01*
X-1831339Y-647700D01*
X-1831339Y-508000D01*
X-1807210Y-483870D01*
X-1601470Y-483870D01*
X-1574800Y-510539D01*
X-1574800Y-647700D01*
X-1574800Y-774712D02*
G01*
X-1574800Y-774712D01*
X-1574800Y-914412D01*
X-1598929Y-938542D01*
X-1804670Y-938542D01*
X-1831339Y-911872D01*
X-1831339Y-774712D01*
D12*
X2058207Y260598D02*
G01*
X1910199Y259600D01*
X2044199Y449600D02*
G01*
X1910199Y449600D01*
X1910199Y259600D02*
G01*
X1910199Y449602D01*
X2283211Y450601D02*
G01*
X2283211Y450595D01*
X2318204Y415602D01*
X2283211Y260598D02*
G01*
X2283211Y260603D01*
X2318204Y295597D01*
X2158207Y260598D02*
G01*
X2283211Y260598D01*
X2158207Y450601D02*
G01*
X2283211Y450601D01*
X2318204Y295597D02*
G01*
X2318204Y415602D01*
X2078200Y305600D02*
G01*
X2078200Y405599D01*
X2078200Y356105D02*
G01*
X2128199Y356105D01*
X1345100Y-695909D02*
G01*
X1525102Y-695909D01*
X1345100Y-1005911D02*
G01*
X1525102Y-1005911D01*
D11*
X1438280Y-1114790D02*
G01*
X1309786Y-1114790D01*
X1309786Y-1298209D01*
X1438280Y-1298209D01*
X1533519Y-1114790D02*
G01*
X1662013Y-1114790D01*
X1662013Y-1298209D01*
X1533519Y-1298209D01*
X-206009Y-644519D02*
G01*
X-206009Y-773013D01*
X-22590Y-773013D01*
X-22590Y-644519D01*
X-206009Y-549280D02*
G01*
X-206009Y-420786D01*
X-22590Y-420786D01*
X-22590Y-549280D01*
X2143119Y-2809D02*
G01*
X2271613Y-2809D01*
X2271613Y180609D01*
X2143119Y180609D01*
X2047880Y-2809D02*
G01*
X1919386Y-2809D01*
X1919386Y180609D01*
X2047880Y180609D01*
X2143119Y-498109D02*
G01*
X2271613Y-498109D01*
X2271613Y-314690D01*
X2143119Y-314690D01*
X2047880Y-498109D02*
G01*
X1919386Y-498109D01*
X1919386Y-314690D01*
X2047880Y-314690D01*
X2143119Y-1018809D02*
G01*
X2271613Y-1018809D01*
X2271613Y-835390D01*
X2143119Y-835390D01*
X2047880Y-1018809D02*
G01*
X1919386Y-1018809D01*
X1919386Y-835390D01*
X2047880Y-835390D01*
X1178290Y-276219D02*
G01*
X1178290Y-404713D01*
X1361709Y-404713D01*
X1361709Y-276219D01*
X1178290Y-180980D02*
G01*
X1178290Y-52486D01*
X1361709Y-52486D01*
X1361709Y-180980D01*
X-333009Y231780D02*
G01*
X-333009Y103286D01*
X-149590Y103286D01*
X-149590Y231780D01*
X-333009Y327019D02*
G01*
X-333009Y455513D01*
X-149590Y455513D01*
X-149590Y327019D01*
X-822690Y314319D02*
G01*
X-822690Y442813D01*
X-1006109Y442813D01*
X-1006109Y314319D01*
X-822690Y219080D02*
G01*
X-822690Y90586D01*
X-1006109Y90586D01*
X-1006109Y219080D01*
X-739409Y-606419D02*
G01*
X-739409Y-734913D01*
X-555990Y-734913D01*
X-555990Y-606419D01*
X-739409Y-511180D02*
G01*
X-739409Y-382686D01*
X-555990Y-382686D01*
X-555990Y-511180D01*
D12*
X2045507Y-260101D02*
G01*
X1897499Y-261099D01*
X2031499Y-71099D02*
G01*
X1897499Y-71099D01*
X1897499Y-261099D02*
G01*
X1897499Y-71097D01*
X2270511Y-70098D02*
G01*
X2270511Y-70104D01*
X2305504Y-105097D01*
X2270511Y-260101D02*
G01*
X2270511Y-260096D01*
X2305504Y-225102D01*
X2145507Y-260101D02*
G01*
X2270511Y-260101D01*
X2145507Y-70098D02*
G01*
X2270511Y-70098D01*
X2305504Y-225102D02*
G01*
X2305504Y-105097D01*
X2065500Y-215099D02*
G01*
X2065500Y-115100D01*
X2065500Y-164594D02*
G01*
X2115499Y-164594D01*
D11*
X927120Y-698581D02*
G01*
X749279Y-698581D01*
X927120Y-1006419D02*
G01*
X749279Y-1006419D01*
X691339Y-373519D02*
G01*
X477060Y-373519D01*
X477060Y-58280D01*
X691339Y-58280D01*
X691339Y-373519D01*
X-1168420Y-433318D02*
G01*
X-990579Y-433318D01*
X-1168420Y-125481D02*
G01*
X-990579Y-125481D01*
D12*
X-2311400Y-103200D02*
G01*
X-2311400Y-357200D01*
X-2108200Y-357200D01*
X-2108200Y-94599D01*
X-1668200Y345399D02*
G01*
X-2548199Y345399D01*
X-1668200Y-94599D02*
G01*
X-2548199Y-94599D01*
X-2548199Y345399D02*
G01*
X-2548199Y296875D01*
X-2548199Y-46075D02*
G01*
X-2548199Y-94599D01*
X-1668200Y345399D02*
G01*
X-1668200Y296875D01*
X-1668200Y-46075D02*
G01*
X-1668200Y-94599D01*
D11*
X-2092690Y631819D02*
G01*
X-2092690Y760313D01*
X-2276109Y760313D01*
X-2276109Y631819D01*
X-2092690Y536580D02*
G01*
X-2092690Y408086D01*
X-2276109Y408086D01*
X-2276109Y536580D01*
G75*
G01*
X214440Y-1120920D02*
G03*
X229679Y-1136160I15240J0D01*
G75*
G01*
X379921Y-1136160D02*
G03*
X395160Y-1120920I-1J15240D01*
G75*
G01*
X214440Y-758680D02*
G02*
X229679Y-743440I15240J0D01*
G75*
G01*
X379921Y-743440D02*
G02*
X395160Y-758680I-1J-15240D01*
G75*
G01*
X62040Y85580D02*
G03*
X77279Y70340I15240J0D01*
G75*
G01*
X227521Y70340D02*
G03*
X242760Y85580I-1J15240D01*
G75*
G01*
X62040Y447820D02*
G02*
X77279Y463060I15240J0D01*
G75*
G01*
X227521Y463060D02*
G02*
X242760Y447820I-1J-15240D01*
G75*
G01*
X963740Y22080D02*
G03*
X978979Y6840I15240J0D01*
G75*
G01*
X1129221Y6840D02*
G03*
X1144460Y22080I-1J15240D01*
G75*
G01*
X963740Y384320D02*
G02*
X978979Y399560I15240J0D01*
G75*
G01*
X1129221Y399560D02*
G02*
X1144460Y384320I-1J-15240D01*
G75*
G01*
X415780Y407860D02*
G03*
X400540Y392620I0J-15240D01*
G75*
G01*
X400540Y242380D02*
G03*
X415780Y227140I15240J0D01*
G75*
G01*
X778020Y407860D02*
G02*
X793260Y392620I0J-15240D01*
G75*
G01*
X793260Y242380D02*
G02*
X778020Y227140I-15240J0D01*
G75*
G01*
X-1967040Y-517380D02*
G03*
X-1982280Y-502140I-15240J0D01*
G75*
G01*
X-2132520Y-502140D02*
G03*
X-2147760Y-517380I0J-15240D01*
G75*
G01*
X-1967040Y-879620D02*
G02*
X-1982280Y-894860I-15240J0D01*
G75*
G01*
X-2132520Y-894860D02*
G02*
X-2147760Y-879620I0J15240D01*
G75*
G01*
X-481140Y447820D02*
G03*
X-496379Y463060I-15240J0D01*
G75*
G01*
X-646621Y463060D02*
G03*
X-661860Y447820I1J-15240D01*
G75*
G01*
X-481140Y85580D02*
G02*
X-496379Y70340I-15240J0D01*
G75*
G01*
X-646621Y70340D02*
G02*
X-661860Y85580I1J15240D01*
G75*
G01*
X-471360Y-752620D02*
G03*
X-456121Y-767860I15240J0D01*
G75*
G01*
X-305879Y-767860D02*
G03*
X-290640Y-752620I-1J15240D01*
G75*
G01*
X-471360Y-390380D02*
G02*
X-456121Y-375140I15240J0D01*
G75*
G01*
X-305879Y-375140D02*
G02*
X-290640Y-390380I-1J-15240D01*
D12*
G75*
G01
X1587500Y-1016000D02*
G03X1587500Y-1016000I-12700J0D01*
D13*
G75*
G01
X983361Y-1019327D02*
G03X983361Y-1019327I-15011J0D01*
G75*
G01
X812317Y-376834D02*
G03X812317Y-376834I-15011J0D01*
G75*
G01
X-1194638Y-112573D02*
G03X-1194638Y-112573I-15011J0D01*
M02*
