G04 Layer: TopLayer*
G04 EasyEDA v6.5.42, 2024-05-27 16:03:50*
G04 5a823164b2b14e8aa45e0a56d25f44cb,4b06660695a64fe3bf0f4e1e846abbee,10*
G04 Gerber Generator version 0.2*
G04 Scale: 100 percent, Rotated: No, Reflected: No *
G04 Dimensions in millimeters *
G04 leading zeros omitted , absolute positions ,4 integer and 5 decimal *
%FSLAX45Y45*%
%MOMM*%

%AMMACRO1*21,1,$1,$2,0,0,$3*%
%ADD10C,0.3000*%
%ADD11C,0.8000*%
%ADD12MACRO1,1.35X1.41X90.0000*%
%ADD13MACRO1,1.35X1.41X0.0000*%
%ADD14R,1.3500X1.4100*%
%ADD15MACRO1,1.35X1.41X-90.0000*%
%ADD16MACRO1,1X1.3995X0.0000*%
%ADD17R,1.0000X1.3995*%
%ADD18R,0.5320X1.0720*%
%ADD19R,1.1000X0.6000*%
%ADD20MACRO1,1.377X1.1325X90.0000*%
%ADD21MACRO1,1.377X1.1325X0.0000*%
%ADD22R,1.3770X1.1325*%
%ADD23MACRO1,1.377X1.1325X-90.0000*%
%ADD24R,1.0000X1.2500*%
%ADD25R,1.0720X0.5320*%
%ADD26O,0.36400740000000004X1.6619982000000002*%
%ADD27R,1.8000X1.5000*%
%ADD28R,3.5000X2.3500*%
%ADD29C,2.0000*%
%ADD30O,1.599946X1.5999968*%
%ADD31O,1.9999959999999999X2.999994*%
%ADD32MACRO1,2X2X-90.0000*%
%ADD33R,2.0000X2.0000*%
%ADD34C,1.2000*%
%ADD35C,0.0167*%

%LPD*%
G36*
X6350568.0Y4374394.0D02*
G01*
X6346656.0Y4375207.0D01*
X6343405.0Y4377392.0D01*
X6341169.0Y4380694.0D01*
X6340408.0Y4384554.0D01*
X6340408.0Y4556106.0D01*
X6341169.0Y4560018.0D01*
X6343405.0Y4563269.0D01*
X6346656.0Y4565504.0D01*
X6350568.0Y4566266.0D01*
X6509419.0Y4566266.0D01*
X6513280.0Y4565504.0D01*
X6516582.0Y4563269.0D01*
X6518817.0Y4560018.0D01*
X6519579.0Y4556106.0D01*
X6518817.0Y4552194.0D01*
X6516582.0Y4548943.0D01*
X6507895.0Y4540307.0D01*
X6504593.0Y4538021.0D01*
X6500732.0Y4537310.0D01*
X6439417.0Y4537310.0D01*
X6433118.0Y4536548.0D01*
X6427682.0Y4534618.0D01*
X6422754.0Y4531570.0D01*
X6418690.0Y4527506.0D01*
X6415592.0Y4522629.0D01*
X6413661.0Y4517092.0D01*
X6412950.0Y4510792.0D01*
X6412950.0Y4436777.0D01*
X6412188.0Y4432916.0D01*
X6410004.0Y4429614.0D01*
X6357730.0Y4377392.0D01*
X6354479.0Y4375207.0D01*
G37*

%LPD*%
G36*
X6202079.0Y4136955.0D02*
G01*
X6198218.0Y4137768.0D01*
X6194916.0Y4139952.0D01*
X6192732.0Y4143204.0D01*
X6191919.0Y4147115.0D01*
X6191919.0Y4250646.0D01*
X6192732.0Y4254557.0D01*
X6194916.0Y4257808.0D01*
X6198218.0Y4259993.0D01*
X6202079.0Y4260806.0D01*
X6305965.0Y4260806.0D01*
X6310029.0Y4259942.0D01*
X6313382.0Y4257554.0D01*
X6315566.0Y4254100.0D01*
X6316125.0Y4249934.0D01*
X6315008.0Y4245972.0D01*
X6312417.0Y4242822.0D01*
X6310639.0Y4241298.0D01*
X6209293.0Y4139952.0D01*
X6205991.0Y4137768.0D01*
G37*

%LPD*%
G36*
X6640432.0Y4126592.0D02*
G01*
X6636572.0Y4127354.0D01*
X6633270.0Y4129589.0D01*
X6521560.0Y4241298.0D01*
X6515007.0Y4246734.0D01*
X6507946.0Y4250442.0D01*
X6500275.0Y4252779.0D01*
X6491792.0Y4253592.0D01*
X6373834.0Y4253592.0D01*
X6369770.0Y4254506.0D01*
X6366417.0Y4256843.0D01*
X6364233.0Y4260399.0D01*
X6363674.0Y4264412.0D01*
X6364792.0Y4268426.0D01*
X6367382.0Y4271677.0D01*
X6369160.0Y4273150.0D01*
X6438604.0Y4342492.0D01*
X6441906.0Y4344727.0D01*
X6445767.0Y4345489.0D01*
X6538324.0Y4345489.0D01*
X6544624.0Y4346200.0D01*
X6550059.0Y4348131.0D01*
X6554987.0Y4351230.0D01*
X6559051.0Y4355294.0D01*
X6562150.0Y4360170.0D01*
X6564080.0Y4365657.0D01*
X6564791.0Y4371956.0D01*
X6564791.0Y4477264.0D01*
X6565553.0Y4481125.0D01*
X6567738.0Y4484376.0D01*
X6595170.0Y4511808.0D01*
X6598472.0Y4513993.0D01*
X6602332.0Y4514806.0D01*
X6612848.0Y4514806.0D01*
X6616760.0Y4513993.0D01*
X6620062.0Y4511808.0D01*
X6622246.0Y4508557.0D01*
X6623008.0Y4504646.0D01*
X6623008.0Y4371956.0D01*
X6623719.0Y4365657.0D01*
X6625650.0Y4360170.0D01*
X6628748.0Y4355294.0D01*
X6632812.0Y4351230.0D01*
X6637740.0Y4348131.0D01*
X6643176.0Y4346200.0D01*
X6649475.0Y4345489.0D01*
X6705507.0Y4345489.0D01*
X6709419.0Y4344727.0D01*
X6712721.0Y4342492.0D01*
X6789378.0Y4265835.0D01*
X6791562.0Y4262533.0D01*
X6792375.0Y4258672.0D01*
X6792375.0Y4169874.0D01*
X6793086.0Y4163625.0D01*
X6794966.0Y4158088.0D01*
X6798065.0Y4153211.0D01*
X6802180.0Y4149096.0D01*
X6809647.0Y4144270.0D01*
X6812035.0Y4141019.0D01*
X6812949.0Y4137108.0D01*
X6812289.0Y4133094.0D01*
X6810104.0Y4129691.0D01*
X6806752.0Y4127456.0D01*
X6802789.0Y4126592.0D01*
G37*

%LPD*%
G36*
X6351076.0Y4012800.0D02*
G01*
X6346808.0Y4012952.0D01*
X6342998.0Y4014781.0D01*
X6340255.0Y4018134.0D01*
X6339087.0Y4022198.0D01*
X6339747.0Y4026465.0D01*
X6342033.0Y4029970.0D01*
X6345538.0Y4033526.0D01*
X6348536.0Y4035558.0D01*
X6352041.0Y4036473.0D01*
X6355648.0Y4036117.0D01*
X6358899.0Y4034390.0D01*
X6361896.0Y4032104.0D01*
X6364487.0Y4029208.0D01*
X6365808.0Y4025551.0D01*
X6365655.0Y4021690.0D01*
X6364030.0Y4018134.0D01*
X6361236.0Y4015492.0D01*
X6357629.0Y4014019.0D01*
G37*

%LPD*%
G36*
X5245719.0Y3585878.0D02*
G01*
X5241655.0Y3587554.0D01*
X5238658.0Y3590754.0D01*
X5237337.0Y3594920.0D01*
X5236982.0Y3598476.0D01*
X5234645.0Y3606096.0D01*
X5230886.0Y3613208.0D01*
X5225450.0Y3619761.0D01*
X5213461.0Y3631801.0D01*
X5206908.0Y3637135.0D01*
X5205181.0Y3638100.0D01*
X5201828.0Y3641046.0D01*
X5199999.0Y3645060.0D01*
X5200101.0Y3649479.0D01*
X5202133.0Y3653492.0D01*
X5205638.0Y3656236.0D01*
X5209956.0Y3657201.0D01*
X5233172.0Y3657201.0D01*
X5237033.0Y3656388.0D01*
X5240334.0Y3654254.0D01*
X5254609.0Y3639980.0D01*
X5256844.0Y3636678.0D01*
X5257606.0Y3632766.0D01*
X5257606.0Y3595936.0D01*
X5256641.0Y3591669.0D01*
X5254000.0Y3588214.0D01*
X5250088.0Y3586132.0D01*
G37*

%LPD*%
G36*
X4942037.0Y3379731.0D02*
G01*
X4937922.0Y3380138.0D01*
X4934264.0Y3382119.0D01*
X4931775.0Y3385370.0D01*
X4930759.0Y3389434.0D01*
X4931470.0Y3393498.0D01*
X4933706.0Y3396952.0D01*
X4993446.0Y3456642.0D01*
X4997104.0Y3459030.0D01*
X5001473.0Y3459589.0D01*
X5011125.0Y3456439.0D01*
X5017475.0Y3455677.0D01*
X5106730.0Y3455677.0D01*
X5110591.0Y3454966.0D01*
X5113893.0Y3452680.0D01*
X5116078.0Y3449378.0D01*
X5116890.0Y3445568.0D01*
X5116078.0Y3441656.0D01*
X5113893.0Y3438354.0D01*
X5058979.0Y3383389.0D01*
X5055676.0Y3381204.0D01*
X5051816.0Y3380442.0D01*
X4948742.0Y3380442.0D01*
G37*

%LPD*%
G36*
X7406903.0Y3109221.0D02*
G01*
X7402483.0Y3109678.0D01*
X7398673.0Y3112015.0D01*
X7396184.0Y3115622.0D01*
X7394609.0Y3119788.0D01*
X7393949.0Y3124055.0D01*
X7395168.0Y3128271.0D01*
X7398013.0Y3131573.0D01*
X7402026.0Y3133351.0D01*
X7406395.0Y3133300.0D01*
X7410357.0Y3131421.0D01*
X7413964.0Y3128627.0D01*
X7416504.0Y3125680.0D01*
X7417723.0Y3121972.0D01*
X7417520.0Y3118111.0D01*
X7415894.0Y3114606.0D01*
X7413100.0Y3112015.0D01*
X7411068.0Y3110694.0D01*
G37*

%LPD*%
G36*
X7610814.0Y3108205.0D02*
G01*
X7609341.0Y3108358.0D01*
X7586328.0Y3108358.0D01*
X7583179.0Y3108866.0D01*
X7580334.0Y3110339.0D01*
X7577540.0Y3112371.0D01*
X7574848.0Y3115216.0D01*
X7573476.0Y3118924.0D01*
X7573628.0Y3122886.0D01*
X7575254.0Y3126493.0D01*
X7579216.0Y3129897.0D01*
X7583280.0Y3134012.0D01*
X7586379.0Y3138939.0D01*
X7588310.0Y3144324.0D01*
X7589021.0Y3150623.0D01*
X7589021.0Y3178970.0D01*
X7535681.0Y3178970.0D01*
X7535681.0Y3127204.0D01*
X7534919.0Y3123293.0D01*
X7532734.0Y3119940.0D01*
X7529432.0Y3117806.0D01*
X7525521.0Y3116994.0D01*
X7465678.0Y3116994.0D01*
X7461767.0Y3117806.0D01*
X7458465.0Y3119940.0D01*
X7456280.0Y3123293.0D01*
X7455518.0Y3127204.0D01*
X7455518.0Y3178970.0D01*
X7402178.0Y3178970.0D01*
X7402178.0Y3154382.0D01*
X7401416.0Y3150471.0D01*
X7399181.0Y3147220.0D01*
X7395828.0Y3144984.0D01*
X7391917.0Y3144273.0D01*
X7388005.0Y3145086.0D01*
X7384703.0Y3147321.0D01*
X7382570.0Y3150725.0D01*
X7243124.0Y3509271.0D01*
X7242412.0Y3513386.0D01*
X7243428.0Y3517450.0D01*
X7245968.0Y3520650.0D01*
X7249575.0Y3522683.0D01*
X7253741.0Y3523038.0D01*
X7258973.0Y3522479.0D01*
X7287320.0Y3522479.0D01*
X7287320.0Y3575768.0D01*
X7239568.0Y3575768.0D01*
X7235656.0Y3576581.0D01*
X7232405.0Y3578766.0D01*
X7230170.0Y3582068.0D01*
X7229407.0Y3585928.0D01*
X7229407.0Y3645872.0D01*
X7230170.0Y3649682.0D01*
X7232405.0Y3652984.0D01*
X7235656.0Y3655220.0D01*
X7239568.0Y3655982.0D01*
X7287320.0Y3655982.0D01*
X7287320.0Y3709271.0D01*
X7258973.0Y3709271.0D01*
X7252674.0Y3708560.0D01*
X7247188.0Y3706680.0D01*
X7242311.0Y3703581.0D01*
X7238196.0Y3699466.0D01*
X7234691.0Y3695453.0D01*
X7230932.0Y3693828.0D01*
X7226868.0Y3693828.0D01*
X7223108.0Y3695453.0D01*
X7219603.0Y3699466.0D01*
X7215488.0Y3703581.0D01*
X7210612.0Y3706680.0D01*
X7208427.0Y3707493.0D01*
X7204922.0Y3709525.0D01*
X7202534.0Y3712878.0D01*
X7201620.0Y3716789.0D01*
X7202331.0Y3720802.0D01*
X7204566.0Y3724206.0D01*
X7320949.0Y3840588.0D01*
X7326385.0Y3847192.0D01*
X7330144.0Y3854253.0D01*
X7332481.0Y3861924.0D01*
X7333293.0Y3870357.0D01*
X7333293.0Y4301192.0D01*
X7332481.0Y4309675.0D01*
X7330144.0Y4317295.0D01*
X7326385.0Y4324407.0D01*
X7320949.0Y4330960.0D01*
X7103017.0Y4548943.0D01*
X7100782.0Y4552194.0D01*
X7100020.0Y4556106.0D01*
X7100782.0Y4560018.0D01*
X7103017.0Y4563269.0D01*
X7106319.0Y4565504.0D01*
X7110180.0Y4566266.0D01*
X7362757.0Y4566266.0D01*
X7366568.0Y4565606.0D01*
X7369819.0Y4563472.0D01*
X7372054.0Y4560322.0D01*
X7372918.0Y4556563.0D01*
X7372359.0Y4552753.0D01*
X7370428.0Y4547165.0D01*
X7369717.0Y4540815.0D01*
X7369717.0Y4497788.0D01*
X7439262.0Y4497788.0D01*
X7439262.0Y4556106.0D01*
X7440024.0Y4560018.0D01*
X7442209.0Y4563269.0D01*
X7445511.0Y4565504.0D01*
X7449422.0Y4566266.0D01*
X7541777.0Y4566266.0D01*
X7545688.0Y4565504.0D01*
X7548990.0Y4563269.0D01*
X7551175.0Y4560018.0D01*
X7551937.0Y4556106.0D01*
X7551937.0Y4497788.0D01*
X7611932.0Y4497788.0D01*
X7615843.0Y4496975.0D01*
X7619094.0Y4494790.0D01*
X7621330.0Y4491488.0D01*
X7622092.0Y4487577.0D01*
X7622092.0Y4395222.0D01*
X7621330.0Y4391311.0D01*
X7619094.0Y4388009.0D01*
X7615843.0Y4385774.0D01*
X7611932.0Y4385012.0D01*
X7551937.0Y4385012.0D01*
X7551937.0Y4315517.0D01*
X7595015.0Y4315517.0D01*
X7601365.0Y4316178.0D01*
X7610865.0Y4319480.0D01*
X7615081.0Y4319022.0D01*
X7618739.0Y4316838.0D01*
X7621228.0Y4313434.0D01*
X7622092.0Y4309320.0D01*
X7622092.0Y3118365.0D01*
X7621228.0Y3114149.0D01*
X7618688.0Y3110745.0D01*
X7615030.0Y3108612.0D01*
G37*

%LPC*%
G36*
X7535681.0Y3262180.0D02*
G01*
X7589021.0Y3262180.0D01*
X7589021.0Y3290526.0D01*
X7588310.0Y3296826.0D01*
X7586379.0Y3302312.0D01*
X7583280.0Y3307189.0D01*
X7579216.0Y3311354.0D01*
X7574289.0Y3314352.0D01*
X7568853.0Y3316282.0D01*
X7562554.0Y3316993.0D01*
X7535681.0Y3316993.0D01*
G37*
G36*
X7402178.0Y3262180.0D02*
G01*
X7455518.0Y3262180.0D01*
X7455518.0Y3316993.0D01*
X7428645.0Y3316993.0D01*
X7422346.0Y3316282.0D01*
X7416910.0Y3314352.0D01*
X7411983.0Y3311354.0D01*
X7407919.0Y3307189.0D01*
X7404820.0Y3302312.0D01*
X7402890.0Y3296826.0D01*
X7402178.0Y3290526.0D01*
G37*
G36*
X7370479.0Y3522479.0D02*
G01*
X7398826.0Y3522479.0D01*
X7405176.0Y3523241.0D01*
X7410611.0Y3525070.0D01*
X7415539.0Y3528220.0D01*
X7419603.0Y3532284.0D01*
X7422702.0Y3537160.0D01*
X7424581.0Y3542647.0D01*
X7425292.0Y3548946.0D01*
X7425292.0Y3575768.0D01*
X7370479.0Y3575768.0D01*
G37*
G36*
X7370479.0Y3655982.0D02*
G01*
X7425292.0Y3655982.0D01*
X7425292.0Y3682804.0D01*
X7424581.0Y3689103.0D01*
X7422702.0Y3694590.0D01*
X7419603.0Y3699466.0D01*
X7415539.0Y3703581.0D01*
X7410611.0Y3706680.0D01*
X7405176.0Y3708560.0D01*
X7398826.0Y3709271.0D01*
X7370479.0Y3709271.0D01*
G37*
G36*
X7396184.0Y4315517.0D02*
G01*
X7439262.0Y4315517.0D01*
X7439262.0Y4385012.0D01*
X7369717.0Y4385012.0D01*
X7369717.0Y4341984.0D01*
X7370428.0Y4335634.0D01*
X7372308.0Y4330198.0D01*
X7375407.0Y4325322.0D01*
X7379471.0Y4321156.0D01*
X7384398.0Y4318108.0D01*
X7389834.0Y4316178.0D01*
G37*

%LPD*%
G36*
X6706930.0Y3097893.0D02*
G01*
X6362048.0Y3097994.0D01*
X6357832.0Y3098909.0D01*
X6354378.0Y3101449.0D01*
X6352295.0Y3105208.0D01*
X6351990.0Y3109577.0D01*
X6353412.0Y3113539.0D01*
X6356410.0Y3117349.0D01*
X6364233.0Y3123547.0D01*
X6506168.0Y3265482.0D01*
X6509470.0Y3267768.0D01*
X6513331.0Y3268479.0D01*
X6614626.0Y3268479.0D01*
X6620925.0Y3269241.0D01*
X6626412.0Y3271070.0D01*
X6631288.0Y3274220.0D01*
X6635403.0Y3278284.0D01*
X6638908.0Y3282297.0D01*
X6642668.0Y3283973.0D01*
X6646732.0Y3283973.0D01*
X6650491.0Y3282297.0D01*
X6653996.0Y3278284.0D01*
X6658111.0Y3274220.0D01*
X6662988.0Y3271070.0D01*
X6668474.0Y3269241.0D01*
X6674773.0Y3268479.0D01*
X6707946.0Y3268479.0D01*
X6711806.0Y3267768.0D01*
X6715108.0Y3265482.0D01*
X6717344.0Y3262180.0D01*
X6718106.0Y3258319.0D01*
X6718106.0Y3108053.0D01*
X6717242.0Y3103887.0D01*
X6714753.0Y3100484.0D01*
X6711095.0Y3098401.0D01*
G37*

%LPD*%
G36*
X6187703.0Y3080418.0D02*
G01*
X6184045.0Y3081281.0D01*
X6180946.0Y3083415.0D01*
X6178660.0Y3085701.0D01*
X6172107.0Y3091035.0D01*
X6165046.0Y3094896.0D01*
X6157375.0Y3097131.0D01*
X6148892.0Y3097994.0D01*
X6132229.0Y3097994.0D01*
X6128013.0Y3098909.0D01*
X6124609.0Y3101449.0D01*
X6122526.0Y3105208.0D01*
X6122171.0Y3109577.0D01*
X6124101.0Y3114250.0D01*
X6125981.0Y3119788.0D01*
X6126692.0Y3126036.0D01*
X6126692.0Y3149709.0D01*
X6127505.0Y3153620.0D01*
X6129689.0Y3156922.0D01*
X6132991.0Y3159107.0D01*
X6136852.0Y3159920.0D01*
X6140764.0Y3159107.0D01*
X6144066.0Y3156922.0D01*
X6177543.0Y3123445.0D01*
X6184096.0Y3118010.0D01*
X6191157.0Y3114250.0D01*
X6196186.0Y3112726.0D01*
X6199437.0Y3111050.0D01*
X6201927.0Y3108256.0D01*
X6203248.0Y3104751.0D01*
X6203197.0Y3101042.0D01*
X6201825.0Y3097588.0D01*
X6200098.0Y3094946.0D01*
X6197101.0Y3085802.0D01*
X6194713.0Y3082856.0D01*
X6191462.0Y3080976.0D01*
G37*

%LPD*%
G36*
X5839113.0Y3003049.0D02*
G01*
X5835354.0Y3003710.0D01*
X5832103.0Y3005792.0D01*
X5829868.0Y3008993.0D01*
X5828953.0Y3012701.0D01*
X5829512.0Y3016511.0D01*
X5831188.0Y3021337.0D01*
X5831900.0Y3027636.0D01*
X5831900.0Y3086564.0D01*
X5831188.0Y3092813.0D01*
X5829512.0Y3097639.0D01*
X5828953.0Y3101449.0D01*
X5829868.0Y3105208.0D01*
X5832103.0Y3108358.0D01*
X5835303.0Y3110491.0D01*
X5839113.0Y3111152.0D01*
X5962151.0Y3111152.0D01*
X5966367.0Y3110237.0D01*
X5969822.0Y3107697.0D01*
X5971904.0Y3103938.0D01*
X5972209.0Y3099620.0D01*
X5970330.0Y3094946.0D01*
X5968399.0Y3089409.0D01*
X5967688.0Y3083161.0D01*
X5967688.0Y3031040.0D01*
X5968399.0Y3024741.0D01*
X5972209.0Y3014530.0D01*
X5971904.0Y3010212.0D01*
X5969822.0Y3006504.0D01*
X5966367.0Y3003913.0D01*
X5962151.0Y3003049.0D01*
G37*

%LPD*%
G36*
X2388168.0Y2790858.0D02*
G01*
X2384257.0Y2791670.0D01*
X2381006.0Y2793855.0D01*
X2378770.0Y2797157.0D01*
X2378008.0Y2801018.0D01*
X2378008.0Y4322020.0D01*
X2378872.0Y4326134.0D01*
X2381361.0Y4329538.0D01*
X2385019.0Y4331722.0D01*
X2389235.0Y4332180.0D01*
X2398735.0Y4328878.0D01*
X2405085.0Y4328217.0D01*
X2448163.0Y4328217.0D01*
X2448163.0Y4397712.0D01*
X2388168.0Y4397712.0D01*
X2384257.0Y4398474.0D01*
X2381006.0Y4400709.0D01*
X2378770.0Y4404011.0D01*
X2378008.0Y4407922.0D01*
X2378008.0Y4500277.0D01*
X2378770.0Y4504188.0D01*
X2381006.0Y4507490.0D01*
X2384257.0Y4509675.0D01*
X2388168.0Y4510488.0D01*
X2448163.0Y4510488.0D01*
X2448163.0Y4568603.0D01*
X2448925.0Y4572514.0D01*
X2451160.0Y4575766.0D01*
X2454462.0Y4577950.0D01*
X2458323.0Y4578712.0D01*
X2550728.0Y4578509.0D01*
X2554589.0Y4577696.0D01*
X2557891.0Y4575512.0D01*
X2560076.0Y4572210.0D01*
X2560838.0Y4568349.0D01*
X2560838.0Y4510488.0D01*
X2630434.0Y4510488.0D01*
X2630434.0Y4553515.0D01*
X2629672.0Y4559865.0D01*
X2627944.0Y4564742.0D01*
X2627386.0Y4568654.0D01*
X2628300.0Y4572311.0D01*
X2630535.0Y4575461.0D01*
X2633786.0Y4577544.0D01*
X2637596.0Y4578306.0D01*
X3901043.0Y4575258.0D01*
X3904904.0Y4574496.0D01*
X3908206.0Y4572311.0D01*
X3910390.0Y4569060.0D01*
X3911203.0Y4565199.0D01*
X3912880.0Y4363218.0D01*
X3912118.0Y4359307.0D01*
X3909933.0Y4356056.0D01*
X3906580.0Y4353770.0D01*
X3902720.0Y4352957.0D01*
X3670208.0Y4352957.0D01*
X3667008.0Y4353516.0D01*
X3664112.0Y4354989.0D01*
X3655832.0Y4361237.0D01*
X3645062.0Y4367079.0D01*
X3633581.0Y4371397.0D01*
X3621643.0Y4373988.0D01*
X3609400.0Y4374852.0D01*
X3597158.0Y4373988.0D01*
X3585220.0Y4371397.0D01*
X3573739.0Y4367079.0D01*
X3562969.0Y4361237.0D01*
X3554689.0Y4354989.0D01*
X3551793.0Y4353516.0D01*
X3548593.0Y4352957.0D01*
X3190605.0Y4352957.0D01*
X3184560.0Y4352296.0D01*
X3179074.0Y4350417.0D01*
X3174146.0Y4347369.0D01*
X3171758.0Y4345184.0D01*
X3083265.0Y4256691.0D01*
X3079455.0Y4252017.0D01*
X3076966.0Y4246734.0D01*
X3075696.0Y4241095.0D01*
X3075492.0Y4237946.0D01*
X3075492.0Y3981964.0D01*
X3074781.0Y3978154.0D01*
X3072648.0Y3974903.0D01*
X3069549.0Y3972719.0D01*
X3065790.0Y3971754.0D01*
X3061980.0Y3972312.0D01*
X3058627.0Y3974294.0D01*
X3054766.0Y3977697.0D01*
X3043234.0Y3985419.0D01*
X3030839.0Y3991515.0D01*
X3017682.0Y3995934.0D01*
X3004118.0Y3998678.0D01*
X2990301.0Y3999592.0D01*
X2976483.0Y3998678.0D01*
X2962920.0Y3995934.0D01*
X2949762.0Y3991515.0D01*
X2937367.0Y3985419.0D01*
X2925836.0Y3977697.0D01*
X2914914.0Y3968096.0D01*
X2911256.0Y3966064.0D01*
X2908716.0Y3965861.0D01*
X2908259.0Y3961492.0D01*
X2906278.0Y3958139.0D01*
X2898607.0Y3946608.0D01*
X2892460.0Y3934212.0D01*
X2888040.0Y3921106.0D01*
X2885348.0Y3907492.0D01*
X2884434.0Y3893674.0D01*
X2885348.0Y3879907.0D01*
X2888040.0Y3866242.0D01*
X2892460.0Y3853136.0D01*
X2898607.0Y3840791.0D01*
X2906328.0Y3829158.0D01*
X2908259.0Y3825856.0D01*
X2908716.0Y3821538.0D01*
X2911256.0Y3821284.0D01*
X2914914.0Y3819303.0D01*
X2925836.0Y3809651.0D01*
X2937367.0Y3801980.0D01*
X2949762.0Y3795884.0D01*
X2962920.0Y3791464.0D01*
X2976483.0Y3788670.0D01*
X2990301.0Y3787807.0D01*
X3004118.0Y3788670.0D01*
X3017682.0Y3791464.0D01*
X3030839.0Y3795884.0D01*
X3043234.0Y3801980.0D01*
X3054766.0Y3809651.0D01*
X3058728.0Y3813156.0D01*
X3062589.0Y3815340.0D01*
X3066958.0Y3815544.0D01*
X3071073.0Y3813969.0D01*
X3074121.0Y3810819.0D01*
X3075543.0Y3806654.0D01*
X3076204.0Y3800608.0D01*
X3078134.0Y3795173.0D01*
X3081182.0Y3790245.0D01*
X3085297.0Y3786181.0D01*
X3090174.0Y3783133.0D01*
X3095660.0Y3781254.0D01*
X3101959.0Y3780441.0D01*
X3278642.0Y3780441.0D01*
X3284941.0Y3781254.0D01*
X3290427.0Y3783133.0D01*
X3295304.0Y3786181.0D01*
X3299419.0Y3790245.0D01*
X3302467.0Y3795173.0D01*
X3304397.0Y3800608.0D01*
X3305058.0Y3806654.0D01*
X3306480.0Y3810819.0D01*
X3309528.0Y3813969.0D01*
X3313643.0Y3815544.0D01*
X3318012.0Y3815340.0D01*
X3321872.0Y3813156.0D01*
X3325835.0Y3809651.0D01*
X3337366.0Y3801980.0D01*
X3349762.0Y3795884.0D01*
X3362919.0Y3791464.0D01*
X3376482.0Y3788670.0D01*
X3390300.0Y3787807.0D01*
X3404118.0Y3788670.0D01*
X3417681.0Y3791464.0D01*
X3430838.0Y3795884.0D01*
X3443234.0Y3801980.0D01*
X3454765.0Y3809651.0D01*
X3465687.0Y3819303.0D01*
X3469345.0Y3821284.0D01*
X3471885.0Y3821538.0D01*
X3472342.0Y3825856.0D01*
X3474323.0Y3829209.0D01*
X3481994.0Y3840791.0D01*
X3488141.0Y3853136.0D01*
X3492561.0Y3866242.0D01*
X3495253.0Y3879907.0D01*
X3496167.0Y3893674.0D01*
X3495253.0Y3907492.0D01*
X3492561.0Y3921106.0D01*
X3488141.0Y3934212.0D01*
X3481994.0Y3946608.0D01*
X3474272.0Y3958190.0D01*
X3472342.0Y3961492.0D01*
X3471885.0Y3965861.0D01*
X3469345.0Y3966064.0D01*
X3465687.0Y3968096.0D01*
X3454765.0Y3977697.0D01*
X3443234.0Y3985419.0D01*
X3430838.0Y3991515.0D01*
X3417681.0Y3995934.0D01*
X3404118.0Y3998678.0D01*
X3390300.0Y3999592.0D01*
X3381207.0Y3999033.0D01*
X3377143.0Y3999592.0D01*
X3373688.0Y4001624.0D01*
X3371301.0Y4004977.0D01*
X3370386.0Y4008888.0D01*
X3371098.0Y4012902.0D01*
X3373333.0Y4016305.0D01*
X3437036.0Y4079958.0D01*
X3440846.0Y4084682.0D01*
X3443335.0Y4089965.0D01*
X3444605.0Y4095502.0D01*
X3444808.0Y4100887.0D01*
X3445672.0Y4104646.0D01*
X3447907.0Y4107847.0D01*
X3451158.0Y4109980.0D01*
X3454968.0Y4110641.0D01*
X4394565.0Y4110641.0D01*
X4398426.0Y4109930.0D01*
X4401728.0Y4107694.0D01*
X4723495.0Y3785927.0D01*
X4725730.0Y3782676.0D01*
X4726492.0Y3778764.0D01*
X4726492.0Y3654559.0D01*
X4727204.0Y3648209.0D01*
X4729134.0Y3642774.0D01*
X4732182.0Y3637846.0D01*
X4736297.0Y3633782.0D01*
X4741174.0Y3630734.0D01*
X4746660.0Y3628854.0D01*
X4752146.0Y3628143.0D01*
X4755296.0Y3627330.0D01*
X4758039.0Y3625451.0D01*
X4760020.0Y3622809.0D01*
X4808839.0Y3622809.0D01*
X4811074.0Y3625603.0D01*
X4814173.0Y3627432.0D01*
X4817729.0Y3628042.0D01*
X4863703.0Y3628042.0D01*
X4867208.0Y3627432.0D01*
X4870307.0Y3625603.0D01*
X4872593.0Y3622809.0D01*
X4899212.0Y3622809.0D01*
X4903124.0Y3622047.0D01*
X4906375.0Y3619863.0D01*
X4924409.0Y3601880.0D01*
X4926644.0Y3598578.0D01*
X4927406.0Y3593701.0D01*
X4926644.0Y3589789.0D01*
X4924409.0Y3586487.0D01*
X4921107.0Y3584354.0D01*
X4917246.0Y3583541.0D01*
X4873863.0Y3583541.0D01*
X4873863.0Y3580645.0D01*
X4873203.0Y3577089.0D01*
X4871323.0Y3573940.0D01*
X4868428.0Y3571704.0D01*
X4864973.0Y3570638.0D01*
X4861316.0Y3570790.0D01*
X4851003.0Y3573228.0D01*
X4840284.0Y3574143.0D01*
X4817729.0Y3574143.0D01*
X4813970.0Y3574803.0D01*
X4810770.0Y3576835.0D01*
X4808534.0Y3579934.0D01*
X4807569.0Y3583541.0D01*
X4761189.0Y3583541.0D01*
X4760224.0Y3579934.0D01*
X4757938.0Y3576835.0D01*
X4754737.0Y3574803.0D01*
X4751029.0Y3574143.0D01*
X4650292.0Y3574143.0D01*
X4646432.0Y3574854.0D01*
X4643130.0Y3577089.0D01*
X4473661.0Y3746558.0D01*
X4471476.0Y3749809.0D01*
X4470714.0Y3753670.0D01*
X4470714.0Y3890829.0D01*
X4470003.0Y3897128.0D01*
X4468073.0Y3902564.0D01*
X4465025.0Y3907492.0D01*
X4460910.0Y3911606.0D01*
X4456033.0Y3914654.0D01*
X4450547.0Y3916585.0D01*
X4444248.0Y3917296.0D01*
X4095353.0Y3917296.0D01*
X4089054.0Y3916585.0D01*
X4083568.0Y3914654.0D01*
X4078691.0Y3911606.0D01*
X4074576.0Y3907492.0D01*
X4071528.0Y3902564.0D01*
X4069598.0Y3897128.0D01*
X4068886.0Y3890829.0D01*
X4068886.0Y3656947.0D01*
X4069598.0Y3650648.0D01*
X4071528.0Y3645161.0D01*
X4074576.0Y3640284.0D01*
X4078691.0Y3636170.0D01*
X4083568.0Y3633071.0D01*
X4089054.0Y3631242.0D01*
X4095353.0Y3630480.0D01*
X4399086.0Y3630480.0D01*
X4402998.0Y3629769.0D01*
X4406300.0Y3627483.0D01*
X4571908.0Y3461875.0D01*
X4580087.0Y3454915.0D01*
X4588875.0Y3449530.0D01*
X4598426.0Y3445568.0D01*
X4608484.0Y3443180.0D01*
X4619203.0Y3442266.0D01*
X4838811.0Y3442266.0D01*
X4842672.0Y3441504.0D01*
X4845974.0Y3439320.0D01*
X4848209.0Y3436018.0D01*
X4848971.0Y3432106.0D01*
X4848209.0Y3428245.0D01*
X4845974.0Y3424943.0D01*
X4804470.0Y3383389.0D01*
X4801168.0Y3381204.0D01*
X4797308.0Y3380442.0D01*
X4748743.0Y3380442.0D01*
X4742393.0Y3379731.0D01*
X4736957.0Y3377801.0D01*
X4732080.0Y3374804.0D01*
X4727966.0Y3370638.0D01*
X4724867.0Y3365761.0D01*
X4722987.0Y3360275.0D01*
X4722276.0Y3353976.0D01*
X4722276.0Y3217374.0D01*
X4722987.0Y3211126.0D01*
X4724867.0Y3205589.0D01*
X4727966.0Y3200712.0D01*
X4732080.0Y3196597.0D01*
X4736957.0Y3193600.0D01*
X4742393.0Y3191670.0D01*
X4748743.0Y3190908.0D01*
X4860858.0Y3190908.0D01*
X4867158.0Y3191670.0D01*
X4872644.0Y3193600.0D01*
X4877521.0Y3196597.0D01*
X4881636.0Y3200712.0D01*
X4884684.0Y3205589.0D01*
X4886614.0Y3211126.0D01*
X4887325.0Y3217374.0D01*
X4887325.0Y3346407.0D01*
X4888087.0Y3350216.0D01*
X4890322.0Y3353518.0D01*
X4905766.0Y3368962.0D01*
X4909220.0Y3371248.0D01*
X4913284.0Y3371959.0D01*
X4917348.0Y3370943.0D01*
X4920650.0Y3368454.0D01*
X4922631.0Y3364796.0D01*
X4923038.0Y3360681.0D01*
X4922276.0Y3353976.0D01*
X4922276.0Y3217374.0D01*
X4922987.0Y3211126.0D01*
X4924917.0Y3205589.0D01*
X4927965.0Y3200712.0D01*
X4932080.0Y3196597.0D01*
X4936957.0Y3193600.0D01*
X4942443.0Y3191670.0D01*
X4948742.0Y3190908.0D01*
X5060858.0Y3190908.0D01*
X5067208.0Y3191670.0D01*
X5072644.0Y3193600.0D01*
X5077521.0Y3196597.0D01*
X5081635.0Y3200712.0D01*
X5084734.0Y3205589.0D01*
X5086614.0Y3211126.0D01*
X5087325.0Y3217374.0D01*
X5087325.0Y3291847.0D01*
X5088138.0Y3295759.0D01*
X5090322.0Y3299112.0D01*
X5225450.0Y3434189.0D01*
X5230886.0Y3440793.0D01*
X5234645.0Y3447854.0D01*
X5236982.0Y3455525.0D01*
X5237337.0Y3459030.0D01*
X5238658.0Y3463246.0D01*
X5241655.0Y3466396.0D01*
X5245719.0Y3468123.0D01*
X5250088.0Y3467818.0D01*
X5254000.0Y3465786.0D01*
X5256641.0Y3462332.0D01*
X5257606.0Y3458014.0D01*
X5257606.0Y3217832.0D01*
X5256844.0Y3213971.0D01*
X5254609.0Y3210720.0D01*
X5067716.0Y3023776.0D01*
X5064414.0Y3021591.0D01*
X5060502.0Y3020778.0D01*
X5056642.0Y3021591.0D01*
X5053340.0Y3023776.0D01*
X5051155.0Y3027078.0D01*
X5050342.0Y3030989.0D01*
X5050342.0Y3098858.0D01*
X5049631.0Y3105208.0D01*
X5047752.0Y3110644.0D01*
X5044653.0Y3115520.0D01*
X5040589.0Y3119635.0D01*
X5035661.0Y3122734.0D01*
X5030226.0Y3124664.0D01*
X5023876.0Y3125325.0D01*
X4887325.0Y3125325.0D01*
X4880975.0Y3124664.0D01*
X4875540.0Y3122734.0D01*
X4870612.0Y3119635.0D01*
X4866548.0Y3115520.0D01*
X4865227.0Y3113488.0D01*
X4862992.0Y3110898.0D01*
X4859995.0Y3109272.0D01*
X4856642.0Y3108662.0D01*
X4763881.0Y3108662.0D01*
X4753213.0Y3107850.0D01*
X4743155.0Y3105411.0D01*
X4733604.0Y3101449.0D01*
X4724765.0Y3096064.0D01*
X4716637.0Y3089104.0D01*
X4679299.0Y3051868.0D01*
X4676150.0Y3049633.0D01*
X4672390.0Y3048820.0D01*
X4668631.0Y3049480.0D01*
X4665380.0Y3051462.0D01*
X4566218.0Y3140108.0D01*
X4476963.0Y3218187.0D01*
X4474423.0Y3221642.0D01*
X4473508.0Y3225858.0D01*
X4473508.0Y3323191.0D01*
X4472797.0Y3329541.0D01*
X4470867.0Y3334976.0D01*
X4467819.0Y3339904.0D01*
X4463704.0Y3344019.0D01*
X4458827.0Y3347067.0D01*
X4453341.0Y3348946.0D01*
X4447042.0Y3349658.0D01*
X4067007.0Y3349658.0D01*
X4062384.0Y3349353.0D01*
X4056694.0Y3347626.0D01*
X4051157.0Y3344578.0D01*
X3273562.0Y2792737.0D01*
X3270768.0Y2791366.0D01*
X3267720.0Y2790858.0D01*
G37*

%LPC*%
G36*
X2718927.0Y3731216.0D02*
G01*
X2718927.0Y3812343.0D01*
X2653446.0Y3812343.0D01*
X2657561.0Y3799033.0D01*
X2663809.0Y3785165.0D01*
X2671683.0Y3772160.0D01*
X2681081.0Y3760223.0D01*
X2691800.0Y3749504.0D01*
X2703789.0Y3740106.0D01*
X2716794.0Y3732182.0D01*
G37*
G36*
X3548948.0Y3731216.0D02*
G01*
X3548948.0Y3812343.0D01*
X3483467.0Y3812343.0D01*
X3487582.0Y3799033.0D01*
X3493830.0Y3785165.0D01*
X3501704.0Y3772160.0D01*
X3511102.0Y3760223.0D01*
X3521821.0Y3749504.0D01*
X3533810.0Y3740106.0D01*
X3546815.0Y3732182.0D01*
G37*
G36*
X3661674.0Y3731216.0D02*
G01*
X3663807.0Y3732182.0D01*
X3676812.0Y3740106.0D01*
X3688801.0Y3749504.0D01*
X3699520.0Y3760223.0D01*
X3708918.0Y3772160.0D01*
X3716792.0Y3785165.0D01*
X3723040.0Y3799033.0D01*
X3727155.0Y3812343.0D01*
X3661674.0Y3812343.0D01*
G37*
G36*
X2831652.0Y3731216.0D02*
G01*
X2833786.0Y3732182.0D01*
X2846791.0Y3740106.0D01*
X2858780.0Y3749504.0D01*
X2869498.0Y3760223.0D01*
X2878896.0Y3772160.0D01*
X2886770.0Y3785165.0D01*
X2893019.0Y3799033.0D01*
X2897134.0Y3812343.0D01*
X2831652.0Y3812343.0D01*
G37*
G36*
X3661674.0Y3975056.0D02*
G01*
X3727155.0Y3975056.0D01*
X3723040.0Y3988365.0D01*
X3716792.0Y4002183.0D01*
X3708918.0Y4015238.0D01*
X3699520.0Y4027176.0D01*
X3688801.0Y4037895.0D01*
X3676812.0Y4047293.0D01*
X3663807.0Y4055218.0D01*
X3661674.0Y4056183.0D01*
G37*
G36*
X3483467.0Y3975056.0D02*
G01*
X3548948.0Y3975056.0D01*
X3548948.0Y4056183.0D01*
X3546815.0Y4055218.0D01*
X3533810.0Y4047293.0D01*
X3521821.0Y4037895.0D01*
X3511102.0Y4027176.0D01*
X3501704.0Y4015238.0D01*
X3493830.0Y4002183.0D01*
X3487582.0Y3988365.0D01*
G37*
G36*
X2653446.0Y3975056.0D02*
G01*
X2718927.0Y3975056.0D01*
X2718927.0Y4056183.0D01*
X2716794.0Y4055218.0D01*
X2703789.0Y4047293.0D01*
X2691800.0Y4037895.0D01*
X2681081.0Y4027176.0D01*
X2671683.0Y4015238.0D01*
X2663809.0Y4002183.0D01*
X2657561.0Y3988365.0D01*
G37*
G36*
X2831652.0Y3975056.0D02*
G01*
X2897134.0Y3975056.0D01*
X2893019.0Y3988365.0D01*
X2886770.0Y4002183.0D01*
X2878896.0Y4015238.0D01*
X2869498.0Y4027176.0D01*
X2858780.0Y4037895.0D01*
X2846791.0Y4047293.0D01*
X2833786.0Y4055218.0D01*
X2831652.0Y4056183.0D01*
G37*
G36*
X2560838.0Y4328217.0D02*
G01*
X2603916.0Y4328217.0D01*
X2610266.0Y4328878.0D01*
X2615702.0Y4330808.0D01*
X2620629.0Y4333856.0D01*
X2624693.0Y4338022.0D01*
X2627792.0Y4342898.0D01*
X2629672.0Y4348334.0D01*
X2630434.0Y4354684.0D01*
X2630434.0Y4397712.0D01*
X2560838.0Y4397712.0D01*
G37*
G36*
X3223625.0Y4382624.0D02*
G01*
X3251108.0Y4382624.0D01*
X3251108.0Y4430528.0D01*
X3197158.0Y4430528.0D01*
X3197158.0Y4409142.0D01*
X3197870.0Y4402792.0D01*
X3199749.0Y4397356.0D01*
X3202848.0Y4392428.0D01*
X3206912.0Y4388415.0D01*
X3211840.0Y4385266.0D01*
X3217275.0Y4383335.0D01*
G37*
G36*
X3332693.0Y4382624.0D02*
G01*
X3360176.0Y4382624.0D01*
X3366526.0Y4383335.0D01*
X3371961.0Y4385266.0D01*
X3376889.0Y4388415.0D01*
X3380953.0Y4392428.0D01*
X3384052.0Y4397356.0D01*
X3385931.0Y4402792.0D01*
X3386643.0Y4409142.0D01*
X3386643.0Y4430528.0D01*
X3332693.0Y4430528.0D01*
G37*
G36*
X3332693.0Y4499820.0D02*
G01*
X3386643.0Y4499820.0D01*
X3386643.0Y4521257.0D01*
X3385931.0Y4527607.0D01*
X3384052.0Y4533043.0D01*
X3380953.0Y4537920.0D01*
X3376889.0Y4542034.0D01*
X3371961.0Y4545133.0D01*
X3366526.0Y4547064.0D01*
X3360176.0Y4547724.0D01*
X3332693.0Y4547724.0D01*
G37*
G36*
X3197158.0Y4499820.0D02*
G01*
X3251108.0Y4499820.0D01*
X3251108.0Y4547724.0D01*
X3223625.0Y4547724.0D01*
X3217275.0Y4547064.0D01*
X3211840.0Y4545133.0D01*
X3206912.0Y4542034.0D01*
X3202848.0Y4537920.0D01*
X3199749.0Y4533043.0D01*
X3197870.0Y4527607.0D01*
X3197158.0Y4521257.0D01*
G37*

%LPD*%
G36*
X4779121.0Y2680063.0D02*
G01*
X4775515.0Y2680774.0D01*
X4772365.0Y2682704.0D01*
X4770130.0Y2685651.0D01*
X4768961.0Y2689664.0D01*
X4769418.0Y2693931.0D01*
X4771501.0Y2697589.0D01*
X4774905.0Y2700078.0D01*
X4779070.0Y2700942.0D01*
X4789942.0Y2700942.0D01*
X4796241.0Y2701754.0D01*
X4801727.0Y2703634.0D01*
X4806604.0Y2706682.0D01*
X4810719.0Y2710746.0D01*
X4813767.0Y2715674.0D01*
X4815697.0Y2721109.0D01*
X4816408.0Y2727459.0D01*
X4816408.0Y2904243.0D01*
X4816002.0Y2908866.0D01*
X4814376.0Y2914606.0D01*
X4811582.0Y2919636.0D01*
X4807366.0Y2924411.0D01*
X4778918.0Y2949862.0D01*
X4776480.0Y2953113.0D01*
X4775515.0Y2957126.0D01*
X4776226.0Y2961139.0D01*
X4778512.0Y2964543.0D01*
X4787808.0Y2973890.0D01*
X4791110.0Y2976074.0D01*
X4795022.0Y2976887.0D01*
X4856642.0Y2976887.0D01*
X4859995.0Y2976278.0D01*
X4862992.0Y2974703.0D01*
X4865227.0Y2972112.0D01*
X4866548.0Y2970029.0D01*
X4870612.0Y2966016.0D01*
X4875540.0Y2962866.0D01*
X4880975.0Y2960936.0D01*
X4887325.0Y2960225.0D01*
X4979680.0Y2960225.0D01*
X4983540.0Y2959463.0D01*
X4986842.0Y2957278.0D01*
X4989078.0Y2953976.0D01*
X4989840.0Y2950065.0D01*
X4989078.0Y2946204.0D01*
X4986842.0Y2942953.0D01*
X4972212.0Y2928322.0D01*
X4968910.0Y2926087.0D01*
X4965049.0Y2925376.0D01*
X4887325.0Y2925376.0D01*
X4880975.0Y2924614.0D01*
X4875540.0Y2922684.0D01*
X4870612.0Y2919585.0D01*
X4866548.0Y2915521.0D01*
X4863449.0Y2910593.0D01*
X4861570.0Y2905158.0D01*
X4860858.0Y2898808.0D01*
X4860858.0Y2786743.0D01*
X4861570.0Y2780393.0D01*
X4863449.0Y2774957.0D01*
X4866548.0Y2770081.0D01*
X4870612.0Y2765915.0D01*
X4875540.0Y2762867.0D01*
X4884430.0Y2759819.0D01*
X4887224.0Y2757533.0D01*
X4889052.0Y2754485.0D01*
X4889713.0Y2750878.0D01*
X4889713.0Y2690223.0D01*
X4888900.0Y2686362.0D01*
X4886716.0Y2683111.0D01*
X4883414.0Y2680876.0D01*
X4879553.0Y2680063.0D01*
G37*

%LPD*%
G36*
X5417372.0Y2420983.0D02*
G01*
X5413562.0Y2421796.0D01*
X5410260.0Y2423929.0D01*
X5408024.0Y2427231.0D01*
X5407262.0Y2431041.0D01*
X5400963.0Y2899163.0D01*
X5401674.0Y2902973.0D01*
X5403706.0Y2906326.0D01*
X5406856.0Y2908510.0D01*
X5410666.0Y2909476.0D01*
X5414476.0Y2908917.0D01*
X5420216.0Y2906885.0D01*
X5426566.0Y2906174.0D01*
X5447140.0Y2906174.0D01*
X5447140.0Y2940718.0D01*
X5410412.0Y2940718.0D01*
X5406602.0Y2941531.0D01*
X5403300.0Y2943664.0D01*
X5401065.0Y2946966.0D01*
X5400252.0Y2950776.0D01*
X5399998.0Y2973128.0D01*
X5400709.0Y2977040.0D01*
X5402894.0Y2980392.0D01*
X5406196.0Y2982628.0D01*
X5410158.0Y2983491.0D01*
X5447140.0Y2983491.0D01*
X5447140.0Y2991010.0D01*
X5447902.0Y2994870.0D01*
X5450138.0Y2998223.0D01*
X5453389.0Y3000408.0D01*
X5457300.0Y3001170.0D01*
X5504697.0Y3001170.0D01*
X5508558.0Y3000408.0D01*
X5511860.0Y2998223.0D01*
X5514044.0Y2994870.0D01*
X5514857.0Y2991010.0D01*
X5514857.0Y2983491.0D01*
X5561898.0Y2983491.0D01*
X5561898.0Y2991518.0D01*
X5561186.0Y2997817.0D01*
X5559256.0Y3003303.0D01*
X5557325.0Y3007672.0D01*
X5557325.0Y3011482.0D01*
X5559256.0Y3015851.0D01*
X5561186.0Y3021337.0D01*
X5561898.0Y3027636.0D01*
X5561898.0Y3086564.0D01*
X5561186.0Y3092813.0D01*
X5559256.0Y3098350.0D01*
X5557325.0Y3102719.0D01*
X5557325.0Y3106427.0D01*
X5559256.0Y3110847.0D01*
X5561186.0Y3116282.0D01*
X5561898.0Y3122632.0D01*
X5561898.0Y3181510.0D01*
X5561186.0Y3187809.0D01*
X5559256.0Y3193295.0D01*
X5556208.0Y3198172.0D01*
X5553109.0Y3201271.0D01*
X5550874.0Y3204573.0D01*
X5550112.0Y3208434.0D01*
X5550874.0Y3212345.0D01*
X5553109.0Y3215647.0D01*
X5566470.0Y3229008.0D01*
X5569772.0Y3231243.0D01*
X5573632.0Y3232005.0D01*
X6064767.0Y3232005.0D01*
X6068628.0Y3231243.0D01*
X6071930.0Y3229008.0D01*
X6079042.0Y3221946.0D01*
X6081226.0Y3218644.0D01*
X6081988.0Y3214733.0D01*
X6081226.0Y3210872.0D01*
X6079042.0Y3207570.0D01*
X6075740.0Y3205335.0D01*
X6071828.0Y3204573.0D01*
X5994155.0Y3204573.0D01*
X5987856.0Y3203862.0D01*
X5982369.0Y3201982.0D01*
X5977492.0Y3198934.0D01*
X5974546.0Y3195988.0D01*
X5971244.0Y3193752.0D01*
X5967383.0Y3193041.0D01*
X5835100.0Y3193041.0D01*
X5831747.0Y3193600.0D01*
X5828750.0Y3195175.0D01*
X5826210.0Y3198172.0D01*
X5822146.0Y3202338.0D01*
X5817218.0Y3205335.0D01*
X5811783.0Y3207316.0D01*
X5805433.0Y3207976.0D01*
X5696568.0Y3207976.0D01*
X5690269.0Y3207316.0D01*
X5684783.0Y3205335.0D01*
X5679906.0Y3202338.0D01*
X5675791.0Y3198172.0D01*
X5672743.0Y3193295.0D01*
X5670813.0Y3187809.0D01*
X5670102.0Y3181510.0D01*
X5670102.0Y3122632.0D01*
X5670813.0Y3116282.0D01*
X5672743.0Y3110847.0D01*
X5674674.0Y3106427.0D01*
X5674674.0Y3102719.0D01*
X5672743.0Y3098350.0D01*
X5670813.0Y3092813.0D01*
X5670102.0Y3086564.0D01*
X5670102.0Y3027636.0D01*
X5670813.0Y3021337.0D01*
X5672743.0Y3015851.0D01*
X5674674.0Y3011482.0D01*
X5674674.0Y3007672.0D01*
X5672743.0Y3003303.0D01*
X5670813.0Y2997817.0D01*
X5670102.0Y2991518.0D01*
X5670102.0Y2932691.0D01*
X5670813.0Y2926392.0D01*
X5672743.0Y2920855.0D01*
X5675791.0Y2915978.0D01*
X5679906.0Y2911863.0D01*
X5684783.0Y2908866.0D01*
X5690269.0Y2906885.0D01*
X5696568.0Y2906174.0D01*
X5805433.0Y2906174.0D01*
X5811783.0Y2906885.0D01*
X5817218.0Y2908866.0D01*
X5822146.0Y2911863.0D01*
X5828750.0Y2919026.0D01*
X5831747.0Y2920601.0D01*
X5835100.0Y2921160.0D01*
X5967383.0Y2921160.0D01*
X5971244.0Y2920398.0D01*
X5974546.0Y2918213.0D01*
X5977492.0Y2915267.0D01*
X5982369.0Y2912219.0D01*
X5987856.0Y2910339.0D01*
X5994155.0Y2909577.0D01*
X6059230.0Y2909577.0D01*
X6063090.0Y2908866.0D01*
X6066392.0Y2906580.0D01*
X6068577.0Y2903278.0D01*
X6069390.0Y2899468.0D01*
X6068577.0Y2895556.0D01*
X6066392.0Y2892254.0D01*
X5851966.0Y2677828.0D01*
X5849172.0Y2675846.0D01*
X5845920.0Y2674881.0D01*
X5842517.0Y2675034.0D01*
X5839367.0Y2676354.0D01*
X5834643.0Y2679301.0D01*
X5829207.0Y2681231.0D01*
X5822857.0Y2681942.0D01*
X5710742.0Y2681942.0D01*
X5704442.0Y2681231.0D01*
X5698956.0Y2679301.0D01*
X5694079.0Y2676304.0D01*
X5689964.0Y2672138.0D01*
X5686916.0Y2667261.0D01*
X5684986.0Y2661775.0D01*
X5684275.0Y2655476.0D01*
X5684275.0Y2518874.0D01*
X5684986.0Y2512626.0D01*
X5686916.0Y2507089.0D01*
X5689964.0Y2502212.0D01*
X5694079.0Y2498097.0D01*
X5698956.0Y2495100.0D01*
X5704442.0Y2493170.0D01*
X5710742.0Y2492408.0D01*
X5822857.0Y2492408.0D01*
X5829207.0Y2493170.0D01*
X5834643.0Y2495100.0D01*
X5839520.0Y2498097.0D01*
X5843634.0Y2502212.0D01*
X5846733.0Y2507089.0D01*
X5848613.0Y2512626.0D01*
X5849324.0Y2518874.0D01*
X5849324.0Y2555247.0D01*
X5850137.0Y2559159.0D01*
X5852321.0Y2562512.0D01*
X6190649.0Y2900789.0D01*
X6196085.0Y2907393.0D01*
X6196898.0Y2908968.0D01*
X6199590.0Y2912168.0D01*
X6203248.0Y2913997.0D01*
X6207413.0Y2914251.0D01*
X6212188.0Y2912219.0D01*
X6217624.0Y2910339.0D01*
X6223974.0Y2909577.0D01*
X6330044.0Y2909577.0D01*
X6336344.0Y2910339.0D01*
X6341830.0Y2912219.0D01*
X6346707.0Y2915267.0D01*
X6350822.0Y2919382.0D01*
X6353870.0Y2924258.0D01*
X6355800.0Y2929796.0D01*
X6356511.0Y2936044.0D01*
X6356511.0Y2988114.0D01*
X6355800.0Y2994413.0D01*
X6351990.0Y3004624.0D01*
X6352295.0Y3008993.0D01*
X6354378.0Y3012701.0D01*
X6357832.0Y3015292.0D01*
X6362048.0Y3016206.0D01*
X6654098.0Y3016206.0D01*
X6657958.0Y3015394.0D01*
X6661260.0Y3013209.0D01*
X6663445.0Y3009958.0D01*
X6664258.0Y3006046.0D01*
X6664258.0Y2948642.0D01*
X6664969.0Y2942292.0D01*
X6666848.0Y2936857.0D01*
X6669947.0Y2931929.0D01*
X6674011.0Y2927916.0D01*
X6678939.0Y2924766.0D01*
X6684374.0Y2922836.0D01*
X6690724.0Y2922125.0D01*
X6827275.0Y2922125.0D01*
X6833625.0Y2922836.0D01*
X6839060.0Y2924766.0D01*
X6843988.0Y2927916.0D01*
X6848052.0Y2931929.0D01*
X6851151.0Y2936857.0D01*
X6853030.0Y2942292.0D01*
X6853742.0Y2948642.0D01*
X6853742.0Y3060758.0D01*
X6853030.0Y3067108.0D01*
X6851151.0Y3072544.0D01*
X6848052.0Y3077420.0D01*
X6843988.0Y3081535.0D01*
X6839060.0Y3084634.0D01*
X6833625.0Y3086564.0D01*
X6827275.0Y3087225.0D01*
X6810054.0Y3087225.0D01*
X6806193.0Y3088038.0D01*
X6802891.0Y3090171.0D01*
X6800706.0Y3093473.0D01*
X6799894.0Y3097385.0D01*
X6799894.0Y3258319.0D01*
X6800706.0Y3262180.0D01*
X6802891.0Y3265482.0D01*
X6806193.0Y3267768.0D01*
X6810054.0Y3268479.0D01*
X6814626.0Y3268479.0D01*
X6820976.0Y3269241.0D01*
X6826411.0Y3271070.0D01*
X6831339.0Y3274220.0D01*
X6835403.0Y3278284.0D01*
X6838502.0Y3283160.0D01*
X6840381.0Y3288647.0D01*
X6841092.0Y3294946.0D01*
X6841092.0Y3428804.0D01*
X6840381.0Y3435103.0D01*
X6838502.0Y3440590.0D01*
X6835403.0Y3445466.0D01*
X6831339.0Y3449581.0D01*
X6826411.0Y3452680.0D01*
X6820976.0Y3454560.0D01*
X6814626.0Y3455271.0D01*
X6674773.0Y3455271.0D01*
X6668474.0Y3454560.0D01*
X6662988.0Y3452680.0D01*
X6658111.0Y3449581.0D01*
X6653996.0Y3445466.0D01*
X6650491.0Y3441453.0D01*
X6646732.0Y3439828.0D01*
X6642668.0Y3439828.0D01*
X6638908.0Y3441453.0D01*
X6635403.0Y3445466.0D01*
X6631288.0Y3449581.0D01*
X6626412.0Y3452680.0D01*
X6620925.0Y3454560.0D01*
X6614626.0Y3455271.0D01*
X6474774.0Y3455271.0D01*
X6468424.0Y3454560.0D01*
X6462988.0Y3452680.0D01*
X6458060.0Y3449581.0D01*
X6453996.0Y3445466.0D01*
X6450898.0Y3440590.0D01*
X6449018.0Y3435103.0D01*
X6448307.0Y3428804.0D01*
X6448307.0Y3327509.0D01*
X6447494.0Y3323648.0D01*
X6445310.0Y3320346.0D01*
X6332534.0Y3207570.0D01*
X6329232.0Y3205335.0D01*
X6325371.0Y3204573.0D01*
X6223974.0Y3204573.0D01*
X6218132.0Y3203912.0D01*
X6215084.0Y3204065.0D01*
X6212239.0Y3205030.0D01*
X6209801.0Y3206859.0D01*
X6151228.0Y3265431.0D01*
X6148993.0Y3268784.0D01*
X6148231.0Y3272696.0D01*
X6148993.0Y3276557.0D01*
X6151228.0Y3279808.0D01*
X6154480.0Y3282043.0D01*
X6158391.0Y3282805.0D01*
X6225295.0Y3282805.0D01*
X6231035.0Y3283160.0D01*
X6233423.0Y3283567.0D01*
X6238858.0Y3284989.0D01*
X6246123.0Y3288393.0D01*
X6248206.0Y3289612.0D01*
X6252625.0Y3293016.0D01*
X6258112.0Y3298858.0D01*
X6259534.0Y3300839.0D01*
X6262328.0Y3305716.0D01*
X6263344.0Y3307951.0D01*
X6265122.0Y3313234.0D01*
X6265681.0Y3315571.0D01*
X6266443.0Y3321311.0D01*
X6269237.0Y3363323.0D01*
X6270202.0Y3367031.0D01*
X6272437.0Y3370028.0D01*
X6275637.0Y3372060.0D01*
X6279346.0Y3372822.0D01*
X6280768.0Y3372518.0D01*
X6280768.0Y3432258.0D01*
X6277873.0Y3434494.0D01*
X6275993.0Y3437643.0D01*
X6275333.0Y3441301.0D01*
X6275333.0Y3516739.0D01*
X6275993.0Y3520346.0D01*
X6277873.0Y3523444.0D01*
X6280768.0Y3525781.0D01*
X6280768.0Y3570841.0D01*
X6270659.0Y3570841.0D01*
X6267052.0Y3571501.0D01*
X6263852.0Y3573482.0D01*
X6257553.0Y3579172.0D01*
X6250847.0Y3583388.0D01*
X6243278.0Y3586284.0D01*
X6235252.0Y3587808.0D01*
X6227124.0Y3587808.0D01*
X6224380.0Y3587300.0D01*
X6219961.0Y3587402.0D01*
X6215998.0Y3589383.0D01*
X6213306.0Y3592888.0D01*
X6212341.0Y3597206.0D01*
X6212341.0Y3648209.0D01*
X6147774.0Y3648209.0D01*
X6147774.0Y3617628.0D01*
X6148485.0Y3611328.0D01*
X6150416.0Y3605893.0D01*
X6152295.0Y3602946.0D01*
X6153718.0Y3605029.0D01*
X6157019.0Y3607315.0D01*
X6160931.0Y3608026.0D01*
X6171498.0Y3608026.0D01*
X6175358.0Y3607315.0D01*
X6178660.0Y3605029.0D01*
X6180896.0Y3601727.0D01*
X6181658.0Y3597866.0D01*
X6181658.0Y3525781.0D01*
X6184553.0Y3523444.0D01*
X6186433.0Y3520346.0D01*
X6187093.0Y3516739.0D01*
X6187093.0Y3441301.0D01*
X6186433.0Y3437643.0D01*
X6184553.0Y3434494.0D01*
X6181658.0Y3432258.0D01*
X6181658.0Y3374804.0D01*
X6180896.0Y3370943.0D01*
X6178660.0Y3367590.0D01*
X6175358.0Y3365355.0D01*
X6171498.0Y3364593.0D01*
X6160931.0Y3364593.0D01*
X6157019.0Y3365355.0D01*
X6153718.0Y3367590.0D01*
X6151533.0Y3370943.0D01*
X6150771.0Y3374804.0D01*
X6150771.0Y3431090.0D01*
X6122069.0Y3431090.0D01*
X6122069.0Y3414529.0D01*
X6122679.0Y3408382.0D01*
X6122221.0Y3404318.0D01*
X6120139.0Y3400712.0D01*
X6116837.0Y3398273.0D01*
X6112874.0Y3397308.0D01*
X6108810.0Y3398019.0D01*
X6105356.0Y3400254.0D01*
X5999387.0Y3506426.0D01*
X5992783.0Y3511811.0D01*
X5985722.0Y3515621.0D01*
X5978102.0Y3517958.0D01*
X5969618.0Y3518771.0D01*
X5911402.0Y3518771.0D01*
X5907541.0Y3519533.0D01*
X5904239.0Y3521819.0D01*
X5902054.0Y3525070.0D01*
X5901242.0Y3528931.0D01*
X5901242.0Y3533808.0D01*
X5900530.0Y3540158.0D01*
X5898651.0Y3545593.0D01*
X5895552.0Y3550521.0D01*
X5891488.0Y3554585.0D01*
X5886560.0Y3557684.0D01*
X5881125.0Y3559614.0D01*
X5874775.0Y3560376.0D01*
X5738224.0Y3560376.0D01*
X5731874.0Y3559614.0D01*
X5726439.0Y3557684.0D01*
X5721511.0Y3554585.0D01*
X5717447.0Y3550521.0D01*
X5714348.0Y3545593.0D01*
X5712469.0Y3540158.0D01*
X5711758.0Y3533808.0D01*
X5711758.0Y3421743.0D01*
X5712469.0Y3415393.0D01*
X5714348.0Y3409957.0D01*
X5717447.0Y3405080.0D01*
X5721511.0Y3400915.0D01*
X5726439.0Y3397867.0D01*
X5731874.0Y3395936.0D01*
X5738224.0Y3395276.0D01*
X5874775.0Y3395276.0D01*
X5881125.0Y3395936.0D01*
X5886560.0Y3397867.0D01*
X5891488.0Y3400915.0D01*
X5895552.0Y3405080.0D01*
X5898651.0Y3409957.0D01*
X5900530.0Y3415393.0D01*
X5901242.0Y3421743.0D01*
X5901242.0Y3426823.0D01*
X5902054.0Y3430684.0D01*
X5904239.0Y3433986.0D01*
X5907541.0Y3436170.0D01*
X5911402.0Y3436983.0D01*
X5948892.0Y3436983.0D01*
X5952804.0Y3436170.0D01*
X5956106.0Y3433986.0D01*
X6058772.0Y3331166.0D01*
X6060957.0Y3327915.0D01*
X6061719.0Y3324004.0D01*
X6060957.0Y3320143.0D01*
X6058772.0Y3316790.0D01*
X6055470.0Y3314555.0D01*
X6051559.0Y3313793.0D01*
X5553008.0Y3313793.0D01*
X5544524.0Y3312980.0D01*
X5536853.0Y3310643.0D01*
X5529792.0Y3306935.0D01*
X5523239.0Y3301499.0D01*
X5452576.0Y3230786.0D01*
X5447140.0Y3224232.0D01*
X5443381.0Y3217171.0D01*
X5442772.0Y3215190.0D01*
X5440689.0Y3211431.0D01*
X5437234.0Y3208891.0D01*
X5433069.0Y3207976.0D01*
X5426566.0Y3207976.0D01*
X5420216.0Y3207316.0D01*
X5414781.0Y3205335.0D01*
X5412342.0Y3203862.0D01*
X5408329.0Y3202388.0D01*
X5404062.0Y3202642.0D01*
X5400303.0Y3204776.0D01*
X5397712.0Y3208180.0D01*
X5396798.0Y3212294.0D01*
X5378713.0Y4559510.0D01*
X5379475.0Y4563472.0D01*
X5381659.0Y4566774.0D01*
X5384961.0Y4569111.0D01*
X5388873.0Y4569822.0D01*
X5973632.0Y4569822.0D01*
X5977543.0Y4569111.0D01*
X5980794.0Y4566825.0D01*
X5983030.0Y4563574.0D01*
X5983792.0Y4559662.0D01*
X5983792.0Y4364184.0D01*
X5984604.0Y4357681.0D01*
X5985773.0Y4352500.0D01*
X5984909.0Y4348740.0D01*
X5982674.0Y4345489.0D01*
X5979423.0Y4343406.0D01*
X5975613.0Y4342594.0D01*
X5937665.0Y4342594.0D01*
X5933754.0Y4343406.0D01*
X5930502.0Y4345540.0D01*
X5855674.0Y4420368.0D01*
X5853490.0Y4423670.0D01*
X5852728.0Y4427531.0D01*
X5852728.0Y4503325.0D01*
X5851966.0Y4509624.0D01*
X5850086.0Y4515110.0D01*
X5846987.0Y4519987.0D01*
X5842923.0Y4524153.0D01*
X5837996.0Y4527150.0D01*
X5832560.0Y4529080.0D01*
X5826210.0Y4529792.0D01*
X5727353.0Y4529792.0D01*
X5721054.0Y4529080.0D01*
X5715568.0Y4527150.0D01*
X5710691.0Y4524153.0D01*
X5706576.0Y4519987.0D01*
X5703528.0Y4515110.0D01*
X5701598.0Y4509624.0D01*
X5700886.0Y4503325.0D01*
X5700886.0Y4379424.0D01*
X5701598.0Y4373175.0D01*
X5703528.0Y4367638.0D01*
X5706576.0Y4362761.0D01*
X5710691.0Y4358646.0D01*
X5715568.0Y4355649.0D01*
X5721054.0Y4353719.0D01*
X5727353.0Y4352957.0D01*
X5803147.0Y4352957.0D01*
X5807058.0Y4352246.0D01*
X5810360.0Y4350010.0D01*
X5887221.0Y4273150.0D01*
X5893825.0Y4267765.0D01*
X5900886.0Y4263904.0D01*
X5908557.0Y4261618.0D01*
X5916990.0Y4260806.0D01*
X5928115.0Y4260806.0D01*
X5932179.0Y4259942.0D01*
X5935582.0Y4257504.0D01*
X5937716.0Y4253897.0D01*
X5938224.0Y4249731.0D01*
X5937056.0Y4245769.0D01*
X5931925.0Y4236472.0D01*
X5973327.0Y4236472.0D01*
X5973327.0Y4250646.0D01*
X5974140.0Y4254557.0D01*
X5976324.0Y4257808.0D01*
X5979626.0Y4259993.0D01*
X5983487.0Y4260806.0D01*
X6035912.0Y4260806.0D01*
X6039773.0Y4259993.0D01*
X6043075.0Y4257808.0D01*
X6045260.0Y4254557.0D01*
X6046072.0Y4250646.0D01*
X6046072.0Y4236472.0D01*
X6087474.0Y4236472.0D01*
X6082344.0Y4245769.0D01*
X6081175.0Y4249731.0D01*
X6081683.0Y4253897.0D01*
X6083817.0Y4257504.0D01*
X6087220.0Y4259942.0D01*
X6091284.0Y4260806.0D01*
X6099971.0Y4260806.0D01*
X6103832.0Y4259993.0D01*
X6107134.0Y4257808.0D01*
X6109369.0Y4254557.0D01*
X6110131.0Y4250646.0D01*
X6110131.0Y4232307.0D01*
X6109522.0Y4229309.0D01*
X6110131.0Y4226262.0D01*
X6110131.0Y4173938.0D01*
X6109522.0Y4170839.0D01*
X6110131.0Y4167842.0D01*
X6110131.0Y3920903.0D01*
X6110944.0Y3912368.0D01*
X6113281.0Y3904748.0D01*
X6117040.0Y3897636.0D01*
X6119783.0Y3894334.0D01*
X6121510.0Y3891286.0D01*
X6122069.0Y3887883.0D01*
X6122069.0Y3840791.0D01*
X6122882.0Y3832155.0D01*
X6125117.0Y3824332.0D01*
X6128724.0Y3817068.0D01*
X6133652.0Y3810565.0D01*
X6139646.0Y3805180.0D01*
X6146555.0Y3800812.0D01*
X6149755.0Y3799592.0D01*
X6153057.0Y3797509.0D01*
X6155343.0Y3794258.0D01*
X6156207.0Y3790499.0D01*
X6155597.0Y3786638.0D01*
X6150416.0Y3778307.0D01*
X6148485.0Y3772872.0D01*
X6147774.0Y3766573.0D01*
X6147774.0Y3735941.0D01*
X6212341.0Y3735941.0D01*
X6212341.0Y3786943.0D01*
X6213306.0Y3791261.0D01*
X6215998.0Y3794817.0D01*
X6219961.0Y3796798.0D01*
X6224380.0Y3796900.0D01*
X6227124.0Y3796392.0D01*
X6235252.0Y3796392.0D01*
X6243278.0Y3797916.0D01*
X6250847.0Y3800812.0D01*
X6258366.0Y3805485.0D01*
X6261820.0Y3806806.0D01*
X6265579.0Y3806806.0D01*
X6269034.0Y3805485.0D01*
X6276552.0Y3800812.0D01*
X6284121.0Y3797916.0D01*
X6292148.0Y3796392.0D01*
X6300276.0Y3796392.0D01*
X6303019.0Y3796900.0D01*
X6307438.0Y3796798.0D01*
X6311401.0Y3794817.0D01*
X6314093.0Y3791261.0D01*
X6315058.0Y3786943.0D01*
X6315058.0Y3735941.0D01*
X6379625.0Y3735941.0D01*
X6379625.0Y3766573.0D01*
X6378914.0Y3772872.0D01*
X6376984.0Y3778307.0D01*
X6371802.0Y3786638.0D01*
X6371192.0Y3790499.0D01*
X6372056.0Y3794258.0D01*
X6374342.0Y3797509.0D01*
X6377644.0Y3799592.0D01*
X6380844.0Y3800812.0D01*
X6387753.0Y3805180.0D01*
X6393748.0Y3810565.0D01*
X6398675.0Y3817068.0D01*
X6402282.0Y3824332.0D01*
X6404517.0Y3832155.0D01*
X6405330.0Y3840791.0D01*
X6405330.0Y3856946.0D01*
X6406092.0Y3860857.0D01*
X6408276.0Y3864108.0D01*
X6411578.0Y3866293.0D01*
X6415490.0Y3867106.0D01*
X6563420.0Y3867106.0D01*
X6566976.0Y3866445.0D01*
X6570074.0Y3864566.0D01*
X6579777.0Y3851713.0D01*
X6588464.0Y3843077.0D01*
X6598268.0Y3835711.0D01*
X6609038.0Y3829869.0D01*
X6620519.0Y3825602.0D01*
X6632457.0Y3822960.0D01*
X6644700.0Y3822097.0D01*
X6656942.0Y3822960.0D01*
X6668880.0Y3825602.0D01*
X6680361.0Y3829869.0D01*
X6691131.0Y3835711.0D01*
X6700935.0Y3843077.0D01*
X6709622.0Y3851713.0D01*
X6717090.0Y3861822.0D01*
X6719325.0Y3864566.0D01*
X6722424.0Y3866445.0D01*
X6725980.0Y3867106.0D01*
X6768347.0Y3867106.0D01*
X6772208.0Y3866293.0D01*
X6775510.0Y3864108.0D01*
X6777694.0Y3860857.0D01*
X6778507.0Y3856946.0D01*
X6778507.0Y3841045.0D01*
X6779218.0Y3834746.0D01*
X6781098.0Y3829260.0D01*
X6784196.0Y3824383.0D01*
X6788260.0Y3820319.0D01*
X6793188.0Y3817169.0D01*
X6798624.0Y3815340.0D01*
X6804974.0Y3814578.0D01*
X6944826.0Y3814578.0D01*
X6951125.0Y3815340.0D01*
X6956612.0Y3817169.0D01*
X6961488.0Y3820319.0D01*
X6965603.0Y3824383.0D01*
X6969108.0Y3828396.0D01*
X6972868.0Y3830072.0D01*
X6976932.0Y3830072.0D01*
X6980691.0Y3828396.0D01*
X6984196.0Y3824383.0D01*
X6988311.0Y3820319.0D01*
X6993188.0Y3817169.0D01*
X6998674.0Y3815340.0D01*
X7004973.0Y3814578.0D01*
X7033320.0Y3814578.0D01*
X7033320.0Y3867868.0D01*
X6981453.0Y3867868.0D01*
X6977592.0Y3868680.0D01*
X6974290.0Y3870865.0D01*
X6972055.0Y3874167.0D01*
X6971293.0Y3878028.0D01*
X6971293.0Y3937972.0D01*
X6972055.0Y3941782.0D01*
X6974290.0Y3945084.0D01*
X6977592.0Y3947319.0D01*
X6981453.0Y3948081.0D01*
X7033320.0Y3948081.0D01*
X7033320.0Y4001370.0D01*
X7004973.0Y4001370.0D01*
X6998674.0Y4000659.0D01*
X6993188.0Y3998779.0D01*
X6988311.0Y3995680.0D01*
X6984196.0Y3991566.0D01*
X6980691.0Y3987552.0D01*
X6976932.0Y3985927.0D01*
X6972868.0Y3985927.0D01*
X6969108.0Y3987552.0D01*
X6965603.0Y3991566.0D01*
X6961488.0Y3995680.0D01*
X6956612.0Y3998779.0D01*
X6951125.0Y4000659.0D01*
X6944826.0Y4001370.0D01*
X6804974.0Y4001370.0D01*
X6798624.0Y4000659.0D01*
X6793188.0Y3998779.0D01*
X6788260.0Y3995680.0D01*
X6784196.0Y3991566.0D01*
X6781098.0Y3986689.0D01*
X6779218.0Y3981202.0D01*
X6778507.0Y3974903.0D01*
X6778507.0Y3959054.0D01*
X6777694.0Y3955142.0D01*
X6775510.0Y3951840.0D01*
X6772208.0Y3949706.0D01*
X6768347.0Y3948894.0D01*
X6725980.0Y3948894.0D01*
X6722424.0Y3949503.0D01*
X6719325.0Y3951383.0D01*
X6709622.0Y3964235.0D01*
X6700935.0Y3972871.0D01*
X6691131.0Y3980237.0D01*
X6680361.0Y3986079.0D01*
X6668880.0Y3990397.0D01*
X6656942.0Y3992988.0D01*
X6644700.0Y3993852.0D01*
X6632457.0Y3992988.0D01*
X6620519.0Y3990397.0D01*
X6609038.0Y3986079.0D01*
X6598268.0Y3980237.0D01*
X6588464.0Y3972871.0D01*
X6579777.0Y3964235.0D01*
X6570074.0Y3951383.0D01*
X6566976.0Y3949503.0D01*
X6563420.0Y3948894.0D01*
X6415490.0Y3948894.0D01*
X6411578.0Y3949706.0D01*
X6408276.0Y3951840.0D01*
X6406092.0Y3955142.0D01*
X6405330.0Y3959054.0D01*
X6405330.0Y3969620.0D01*
X6404517.0Y3978154.0D01*
X6402282.0Y3985978.0D01*
X6398675.0Y3993293.0D01*
X6395729.0Y3997154.0D01*
X6394052.0Y4000608.0D01*
X6393748.0Y4004469.0D01*
X6394916.0Y4008126.0D01*
X6397354.0Y4011124.0D01*
X6400758.0Y4012952.0D01*
X6404568.0Y4013410.0D01*
X6416100.0Y4012597.0D01*
X6428342.0Y4013460.0D01*
X6440280.0Y4016102.0D01*
X6451761.0Y4020369.0D01*
X6462531.0Y4026211.0D01*
X6472335.0Y4033577.0D01*
X6481022.0Y4042213.0D01*
X6488337.0Y4052018.0D01*
X6494230.0Y4062787.0D01*
X6498497.0Y4074319.0D01*
X6501088.0Y4086257.0D01*
X6502002.0Y4098449.0D01*
X6501088.0Y4110692.0D01*
X6498650.0Y4122122.0D01*
X6498650.0Y4126389.0D01*
X6500428.0Y4130300.0D01*
X6503679.0Y4133145.0D01*
X6507844.0Y4134415.0D01*
X6512112.0Y4133806.0D01*
X6515769.0Y4131469.0D01*
X6590039.0Y4057199.0D01*
X6596592.0Y4051764.0D01*
X6603653.0Y4047954.0D01*
X6611324.0Y4045617.0D01*
X6619808.0Y4044804.0D01*
X6922017.0Y4044906.0D01*
X6930450.0Y4045718.0D01*
X6938120.0Y4048004.0D01*
X6945182.0Y4051865.0D01*
X6951786.0Y4057250.0D01*
X7034996.0Y4140460.0D01*
X7038298.0Y4142696.0D01*
X7042210.0Y4143407.0D01*
X7130957.0Y4143407.0D01*
X7137307.0Y4144169.0D01*
X7142743.0Y4146099.0D01*
X7147620.0Y4149096.0D01*
X7151734.0Y4153211.0D01*
X7154833.0Y4158088.0D01*
X7156713.0Y4163625.0D01*
X7157424.0Y4169874.0D01*
X7157424.0Y4306475.0D01*
X7156713.0Y4312774.0D01*
X7154833.0Y4318260.0D01*
X7151734.0Y4323137.0D01*
X7147620.0Y4327303.0D01*
X7142743.0Y4330300.0D01*
X7137307.0Y4332230.0D01*
X7130957.0Y4332942.0D01*
X7018842.0Y4332942.0D01*
X7012542.0Y4332230.0D01*
X7007056.0Y4330300.0D01*
X7002179.0Y4327303.0D01*
X6998064.0Y4323137.0D01*
X6995016.0Y4318260.0D01*
X6993086.0Y4312774.0D01*
X6992375.0Y4306475.0D01*
X6992375.0Y4217727.0D01*
X6991613.0Y4213816.0D01*
X6989378.0Y4210564.0D01*
X6974798.0Y4195934.0D01*
X6971496.0Y4193699.0D01*
X6967584.0Y4192988.0D01*
X6963724.0Y4193699.0D01*
X6960422.0Y4195934.0D01*
X6958186.0Y4199185.0D01*
X6957424.0Y4203097.0D01*
X6957424.0Y4306475.0D01*
X6956713.0Y4312774.0D01*
X6954783.0Y4318260.0D01*
X6951735.0Y4323137.0D01*
X6947620.0Y4327303.0D01*
X6942743.0Y4330300.0D01*
X6937257.0Y4332230.0D01*
X6930957.0Y4332942.0D01*
X6842210.0Y4332942.0D01*
X6838298.0Y4333704.0D01*
X6834996.0Y4335888.0D01*
X6777796.0Y4393089.0D01*
X6775611.0Y4396391.0D01*
X6774849.0Y4400302.0D01*
X6774849.0Y4504646.0D01*
X6775611.0Y4508557.0D01*
X6777796.0Y4511808.0D01*
X6781098.0Y4513993.0D01*
X6785009.0Y4514806.0D01*
X7017267.0Y4514806.0D01*
X7021128.0Y4513993.0D01*
X7024430.0Y4511808.0D01*
X7248508.0Y4287780.0D01*
X7250743.0Y4284428.0D01*
X7251506.0Y4280516.0D01*
X7251506.0Y3891083.0D01*
X7250743.0Y3887172.0D01*
X7248508.0Y3883819.0D01*
X7186583.0Y3821893.0D01*
X7183332.0Y3819760.0D01*
X7179573.0Y3818947.0D01*
X7175712.0Y3819608.0D01*
X7172461.0Y3821741.0D01*
X7170175.0Y3824840.0D01*
X7169260.0Y3828650.0D01*
X7169819.0Y3832511.0D01*
X7170581.0Y3834746.0D01*
X7171292.0Y3841045.0D01*
X7171292.0Y3867868.0D01*
X7116479.0Y3867868.0D01*
X7116479.0Y3814578.0D01*
X7144825.0Y3814578.0D01*
X7151175.0Y3815340.0D01*
X7153411.0Y3816052.0D01*
X7157272.0Y3816610.0D01*
X7161031.0Y3815696.0D01*
X7164180.0Y3813461.0D01*
X7166263.0Y3810159.0D01*
X7166974.0Y3806349.0D01*
X7166162.0Y3802539.0D01*
X7163977.0Y3799338.0D01*
X7124150.0Y3759461.0D01*
X7118714.0Y3752908.0D01*
X7114955.0Y3745796.0D01*
X7112618.0Y3738176.0D01*
X7111806.0Y3729692.0D01*
X7111806.0Y3719431.0D01*
X7111043.0Y3715570.0D01*
X7108808.0Y3712319.0D01*
X7105506.0Y3710033.0D01*
X7101646.0Y3709271.0D01*
X7058974.0Y3709271.0D01*
X7052624.0Y3708560.0D01*
X7047188.0Y3706680.0D01*
X7042260.0Y3703581.0D01*
X7038196.0Y3699466.0D01*
X7036825.0Y3697333.0D01*
X7034589.0Y3694793.0D01*
X7031592.0Y3693218.0D01*
X7028239.0Y3692558.0D01*
X6492808.0Y3692558.0D01*
X6487372.0Y3692050.0D01*
X6481784.0Y3690322.0D01*
X6476298.0Y3687071.0D01*
X6395881.0Y3626721.0D01*
X6391817.0Y3624943.0D01*
X6387347.0Y3624994.0D01*
X6383334.0Y3626975.0D01*
X6380590.0Y3630531.0D01*
X6379625.0Y3634849.0D01*
X6379625.0Y3648209.0D01*
X6315058.0Y3648209.0D01*
X6315058.0Y3581001.0D01*
X6314144.0Y3576835.0D01*
X6311655.0Y3573432.0D01*
X6311655.0Y3523241.0D01*
X6313382.0Y3520142.0D01*
X6313992.0Y3516739.0D01*
X6313992.0Y3441301.0D01*
X6313382.0Y3437846.0D01*
X6311655.0Y3434748.0D01*
X6311655.0Y3372670.0D01*
X6313788.0Y3373026.0D01*
X6317598.0Y3372213.0D01*
X6320799.0Y3370079.0D01*
X6323796.0Y3367082.0D01*
X6328673.0Y3364034.0D01*
X6334159.0Y3362154.0D01*
X6340458.0Y3361342.0D01*
X6390141.0Y3361342.0D01*
X6396440.0Y3362154.0D01*
X6401926.0Y3364034.0D01*
X6406803.0Y3367082.0D01*
X6410918.0Y3371146.0D01*
X6413966.0Y3376074.0D01*
X6415896.0Y3381509.0D01*
X6416608.0Y3387859.0D01*
X6416608.0Y3455220.0D01*
X6417217.0Y3458776.0D01*
X6418995.0Y3461773.0D01*
X6421738.0Y3464059.0D01*
X6484121.0Y3499721.0D01*
X6486559.0Y3500788.0D01*
X6489201.0Y3501042.0D01*
X6913432.0Y3501042.0D01*
X6917343.0Y3500330.0D01*
X6920594.0Y3498095.0D01*
X6922830.0Y3494793.0D01*
X6923592.0Y3490882.0D01*
X6923592.0Y2917908.0D01*
X6924201.0Y2912219.0D01*
X6925979.0Y2906631.0D01*
X6928976.0Y2901652.0D01*
X6932989.0Y2897538.0D01*
X6937816.0Y2894286.0D01*
X6943251.0Y2892305.0D01*
X6949550.0Y2891442.0D01*
X7608833.0Y2878792.0D01*
X7610966.0Y2879047.0D01*
X7615132.0Y2878538.0D01*
X7618790.0Y2876354.0D01*
X7621228.0Y2872950.0D01*
X7622092.0Y2868886.0D01*
X7622092.0Y2864518.0D01*
X7621330.0Y2860657.0D01*
X7619094.0Y2857355.0D01*
X7615843.0Y2855170.0D01*
X7611932.0Y2854358.0D01*
X6924404.0Y2854358.0D01*
X6918359.0Y2853697.0D01*
X6912873.0Y2851818.0D01*
X6907945.0Y2848770.0D01*
X6903881.0Y2844604.0D01*
X6900782.0Y2839727.0D01*
X6898852.0Y2834241.0D01*
X6898192.0Y2828450.0D01*
X6898852.0Y2822709.0D01*
X6900782.0Y2817223.0D01*
X6903780.0Y2812448.0D01*
X6908148.0Y2807774.0D01*
X6910180.0Y2804574.0D01*
X6910892.0Y2800865.0D01*
X6910892.0Y2701754.0D01*
X6911552.0Y2695709.0D01*
X6913482.0Y2690223.0D01*
X6916581.0Y2685346.0D01*
X6918664.0Y2682958.0D01*
X7163317.0Y2438356.0D01*
X7165501.0Y2435054.0D01*
X7166263.0Y2431143.0D01*
X7165501.0Y2427231.0D01*
X7163317.0Y2423980.0D01*
X7160015.0Y2421796.0D01*
X7156103.0Y2420983.0D01*
X6350568.0Y2420983.0D01*
X6346656.0Y2421796.0D01*
X6343405.0Y2423980.0D01*
X6341169.0Y2427231.0D01*
X6340408.0Y2431143.0D01*
X6340408.0Y2597716.0D01*
X6339595.0Y2604168.0D01*
X6337512.0Y2609705.0D01*
X6333956.0Y2614836.0D01*
X6330959.0Y2617884.0D01*
X6327352.0Y2620576.0D01*
X6321815.0Y2623065.0D01*
X6314347.0Y2624183.0D01*
X5997609.0Y2624183.0D01*
X5991107.0Y2623370.0D01*
X5985570.0Y2621287.0D01*
X5980439.0Y2617731.0D01*
X5977391.0Y2614785.0D01*
X5974749.0Y2611127.0D01*
X5972260.0Y2605590.0D01*
X5971092.0Y2598173.0D01*
X5971092.0Y2431143.0D01*
X5970330.0Y2427231.0D01*
X5968094.0Y2423980.0D01*
X5964843.0Y2421796.0D01*
X5960932.0Y2420983.0D01*
G37*

%LPC*%
G36*
X5601471.0Y2492408.0D02*
G01*
X5622858.0Y2492408.0D01*
X5629157.0Y2493170.0D01*
X5634643.0Y2495100.0D01*
X5639520.0Y2498097.0D01*
X5643635.0Y2502212.0D01*
X5646683.0Y2507089.0D01*
X5648613.0Y2512626.0D01*
X5649324.0Y2518874.0D01*
X5649324.0Y2546408.0D01*
X5601471.0Y2546408.0D01*
G37*
G36*
X5510742.0Y2492408.0D02*
G01*
X5532129.0Y2492408.0D01*
X5532129.0Y2546408.0D01*
X5484275.0Y2546408.0D01*
X5484275.0Y2518874.0D01*
X5484986.0Y2512626.0D01*
X5486866.0Y2507089.0D01*
X5489965.0Y2502212.0D01*
X5494080.0Y2498097.0D01*
X5498956.0Y2495100.0D01*
X5504392.0Y2493170.0D01*
G37*
G36*
X5601471.0Y2627993.0D02*
G01*
X5649324.0Y2627993.0D01*
X5649324.0Y2655476.0D01*
X5648613.0Y2661775.0D01*
X5646683.0Y2667261.0D01*
X5643635.0Y2672138.0D01*
X5639520.0Y2676304.0D01*
X5634643.0Y2679301.0D01*
X5629157.0Y2681231.0D01*
X5622858.0Y2681942.0D01*
X5601471.0Y2681942.0D01*
G37*
G36*
X5484275.0Y2627993.0D02*
G01*
X5532129.0Y2627993.0D01*
X5532129.0Y2681942.0D01*
X5510742.0Y2681942.0D01*
X5504392.0Y2681231.0D01*
X5498956.0Y2679301.0D01*
X5494080.0Y2676304.0D01*
X5489965.0Y2672138.0D01*
X5486866.0Y2667261.0D01*
X5484986.0Y2661775.0D01*
X5484275.0Y2655476.0D01*
G37*
G36*
X6690724.0Y2722176.0D02*
G01*
X6827275.0Y2722176.0D01*
X6833625.0Y2722836.0D01*
X6839060.0Y2724767.0D01*
X6843988.0Y2727815.0D01*
X6848052.0Y2731981.0D01*
X6851151.0Y2736857.0D01*
X6853030.0Y2742293.0D01*
X6853742.0Y2748643.0D01*
X6853742.0Y2860708.0D01*
X6853030.0Y2867058.0D01*
X6851151.0Y2872493.0D01*
X6848052.0Y2877421.0D01*
X6843988.0Y2881485.0D01*
X6839060.0Y2884584.0D01*
X6833625.0Y2886514.0D01*
X6827275.0Y2887276.0D01*
X6690724.0Y2887276.0D01*
X6684374.0Y2886514.0D01*
X6678939.0Y2884584.0D01*
X6674011.0Y2881485.0D01*
X6669947.0Y2877421.0D01*
X6666848.0Y2872493.0D01*
X6664969.0Y2867058.0D01*
X6664258.0Y2860708.0D01*
X6664258.0Y2855729.0D01*
X6663445.0Y2851868.0D01*
X6661260.0Y2848566.0D01*
X6657958.0Y2846331.0D01*
X6654098.0Y2845569.0D01*
X6637994.0Y2845569.0D01*
X6634590.0Y2846230.0D01*
X6631644.0Y2847855.0D01*
X6629358.0Y2850395.0D01*
X6628088.0Y2853647.0D01*
X6625497.0Y2865381.0D01*
X6621230.0Y2876862.0D01*
X6615337.0Y2887581.0D01*
X6608022.0Y2897436.0D01*
X6599335.0Y2906072.0D01*
X6589531.0Y2913438.0D01*
X6578761.0Y2919280.0D01*
X6567280.0Y2923598.0D01*
X6555342.0Y2926189.0D01*
X6543100.0Y2927052.0D01*
X6530857.0Y2926189.0D01*
X6518919.0Y2923598.0D01*
X6507438.0Y2919280.0D01*
X6496668.0Y2913438.0D01*
X6486864.0Y2906072.0D01*
X6478177.0Y2897436.0D01*
X6470862.0Y2887581.0D01*
X6464969.0Y2876862.0D01*
X6460702.0Y2865381.0D01*
X6458111.0Y2853392.0D01*
X6457197.0Y2841150.0D01*
X6458111.0Y2828958.0D01*
X6460702.0Y2817020.0D01*
X6464969.0Y2805488.0D01*
X6470862.0Y2794718.0D01*
X6478177.0Y2784914.0D01*
X6486864.0Y2776278.0D01*
X6496668.0Y2768912.0D01*
X6507438.0Y2763070.0D01*
X6518919.0Y2758803.0D01*
X6530857.0Y2756161.0D01*
X6543100.0Y2755298.0D01*
X6555342.0Y2756161.0D01*
X6567280.0Y2758803.0D01*
X6578964.0Y2763121.0D01*
X6582520.0Y2763781.0D01*
X6654098.0Y2763781.0D01*
X6657958.0Y2762968.0D01*
X6661260.0Y2760835.0D01*
X6663445.0Y2757482.0D01*
X6664258.0Y2753621.0D01*
X6664258.0Y2748643.0D01*
X6664969.0Y2742293.0D01*
X6666848.0Y2736857.0D01*
X6669947.0Y2731981.0D01*
X6674011.0Y2727815.0D01*
X6678939.0Y2724767.0D01*
X6684374.0Y2722836.0D01*
G37*
G36*
X5514857.0Y2906174.0D02*
G01*
X5535431.0Y2906174.0D01*
X5541730.0Y2906885.0D01*
X5547216.0Y2908866.0D01*
X5552093.0Y2911863.0D01*
X5556208.0Y2915978.0D01*
X5559256.0Y2920855.0D01*
X5561186.0Y2926392.0D01*
X5561898.0Y2932691.0D01*
X5561898.0Y2940718.0D01*
X5514857.0Y2940718.0D01*
G37*
G36*
X6122069.0Y3526899.0D02*
G01*
X6150771.0Y3526899.0D01*
X6150771.0Y3585268.0D01*
X6146555.0Y3583388.0D01*
X6139646.0Y3579020.0D01*
X6133652.0Y3573635.0D01*
X6128724.0Y3567082.0D01*
X6125117.0Y3559766.0D01*
X6122882.0Y3551994.0D01*
X6122069.0Y3543409.0D01*
G37*
G36*
X5847292.0Y3595225.0D02*
G01*
X5874775.0Y3595225.0D01*
X5881125.0Y3595936.0D01*
X5886560.0Y3597866.0D01*
X5891488.0Y3601016.0D01*
X5895552.0Y3605029.0D01*
X5898651.0Y3609957.0D01*
X5900530.0Y3615392.0D01*
X5901242.0Y3621742.0D01*
X5901242.0Y3643129.0D01*
X5847292.0Y3643129.0D01*
G37*
G36*
X5738224.0Y3595225.0D02*
G01*
X5765707.0Y3595225.0D01*
X5765707.0Y3643129.0D01*
X5711758.0Y3643129.0D01*
X5711758.0Y3621742.0D01*
X5712469.0Y3615392.0D01*
X5714348.0Y3609957.0D01*
X5717447.0Y3605029.0D01*
X5721511.0Y3601016.0D01*
X5726439.0Y3597866.0D01*
X5731874.0Y3595936.0D01*
G37*
G36*
X5711758.0Y3712420.0D02*
G01*
X5765707.0Y3712420.0D01*
X5765707.0Y3760325.0D01*
X5738224.0Y3760325.0D01*
X5731874.0Y3759664.0D01*
X5726439.0Y3757734.0D01*
X5721511.0Y3754635.0D01*
X5717447.0Y3750520.0D01*
X5714348.0Y3745644.0D01*
X5712469.0Y3740208.0D01*
X5711758.0Y3733858.0D01*
G37*
G36*
X5847292.0Y3712420.0D02*
G01*
X5901242.0Y3712420.0D01*
X5901242.0Y3733858.0D01*
X5900530.0Y3740208.0D01*
X5898651.0Y3745644.0D01*
X5895552.0Y3750520.0D01*
X5891488.0Y3754635.0D01*
X5886560.0Y3757734.0D01*
X5881125.0Y3759664.0D01*
X5874775.0Y3760325.0D01*
X5847292.0Y3760325.0D01*
G37*
G36*
X5484224.0Y3801675.0D02*
G01*
X5620775.0Y3801675.0D01*
X5627125.0Y3802336.0D01*
X5632560.0Y3804266.0D01*
X5637488.0Y3807314.0D01*
X5641552.0Y3811480.0D01*
X5644651.0Y3816356.0D01*
X5646530.0Y3821792.0D01*
X5647242.0Y3828142.0D01*
X5647242.0Y3835457.0D01*
X5648156.0Y3839623.0D01*
X5650696.0Y3843077.0D01*
X5654455.0Y3845211.0D01*
X5658621.0Y3846430.0D01*
X5665682.0Y3850189.0D01*
X5672286.0Y3855625.0D01*
X5765402.0Y3948741.0D01*
X5768146.0Y3950722.0D01*
X5771346.0Y3951688.0D01*
X5774750.0Y3951434.0D01*
X5781557.0Y3949960.0D01*
X5793800.0Y3949097.0D01*
X5806042.0Y3949960.0D01*
X5817980.0Y3952602.0D01*
X5829461.0Y3956869.0D01*
X5840231.0Y3962711.0D01*
X5850035.0Y3970077.0D01*
X5858722.0Y3978713.0D01*
X5866037.0Y3988517.0D01*
X5871930.0Y3999287.0D01*
X5876197.0Y4010819.0D01*
X5878788.0Y4022757.0D01*
X5879702.0Y4034949.0D01*
X5878788.0Y4047192.0D01*
X5876197.0Y4059180.0D01*
X5871930.0Y4070661.0D01*
X5866037.0Y4081380.0D01*
X5858722.0Y4091235.0D01*
X5850035.0Y4099871.0D01*
X5840231.0Y4107237.0D01*
X5829461.0Y4113079.0D01*
X5817980.0Y4117397.0D01*
X5806042.0Y4119988.0D01*
X5793800.0Y4120852.0D01*
X5781557.0Y4119988.0D01*
X5769619.0Y4117397.0D01*
X5758138.0Y4113079.0D01*
X5747368.0Y4107237.0D01*
X5737564.0Y4099871.0D01*
X5728877.0Y4091235.0D01*
X5721562.0Y4081380.0D01*
X5715669.0Y4070661.0D01*
X5711402.0Y4059180.0D01*
X5708811.0Y4047192.0D01*
X5707897.0Y4034949.0D01*
X5708811.0Y4022757.0D01*
X5710284.0Y4015899.0D01*
X5710437.0Y4012546.0D01*
X5709472.0Y4009346.0D01*
X5707541.0Y4006552.0D01*
X5656843.0Y3955904.0D01*
X5653541.0Y3953669.0D01*
X5649629.0Y3952907.0D01*
X5645768.0Y3953720.0D01*
X5642466.0Y3956006.0D01*
X5637437.0Y3961035.0D01*
X5632560.0Y3964083.0D01*
X5627125.0Y3966013.0D01*
X5620775.0Y3966775.0D01*
X5484224.0Y3966775.0D01*
X5477874.0Y3966013.0D01*
X5472439.0Y3964083.0D01*
X5467511.0Y3960984.0D01*
X5463447.0Y3956920.0D01*
X5460348.0Y3951992.0D01*
X5458469.0Y3946557.0D01*
X5457758.0Y3940207.0D01*
X5457758.0Y3828142.0D01*
X5458469.0Y3821792.0D01*
X5460348.0Y3816356.0D01*
X5463447.0Y3811480.0D01*
X5467511.0Y3807314.0D01*
X5472439.0Y3804266.0D01*
X5477874.0Y3802336.0D01*
G37*
G36*
X7116479.0Y3948081.0D02*
G01*
X7171292.0Y3948081.0D01*
X7171292.0Y3974903.0D01*
X7170581.0Y3981202.0D01*
X7168702.0Y3986689.0D01*
X7165603.0Y3991566.0D01*
X7161539.0Y3995680.0D01*
X7156611.0Y3998779.0D01*
X7151175.0Y4000659.0D01*
X7144825.0Y4001370.0D01*
X7116479.0Y4001370.0D01*
G37*
G36*
X5484224.0Y4001624.0D02*
G01*
X5620775.0Y4001624.0D01*
X5627125.0Y4002335.0D01*
X5632560.0Y4004266.0D01*
X5637488.0Y4007415.0D01*
X5641552.0Y4011428.0D01*
X5644651.0Y4016356.0D01*
X5646530.0Y4021792.0D01*
X5647242.0Y4028142.0D01*
X5647242.0Y4140257.0D01*
X5646530.0Y4146607.0D01*
X5644651.0Y4152043.0D01*
X5641552.0Y4156920.0D01*
X5637488.0Y4161034.0D01*
X5632560.0Y4164133.0D01*
X5627125.0Y4166064.0D01*
X5620775.0Y4166724.0D01*
X5607872.0Y4166724.0D01*
X5603960.0Y4167537.0D01*
X5600658.0Y4169670.0D01*
X5598474.0Y4172972.0D01*
X5597712.0Y4176884.0D01*
X5597712.0Y4343000.0D01*
X5598372.0Y4346556.0D01*
X5600302.0Y4349756.0D01*
X5603198.0Y4351941.0D01*
X5606703.0Y4353008.0D01*
X5612545.0Y4353719.0D01*
X5618032.0Y4355649.0D01*
X5622908.0Y4358646.0D01*
X5627023.0Y4362761.0D01*
X5630071.0Y4367638.0D01*
X5632002.0Y4373175.0D01*
X5632713.0Y4379424.0D01*
X5632713.0Y4503325.0D01*
X5632002.0Y4509624.0D01*
X5630071.0Y4515110.0D01*
X5627023.0Y4519987.0D01*
X5622908.0Y4524153.0D01*
X5618032.0Y4527150.0D01*
X5612545.0Y4529080.0D01*
X5606246.0Y4529792.0D01*
X5507389.0Y4529792.0D01*
X5501039.0Y4529080.0D01*
X5495604.0Y4527150.0D01*
X5490676.0Y4524153.0D01*
X5486612.0Y4519987.0D01*
X5483513.0Y4515110.0D01*
X5481583.0Y4509624.0D01*
X5480872.0Y4503325.0D01*
X5480872.0Y4379424.0D01*
X5481583.0Y4373175.0D01*
X5483513.0Y4367638.0D01*
X5486612.0Y4362761.0D01*
X5490676.0Y4358646.0D01*
X5495604.0Y4355649.0D01*
X5501039.0Y4353719.0D01*
X5506881.0Y4353008.0D01*
X5510386.0Y4351941.0D01*
X5513282.0Y4349756.0D01*
X5515212.0Y4346556.0D01*
X5515873.0Y4343000.0D01*
X5515873.0Y4176884.0D01*
X5515111.0Y4172972.0D01*
X5512926.0Y4169670.0D01*
X5509624.0Y4167537.0D01*
X5505713.0Y4166724.0D01*
X5484224.0Y4166724.0D01*
X5477874.0Y4166064.0D01*
X5472439.0Y4164133.0D01*
X5467511.0Y4161034.0D01*
X5463447.0Y4156920.0D01*
X5460348.0Y4152043.0D01*
X5458469.0Y4146607.0D01*
X5457758.0Y4140257.0D01*
X5457758.0Y4028142.0D01*
X5458469.0Y4021792.0D01*
X5460348.0Y4016356.0D01*
X5463447.0Y4011428.0D01*
X5467511.0Y4007415.0D01*
X5472439.0Y4004266.0D01*
X5477874.0Y4002335.0D01*
G37*
G36*
X6046072.0Y4122325.0D02*
G01*
X6056131.0Y4127811.0D01*
X6065935.0Y4135177.0D01*
X6074622.0Y4143813.0D01*
X6081937.0Y4153618.0D01*
X6087474.0Y4163727.0D01*
X6046072.0Y4163727.0D01*
G37*
G36*
X5973327.0Y4122325.0D02*
G01*
X5973327.0Y4163727.0D01*
X5931925.0Y4163727.0D01*
X5937462.0Y4153618.0D01*
X5944777.0Y4143813.0D01*
X5953464.0Y4135177.0D01*
X5963268.0Y4127811.0D01*
G37*

%LPD*%
G36*
X4267768.0Y2420983.0D02*
G01*
X4263857.0Y2421796.0D01*
X4260606.0Y2423980.0D01*
X4258370.0Y2427231.0D01*
X4257608.0Y2431143.0D01*
X4257608.0Y2690782.0D01*
X4258370.0Y2694693.0D01*
X4260606.0Y2697995.0D01*
X4263857.0Y2700230.0D01*
X4267768.0Y2700942.0D01*
X4293931.0Y2700942.0D01*
X4298096.0Y2700078.0D01*
X4301500.0Y2697589.0D01*
X4303582.0Y2693931.0D01*
X4304040.0Y2689664.0D01*
X4303379.0Y2684178.0D01*
X4303379.0Y2655831.0D01*
X4356719.0Y2655831.0D01*
X4356719.0Y2690782.0D01*
X4357481.0Y2694693.0D01*
X4359666.0Y2697995.0D01*
X4362968.0Y2700230.0D01*
X4366879.0Y2700942.0D01*
X4426722.0Y2700942.0D01*
X4430633.0Y2700230.0D01*
X4433935.0Y2697995.0D01*
X4436120.0Y2694693.0D01*
X4436882.0Y2690782.0D01*
X4436882.0Y2655831.0D01*
X4490222.0Y2655831.0D01*
X4490222.0Y2684178.0D01*
X4489561.0Y2689664.0D01*
X4490018.0Y2693931.0D01*
X4492101.0Y2697589.0D01*
X4495505.0Y2700078.0D01*
X4499670.0Y2700942.0D01*
X4573330.0Y2700942.0D01*
X4577496.0Y2700078.0D01*
X4580900.0Y2697589.0D01*
X4582982.0Y2693931.0D01*
X4583440.0Y2689664.0D01*
X4582779.0Y2684178.0D01*
X4582779.0Y2544224.0D01*
X4583490.0Y2537924.0D01*
X4585421.0Y2532438.0D01*
X4588520.0Y2527561.0D01*
X4592584.0Y2523446.0D01*
X4597511.0Y2520449.0D01*
X4602947.0Y2518519.0D01*
X4609246.0Y2517757.0D01*
X4743155.0Y2517757.0D01*
X4749454.0Y2518519.0D01*
X4754890.0Y2520449.0D01*
X4759817.0Y2523446.0D01*
X4763881.0Y2527561.0D01*
X4766980.0Y2532438.0D01*
X4768910.0Y2537924.0D01*
X4770130.0Y2542750.0D01*
X4772365.0Y2545697.0D01*
X4775515.0Y2547576.0D01*
X4779121.0Y2548338.0D01*
X4918720.0Y2548338.0D01*
X4929388.0Y2549100.0D01*
X4939446.0Y2551539.0D01*
X4948996.0Y2555501.0D01*
X4957836.0Y2560886.0D01*
X4965964.0Y2567896.0D01*
X5001930.0Y2603812.0D01*
X5008890.0Y2611940.0D01*
X5014274.0Y2620779.0D01*
X5018237.0Y2630380.0D01*
X5020675.0Y2640388.0D01*
X5021488.0Y2651056.0D01*
X5021488.0Y2750878.0D01*
X5022148.0Y2754485.0D01*
X5023977.0Y2757533.0D01*
X5026771.0Y2759819.0D01*
X5035661.0Y2762867.0D01*
X5040589.0Y2765915.0D01*
X5044653.0Y2770081.0D01*
X5047752.0Y2774957.0D01*
X5049631.0Y2780393.0D01*
X5050342.0Y2786743.0D01*
X5050342.0Y2886514.0D01*
X5051155.0Y2890375.0D01*
X5053340.0Y2893728.0D01*
X5327049.0Y3167438.0D01*
X5332485.0Y3174042.0D01*
X5336244.0Y3181052.0D01*
X5338581.0Y3188723.0D01*
X5339394.0Y3197207.0D01*
X5339394.0Y3653391.0D01*
X5338581.0Y3661874.0D01*
X5336244.0Y3669545.0D01*
X5332485.0Y3676657.0D01*
X5327049.0Y3683160.0D01*
X5283565.0Y3726644.0D01*
X5277012.0Y3732080.0D01*
X5269951.0Y3735839.0D01*
X5262280.0Y3738227.0D01*
X5253796.0Y3738989.0D01*
X5182880.0Y3738989.0D01*
X5179222.0Y3739751.0D01*
X5176022.0Y3741681.0D01*
X5173736.0Y3744729.0D01*
X5172770.0Y3748438.0D01*
X5173482.0Y3753111.0D01*
X5174294.0Y3761544.0D01*
X5174294.0Y3918515.0D01*
X5175056.0Y3922427.0D01*
X5177292.0Y3925729.0D01*
X5180594.0Y3927862.0D01*
X5184454.0Y3928675.0D01*
X5201676.0Y3928675.0D01*
X5208026.0Y3929336.0D01*
X5213461.0Y3931266.0D01*
X5218389.0Y3934314.0D01*
X5222453.0Y3938480.0D01*
X5225552.0Y3943356.0D01*
X5227431.0Y3948792.0D01*
X5228142.0Y3955142.0D01*
X5228142.0Y4067207.0D01*
X5227431.0Y4073557.0D01*
X5225552.0Y4078992.0D01*
X5222453.0Y4083920.0D01*
X5218389.0Y4087984.0D01*
X5213461.0Y4091083.0D01*
X5208026.0Y4093013.0D01*
X5201676.0Y4093775.0D01*
X5065125.0Y4093775.0D01*
X5058775.0Y4093013.0D01*
X5053340.0Y4091083.0D01*
X5048412.0Y4087984.0D01*
X5044348.0Y4083920.0D01*
X5041249.0Y4078992.0D01*
X5039370.0Y4073557.0D01*
X5038658.0Y4067207.0D01*
X5038658.0Y3955142.0D01*
X5039370.0Y3948792.0D01*
X5041249.0Y3943356.0D01*
X5044348.0Y3938480.0D01*
X5048412.0Y3934314.0D01*
X5053340.0Y3931266.0D01*
X5058775.0Y3929336.0D01*
X5065125.0Y3928675.0D01*
X5082346.0Y3928675.0D01*
X5086207.0Y3927862.0D01*
X5089509.0Y3925729.0D01*
X5091744.0Y3922427.0D01*
X5092506.0Y3918515.0D01*
X5092506.0Y3782219.0D01*
X5091744.0Y3778307.0D01*
X5089509.0Y3775005.0D01*
X5068122.0Y3753670.0D01*
X5064871.0Y3751435.0D01*
X5060960.0Y3750673.0D01*
X5017475.0Y3750673.0D01*
X5011125.0Y3749962.0D01*
X5005689.0Y3748082.0D01*
X5000762.0Y3745034.0D01*
X4996698.0Y3740868.0D01*
X4993599.0Y3735992.0D01*
X4991719.0Y3730505.0D01*
X4991008.0Y3724206.0D01*
X4991008.0Y3675489.0D01*
X4990195.0Y3671577.0D01*
X4988011.0Y3668377.0D01*
X4984709.0Y3666091.0D01*
X4980848.0Y3665380.0D01*
X4976936.0Y3666091.0D01*
X4973634.0Y3668377.0D01*
X4971806.0Y3670155.0D01*
X4969570.0Y3673457.0D01*
X4968808.0Y3677368.0D01*
X4968808.0Y3937057.0D01*
X4969164.0Y3939699.0D01*
X4972110.0Y3947624.0D01*
X4972822.0Y3953923.0D01*
X4972822.0Y4093877.0D01*
X4972110.0Y4100176.0D01*
X4970180.0Y4105561.0D01*
X4967081.0Y4110539.0D01*
X4960630.0Y4117092.0D01*
X4958242.0Y4120902.0D01*
X4957734.0Y4125373.0D01*
X4959258.0Y4129640.0D01*
X4967081.0Y4137311.0D01*
X4970180.0Y4142238.0D01*
X4972110.0Y4147623.0D01*
X4972822.0Y4153922.0D01*
X4972822.0Y4182269.0D01*
X4919482.0Y4182269.0D01*
X4919482.0Y4134517.0D01*
X4918720.0Y4130656.0D01*
X4916535.0Y4127354.0D01*
X4913233.0Y4125170.0D01*
X4909322.0Y4124357.0D01*
X4849479.0Y4124357.0D01*
X4845568.0Y4125170.0D01*
X4842266.0Y4127354.0D01*
X4840081.0Y4130656.0D01*
X4839319.0Y4134517.0D01*
X4839319.0Y4182269.0D01*
X4785979.0Y4182269.0D01*
X4785979.0Y4172820.0D01*
X4785268.0Y4169061.0D01*
X4783134.0Y4165759.0D01*
X4779883.0Y4163524.0D01*
X4776124.0Y4162711.0D01*
X4772263.0Y4163320.0D01*
X4768961.0Y4165352.0D01*
X4654560.0Y4270864.0D01*
X4649327.0Y4274166.0D01*
X4643841.0Y4276046.0D01*
X4637542.0Y4276757.0D01*
X4242368.0Y4276757.0D01*
X4238457.0Y4277570.0D01*
X4235206.0Y4279754.0D01*
X4232970.0Y4283056.0D01*
X4232208.0Y4286917.0D01*
X4232208.0Y4559662.0D01*
X4232970.0Y4563574.0D01*
X4235206.0Y4566825.0D01*
X4238457.0Y4569111.0D01*
X4242368.0Y4569822.0D01*
X5342645.0Y4569822.0D01*
X5346506.0Y4569111.0D01*
X5349808.0Y4566876.0D01*
X5351992.0Y4563675.0D01*
X5352805.0Y4559865.0D01*
X5381304.0Y2431295.0D01*
X5380592.0Y2427333.0D01*
X5378408.0Y2424031.0D01*
X5375106.0Y2421796.0D01*
X5371144.0Y2420983.0D01*
G37*

%LPC*%
G36*
X4329846.0Y2517757.0D02*
G01*
X4356719.0Y2517757.0D01*
X4356719.0Y2572570.0D01*
X4303379.0Y2572570.0D01*
X4303379.0Y2544224.0D01*
X4304090.0Y2537924.0D01*
X4306021.0Y2532438.0D01*
X4309120.0Y2527561.0D01*
X4313184.0Y2523446.0D01*
X4318111.0Y2520449.0D01*
X4323547.0Y2518519.0D01*
G37*
G36*
X4436882.0Y2517757.0D02*
G01*
X4463755.0Y2517757.0D01*
X4470054.0Y2518519.0D01*
X4475490.0Y2520449.0D01*
X4480417.0Y2523446.0D01*
X4484481.0Y2527561.0D01*
X4487580.0Y2532438.0D01*
X4489510.0Y2537924.0D01*
X4490222.0Y2544224.0D01*
X4490222.0Y2572570.0D01*
X4436882.0Y2572570.0D01*
G37*
G36*
X5182473.0Y2522126.0D02*
G01*
X5192532.0Y2527612.0D01*
X5202336.0Y2534978.0D01*
X5211023.0Y2543614.0D01*
X5218338.0Y2553418.0D01*
X5223875.0Y2563528.0D01*
X5182473.0Y2563528.0D01*
G37*
G36*
X5109728.0Y2522126.0D02*
G01*
X5109728.0Y2563528.0D01*
X5068326.0Y2563528.0D01*
X5073863.0Y2553418.0D01*
X5081178.0Y2543614.0D01*
X5089865.0Y2534978.0D01*
X5099669.0Y2527612.0D01*
G37*
G36*
X5068326.0Y2636273.0D02*
G01*
X5109728.0Y2636273.0D01*
X5109728.0Y2677624.0D01*
X5099669.0Y2672138.0D01*
X5089865.0Y2664772.0D01*
X5081178.0Y2656136.0D01*
X5073863.0Y2646281.0D01*
G37*
G36*
X5182473.0Y2636273.0D02*
G01*
X5223875.0Y2636273.0D01*
X5218338.0Y2646281.0D01*
X5211023.0Y2656136.0D01*
X5202336.0Y2664772.0D01*
X5192532.0Y2672138.0D01*
X5182473.0Y2677624.0D01*
G37*
G36*
X5065125.0Y4128624.0D02*
G01*
X5092608.0Y4128624.0D01*
X5092608.0Y4176528.0D01*
X5038658.0Y4176528.0D01*
X5038658.0Y4155142.0D01*
X5039370.0Y4148792.0D01*
X5041249.0Y4143356.0D01*
X5044348.0Y4138428.0D01*
X5048412.0Y4134415.0D01*
X5053340.0Y4131266.0D01*
X5058775.0Y4129335.0D01*
G37*
G36*
X5174193.0Y4128624.0D02*
G01*
X5201676.0Y4128624.0D01*
X5208026.0Y4129335.0D01*
X5213461.0Y4131266.0D01*
X5218389.0Y4134415.0D01*
X5222453.0Y4138428.0D01*
X5225552.0Y4143356.0D01*
X5227431.0Y4148792.0D01*
X5228142.0Y4155142.0D01*
X5228142.0Y4176528.0D01*
X5174193.0Y4176528.0D01*
G37*
G36*
X5038658.0Y4245820.0D02*
G01*
X5092608.0Y4245820.0D01*
X5092608.0Y4293724.0D01*
X5065125.0Y4293724.0D01*
X5058775.0Y4293064.0D01*
X5053340.0Y4291133.0D01*
X5048412.0Y4288034.0D01*
X5044348.0Y4283920.0D01*
X5041249.0Y4279043.0D01*
X5039370.0Y4273607.0D01*
X5038658.0Y4267257.0D01*
G37*
G36*
X5174193.0Y4245820.0D02*
G01*
X5228142.0Y4245820.0D01*
X5228142.0Y4267257.0D01*
X5227431.0Y4273607.0D01*
X5225552.0Y4279043.0D01*
X5222453.0Y4283920.0D01*
X5218389.0Y4288034.0D01*
X5213461.0Y4291133.0D01*
X5208026.0Y4293064.0D01*
X5201676.0Y4293724.0D01*
X5174193.0Y4293724.0D01*
G37*
G36*
X4919482.0Y4265479.0D02*
G01*
X4972822.0Y4265479.0D01*
X4972822.0Y4293826.0D01*
X4972110.0Y4300125.0D01*
X4970180.0Y4305611.0D01*
X4967081.0Y4310488.0D01*
X4963017.0Y4314654.0D01*
X4958090.0Y4317651.0D01*
X4952654.0Y4319581.0D01*
X4946355.0Y4320292.0D01*
X4919482.0Y4320292.0D01*
G37*
G36*
X4785979.0Y4265479.0D02*
G01*
X4839319.0Y4265479.0D01*
X4839319.0Y4320292.0D01*
X4812446.0Y4320292.0D01*
X4806147.0Y4319581.0D01*
X4800711.0Y4317651.0D01*
X4795784.0Y4314654.0D01*
X4791720.0Y4310488.0D01*
X4788621.0Y4305611.0D01*
X4786691.0Y4300125.0D01*
X4785979.0Y4293826.0D01*
G37*
G36*
X4560173.0Y4363625.0D02*
G01*
X4570232.0Y4369111.0D01*
X4580036.0Y4376477.0D01*
X4588723.0Y4385113.0D01*
X4596038.0Y4394918.0D01*
X4601575.0Y4405027.0D01*
X4560173.0Y4405027.0D01*
G37*
G36*
X4487428.0Y4363625.0D02*
G01*
X4487428.0Y4405027.0D01*
X4446026.0Y4405027.0D01*
X4451563.0Y4394918.0D01*
X4458878.0Y4385113.0D01*
X4467565.0Y4376477.0D01*
X4477369.0Y4369111.0D01*
G37*
G36*
X4446026.0Y4477772.0D02*
G01*
X4487428.0Y4477772.0D01*
X4487428.0Y4519124.0D01*
X4477369.0Y4513637.0D01*
X4467565.0Y4506271.0D01*
X4458878.0Y4497635.0D01*
X4451563.0Y4487780.0D01*
G37*
G36*
X4560173.0Y4477772.0D02*
G01*
X4601575.0Y4477772.0D01*
X4596038.0Y4487780.0D01*
X4588723.0Y4497635.0D01*
X4580036.0Y4506271.0D01*
X4570232.0Y4513637.0D01*
X4560173.0Y4519124.0D01*
G37*

%LPD*%
G36*
X4066600.0Y3323800.0D02*
G01*
X3279200.0Y2765000.0D01*
X2364800.0Y2765000.0D01*
X2364800.0Y2409400.0D01*
X3952300.0Y2409400.0D01*
X3952300.0Y2726900.0D01*
X4790500.0Y2726900.0D01*
X4790500.0Y2904700.0D01*
X4549200.0Y3120600.0D01*
X4447600.0Y3209500.0D01*
X4447600.0Y3323800.0D01*
G37*
G36*
X3190300.0Y4327100.0D02*
G01*
X3101400.0Y4238200.0D01*
X3101400.0Y3806400.0D01*
X3279200.0Y3806400.0D01*
X3279200.0Y3958800.0D01*
X3418900.0Y4098500.0D01*
X3418900.0Y4136600.0D01*
X4409500.0Y4136600.0D01*
X4752400.0Y3793700.0D01*
X4752400.0Y3654000.0D01*
X4930200.0Y3654000.0D01*
X4942900.0Y3666700.0D01*
X4942900.0Y4098500.0D01*
X4803200.0Y4098500.0D01*
X4638100.0Y4250900.0D01*
X3926900.0Y4250900.0D01*
X3926900.0Y4327100.0D01*
G37*
G36*
X6924100.0Y2828500.0D02*
G01*
X6936800.0Y2815800.0D01*
X6936800.0Y2701500.0D01*
X7228900.0Y2409400.0D01*
X7635300.0Y2409400.0D01*
X7635300.0Y2815800.0D01*
X7622600.0Y2828500.0D01*
G37*
G36*
X6492300.0Y3666700.0D02*
G01*
X6339900.0Y3552400.0D01*
X6339900.0Y3387300.0D01*
X6390700.0Y3387300.0D01*
X6390700.0Y3476200.0D01*
X6479600.0Y3527000.0D01*
X6949500.0Y3527000.0D01*
X6949500.0Y2917400.0D01*
X7609900.0Y2904700.0D01*
X7609900.0Y3082500.0D01*
X7381300.0Y3082500.0D01*
X7203500.0Y3539700.0D01*
X7203500.0Y3666700.0D01*
G37*
D10*
X5806500.0Y3477902.0D02*
G01*
X5970075.0Y3477902.0D01*
X6124000.0Y3323724.0D01*
X6225600.0Y3323724.0D01*
X6231188.0Y3407036.0D01*
X6231188.0Y3478918.0D01*
X6361210.0Y3905205.0D02*
G01*
X6364004.0Y3908000.0D01*
X6644700.0Y3908000.0D01*
X6644700.0Y3908000.0D02*
G01*
X6644700.0Y3908000.0D01*
X6874900.0Y3908000.0D01*
X7128900.0Y3615900.0D02*
G01*
X7152700.0Y3639700.0D01*
X7152700.0Y3730200.0D01*
X7292400.0Y3869900.0D01*
X7292400.0Y4301700.0D01*
X7038400.0Y4555700.0D01*
X6581200.0Y4555700.0D01*
X6488870.0Y4463370.0D01*
X6488870.0Y4441400.0D01*
X6874900.0Y4238200.0D02*
G01*
X6698923.0Y4414176.0D01*
X6698923.0Y4441400.0D01*
X5776802.0Y4441410.0D02*
G01*
X5916512.0Y4301700.0D01*
X6339900.0Y4301700.0D01*
X6479600.0Y4441400.0D01*
X6488870.0Y4441400.0D01*
X5552500.0Y4084199.0D02*
G01*
X5556787.0Y4088487.0D01*
X5556787.0Y4441410.0D01*
X5793800.0Y4035000.0D02*
G01*
X5643000.0Y3884200.0D01*
X5552500.0Y3884200.0D01*
X6166189.0Y3905205.0D02*
G01*
X6151025.0Y3920369.0D01*
X6151025.0Y4301700.0D01*
X5751000.0Y3152096.0D02*
G01*
X6047190.0Y3152096.0D01*
X5751000.0Y2962104.0D02*
G01*
X6047190.0Y2962104.0D01*
X5146100.0Y2599824.0D02*
G01*
X5146100.0Y2916308.0D01*
X5379525.0Y3151766.0D01*
X5481125.0Y3152020.0D01*
X4840792.0Y3698120.0D02*
G01*
X4886005.0Y3698120.0D01*
X4968300.0Y3615824.0D01*
X4968300.0Y3526924.0D01*
X4987096.0Y3508128.0D01*
X5070409.0Y3508128.0D01*
X5070510.0Y3698196.0D02*
G01*
X5133400.0Y3761087.0D01*
X5133400.0Y4011200.0D01*
X4804801.0Y3285700.0D02*
G01*
X4804801.0Y3325909.0D01*
X4987096.0Y3508204.0D01*
X5004800.0Y3285700.0D02*
G01*
X5019100.0Y3285700.0D01*
X5196900.0Y3463500.0D01*
X5196900.0Y3590500.0D01*
X5184200.0Y3603200.0D01*
X5070510.0Y3603200.0D01*
X5070409.0Y3698120.0D02*
G01*
X5254305.0Y3698120.0D01*
X5298500.0Y3653924.0D01*
X5298500.0Y3196724.0D01*
X4955600.0Y2853824.0D01*
X4955600.0Y2842902.0D01*
X5481125.0Y3152020.0D02*
G01*
X5481125.0Y3201550.0D01*
X5552500.0Y3272924.0D01*
X6085900.0Y3272924.0D01*
X6206804.0Y3152020.0D01*
X6276908.0Y3152020.0D01*
X6277007.0Y3152096.0D02*
G01*
X6334896.0Y3152096.0D01*
X6544700.0Y3361900.0D01*
X6277009.0Y3057100.0D02*
G01*
X6706599.0Y3057100.0D01*
X6759000.0Y3004700.0D01*
X6744699.0Y3361900.0D02*
G01*
X6759000.0Y3347600.0D01*
X6759000.0Y3004700.0D01*
X6543100.0Y2841200.0D02*
G01*
X6579599.0Y2804701.0D01*
X6759000.0Y2804701.0D01*
X7074899.0Y4238200.0D02*
G01*
X6922499.0Y4085800.0D01*
X6809800.0Y4085800.0D01*
X6231188.0Y3905129.0D02*
G01*
X6231188.0Y4104011.0D01*
X6339900.0Y4212723.0D01*
X6492300.0Y4212723.0D01*
X6619300.0Y4085723.0D01*
X6809800.0Y4085723.0D01*
X6296211.0Y3905129.0D02*
G01*
X6296211.0Y4042035.0D01*
X6352600.0Y4098423.0D01*
X6416100.0Y4098423.0D01*
X5766799.0Y2587200.0D02*
G01*
X5819200.0Y2587200.0D01*
X6162100.0Y2930100.0D01*
X6162100.0Y3044400.0D01*
X6149400.0Y3057100.0D01*
X6047190.0Y3057100.0D01*
D11*
X4840691.0Y3508204.0D02*
G01*
X4618802.0Y3508204.0D01*
X4365820.0Y3761188.0D01*
X4257100.0Y3761188.0D01*
X4676200.0Y2614201.0D02*
G01*
X4919101.0Y2614201.0D01*
X4955600.0Y2650700.0D01*
X4955600.0Y2842801.0D01*
X4676200.0Y2814200.0D02*
G01*
X4676200.0Y2955500.0D01*
X4763500.0Y3042800.0D01*
X4955600.0Y3042800.0D01*
D12*
G01*
X7328902.0Y3615900.0D03*
G01*
X7128897.0Y3615900.0D03*
D13*
G01*
X7495600.0Y3220603.0D03*
D14*
G01*
X7495600.0Y3020601.0D03*
D15*
G01*
X6544697.0Y3361900.0D03*
G01*
X6744702.0Y3361900.0D03*
G01*
X6874897.0Y3907999.0D03*
G01*
X7074902.0Y3907999.0D03*
D16*
G01*
X6698929.0Y4441400.0D03*
D17*
G01*
X6488870.0Y4441400.0D03*
D18*
G01*
X6994204.0Y2764391.0D03*
G01*
X7089200.0Y2764391.0D03*
G01*
X7184195.0Y2764391.0D03*
G01*
X7184195.0Y2994210.0D03*
G01*
X7089200.0Y2994210.0D03*
G01*
X6994204.0Y2994210.0D03*
D19*
G01*
X5480999.0Y2962104.0D03*
G01*
X5480999.0Y3057100.0D03*
G01*
X5480999.0Y3152096.0D03*
G01*
X5751000.0Y3152096.0D03*
G01*
X5751000.0Y3057100.0D03*
G01*
X5751000.0Y2962104.0D03*
D20*
G01*
X5766804.0Y2587200.0D03*
G01*
X5566795.0Y2587200.0D03*
D21*
G01*
X5806500.0Y3477796.0D03*
D22*
G01*
X5806500.0Y3677800.0D03*
D21*
G01*
X6759000.0Y3004705.0D03*
D22*
G01*
X6759000.0Y2804701.0D03*
D21*
G01*
X5552500.0Y4084204.0D03*
D22*
G01*
X5552500.0Y3884200.0D03*
D23*
G01*
X6874895.0Y4238200.0D03*
G01*
X7074904.0Y4238200.0D03*
D24*
G01*
X5776802.0Y4441410.0D03*
G01*
X5556787.0Y4441410.0D03*
D25*
G01*
X6047190.0Y3152096.0D03*
G01*
X6047190.0Y3057100.0D03*
G01*
X6047190.0Y2962104.0D03*
G01*
X6277009.0Y2962104.0D03*
G01*
X6277009.0Y3057100.0D03*
G01*
X6277009.0Y3152096.0D03*
D26*
G01*
X6166189.0Y3478994.0D03*
G01*
X6231213.0Y3478994.0D03*
G01*
X6296211.0Y3478994.0D03*
G01*
X6361210.0Y3478994.0D03*
G01*
X6166189.0Y3905205.0D03*
G01*
X6231213.0Y3905205.0D03*
G01*
X6296211.0Y3905205.0D03*
G01*
X6361210.0Y3905205.0D03*
D27*
G01*
X6263700.0Y3692100.0D03*
D28*
G01*
X4269800.0Y3773887.0D03*
G01*
X4269800.0Y3203887.0D03*
D13*
G01*
X4396800.0Y2814203.0D03*
D14*
G01*
X4396800.0Y2614201.0D03*
D13*
G01*
X4676200.0Y2814203.0D03*
D14*
G01*
X4676200.0Y2614201.0D03*
D13*
G01*
X4879400.0Y4023897.0D03*
D14*
G01*
X4879400.0Y4223899.0D03*
D21*
G01*
X5133400.0Y4011195.0D03*
D22*
G01*
X5133400.0Y4211199.0D03*
D21*
G01*
X4955600.0Y3042805.0D03*
D22*
G01*
X4955600.0Y2842801.0D03*
D23*
G01*
X4804796.0Y3285700.0D03*
G01*
X5004805.0Y3285700.0D03*
D25*
G01*
X4840691.0Y3698196.0D03*
G01*
X4840691.0Y3603200.0D03*
G01*
X4840691.0Y3508204.0D03*
G01*
X5070510.0Y3508204.0D03*
G01*
X5070510.0Y3603200.0D03*
G01*
X5070510.0Y3698196.0D03*
D21*
G01*
X3291900.0Y4465204.0D03*
D22*
G01*
X3291900.0Y4265200.0D03*
D29*
G01*
X7495600.0Y2549100.0D03*
D30*
G01*
X2990301.0Y3893699.0D03*
G01*
X3390300.0Y3893699.0D03*
G01*
X3190300.0Y3893699.0D03*
D31*
G01*
X3605311.0Y3893699.0D03*
G01*
X2775290.0Y3893699.0D03*
D32*
G01*
X7495600.0Y4441400.0D03*
D29*
G01*
X2504500.0Y2547500.0D03*
D33*
G01*
X2504500.0Y4454100.0D03*
D34*
G01*
X6009700.0Y4200100.0D03*
G01*
X3609400.0Y4289000.0D03*
G01*
X5146100.0Y2599900.0D03*
G01*
X5793800.0Y4035000.0D03*
G01*
X6416100.0Y4098500.0D03*
G01*
X6644700.0Y3908000.0D03*
G01*
X6543100.0Y2841200.0D03*
G01*
X4523800.0Y4441400.0D03*
M02*
