G04 Layer: BottomSilkscreenLayer*
G04 EasyEDA v6.5.42, 2024-05-27 16:03:50*
G04 5a823164b2b14e8aa45e0a56d25f44cb,4b06660695a64fe3bf0f4e1e846abbee,10*
G04 Gerber Generator version 0.2*
G04 Scale: 100 percent, Rotated: No, Reflected: No *
G04 Dimensions in millimeters *
G04 leading zeros omitted , absolute positions ,4 integer and 5 decimal *
%FSLAX45Y45*%
%MOMM*%

%ADD10C,0.2032*%
%ADD11C,0.2030*%
%ADD12C,0.2540*%

%LPD*%
D10*
X2439962.0Y4263600.0D02*
G01*
X2549065.0Y4263600.0D01*
X2439962.0Y4263600.0D02*
G01*
X2439962.0Y4216841.0D01*
X2445156.0Y4201255.0D01*
X2450353.0Y4196058.0D01*
X2460744.0Y4190864.0D01*
X2471135.0Y4190864.0D01*
X2481526.0Y4196058.0D01*
X2486721.0Y4201255.0D01*
X2491917.0Y4216841.0D01*
X2491917.0Y4263600.0D02*
G01*
X2491917.0Y4216841.0D01*
X2497112.0Y4201255.0D01*
X2502306.0Y4196058.0D01*
X2512697.0Y4190864.0D01*
X2528285.0Y4190864.0D01*
X2538676.0Y4196058.0D01*
X2543871.0Y4201255.0D01*
X2549065.0Y4216841.0D01*
X2549065.0Y4263600.0D01*
X2439962.0Y4115010.0D02*
G01*
X2549065.0Y4156574.0D01*
X2439962.0Y4115010.0D02*
G01*
X2549065.0Y4073447.0D01*
X2512697.0Y4140986.0D02*
G01*
X2512697.0Y4089033.0D01*
X2439962.0Y4002787.0D02*
G01*
X2549065.0Y4002787.0D01*
X2439962.0Y4039157.0D02*
G01*
X2439962.0Y3966419.0D01*
X2502306.0Y3932129.0D02*
G01*
X2502306.0Y3838612.0D01*
X2460813.0Y3146000.0D02*
G01*
X2455479.0Y3135586.0D01*
X2439985.0Y3120093.0D01*
X2548950.0Y3120093.0D01*
X2523043.0Y3080469.0D02*
G01*
X2528377.0Y3085803.0D01*
X2533456.0Y3080469.0D01*
X2528377.0Y3075388.0D01*
X2523043.0Y3080469.0D01*
X2439985.0Y3015190.0D02*
G01*
X2445064.0Y3030685.0D01*
X2455479.0Y3035764.0D01*
X2465893.0Y3035764.0D01*
X2476306.0Y3030685.0D01*
X2481640.0Y3020270.0D01*
X2486721.0Y2999443.0D01*
X2491800.0Y2983948.0D01*
X2502214.0Y2973535.0D01*
X2512629.0Y2968200.0D01*
X2528377.0Y2968200.0D01*
X2538790.0Y2973535.0D01*
X2543871.0Y2978614.0D01*
X2548950.0Y2994362.0D01*
X2548950.0Y3015190.0D01*
X2543871.0Y3030685.0D01*
X2538790.0Y3035764.0D01*
X2528377.0Y3041098.0D01*
X2512629.0Y3041098.0D01*
X2502214.0Y3035764.0D01*
X2491800.0Y3025350.0D01*
X2486721.0Y3009856.0D01*
X2481640.0Y2989028.0D01*
X2476306.0Y2978614.0D01*
X2465893.0Y2973535.0D01*
X2455479.0Y2973535.0D01*
X2445064.0Y2978614.0D01*
X2439985.0Y2994362.0D01*
X2439985.0Y3015190.0D01*
X2439985.0Y2933911.0D02*
G01*
X2548950.0Y2892508.0D01*
X2439985.0Y2850853.0D02*
G01*
X2548950.0Y2892508.0D01*
X2455479.0Y2769827.0D02*
G01*
X2548950.0Y2769827.0D01*
X2502214.0Y2816562.0D02*
G01*
X2502214.0Y2723090.0D01*
X7227122.0Y4454607.0D02*
G01*
X7232456.0Y4465021.0D01*
X7242870.0Y4475435.0D01*
X7253029.0Y4480515.0D01*
X7273858.0Y4480515.0D01*
X7284272.0Y4475435.0D01*
X7294686.0Y4465021.0D01*
X7300020.0Y4454607.0D01*
X7305100.0Y4438860.0D01*
X7305100.0Y4412952.0D01*
X7300020.0Y4397457.0D01*
X7294686.0Y4387043.0D01*
X7284272.0Y4376629.0D01*
X7273858.0Y4371550.0D01*
X7253029.0Y4371550.0D01*
X7242870.0Y4376629.0D01*
X7232456.0Y4387043.0D01*
X7227122.0Y4397457.0D01*
X7227122.0Y4412952.0D01*
X7253029.0Y4412952.0D02*
G01*
X7227122.0Y4412952.0D01*
X7192831.0Y4480515.0D02*
G01*
X7192831.0Y4371550.0D01*
X7192831.0Y4480515.0D02*
G01*
X7120188.0Y4371550.0D01*
X7120188.0Y4480515.0D02*
G01*
X7120188.0Y4371550.0D01*
X7085897.0Y4480515.0D02*
G01*
X7085897.0Y4371550.0D01*
X7085897.0Y4480515.0D02*
G01*
X7049575.0Y4480515.0D01*
X7033827.0Y4475435.0D01*
X7023413.0Y4465021.0D01*
X7018334.0Y4454607.0D01*
X7013000.0Y4438860.0D01*
X7013000.0Y4412952.0D01*
X7018334.0Y4397457.0D01*
X7023413.0Y4387043.0D01*
X7033827.0Y4376629.0D01*
X7049575.0Y4371550.0D01*
X7085897.0Y4371550.0D01*
X7343200.0Y2613616.0D02*
G01*
X7301543.0Y2504650.0D01*
X7260141.0Y2613616.0D02*
G01*
X7301543.0Y2504650.0D01*
X7147874.0Y2587708.0D02*
G01*
X7152954.0Y2598122.0D01*
X7163368.0Y2608536.0D01*
X7173781.0Y2613616.0D01*
X7194609.0Y2613616.0D01*
X7205024.0Y2608536.0D01*
X7215438.0Y2598122.0D01*
X7220518.0Y2587708.0D01*
X7225852.0Y2571961.0D01*
X7225852.0Y2546053.0D01*
X7220518.0Y2530558.0D01*
X7215438.0Y2520144.0D01*
X7205024.0Y2509730.0D01*
X7194609.0Y2504650.0D01*
X7173781.0Y2504650.0D01*
X7163368.0Y2509730.0D01*
X7152954.0Y2520144.0D01*
X7147874.0Y2530558.0D01*
X7035606.0Y2587708.0D02*
G01*
X7040940.0Y2598122.0D01*
X7051100.0Y2608536.0D01*
X7061513.0Y2613616.0D01*
X7082341.0Y2613616.0D01*
X7092756.0Y2608536.0D01*
X7103170.0Y2598122.0D01*
X7108250.0Y2587708.0D01*
X7113584.0Y2571961.0D01*
X7113584.0Y2546053.0D01*
X7108250.0Y2530558.0D01*
X7103170.0Y2520144.0D01*
X7092756.0Y2509730.0D01*
X7082341.0Y2504650.0D01*
X7061513.0Y2504650.0D01*
X7051100.0Y2509730.0D01*
X7040940.0Y2520144.0D01*
X7035606.0Y2530558.0D01*
X3596700.0Y2754147.0D02*
G01*
X3596700.0Y2560185.0D01*
X3596700.0Y2754147.0D02*
G01*
X3513574.0Y2754147.0D01*
X3485865.0Y2744912.0D01*
X3476627.0Y2735676.0D01*
X3467392.0Y2717203.0D01*
X3467392.0Y2698729.0D01*
X3476627.0Y2680256.0D01*
X3485865.0Y2671020.0D01*
X3513574.0Y2661785.0D01*
X3596700.0Y2661785.0D02*
G01*
X3513574.0Y2661785.0D01*
X3485865.0Y2652547.0D01*
X3476627.0Y2643312.0D01*
X3467392.0Y2624838.0D01*
X3467392.0Y2597129.0D01*
X3476627.0Y2578656.0D01*
X3485865.0Y2569420.0D01*
X3513574.0Y2560185.0D01*
X3596700.0Y2560185.0D01*
X3332540.0Y2754147.0D02*
G01*
X3406432.0Y2560185.0D01*
X3332540.0Y2754147.0D02*
G01*
X3258649.0Y2560185.0D01*
X3378723.0Y2624838.0D02*
G01*
X3286358.0Y2624838.0D01*
X3133036.0Y2754147.0D02*
G01*
X3133036.0Y2560185.0D01*
X3197689.0Y2754147.0D02*
G01*
X3068380.0Y2754147.0D01*
X3007421.0Y2643312.0D02*
G01*
X2841165.0Y2643312.0D01*
X3584000.0Y2754147.0D02*
G01*
X3584000.0Y2560185.0D01*
X3584000.0Y2754147.0D02*
G01*
X3500874.0Y2754147.0D01*
X3473165.0Y2744912.0D01*
X3463927.0Y2735676.0D01*
X3454692.0Y2717203.0D01*
X3454692.0Y2698729.0D01*
X3463927.0Y2680256.0D01*
X3473165.0Y2671020.0D01*
X3500874.0Y2661785.0D01*
X3584000.0Y2661785.0D02*
G01*
X3500874.0Y2661785.0D01*
X3473165.0Y2652547.0D01*
X3463927.0Y2643312.0D01*
X3454692.0Y2624838.0D01*
X3454692.0Y2597129.0D01*
X3463927.0Y2578656.0D01*
X3473165.0Y2569420.0D01*
X3500874.0Y2560185.0D01*
X3584000.0Y2560185.0D01*
X3319840.0Y2754147.0D02*
G01*
X3393732.0Y2560185.0D01*
X3319840.0Y2754147.0D02*
G01*
X3245949.0Y2560185.0D01*
X3366023.0Y2624838.0D02*
G01*
X3273658.0Y2624838.0D01*
X3120336.0Y2754147.0D02*
G01*
X3120336.0Y2560185.0D01*
X3184989.0Y2754147.0D02*
G01*
X3055680.0Y2754147.0D01*
X2994721.0Y2643312.0D02*
G01*
X2828465.0Y2643312.0D01*
G36*
X3585118.0Y3383287.0D02*
G01*
X3445113.0Y3333300.0D01*
X3585118.0Y3283313.0D01*
G37*
X7368600.0Y2422100.0D02*
G01*
X7622600.0Y2422100.0D01*
X7622600.0Y2676100.0D01*
X7368600.0Y2676100.0D01*
X7368600.0Y2485600.0D01*
D11*
X7368600.0Y2422100.0D02*
G01*
X7368600.0Y2485600.0D01*
D10*
X7368600.0Y4314400.0D02*
G01*
X7622600.0Y4314400.0D01*
X7622600.0Y4568400.0D01*
X7368600.0Y4568400.0D01*
X7368600.0Y4377900.0D01*
D11*
X7368600.0Y4314400.0D02*
G01*
X7368600.0Y4377900.0D01*
D10*
X2377500.0Y2420500.0D02*
G01*
X2631500.0Y2420500.0D01*
X2631500.0Y2674500.0D01*
X2377500.0Y2674500.0D01*
X2377500.0Y2484000.0D01*
D11*
X2377500.0Y2420500.0D02*
G01*
X2377500.0Y2484000.0D01*
D10*
X2377500.0Y4327100.0D02*
G01*
X2631500.0Y4327100.0D01*
X2631500.0Y4581100.0D01*
X2377500.0Y4581100.0D01*
X2377500.0Y4390600.0D01*
D11*
X2377500.0Y4327100.0D02*
G01*
X2377500.0Y4390600.0D01*
D12*
X3012704.0Y3406528.0D02*
G01*
X3012704.0Y3533274.0D01*
X2855224.0Y3533274.0D01*
X2855224.0Y3628270.0D01*
X3012600.0Y3206414.0D02*
G01*
X3012600.0Y3260186.0D01*
X2855102.0Y2838300.0D02*
G01*
X2855102.0Y2933301.0D01*
X3012600.0Y2933301.0D01*
X3012600.0Y3060187.0D01*
X2855102.0Y2838300.0D02*
G01*
X3276983.0Y2838300.0D01*
X3615100.0Y2993301.0D02*
G01*
X3615100.0Y3473300.0D01*
X2855102.0Y3628301.0D02*
G01*
X3276983.0Y3628301.0D01*
M02*
